<?xml version='1.0' encoding='utf-8'?>
<svg xmlns="http://www.w3.org/2000/svg" viewBox="0 0 35.136 32">
  <path d="M27.989,7.509l-.242.211c-.328-.364-.828-.628-1.143-1.261.642.024.961.693,1.385,1.05Z" fill="#ded9cd"/>
  <path d="M27.369,8.826c-.057.489.163.874.368,1.306,1.935,4.088,1.946,5.421,1.187,9.685-.465,2.612-1.427,4.928-3.356,6.797-.161.156-.238.39-.258.567l-.125.161c-.127-.018-.285-.036-.434.012-.119.038-.151.249-.068.389-1.103.814-2.361,1.402-3.668,1.811-.146-.414-.484-.133-.745-.117-3.17.203-6.232-.216-9.181-1.327-.434-.164-.796-.345-1.259-.212-2.177-1.434-3.923-3.454-4.93-5.867.164-.089.107-.323.039-.534-1.216-3.782-.819-7.718,1.289-11.069.187-.298.212-.624.335-.866l.097-.19c.357.017.575-.3.539-.653.087-.078.134-.303.284-.354.151.097.288-.057.186-.198.061-.135.24-.206.321-.292.388.032.578-.253.858-.501,1.773-1.566,3.95-2.486,6.298-2.831.067-.064.039-.204-.059-.254,4.601-.729,9.266,1.027,12.281,4.537ZM17.254,28.503c4.16-.005,7.803-2.193,9.785-5.452,2.164-3.558,2.229-7.861.234-11.483-1.953-3.545-5.715-5.812-9.792-5.896-4.37-.09-8.461,2.262-10.543,6.099-1.613,2.972-1.757,6.583-.487,9.662,1.812,4.393,5.986,7.075,10.803,7.069Z" fill="#c4c0a5"/>
  <path d="M9.761,2.117c-1.582,1.019-2.958,2.215-4.363,3.473-.958.857-1.956,1.584-2.77,2.53-.278-.515-.253-.909-.282-1.37,1.327-1.623,1.639-3.599,3.562-5.263,1.33-.397,2.714-.29,3.853.631Z" fill="#c4c0a5"/>
  <path d="M25.31,27.182c.021-.177.097-.411.258-.567,1.929-1.869,2.891-4.185,3.356-6.797.758-4.264.747-5.596-1.187-9.685-.205-.432-.424-.817-.368-1.306,4.752,5.531,3.8,14.039-2.059,18.355Z" fill="#b1a68d"/>
  <path d="M28.388,1.494c1.083.351,1.926.96,2.688,1.91-.423.003-.615.3-.617.683l-.017,2.865-4.76-4.07c-.232-.198-.554-.266-.537-.593.602-.021,1.157-.26,1.802-.413l1.441-.381Z" fill="#c4c0a5"/>
  <path d="M25.145,2.288c-.017.327.305.395.537.593l4.76,4.07.017-2.865c.002-.383.195-.679.617-.683,1.25,1.557,1.245,3.823.122,5.523l-7.218-6.34c.067-.299.354-.363.524-.501.155.203.403.211.64.203Z" fill="#b1a68d"/>
  <path d="M2.627,8.119c.815-.946,1.812-1.672,2.77-2.53,1.406-1.258,2.782-2.454,4.363-3.473.171.139.511.164.66.506-2.58,2.003-4.975,4.074-7.375,6.294-.398-.143-.313-.601-.419-.797Z" fill="#b1a68d"/>
  <path d="M21.015,29.553c-3.756,1.175-7.92.495-11.185-1.656.463-.132.825.049,1.259.212,2.949,1.111,6.011,1.531,9.181,1.327.261-.017.6-.297.745.117Z" fill="#b1a68d"/>
  <path d="M4.9,22.03c-1.74-4.172-1.119-8.917,1.663-12.469-.123.241-.148.568-.335.866-2.108,3.351-2.505,7.287-1.289,11.069.068.211.126.445-.039.534Z" fill="#ded9cd"/>
  <path d="M5.908,1.486c-1.924,1.664-2.235,3.64-3.562,5.263-.149-2.373,1.258-4.575,3.562-5.263Z" fill="#e8e8e0"/>
  <path d="M27.719,30.149c.163.257.05.505-.07.588-.379.262-1.576-1.133-2.033-2.116-.102-.22.454-.721.721-.661l1.383,2.189Z" fill="#b1a68d"/>
  <path d="M8.851,28.648c-.612.993-1.772,2.354-2.143,2.098-.114-.079-.162-.296-.051-.475l1.407-2.265c.279.079.737.36.787.643Z" fill="#b1a68d"/>
  <path d="M28.388,1.494l-1.441.381c-.644.153-1.2.392-1.802.413-.238.008-.485,0-.64-.203,1.16-.941,2.589-1.01,3.883-.591Z" fill="#e8e8e0"/>
  <path d="M18.476,2.184c-1.035-.093-2.029.198-3.051-.214,1.217-.524,3.475-.311,3.395.031-.027.117-.139.201-.344.183Z" fill="#c4c0a5"/>
  <path d="M15.088,4.289c.098.049.126.19.059.254-2.349.345-4.526,1.265-6.298,2.831-.281.248-.47.533-.858.501,1.878-2,4.417-3.161,7.097-3.586Z" fill="#ded9cd"/>
  <path d="M7.781,6.658c-.183.225-.423.275-.482.151-.11-.231.23-.576.482-.626.084-.017.182.037.187.155.004.095.032.247-.187.321Z" fill="#ded9cd"/>
  <path d="M6.66,9.372c.129-.253.337-.499.539-.653.036.353-.182.67-.539.653Z" fill="#ded9cd"/>
  <path d="M25.185,27.342c-.132.171-.348.286-.502.4-.084-.14-.051-.35.068-.389.149-.048.307-.03.434-.012Z" fill="#b1a68d"/>
  <path d="M3.38,1.66l.591-.4c.043.047.077.075.076.074-.124.181-.333.228-.5.332-.05.097-.135.087-.168-.005Z" fill="#b1a68d"/>
  <path d="M7.483,8.365c.065-.022.158-.136.186-.198.102.141-.035.295-.186.198Z" fill="#ded9cd"/>
  <path d="M21.844,26.654c-3.966,1.87-8.778,1.153-11.993-1.775-3.94-3.588-4.482-9.48-1.473-13.817,1.859-2.68,4.872-4.269,7.944-4.502,3.392-.257,6.676,1.019,8.915,3.57,2.252,2.566,3.173,5.934,2.391,9.342-.688,2.997-2.626,5.693-5.784,7.182ZM16.821,7.702c-1.538-.099-3.137.368-4.502,1.038-.093-.027-.208-.085-.279-.132-.158-.103-.364.02-.319.207.036.151.092.278.151.41-1.215.606-2.238,1.65-2.896,2.854-.13-.111-.643-.122-.633.088.028.321.4.387.494.512-.868.768-1.18,2.687-1.468,4.051-.103.097-.32.222-.321.391,0,.162.202.292.3.393.056,1.22.426,2.584.892,3.79l.399.405c.06.155.105.322.213.478.763,1.097,1.588,2.352,2.837,2.883l-.01.226c-.004.106.066.251.215.198l.237-.083c1.235,1.032,3.107,1.392,4.705,1.304.032.114.127.294.256.306.221.022.331-.211.41-.346,1.465-.025,3.216-.46,4.495-1.163.123.022.317.125.408.078.135-.07.127-.414.044-.553.573-.02.955-.448,1.348-.881.59-.649,1.291-1.182,1.547-1.979.116.014.229.003.332-.04.198-.084.077-.338.128-.465.486-1.218,1.215-2.768,1.191-4.138.055-.08.148-.195.166-.281.034-.159-.077-.304-.185-.399.08-.865-.13-1.758-.492-2.634l-.678-1.64c.088-.113.316-.515.113-.601-.206-.088-.542.058-.691.133-.276-1.118-1.658-2.285-2.731-3.019.055-.17.116-.349.043-.576-.363.05-.542.207-.685.377-1.319-.758-2.884-1.143-4.356-1.307-.057-.12-.15-.31-.259-.36-.121-.056-.325.011-.349.127l-.074.347Z" fill="#ded9cd"/>
  <path d="M21.859,8.894c-.206.244-.375.647-.067.901.418-.186.46-.537.708-.702,1.073.735,2.454,1.901,2.731,3.019-.261.13-.646.367-.552.775.472.073.773-.228,1.13-.306l.678,1.64c.362.876.572,1.768.492,2.634l-.998-.028c-.321-.013-.456.177-.413.416.03.164.177.284.421.282l1.009.009c.024,1.37-.705,2.921-1.191,4.138l-.99-.328c-.352.307.23.752.53.833-.257.797-.957,1.33-1.547,1.979-.394.433-.775.86-1.348.881-.188-.35-.482-.779-.931-.536.092.462.364.707.48,1.011-1.28.703-3.031,1.138-4.495,1.163-.021-.266.091-1.118-.36-1.181-.447-.063-.434.927-.306,1.221-1.598.087-3.47-.272-4.705-1.304.297-.362.546-.672.451-1.144-.535.091-.672.472-.893.803-1.249-.532-2.074-1.786-2.837-2.883.426-.08.873-.306.858-.836-.476-.047-.737.2-1.071.358l-.399-.405c-.466-1.206-.836-2.57-.892-3.79l.981-.065c.226-.012.389-.176.396-.332.008-.174-.156-.34-.388-.346l-.969-.042c.288-1.364.6-3.284,1.468-4.051.133.176.631.353.721.044s-.373-.557-.582-.644c.658-1.204,1.681-2.248,2.896-2.854.133.298.383.595.77.459-.031-.399-.226-.643-.324-.944,1.365-.669,2.964-1.136,4.502-1.038-.053.248-.044.524.015.846.045.246.219.33.397.301.115-.019.231-.11.236-.309l.034-.952c1.471.164,3.037.548,4.356,1.307ZM16.234,18.623c1.081.448,2.111.048,2.489-.755.472-1.004-.229-1.846-.929-2.421l-.124-4.722c-.01-.378-.093-.642-.415-.684-.294-.039-.572.142-.576.516l-.056,4.895c-.928.42-1.397,1.28-1.091,2.279l-2.979,2.314c-.248.192-.273.484-.126.661.156.188.451.27.7.096l3.107-2.18Z" fill="#fbf6f0"/>
  <path d="M7.349,17.514c-.098-.102-.3-.232-.3-.393,0-.169.217-.294.321-.391l.969.042c.232.006.395.172.388.346-.007.156-.169.319-.396.332l-.981.065Z" fill="#604336"/>
  <path d="M26.977,16.855c.109.095.22.24.185.399-.019.086-.111.201-.166.281l-1.009-.009c-.244.003-.392-.117-.421-.282-.043-.239.092-.429.413-.416l.998.028Z" fill="#604336"/>
  <path d="M17.503,7.588l-.034.952c-.005.199-.121.29-.236.309-.178.029-.352-.055-.397-.301-.059-.322-.068-.598-.015-.846l.074-.347c.025-.115.228-.183.349-.127.108.05.201.239.259.36Z" fill="#604336"/>
  <path d="M17.503,26.675c-.079.135-.189.368-.41.346-.129-.013-.224-.193-.256-.306-.128-.295-.141-1.284.306-1.221.452.063.34.915.36,1.181Z" fill="#604336"/>
  <path d="M22.45,25.037c.083.139.092.482-.044.553-.09.047-.285-.056-.408-.078-.116-.304-.388-.549-.48-1.011.449-.243.743.186.931.536Z" fill="#604336"/>
  <path d="M25.808,12.582c-.356.078-.658.379-1.13.306-.093-.407.292-.644.552-.775.149-.074.484-.221.691-.133.203.087-.025.488-.113.601Z" fill="#604336"/>
  <path d="M12.132,25.411l-.237.083c-.149.052-.219-.093-.215-.198l.01-.226c.221-.33.358-.711.893-.803.095.472-.154.782-.451,1.144Z" fill="#604336"/>
  <path d="M12.319,8.739c.098.3.292.545.324.944-.388.136-.637-.161-.77-.459-.059-.132-.115-.259-.151-.41-.045-.187.161-.309.319-.207.071.046.186.105.279.132Z" fill="#604336"/>
  <path d="M22.5,9.094c-.249.165-.291.516-.708.702-.308-.254-.139-.657.067-.901.143-.17.322-.327.685-.377.073.227.011.407-.043.576Z" fill="#604336"/>
  <path d="M8.976,12.079c.209.086.672.336.582.644s-.588.132-.721-.044c-.094-.125-.466-.191-.494-.512-.01-.21.502-.199.633-.088Z" fill="#5c3d2f"/>
  <path d="M25.806,21.673c-.051.127.07.381-.128.465-.103.043-.216.054-.332.04-.3-.081-.882-.526-.53-.833l.99.328Z" fill="#604336"/>
  <path d="M8.853,22.186c-.108-.156-.153-.323-.213-.478.334-.158.595-.404,1.071-.358.015.529-.432.755-.858.836Z" fill="#604336"/>
  <path d="M16.911,16.453c.352-.126.708.083.829.296.205.361.014.788-.239.915-.392.197-.842.079-.977-.25-.148-.362-.018-.816.386-.961Z" fill="#e5aca8"/>
  <path d="M2.238,20.651c-.018-.364-.292-.559-.54-.559-.141.001-.327.049-.449.388-.356.984.201,4.461,2.898,6.732.131.11.284.168.436.168.04,0,.079-.004.118-.012.154-.032.279-.126.343-.257.167-.341-.127-.685-.572-1.206-.782-.915-2.091-2.446-2.235-5.254Z" fill="#81614d"/>
  <path d="M31.722,10.881c-.152.025-.292.138-.366.294-.078.166-.07.351.021.505,1.221,2.071,1.015,3.881.892,4.962-.063.551-.1.883.063,1.085.067.083.162.134.275.145.016.002.034.003.052.003.147,0,.34-.065.51-.331.622-.973.569-4.066-.78-6.345-.147-.248-.39-.365-.666-.319Z" fill="#81614d"/>
  <path d="M.946,23.534c-.016-.052-.076-.175-.274-.202-.125-.017-.423.004-.535.177-.409.629.201,1.818.482,2.3.348.597,1.073,1.592,1.611,1.592.009,0,.017,0,.026,0,.166-.01.297-.108.369-.275.111-.259-.07-.526-.368-.968-.361-.534-.907-1.342-1.311-2.622Z" fill="#81614d"/>
  <path d="M34.135,11.976c-.175-.033-.391.109-.485.221-.111.132-.091.252-.07.311.415,1.146.398,2.112.386,2.752-.011.593-.019,1.061.429,1.105.017.002.035.003.052.003.247,0,.541-.178.648-.955.154-1.12-.139-3.29-.961-3.436Z" fill="#81614d"/>
  <path d="M30.404,9.826c.244.205.673.389,1.075.335.258-.034.47-.16.613-.364,1.648-2.356,1.476-5.473-.409-7.615.069-.654-.133-1.147-.648-1.59-.426-.367-1.011-.395-1.739-.087-2.143-.971-4.578-.52-6.23,1.163-.279.284-.41.562-.4.852.019.56.556,1.035,1.298,1.692.324.288.692.613,1.069.992.084.084.195.148.303.21.156.09.262.158.316.235-1.915-1.355-4.021-2.196-6.432-2.565.463-.123.724-.619.713-1.093-.014-.595-.37-1.05-.951-1.217-1.507-.434-4.055-.369-4.464.718-.12.319-.167.791-.003,1.129.087.178.225.301.4.356l.296.093c-1.841.221-3.701.88-5.763,2.034-.097.054-.183.131-.267.205-.146.129-.259.223-.394.243.109-.195.306-.316.512-.442.126-.077.246-.151.341-.236l1.513-1.332c.444-.391.69-1.043.297-1.531C9.905.09,7.272-.491,4.873.555c-.692-.229-1.221-.188-1.708.126-.476.309-.522.764-.559,1.131-.016.158-.031.307-.075.436-1.672,2.326-1.94,4.991-.715,7.134.136.239.421.652.793.741.532.126.897-.11,1.156-.33l2.702-2.296c-5.293,6.18-5.02,14.301.659,19.841l-1.618,2.777c-.215.722.076,1.417.741,1.771l.058.021c.728.149,1.333-.017,1.706-.466l1.76-2.119c2.447,1.467,5.164,2.141,8.096,2.003l2.342-.24c1.526-.385,3.008-.992,4.407-1.803.134.085.19.229.248.38.042.109.082.213.154.294l1.39,1.57c.295.333.693.475,1.08.475.336,0,.665-.108.91-.292.648-.486.801-1.267.39-1.987l-1.131-1.979c-.035-.061-.091-.123-.156-.193-.055-.06-.194-.212-.212-.277,1.373-1.363,2.43-2.888,3.141-4.532,2.136-4.935,1.336-10.477-2.066-14.632l2.038,1.717ZM10.129,2.576c-2.333,1.818-4.601,3.755-7.112,6.073-.061-.065-.086-.169-.114-.33-.019-.109-.036-.212-.085-.303-.214-.397-.229-.713-.245-1.079l-.011-.202c-.147-2.326,1.255-4.399,3.408-5.042.395-.118.864-.21,1.366-.21.736,0,1.542.198,2.289.802.076.062.165.102.251.141.097.044.185.084.253.15ZM24.449,2.378c.069-.04.135-.079.191-.125h0c.991-.805,2.298-1,3.68-.554,1.024.331,1.845.916,2.586,1.839,1.111,1.385,1.199,3.431.242,5.057l-6.907-6.067c.044-.054.112-.096.207-.15ZM27.54,30.553c-.263.024-1.265-1.029-1.721-1.989.014-.106.257-.324.403-.38l1.314,2.08h0c.103.164.011.28.004.289ZM16.256,1.955c.763-.136,1.606-.09,2.062.001-.318-.016-.631-.003-.937.009-.384.016-.756.032-1.125-.011ZM7.561,6.577c.016-.02.034-.039.052-.057h0c-.018.023-.035.041-.052.057ZM7.686,6.462c.024-.017.047-.031.07-.043,0,.006,0,.011,0,.012,0,0-.01.01-.044.022l-.027.009ZM6.757,9.66l.096-.19c.111-.218.294-.439.49-.589.062-.055.1-.125.136-.194.02-.037.057-.106.073-.117.152-.051.279-.237.314-.313.014-.032.082-.079.131-.112.052-.036.106-.073.151-.121,1.742-1.856,4.154-3.073,6.973-3.52,4.477-.713,9.108,1.001,12.084,4.464,2.231,2.596,3.287,6.054,2.897,9.487-.388,3.419-2.182,6.536-4.92,8.553l-.167.202c-.076.099-.201.183-.321.263-.049.033-.095.064-.138.095-1.017.75-2.229,1.349-3.604,1.778-3.62,1.131-7.734.523-11.002-1.63-2.204-1.452-3.881-3.447-4.849-5.77-1.707-4.091-1.081-8.786,1.657-12.287ZM8.612,28.622c-.701,1.108-1.581,1.939-1.78,1.947-.016-.015-.044-.1.008-.184l1.314-2.115c.196.089.388.236.458.353Z" fill="#81614d"/>
  <path d="M17.237,28.719h.018c4.068-.005,7.888-2.134,9.97-5.556,2.197-3.61,2.286-7.984.238-11.699-1.994-3.62-5.817-5.922-9.976-6.008-4.47-.093-8.608,2.288-10.738,6.212-1.622,2.989-1.807,6.67-.496,9.848,1.833,4.444,6.041,7.203,10.985,7.203ZM8.556,11.186c1.752-2.525,4.661-4.174,7.783-4.41.284-.022.567-.033.848-.033,3.058,0,5.896,1.26,7.887,3.529,2.238,2.55,3.092,5.885,2.343,9.151-.724,3.156-2.736,5.654-5.665,7.035-3.881,1.829-8.605,1.131-11.755-1.739-3.784-3.445-4.404-9.263-1.441-13.534Z" fill="#81614d"/>
  <path d="M12.833,21.115c.138,0,.282-.041.418-.136l3.012-2.113c1.091.398,2.219.02,2.655-.906.411-.873.104-1.753-.911-2.616l-.122-4.624c-.006-.223-.022-.815-.604-.893-.215-.027-.425.031-.577.163-.155.134-.241.335-.244.566l-.054,4.761c-.925.476-1.354,1.369-1.123,2.333l-2.865,2.226c-.169.131-.275.311-.296.504-.019.172.03.337.136.466.131.159.344.271.573.271ZM16.726,16.894c.035-.079.109-.185.257-.238.251-.09.5.079.568.199.084.147.059.291.037.364-.034.113-.106.211-.185.25-.158.079-.338.095-.482.041-.067-.025-.156-.076-.198-.179-.058-.142-.057-.305.002-.438Z" fill="#81614d"/>
</svg>
