<?xml version='1.0' encoding='utf-8'?>
<svg xmlns="http://www.w3.org/2000/svg" viewBox="0 0 30.657 32">
  <path d="M30.636,21.257c-.072-.45-.328-.772-.741-.932l-3.501-1.354c-.921-.357-1.688.035-2.277,1.162-1.968,3.759-5.899,5.777-9.783,5.024-2.712-.526-5.123-2.458-6.45-5.165-1.437-2.93-1.412-6.088.071-8.892,1.094-2.069,3.05-3.601,5.367-4.203,2.038-.531,4.091-.263,5.82.752-1.079,1.056-2.138,2.142-1.525,3.103.211.33.622.586,1.048.651l5.214.794,3.91.441c.428.047.872-.102,1.193-.4.311-.29.473-.687.456-1.118-.123-3.012-.569-6.059-1.365-9.316-.151-.618-.664-1.035-1.092-1.128-.537-.116-1.039.033-1.452.431l-1.677,1.613C20.787.726,17.768-.155,14.619.022,8.004.398,2.219,5.09.55,11.434c-1.146,4.354-.487,8.878,1.854,12.737,2.322,3.827,5.988,6.476,10.324,7.459,1.092.248,2.198.369,3.303.369,3.614,0,7.213-1.302,10.229-3.763,1.933-1.578,4.665-5.166,4.376-6.98ZM20.899,8.309c.194-.213.412-.507.372-.898-.029-.288-.244-.585-.636-.883-1.188-.902-4.271-1.906-6.972-1.443-1.012.173-2.061.532-2.955,1.012-4.292,2.303-6.432,7.34-5.204,12.25.955,3.819,3.402,6.646,6.89,7.96,4.509,1.698,9.668-.026,12.549-4.194.151-.218.257-.466.359-.705.13-.303.263-.615.493-.878l3.224,1.206c-.966,2.288-2.481,4.183-4.624,5.786-1.963,1.468-4.307,2.38-6.966,2.711-1.983.247-3.646.105-5.083-.432l-2.353-.879C4.512,26.088,1.256,20.423,1.697,14.49c.344-4.63,3.058-8.787,7.258-11.12,2.385-1.324,4.923-1.88,7.544-1.651,2.575.225,4.943,1.194,7.241,2.964l.123.095.143-.061c.435-.185.803-.455,1.157-.849.109-.121.214-.243.318-.364.31-.361.606-.706,1.028-1.043.731,2.484.977,5.043,1.236,7.745l.079.814-2.685-.319-5.689-.803,1.449-1.587Z" fill="#80633e"/>
  <path d="M10.834,6.33c-4.291,2.303-6.253,7.227-5.072,11.951.897,3.586,3.224,6.457,6.726,7.776-.118.808-.359,2.151-1.266,2.488-.477.177-1.268-.057-1.35.615C4.429,26.344.969,20.701,1.432,14.47c.36-4.842,3.243-9.027,7.394-11.333.057.898,1.347,1.012,1.547,1.659l.461,1.533Z" fill="#f4c97e"/>
  <path d="M24.967,3.69c1.274,2.352,2.108,5.588.136,7.273l-6.188-.874,1.788-1.959c.202-.221.331-.432.304-.692-.104-1.02-4.041-2.649-7.299-2.092l.615-1.872,1.602-1.268c.263-.208.683-.285.598-.752,2.762.241,5.176,1.321,7.38,3.017.45-.192.782-.468,1.064-.782Z" fill="#f4c97e"/>
  <path d="M24.555,27.735c-2.066,1.545-4.482,2.437-7.092,2.762-.244-.465-.433-1.357-1.051-1.619-.577-.244-1.693.079-2.159.422-1.199.883-1.438-.25-2,.75l-2.382-.891c.082-.671.873-.438,1.35-.615.908-.337,1.149-1.68,1.266-2.488,4.55,1.714,9.528-.179,12.237-4.096.716-.159,1.871.299,1.922,1.187.041.711-.054,1.659-.342,2.262-.474.995-2.578,1.338-1.751,2.324Z" fill="#f7e0b9"/>
  <path d="M16.523,1.454c.086.467-.334.543-.598.752l-1.602,1.268-.615,1.872c-.951.163-1.988.509-2.874.984l-.461-1.533c-.2-.647-1.491-.761-1.547-1.659,2.397-1.331,4.951-1.923,7.697-1.683Z" fill="#f7e0b9"/>
  <path d="M25.103,10.962c1.972-1.685,1.138-4.921-.136-7.273.509-.566.904-1.126,1.687-1.667.938,2.981,1.152,6.135,1.468,9.299l-3.019-.359Z" fill="#f7e0b9"/>
  <path d="M24.555,27.735c-.827-.987,1.277-1.33,1.751-2.324.287-.603.383-1.551.342-2.262-.051-.888-1.206-1.346-1.922-1.187.35-.506.443-1.215,1-1.741l3.644,1.364c-1.033,2.584-2.69,4.562-4.815,6.151Z" fill="#f4c97e"/>
  <path d="M17.463,30.497c-1.817.226-3.575.165-5.209-.447.562-1,.801.133,2-.75.465-.343,1.582-.666,2.159-.422.618.262.807,1.154,1.051,1.619Z" fill="#f4c97e"/>
</svg>
