<?xml version='1.0' encoding='utf-8'?>
<svg xmlns="http://www.w3.org/2000/svg" viewBox="0 0 58.262 32">
  <path d="M57.042,13.306c-2.231-2.097-4.611-3.978-6.912-5.798-.726-.574-1.455-1.151-2.185-1.738-1.403-1.127-7.098-4.883-7.915-5.219-.076-.031-.148-.085-.226-.137-.273-.182-.681-.454-1.221-.403-.858-.07-1.56.171-2.09.7-1.397,1.395-1.154,4.53-.868,7.62l-23.54-.205c-3.038-.031-5.907-.06-8.849.278-1.651.19-2.689,1.275-2.925,3.058-.466,3.527-.406,6.919.18,10.082.262,1.412,1.898,2.446,3.206,2.446h.043l21.365-.348,11.003-.349-.263,5.673c-.026.574.011,1.97.924,2.532.412.254,1.089.501,1.773.501.403,0,.808-.086,1.162-.306,6.983-4.334,12.725-8.755,17.555-13.515.667-.658,1.015-1.456,1.004-2.308-.011-.927-.444-1.838-1.219-2.565ZM38.743,20.504c-.289-.311-.671-.475-1.105-.475h-.039l-34.003.766c-.229-3.046-.297-5.787-.216-8.573.009-.331.263-.794.399-.799,3.69-.149,7.403-.041,10.993.061,2.174.063,4.358.124,6.572.136l15.472.077c.718.055,1.243-.197,1.609-.6.717-.787.593-2.055.422-3.81-.109-1.103-.239-2.432-.163-3.866.217.161.451.247.647.319.095.035.24.088.277.12l.823.758.175.115c2.459,1.13,12.749,9.59,14.102,10.96-.416,1.069-4.229,4.367-7.466,6.668l-8.211,5.838c.042-.535.095-1.09.148-1.637.261-2.717.487-5.065-.437-6.06Z" fill="#825e4e"/>
  <path d="M38.992,2.805c.291.294.795.31,1.071.564l.823.758c2.647,1.216,14.449,10.89,14.523,11.374.199,1.307-5.409,5.723-7.778,7.408l-9.34,6.641c.067-3.446,1.318-8.896-.677-8.851l-34.636.78c-.261-3.223-.358-6.168-.268-9.276.014-.501.377-1.423,1.042-1.449,5.905-.233,11.641.168,17.596.198l15.472.077c2.769.014.721-3.702,1.271-8.551l.9.327Z" fill="#abaa85"/>
</svg>
