<?xml version='1.0' encoding='utf-8'?>
<svg xmlns="http://www.w3.org/2000/svg" viewBox="0 0 40.868 32">
  <path d="M19.181,22.89l-15.43.957c-2.102.049-3.34-1.334-3.493-3.239C-.003,17.376-.218,14.245.409,11.054c.259-1.318,1.155-2.077,2.499-2.177,3.645-.27,7.137-.241,10.858-.199l4.982.091c-.442-4.593-1.008-9.503,2.676-8.678,1.348.519,2.584,1.167,3.793,2.03,4.973,3.548,9.759,7.191,14.286,11.282.712.643,1.3,1.317,1.356,2.09.073,1-.299,1.813-1.079,2.559-5.523,5.288-11.614,9.858-18.133,13.784-.622.375-1.692.02-2.113-.239-.477-.293-.738-1.125-.702-1.837l.349-6.871ZM19.874,20.871c2.364-.058.886,5.313.96,9.038,6.654-4.195,12.111-8.243,17.607-13.501.401-.384.403-.98-.029-1.345-4.631-3.908-9.27-7.6-14.232-11.076-1.152-.807-2.217-1.496-3.594-2.062-.688,3.982,1.293,8.853-1.131,8.844l1.24.108c-5.838-.022-11.445-.361-17.267-.218-.741-.011-1.192.445-1.246,1.169-.251,3.372-.149,6.718.301,10.089l17.391-1.046Z" fill="#785847"/>
  <path d="M19.874,20.871l-17.391,1.046c-.45-3.372-.552-6.718-.301-10.089.054-.724.505-1.179,1.246-1.169,5.822-.144,11.429.195,17.267.218l-1.24-.108c2.424.009.443-4.862,1.131-8.844,1.377.566,2.441,1.255,3.594,2.062,4.963,3.476,9.601,7.168,14.232,11.076.432.364.43.961.029,1.345-5.497,5.258-10.953,9.307-17.607,13.501-.074-3.725,1.404-9.096-.96-9.038Z" fill="#b0b48e"/>
</svg>
