<?xml version='1.0' encoding='utf-8'?>
<svg xmlns="http://www.w3.org/2000/svg" viewBox="0 0 30.628 32">
  <path d="M30.179,14.948c-.273-.258-.632-.378-1.003-.379l-2.747.109c-.526.021-1.164.291-1.215,1.457-.146,3.354-1.41,6.206-3.558,8.031-3.256,2.766-7.883,2.985-11.14.571l1.052-1.162c.336-.373.449-.904.294-1.385-.118-.369-.539-.708-1.025-.824l-7.179-1.731c-.434-.108-.912.016-1.248.317-.244.219-.49.668-.456,1.137l.58,7.842c.029.389.253.703.614.864.43.191,1.004.141,1.337-.116l1.606-1.243c2.626,2.32,5.958,3.567,9.5,3.567.333,0,.668-.011,1.004-.033,4.031-.266,7.804-2.167,10.35-5.216,2.432-2.912,3.739-6.737,3.68-10.769-.006-.398-.165-.766-.447-1.033ZM8.607,24.056c-.199.183-.305.409-.305.651,0,.264.125.527.355.741,2.65,2.468,6.378,3.317,9.975,2.277,4.687-1.358,7.783-5.434,8.282-10.903.02-.215.048-.322.067-.374l1.939-.119c-.16,7.842-5.77,13.793-13.178,13.901-3.522.037-6.606-1.162-8.916-3.51-.202-.206-.461-.31-.723-.31-.237,0-.476.085-.679.257l-1.276,1.076c-.018-.193-.043-.434-.074-.742-.119-1.161-.281-2.752-.299-3.614l-.04-1.962,6.109,1.494-1.237,1.136Z" fill="#734f42"/>
  <path d="M5.305,15.924c.003-4.726,2.991-8.736,7.436-9.978,2.817-.789,5.678-.273,7.927,1.412l-1.543,1.628c-.33.349-.263.88-.049,1.252.113.194.325.297.513.387.072.035.192.093.22.122l.073.089,7.072,1.619c.421.1,1.019.16,1.486-.123.563-.342.529-1.223.506-1.485l-.675-7.434c-.046-.509-.421-.933-.767-1.09-.435-.198-.98-.116-1.358.203l-1.315,1.111C22.111,1.168,18.655-.07,14.827.003,10.668.101,6.819,1.866,3.992,4.974,1.186,8.058-.256,12.195.037,16.324c.044.628.593.861.887.985l.184.082,2.824-.042c.834-.004,1.372-.564,1.372-1.426ZM1.779,13.523C2.726,7.327,7.498,2.624,13.613,1.823l2.615-.004.11-.038c1.956.178,3.762.75,5.368,1.703.986.586,1.789,1.321,2.777,2.225l.208.191,1.999-1.539.538,6.422-5.978-1.497c.007-.005.013-.011.019-.017l1.206-1.098c.212-.194.329-.45.33-.724.001-.285-.121-.554-.343-.76-3.146-2.922-7.733-3.658-11.688-1.876-4.307,1.94-7.019,6.034-7.136,10.734l-.168.012c-.626.049-1.18.091-1.687.041l-.005-2.075Z" fill="#734f42"/>
  <path d="M4.134,28.195c-.401-.792-.09-1.725-.199-2.596-.112-.896-.194-1.653-.201-2.561-.005-.674-.323-1.351-.101-1.985l.406.105c.03.452.616.328.947.454,1.601.611,3.528,1.103,5.075,1.015.135.033.394.033.402.181l-1.628,1.496c-.305.28-.23.637.051.899,2.623,2.443,6.211,3.197,9.653,2.2-.091.104-.001.193.103.174,5.297-.962,8.337-6.338,8.236-11.458l2.383-.147c.005,7.897-5.447,14.478-13.513,14.596-3.479.051-6.725-1.136-9.16-3.61-.272-.277-.666-.269-.946-.032l-1.507,1.271Z" fill="#e5aca8"/>
  <path d="M18.538,27.402c4.852-1.406,7.584-5.595,8.04-10.611.02-.221.072-.66.299-.674.101,5.12-2.939,10.496-8.236,11.458-.104.019-.194-.07-.103-.174Z" fill="#ded9cd"/>
  <path d="M10.061,22.627c-1.547.088-3.474-.404-5.075-1.015-.332-.126-.917-.002-.947-.454l6.022,1.469Z" fill="#ded9cd"/>
  <path d="M4.134,28.195c-.093.078-.13.183-.283.127.053.019-.382-3.479-.412-4.928l-.044-2.154c-.003-.165.121-.218.239-.188-.222.635.095,1.312.101,1.985.007.908.09,1.665.201,2.561.109.871-.203,1.804.199,2.596Z" fill="#ded9cd"/>
  <path d="M21.878,3.196c1.038.616,1.879,1.394,2.832,2.266l1.955-1.506c.093-.028.307.023.345.047l.045.949c-.024-.103-.346-.083-.352-.009-.143,1.723-.207,3.418-.672,5.178l-4.235-.757c-.324-.058-.638-.045-.752-.343l1.206-1.098c.302-.275.291-.706-.015-.99-3.077-2.858-7.498-3.539-11.321-1.816-4.275,1.927-6.94,5.966-6.942,10.741-.954.066-1.774.168-2.522.034.469-3.835,1.082-6.931,3.899-9.598,1.292-1.223,2.618-2.238,4.134-3.154,1.472-.889,3.063-1.197,4.766-1.411l1.94-.244c.045-.006.103-.045.179-.038-.142.149-.084.279.107.308,1.506.229,2.935.532,4.295,1.181.372.178.659.394,1.107.26Z" fill="#c4c0a5"/>
  <path d="M16.189,1.485l-1.94.244c-1.704.214-3.295.522-4.766,1.411-1.516.916-2.843,1.93-4.134,3.154-2.817,2.668-3.43,5.764-3.899,9.598l-.002-2.42C2.411,7.16,7.287,2.312,13.613,1.486h2.576Z" fill="#e8e8e0"/>
  <path d="M27.055,4.952l.549,6.272-6.971-1.747c.029-.306.293-.35.409-.456.114.298.428.285.752.343l4.235.757c.465-1.76.529-3.454.672-5.178.006-.074.329-.094.352.009Z" fill="#b1a68d"/>
  <path d="M21.878,3.196c-.449.135-.735-.082-1.107-.26-1.36-.649-2.789-.952-4.295-1.181-.191-.029-.249-.159-.107-.308,1.971.178,3.834.755,5.51,1.749Z" fill="#ded9cd"/>
  <path d="M27.01,4.003c-.038-.024-.252-.075-.345-.047-.048-.117.091-.23.256-.164.067.027.126.091.09.21Z" fill="#b1a68d"/>
</svg>
