<?xml version='1.0' encoding='utf-8'?>
<svg xmlns="http://www.w3.org/2000/svg" viewBox="0 0 38.319 32">
  <path d="M3.755,30.795c-.415.047-.779.056-1.179-.046.112-.25.434-.208.69-.195l.429.022c.074.004.134.094.059.218Z" fill="#876d5a"/>
  <path d="M2.224,30.76c-.286.129-.459-.067-.708-.166.275-.069.643-.12.708.166Z" fill="#876d5a"/>
  <path d="M36.58,30.71c-.088.113-.162.063-.268.035-.019-.211.242-.283.268-.035Z" fill="#876d5a"/>
  <path d="M37.11,30.459l-.278.135c.076-.129.189-.176.278-.135Z" fill="#876d5a"/>
  <path d="M18.423,5.382c-.58-.203-.888-.767-1.77-.438l-2.058.767c-.952.822-2.338.969-2.351,1.535-1.826-.265-4.974-.116-4.727,1.034.069.32.395.518.795.457l1.793-.275-.127,1.637c-.048.431.047.794-.051,1.244-.069.317.16.706.242.996-1.481.038-2.875.093-2.561,1.047.347,1.055,2.168-.233,5.207.496-.375,1.022-1.86,1.409-2.937,2.618-.313.351-.617.68-.504,1.166l-.96.202c-.429.09-.679.349-.644.745.026.298.352.64.778.546,4.255-.935,6.805,1.394,7.231.212.115-.32-.034-.735-.443-.875l-1.464-.503c.045-.404.471-.329.688-.409l1.461-.535c.438-.16.821-.193,1.316-.242.356-.036.721-.301,1.086-.149l.021,1.312-.021.632c-.965.356-1.465,1.217-1.787,2.219-.187.582-.315,1.129.201,1.646.392.393,1.028.61,1.58.666l.025.52-.094,2.793c-.996-.538-1.945-.93-2.994-1.267.195-.5-.5-.489-.695-.688-.876-1.009-2.037-1.533-3.393-1.117-.253.078-.558-.125-.79-.12l-1.987.045c-.549.012-.837.626-1.259.888-.339.211-.692.275-.624.772l-1.944.508-.016-3.769.022-18.717c4.594-1.887,9.647-1.824,13.747.817l.005,1.586Z" fill="#fdfaf9"/>
  <path d="M33.683,10.974l.008,2.752-.006,9.925-.04,1.76c-2.249-.833-4.53-1.046-6.891-.886.083-.41-.381-.456-.616-.654-.488-.41-.92-.731-1.582-.539-.442.128-.827.622-.973,1.193l-.461.649-1.149.399c.046-.791,1.307-.404,1.202-1.452.312-.841.792-1.577,1.457-2.168.423-.83,1.428-.811,1.381-2.109-.012-.32-.144-.553-.397-.703,3.08-.784,4.924.425,5.151-.676.082-.395-.192-.688-.684-.786-2.227-.445-4.464-.046-6.636.626-.301.093-.549.221-.633.473-.101.302.024.594.214.81l-2.204,1.783c-.312.253-.587.593-1.001.489l-.003-3.734.003-1.189c.471.116,1.062.101,1.358-.372.462-.738,1.111-1.159,1.955-1.424,1.454-.458,3.869-.833,4.871-.013.589.482,1.24.645,2.019.415,1.385-.408,2.016-.948,2.345-2.215l.353-1.36c.13-.502.417-.971.959-.996Z" fill="#fdf7f4"/>
  <path d="M30.973,2.108l-.579,1.159c-.438.948-1.065,1.258-2.041,1.397-1.109.159-1.637,1.543-2.19,2.509l-2.844.67c-.392.092-.558.481-.475.773.106.371.429.591.832.49l1.381-.344.239.967c.227,1.16,2.181,1.733,3.698,1.633l1.556-.637c.469-.004.741-.033,1.144-.348l.936-.321c.377-.129.677-.336,1.052-.234v1.15c-.541.026-.828.494-.958.996l-.353,1.36c-.329,1.267-.96,1.807-2.345,2.215-.779.23-1.43.067-2.019-.415-1.001-.82-3.416-.445-4.871.013-.843.266-1.493.687-1.955,1.424-.296.473-.887.487-1.358.372l-.009-3.005.016-.849c.162.064.34.017.445-.079.331-.303.071-.978.271-1.197.877-.963,1.034-2.115.874-3.378-.081-.638-.127-1.35-.871-1.62l-.714-.054.039-2.954c.349-.317.734-.459,1.123-.666-.327,1.549,2.63,2.303,4.256,1.732.718-.252,1.251-1.956,1.868-2.387.334-.234.779-.376,1.004-.783.991.05,1.886.186,2.847.407ZM26.724,13.632c1.948-.43,3.752.684,4.004-.364.064-.267-.096-.666-.471-.77-2.223-.613-4.566-.114-6.809.511-.438.122-.635.422-.545.825.067.296.393.554.789.466l3.032-.669Z" fill="#fff"/>
  <path d="M18.423,5.382l.004,4.689c-.749.039-.53.896-1.171,1.016-.583.11-.794.588-.818,1.127-.056,1.3.741,1.933,1.981,2.134l.025.357-.021,1.95c-.364-.152-.73.114-1.086.149-.495.049-.878.082-1.316.242l-1.461.535c-.217.079-.643.005-.688.409-1.446-.497-3.002-.442-4.497-.327-.113-.486.191-.815.504-1.166,1.077-1.209,2.563-1.596,2.937-2.618l2.114.507c.355.085.656-.098.786-.387.109-.242.032-.7-.351-.843-1.655-.619-3.411-.866-5.195-.82-.082-.29-.311-.678-.242-.996.098-.45.003-.813.051-1.244l.127-1.637c3.185-.187,5.205,1.414,5.64.411.122-.282,0-.721-.384-.865-1.007-.375-2.053-.607-3.118-.762.013-.566,1.399-.713,2.351-1.535l2.058-.767c.881-.328,1.19.235,1.77.438Z" fill="#fff"/>
  <path d="M36.609,27.123l.002,1.759c0,.304-.253.474-.54.474l-1.663-.002h-9.426s-3.629.016-3.629.016c-1.248,1.321-3.19,1.203-4.497-.012l-2.981-.012-7.498.013-3.366.006-.121-.707c.152-.436,1.009-.569.84-1.067,1.095.258,2.163.053,3.315-.105,1.945-.266,3.874-.245,5.768-.161l4.466.198c.323.014.743.325,1.048.494.599.332,1.028.156,1.573.103l2.547-.247c1.88-.31,3.718-.883,5.635-.701l3.802.361c1.278.121,2.996.91,3.8-.335l.925-.075Z" fill="#c5cfcd"/>
  <path d="M33.683,9.824c-.374-.102-.675.105-1.052.234l-.936.321c-.403.315-.675.344-1.144.348l-1.556.637c-1.517.099-3.471-.473-3.698-1.633l-.239-.967c1.651-.412,3.29-.555,4.953-.117.382.101.747-.19.791-.489.176-1.21-2.868-1.231-4.639-.983.553-.965,1.081-2.35,2.19-2.509.977-.14,1.604-.449,2.041-1.397l.579-1.159c.943.217,1.833.469,2.729.897l-.02,6.819Z" fill="#fdf7f4"/>
  <path d="M36.631,23.352l-.008,3.598-.014.173-.925.075c.005-.422-.191-.823-.636-.932l.002-2.683-.014-10.064.027-7.203c.554.061,1.032.164,1.582.397l-.013,16.64Z" fill="#d2ded5"/>
  <path d="M3.306,21.631l-.937.159-.721-.133.008-14.961c.585-.232,1.056-.363,1.657-.409l-.007,15.344Z" fill="#c5cfcd"/>
  <path d="M28.127,1.701c-.225.407-.67.549-1.004.783-.617.431-1.15,2.136-1.868,2.387-1.625.57-4.583-.183-4.256-1.732,2.169-1.155,4.659-1.562,7.128-1.438Z" fill="#fdf7f4"/>
  <path d="M3.306,21.631l-.015.277c-.113-.019-.188.074-.153.193.027.092.07.134.15.201.064.053.087.206.086.293l-.067,3.188c-.242.077-.109.422-.147.616-.06.307-.228.608-.035.858.115.15.381.279.606.332.169.499-.688.631-.84,1.067l.121.707-.618-.016c-.414-.011-.743-.33-.743-.749l-.002-6.942.721.133.937-.159Z" fill="#d2ded5"/>
  <path d="M19.831,13.086l.006-6.327.714.054c.743.27.79.981.871,1.62.16,1.263.003,2.415-.874,3.378-.2.22.06.894-.271,1.197-.104.096-.283.143-.445.079Z" fill="#fdf7f4"/>
  <path d="M18.428,10.071l-.008,4.277c-1.24-.201-2.037-.834-1.981-2.134.023-.539.234-1.018.818-1.127.641-.12.422-.977,1.171-1.016Z" fill="#fdf7f4"/>
  <path d="M3.288,22.302c-.08-.066-.123-.108-.15-.201-.035-.12.04-.212.153-.193l-.003.394Z" fill="#c5cfcd"/>
  <path d="M10.171,12.338c1.784-.046,3.54.202,5.195.82.382.143.459.601.351.843-.13.289-.43.472-.786.387l-2.114-.507c-3.039-.729-4.861.559-5.207-.496-.313-.954,1.08-1.009,2.561-1.047Z" fill="#dccfc7"/>
  <path d="M12.245,7.245c1.066.155,2.112.387,3.118.762.384.143.507.582.384.865-.435,1.003-2.456-.598-5.64-.411l-1.793.275c-.4.062-.727-.137-.795-.457-.247-1.151,2.901-1.299,4.727-1.034Z" fill="#dccfc7"/>
  <path d="M13.873,17.992l1.464.503c.409.14.558.555.443.875-.425,1.182-2.976-1.147-7.231-.212-.426.094-.752-.248-.778-.546-.034-.396.215-.655.644-.745l.96-.202c1.495-.115,3.052-.17,4.497.327Z" fill="#dccfc7"/>
  <path d="M15.357,25.178c-2.859-.918-5.829-.818-8.748-.221-.068-.498.285-.561.624-.772.421-.262.71-.876,1.259-.888l1.987-.045c.233-.005.537.197.79.12,1.356-.416,2.517.108,3.393,1.117.195.199.89.189.695.688Z" fill="#faeee6"/>
  <path d="M18.424,18.6l-.005,4.531c-.553-.057-1.188-.273-1.58-.666-.516-.517-.388-1.064-.201-1.646.322-1.002.822-1.863,1.787-2.219Z" fill="#faeee6"/>
  <path d="M25.617,19.143c.253.15.386.383.397.703.048,1.299-.957,1.279-1.381,2.109-.665.591-1.145,1.326-1.457,2.168.105,1.048-1.156.661-1.202,1.452l-2.149.807-.009-3.348.008-1.171c.414.104.688-.236,1.001-.489l2.204-1.783c.233.077.508.081.791.01l1.798-.457Z" fill="#fff"/>
  <path d="M25.617,19.143l-1.798.457c-.282.072-.557.068-.791-.01-.19-.217-.315-.509-.214-.81.084-.252.332-.38.633-.473,2.172-.672,4.409-1.072,6.636-.626.492.098.766.391.684.786-.228,1.101-2.071-.107-5.151.676Z" fill="#dccfc7"/>
  <path d="M26.755,24.525c-1.259.085-2.462.242-3.632.649l.461-.649c.146-.571.53-1.065.973-1.193.663-.192,1.094.129,1.582.539.236.198.699.244.616.654Z" fill="#faeee6"/>
  <path d="M25.058,8.762l-1.381.344c-.403.1-.726-.12-.832-.49-.084-.292.083-.68.475-.773l2.844-.67c1.771-.249,4.815-.227,4.639.983-.044.299-.409.59-.791.489-1.663-.439-3.302-.295-4.953.117Z" fill="#dccfc7"/>
  <path d="M26.724,13.632l-3.032.669c-.396.087-.723-.17-.789-.466-.091-.403.107-.702.545-.825,2.243-.626,4.586-1.124,6.809-.511.375.103.535.503.471.77-.251,1.048-2.056-.066-4.004.364Z" fill="#dccfc7"/>
  <path d="M35.048,26.265c.445.109.641.51.636.932-.803,1.244-2.522.456-3.8.335l-3.802-.361c-1.917-.182-3.755.391-5.635.701l-2.547.247c3.393-1.995,7.452-2.668,11.345-1.916l2.658.728c.244.067.615.025.815-.102.153-.097.33-.33.33-.564Z" fill="#faeee6"/>
  <path d="M13.617,26.201c-.177.511-.714.597-.804,1.123-1.894-.084-3.823-.105-5.768.161-1.152.158-2.22.363-3.315.105-.225-.053-.491-.183-.606-.332-.193-.25-.025-.551.035-.858.038-.194-.095-.539.147-.616-.006.293-.01.665.146.981.197.401.707.475,1.122.314,2.916-1.126,6.055-1.519,9.043-.878Z" fill="#faeee6"/>
  <path d="M17.279,27.522l-4.466-.198c.09-.526.626-.612.804-1.123,1.269.272,2.524.618,3.662,1.321Z" fill="#fdf7f4"/>
  <path d="M38.294,6.944c0-.944-.572-1.765-1.36-1.952l-1.6-.379-.007-1.583c-.003-.529-.269-1.219-.849-1.487-4.91-2.274-10.896-1.996-15.305.695C14.915-.355,9.7-.708,4.467,1.249c-.914.342-1.407.969-1.425,1.815l-.034,1.559-1.597.383C.584,5.203.007,6.002.006,6.95L0,28.735c0,.956.541,1.766,1.415,2.114l.082.032.085-.021c.285-.068.37-.04.375-.037l.061.332.306-.139c.035-.01.14-.014.187,0l.222.054.093-.208c.026-.057.236-.046.426-.033l.16.007-.175.293.549-.062c.172-.018.342-.012.498-.005.095.003.187.004.27.005l11.779-.062c.78.629,1.874.996,2.951.996.976,0,1.937-.301,2.636-.983l11.914.033,2.481-.032.026.436.418-.543c.02-.011.045-.017.069-.025.046-.016.09-.031.125-.048l.093-.062.021-.036.044.021.118-.058c.652-.315,1.05-.995,1.067-1.82l.022-1.121-.025-20.819ZM36.337,28.882c0,.19-.222.2-.267.2l-11.09-.002-3.746.018-.08.084c-1.089,1.152-2.857,1.142-4.113-.025l-.078-.073-3.089-.012-10.855.018-.619-.017c-.271-.006-.476-.212-.477-.476l-.002-6.941.009-14.774c.41-.154.75-.244,1.11-.293l-.007,15.025-.019.684-.032.094.099.082c.007.016.019.072.019.114l-.067,3.187c-.006.289-.014.723.174,1.108.275.56.946.65,1.466.449,3.019-1.166,6.092-1.466,8.888-.867,1.189.255,2.445.589,3.575,1.287l.06.037.071.003c.178.007.461.181.688.318.084.051.166.1.24.142.556.308.993.243,1.417.178.102-.016.206-.031.315-.042l.112-.036c3.333-1.961,7.294-2.631,11.135-1.889l2.658.729c.326.088.771.031,1.034-.136.227-.144.456-.464.456-.795l.002-2.683-.014-10.062.026-6.893c.382.058.705.142,1.036.269l-.02,20.031-.015.196.002,1.76ZM18.171,14.702l-.021,1.958.021,1.299-.026,5.186.025.497-.079,2.358c-.843-.428-1.696-.777-2.651-1.084-1.438-.462-2.961-.691-4.602-.691-1.349,0-2.776.155-4.299.467l-1.603.419-.014-3.415.022-18.532c4.655-1.859,9.446-1.574,13.201.782l.009,6.125-.007,4.297.024.334ZM33.418,13.727l-.006,9.918-.031,1.382c-2.016-.687-4.195-.941-6.644-.774-1.102.075-2.404.212-3.703.662l-2.935,1.072-.009-2.952.008-1.173-.003-3.732.003-1.19-.009-2.998.022-7.178.037-2.829c.212-.17.442-.284.685-.404.098-.048.196-.096.294-.149,1.973-1.05,4.385-1.535,6.985-1.405.938.047,1.801.17,2.799.399.753.174,1.634.404,2.516.805l-.019,6.645.009,3.903Z" fill="#815f4b"/>
</svg>
