<?xml version='1.0' encoding='utf-8'?>
<svg xmlns="http://www.w3.org/2000/svg" viewBox="0 0 33.058 32">
  <path d="M28.277,8.341c.01.292-.236.513-.546.643l-3.953,1.647-5.007,1.935c-.39.151-.913.549-.983.965-.454,2.715-.285,7.201-.622,7.337-.064.026-.212-.027-.268-.059l-.002,1.617c.057-.019.198-.028.25.009.061.042.105.168.104.308l-.017,2.167c-.001.183-.251.219-.346.158l-.006,5.689,14.83-6.194.124-17.661-3.56,1.44Z" fill="#e0b695"/>
  <path d="M16.407,12.529c.092.009.263.042.301.124.064.142.025.271.022.385-.264-.037-.534.11-.531.462l-.008,4.792c-.11-.044-.258-.037-.334.025-.262.211-.466,6.325-.419,8.562.015.723.021,1.428-.287,2.056l-8.807-3.364c-.13-.05-.172-.283-.203-.322.108-.164.16-.379.095-.511-.064-.13-.218-.281-.388-.342l-3.431-1.241c-.209-.076-.3.473-.148.577.097.067.116.209.301.274.073.222-.194.671-.455.498-.269-.178-.456-.455-.8-.416l-.049-4.789c.083.067.432.037.438-.171l.145-4.955c.06-2.066-.035-4.025.231-6.079.404-.145.84-.092,1.149-.432l2.729,1.023.035,6.15c.002.331.137.627.354.743.531.284.987-.339,1.637-.429l1.515,1.491c.204.2.876.321.883-.049l.112-6.03,5.487,2.2c.223.089.402-.062.426-.231ZM4.795,23.166l.138-1.842c.433.157.714.347,1.1.254.209-.051.132-.503.025-.682l-1.542-2.589c-.784.634-1.438,1.301-1.976,2.093.347.352.673.405,1.065.49l.041,1.705c.009.371.187.557.437.676.172.082.685.236.711-.105Z" fill="#edcbac"/>
  <path d="M17.583,12.597c-.029.413-.274.779-.678.781-.067-.092-.178-.233-.175-.339.003-.114.042-.243-.022-.385-.037-.082-.209-.115-.301-.124-.025-.101-.058-.343-.243-.419l-5.236-2.154,11.681-5.097,2.067-.908,6.473,2.406-14.098,5.758c-.097.207.037.499.135.506l.397-.025Z" fill="#f6dfca"/>
  <path d="M6.218,8.058l-4.093-1.739,11.007-3.995c3.21-1.165,2.983-1.613,6.807-.09l-13.721,5.824Z" fill="#f6dfca"/>
  <polygon points="10.18 9.601 6.943 8.347 20.711 2.583 23.645 3.628 10.18 9.601" fill="#df9891"/>
  <path d="M16.191,18.292l.015,12.426L1.772,24.718c-.335-.139-.453-.354-.456-.632.344-.038.531.238.8.416.261.173.528-.276.455-.498l3.571,1.244c.031.04.073.273.203.322l8.807,3.364c.307-.628.302-1.334.287-2.056-.047-2.237.156-8.351.419-8.562.077-.062.225-.069.334-.025Z" fill="#e0b695"/>
  <path d="M9.78,16.045l-1.563-1.6c-.36-.368-1.026.307-1.567.488l-.04-5.923,3.201,1.247-.03,5.789Z" fill="#df9891"/>
  <path d="M28.277,8.341c.01.292-.236.513-.546.643l-3.953,1.648-5.007,1.935c-.39.151-.913.549-.983.965-.454,2.715-.285,7.201-.622,7.337-.064.026-.212-.027-.268-.059l.007-7.431c.404-.001.649-.368.678-.781l10.695-4.256Z" fill="#edcbac"/>
  <path d="M3.23,7.661c-.309.341-.745.287-1.149.432-.266,2.054-.171,4.013-.231,6.079l-.145,4.955c-.006.207-.355.237-.438.171l-.02-12.323c.899.11,1.415.474,1.983.686Z" fill="#f6dfca"/>
  <path d="M16.888,25.067l.008-2.641c.057-.019.198-.028.25.009.061.042.105.168.104.308l-.017,2.167c-.001.183-.251.219-.346.158Z" fill="#edcbac"/>
  <path d="M4.795,23.166c-.026.342-.539.187-.711.105-.251-.119-.429-.304-.437-.676l-.041-1.705c-.392-.086-.718-.139-1.065-.49.537-.791,1.192-1.459,1.976-2.093l1.542,2.589c.106.179.184.631-.025.682-.385.093-.666-.097-1.1-.254l-.138,1.842Z" fill="#81614d"/>
  <path d="M6.141,25.248l-3.571-1.244c-.185-.064-.204-.207-.301-.274-.152-.104-.061-.653.148-.577l3.431,1.241c.17.061.324.212.388.342.065.133.012.347-.095.511Z" fill="#81614d"/>
  <path d="M32.991,6.55c-.027-.508-.364-.953-.857-1.132L17.995.274c-.976-.355-1.789-.364-2.717-.03L1.119,5.329C.332,5.613-.003,6.088,0,6.92l.048,17.144c.003.876.341,1.423,1.067,1.722l14.739,6.058c.255.104.528.156.794.156.248,0,.49-.045.705-.136l14.477-6.1c.736-.31,1.081-.798,1.088-1.535l.14-16.408-.068-1.272ZM17.08,13.291l-.037-.051c-.035-.047-.115-.157-.12-.197l.004-.171-.17-.024c-.036-.005-.071-.008-.106-.008-.09,0-.178.017-.257.048.11-.078.185-.2.204-.333l-.011-.105c-.029-.134-.09-.412-.348-.519l-4.817-1.981,11.266-4.916,1.996-.877,5.938,2.207-13.642,5.572-.069.029-.032.068c-.094.201-.046.444.042.595.066.112.155.177.279.184l.397-.025,10.755-4.27,3.294-1.332-.122,17.247-14.446,6.034.022-17.089-.017-.087ZM16.013,30.43L1.845,24.541c-.294-.122-.336-.292-.338-.456l-.048-4.787-.02-12.099c.497.09.865.26,1.221.425.17.079.334.155.501.217l2.606.977.034,6.017c.003.413.177.762.456.911.409.219.782.02,1.111-.156.177-.094.359-.191.553-.236l1.443,1.421c.191.187.655.318.946.2.165-.068.261-.207.264-.382l.107-5.751,5.228,2.096c.125.05.252.055.368.012-.021.015-.042.03-.062.047-.096.085-.211.241-.209.503l-.008,4.793.015,12.137ZM9.59,15.576l-1.236-1.265c-.118-.121-.251-.168-.392-.168-.273,0-.576.178-.854.341-.089.053-.18.106-.269.153l-.036-5.347,2.814,1.096-.027,5.189ZM7.457,8.341l13.26-5.551,2.411.858-12.952,5.746-2.718-1.053ZM2.649,6.333l10.548-3.829c.486-.176.893-.336,1.248-.475,1.854-.729,2.214-.869,4.987.211L6.218,7.849l-3.568-1.516Z" fill="#81614d"/>
</svg>
