<?xml version='1.0' encoding='utf-8'?>
<svg xmlns="http://www.w3.org/2000/svg" viewBox="0 0 29.166 32">
  <path d="M26.597,11.596l.941,2.874c-.081-.021-.197-.046-.264-.01l-.876,2.462c-.84.203-1.693-.029-2.551-.049l-2.154-.052c-.133-.003-.255.037-.305.091-.041.044-.034.171-.013.23l-.506-.103c.078-.243.009-.376-.232-.402-.268-.029-.471.02-.411.34l-.4-.065c-.024-.219-.158-.404-.348-.444-.23-.049-.485.088-.451.326-.253.043-.516.045-.773,0l-5.918-.839c-.821-.12-1.553-.258-2.296-.36l-5.628-.769-.683-.032-1.606-.479c-.264-.079-.539-.168-.55-.491l.637-.696,1.549-1.018c1.66-1.092,3.4-2.024,5.233-2.777.159.454.634.394.982.605l.835.509c.234.143.504.622.511.929.019.832.408,1.941,1.367,2.233l1.549.472c.582.177,1.82.204,2.357-.044.651-.3.805-.328,1.518-.29.483.025,1.127-.401,1.764-.084.153.076.583-.119.65-.271.213-.484-.362-.8-.501-1.366.534-.431.951-1.24,1.187-1.93.411-1.203.011-2.474-.028-3.691.403-.756,1.717-.382,2.245.29,1.239,1.578,2.306,3.169,3.169,4.904Z" fill="#fdfaf7"/>
  <path d="M16.211,1.059c.799.304,1.624.909,2.115,1.619,1.338,1.935,2.723,5.809,1.682,7.983-2.011,2.169-5.413,2.146-7.56.301-.915-.786-1.096-1.673-.893-2.806.386-2.156,1.439-4.047,2.813-5.76.498-.621,1.124-1.219,1.843-1.336ZM15.506,2.402c-.243.145-.273.495-.132.726.122.2.448.279.671.056.171-.171.206-.419.077-.651-.121-.219-.327-.303-.616-.131ZM14.855,2.982c-.589-.184-.816.954-.66,2.14.764-.756,1.134-1.992.66-2.14ZM12.284,9.377c.441.115.708-.509.623-.763l-.627.207c-.173.057-.244.492.004.557Z" fill="#d5857a"/>
  <path d="M20.024,12.023c.14.566.714.883.501,1.366-.067.152-.497.347-.65.271-.637-.316-1.281.11-1.764.084-.714-.037-.867-.01-1.518.29-.536.247-1.775.221-2.357.044l-1.549-.472c-.959-.292-1.348-1.401-1.367-2.233,1.867,2.226,6.525,2.407,8.704.649Z" fill="#fdf4ef"/>
  <path d="M10.808,10.446l-.835-.509c-.347-.212-.823-.151-.982-.605.507-.208.98-.694,1.636-.771l.181,1.886Z" fill="#f8e5de"/>
  <path d="M27.632,27.228l-.187,2.626c-.039.543-.599,1.005-1.117,1.003l-1.665-.007-4.62-.529-11.66-1.626-4.809-.847c-1.386-.244-2.063-.702-2.111-1.942.83.032,1.731-.323,2.332-.97l-.412-.831,7.94,1.167,4.002.597c4.136.617,8.201,1.149,12.307,1.359Z" fill="#f8cbb5"/>
  <path d="M27.868,20.663l.45.105.047-2.298-7.893-.741-4.635-.561-3.017-.44.35.653c.172.321.077.619-.105,1.118-.069.189-.14.384-.191.586l-.013.051.039,1.267c-1.067.639-2.549.778-3.471-.182-1.057-1.1-1.869-1-2.364-.723l-.743.417.809.265c.59.193,1.203.426,1.639.957.743.902,1.883,1.266,2.971.949l2.302-.675c.748-.069,1.444.438,2.088.997,1.045.905,2.495.991,4.086.246l.153-.072.047-.162c.042-.145.175-.266.395-.362.71-.309,2.06-.214,2.889.203.318.16.522.887.589,1.126l.041.147.252.147c.227.137.482.289.837.289.038,0,.077-.002.117-.006l2.623-.218.075-1.28-2.308.447c-.542.11-.648-.174-.689-.28-.113-.294-.052-.513.202-.734.291-.252.628-.26.984-.267.433-.009,1.088-.023,1.23-.816.018-.103.046-.16.037-.16h0c.022-.008.092-.014.178.005Z" fill="#f8e5de"/>
  <path d="M14.861,24.783l2.645.322c1.493.182,2.938.508,4.44.629,1.58.127,3.157.415,4.839.338l.866.112-.018,1.044c-4.106-.21-8.171-.742-12.307-1.359l-4.002-.597-7.94-1.167-1.984-.369.02-1.07,4.018.708,5.867.918,3.558.491Z" fill="#d5857a"/>
  <path d="M25.492,24.432c.76.187,1.487.008,2.263-.046l-.104,1.799-.866-.112c-1.682.077-3.259-.21-4.839-.338-.008-.424-.321-.63-.65-.76-.027-.741,1.851-.072,3.226-.539.272-.092.692-.072.97-.004Z" fill="#f8e5de"/>
  <path d="M27.953,20.299l-.119,2.627-1.834.356c-.539.108-.938-.062-1.111-.513-.161-.419-.086-.809.306-1.15.84-.729,1.925.056,2.09-.867.029-.162.09-.325.185-.397.126-.096.33-.092.483-.057Z" fill="#fdf4ef"/>
  <path d="M27.537,14.47c.333,1.019.444,2.083.445,3.161l-3.31-.15-3.297-.339c-.021-.059-.027-.186.013-.23.05-.054.172-.094.305-.091l2.154.052c.858.021,1.712.252,2.551.049l.876-2.462c.067-.036.182-.011.264.01Z" fill="#f8e5de"/>
  <path d="M27.806,23.401l-.051.984c-.775.054-1.503.234-2.263.046l.013-.839,2.3-.192Z" fill="#e9c397"/>
  <path d="M13.829,17.028l-.089-.167-2.738-.39c-.115-.016-.238-.047-.363-.078-.399-.098-.897-.22-1.308.037-.456.283-2.912.576-4.412.024-.496-.182-.796-.428-.915-.787-.03-.059-.122-.239-.535-.334l-2.701-.606.045,2.774.023.387.388-.021c.127-.013.515.132.594.194.029,1.095.558,1.741,1.707,2.088,1.028.311,1.532.154,1.862.008l-.06.125,1.387.042v-.161s.19,0,.19,0c.089.002.174.002.227.019l.156.051.143-.08c.144-.081.58-.325,1.459.59.622.647,1.426.918,2.241.918.836,0,1.685-.286,2.36-.744l.17-.115-.049-1.578c.044-.16.1-.314.156-.464.188-.514.4-1.095.062-1.727Z" fill="#fdf4ef"/>
  <path d="M5.914,19.923c-.988.774-2.082.711-3.229.086l-1.494-.799-.053-1.414.048-.304c.244-.026.943.21,1.004.494.007,1.043.506,1.519,1.442,1.802,1.512.457,1.643-.19,2.146-.132.108.013.201.132.136.266Z" fill="#f8e5de"/>
  <path d="M15.62,22.785c-.663.335-1.575-.436-2.308-.138-.19.077-.496.472-.301.746.468.658,1.629.767,1.851,1.389l-3.558-.491-5.867-.918-4.018-.708-.132-1.045-.037-1.177c.842.47,1.769.912,2.828.947,1.461.047,2.742-1.573,4.251-.076.681.676,1.623,1.429,2.659,1.422l2.499-.628c.796-.2,1.666.021,2.133.676Z" fill="#f8cbb5"/>
  <path d="M3.382,24.105l.412.831c-.601.647-1.502,1.001-2.332.97l-.008-.196-.056-1.973,1.984.369Z" fill="#f8e5de"/>
  <path d="M5.914,19.923l.427.013c.204.006.405-.014.561-.15.121,0,.24.003.345.038.671.22,1.322.479,1.811,1.074.635.771,1.613,1.108,2.578.828l2.372-.688c.915-.086,1.729.533,2.368,1.087,1.088.943,2.513.738,3.682.19,2.325-1.09,3.103.116,4.592.972.292.168.505.338.856.306l-.013.839c-.278-.068-.698-.088-.97.004l-1.126-.739c-1.567-2.066-3.505.227-5.537.037-1.309-.123-1.891-1.123-2.239-.948-.467-.655-1.337-.876-2.133-.676l-2.499.628c-1.036.007-1.978-.746-2.659-1.422-1.509-1.498-2.79.123-4.251.076-1.06-.034-1.986-.476-2.828-.947l-.058-1.232,1.494.799c1.147.624,2.241.688,3.229-.086Z" fill="#d5857a"/>
  <path d="M19.826,16.912c-.283.051-.568.076-.799-.118-.034-.239.22-.375.451-.326.189.04.323.225.348.444Z" fill="#f8e5de"/>
  <path d="M20.869,17.039l-.643-.062c-.06-.321.143-.369.411-.34.241.026.31.159.232.402Z" fill="#f8e5de"/>
  <path d="M14.855,2.982c.474.148.104,1.384-.66,2.14-.156-1.186.071-2.325.66-2.14Z" fill="#f8cbb5"/>
  <path d="M15.506,2.402c.289-.173.495-.088.616.131.128.233.094.481-.077.651-.223.223-.549.144-.671-.056-.141-.231-.11-.581.132-.726Z" fill="#e9c397"/>
  <path d="M12.284,9.377c-.248-.065-.178-.5-.004-.557l.627-.207c.085.254-.182.878-.623.763Z" fill="#e9c397"/>
  <path d="M24.65,23.287c-1.489-.856-2.267-2.062-4.592-.972.296-1.013,2.589-1.002,3.81-.388.446.224.667.953.781,1.36Z" fill="#f8cbb5"/>
  <path d="M24.522,24.436c-1.376.467-3.254-.202-3.226.539.329.131.642.336.65.76-1.502-.121-2.947-.448-4.44-.629-.117-.472.624-.238.993-.533.479-.383-.523-.407-.64-.839,2.032.191,3.97-2.103,5.537-.037l1.126.739Z" fill="#f8cbb5"/>
  <path d="M15.62,22.785c.348-.176.93.825,2.239.948.117.432,1.119.456.64.839-.37.296-1.11.061-.993.533l-2.645-.322c-.222-.623-1.382-.731-1.851-1.389-.195-.274.112-.669.301-.746.733-.298,1.645.473,2.308.138Z" fill="#f8e5de"/>
  <path d="M10.101,16.387l.096.319c-.969.604-6.48.98-7.144-1.11,2.349.318,4.681.767,7.048.791Z" fill="#f8e5de"/>
  <path d="M6.902,19.786c-.156.136-.357.156-.561.15.001-.182.099-.414.305-.468.168-.044.292.155.256.318Z" fill="#f8e5de"/>
  <path d="M27.726,11.293c-.719-1.718-1.747-3.329-3.335-5.224-.878-1.047-1.834-1.384-2.84-.999-.645.243-.759.037-1.146-.885-.25-.597-.592-1.415-1.289-2.344-.516-.688-1.095-1.387-2.006-1.71-.668-.239-1.383-.148-2.123.264-1.939,1.08-3.802,4.365-4.356,6.8l-3.182,1.541c-.175.085-3.002,1.536-4.139,2.296l-1.889,1.262C.49,12.916.012,13.881,0,15.165c-.003.285.331,9.837.422,11.241.122,1.887,1.517,2.246,2.885,2.596.667.099,16.329,2.436,16.369,2.442.679.102,1.378.168,2.054.232.303.029.605.058.906.09.754.08,1.382.134,1.975.169l.321.022c.292.02.59.042.886.042.233,0,.465-.014.693-.05,1.128-.185,1.916-.945,2.009-1.943l.647-12.402c-.118-2.212-.589-4.277-1.44-6.311ZM11.176,11.494c1.848,2.204,6.624,2.563,8.965.674.482-.389.948-1.142,1.246-2.015.299-.874.19-1.773.085-2.642-.043-.351-.087-.714-.1-1.063.103-.161.272-.254.503-.274.473-.045,1.094.236,1.406.633,1.351,1.72,2.351,3.268,3.138,4.847l.941,2.874c.275.839.417,1.788.434,2.894-1.967-.222-17.04-1.919-17.723-2.012l-7.894-1.275c-.257-.076-.374-.132-.407-.249l.562-.615,1.529-1.006c1.676-1.102,3.426-2.031,5.201-2.761.33-.136.908-.413,1.284-.597-.098.731.15,1.77.83,2.588ZM19.851,10.554c-1.87,1.994-5.129,2.114-7.281.265-.791-.679-1.039-1.467-.83-2.631.344-1.92,1.251-3.777,2.775-5.676.595-.741,1.144-1.154,1.678-1.26.782.309,1.537.892,1.98,1.532,1.333,1.926,2.651,5.688,1.679,7.77ZM1.473,21.615l-.149-3.788.05-.336-.034-2.061,2.002.45c.081.019,16.987,2.153,24.45,3.095l-.027,1.319-.119,2.622-.184,3.266-.018,1.034-.187,2.626c-.03.419-.488.828-.927.828h-.003l-1.645-.005-4.615-.53-11.654-1.625-4.809-.847c-1.422-.251-1.915-.695-1.956-1.764l-.064-2.159.018-1.097-.131-1.028Z" fill="#785847"/>
</svg>
