<?xml version='1.0' encoding='utf-8'?>
<svg xmlns="http://www.w3.org/2000/svg" viewBox="0 0 31.901 32">
  <path d="M2.091,10.893c-.096.234-.133.458-.041.774l24.054-.121c1.415-.007,2.65-.076,4.078.04.251,2.821.153,5.552.143,8.401-.011,2.97-.045,5.847-.257,8.791-.065.906-.607,1.323-1.476,1.389-3.119.235-6.156.242-9.308.275l-9.939.102c-2.298.024-4.475.163-6.753-.083-.401-.066-.796-.729-1.269-.568l-.135-.954V10.918s.904-.024.904-.024ZM6.664,17.318c.005.123.335.196.424.131.075-.055.15-.249.148-.39l-.044-2.565c-.554.007-1.117.228-1.35.746.28.166.482.066.744,0l.079,2.078ZM13.785,17.47c.233.009.353-.101.372-.207.014-.081.046-.285-.151-.308-.356-.041-.692.057-1.128-.118.981-.653,1.543-1.516.999-2.125-.324-.363-1.094-.417-1.693.04-.132.101-.114.469.148.44.265-.03.826-.544,1.087-.039.373.721-1.439,1.234-1.33,2.252l1.698.064ZM18.28,16.915c.06.633.63.579.985.597.538.026.86-.211,1.024-.659.116-.317-.007-.674-.414-.961.448-.515.462-1.054.056-1.275-.408-.222-.913-.224-1.329-.045-.189.082-.248.303-.152.441.169.243.652-.231,1.009-.011.145.089.21.288.09.448-.203.272-.633.185-.759.384-.257.406.762.279.881.658.065.208-.058.367-.156.43-.42.27-.93-.296-1.236-.007ZM26.534,16.524c-.814-.653-.101-1.903-.646-2.075-.175-.055-.409.015-.521.211-.407.708-.992,1.218-1.256,2.066l1.347.12c.059.228.14.463.202.585.197.389.411-.314.874-.907ZM27.758,21.795c.402-.851.06-1.489-.446-1.879-.618-.477-1.2.088-1.843.122-.493.027-1.074-.615-1.68-.165-.41.304-.888.764-.631,1.524.343,1.015,1.331,2.229,2.451,2.48.892-.287,1.774-1.287,2.15-2.082ZM12.356,20.083c-.447.098-1.156.169-1.375.733.037.161.444.217.709.077l.035,1.715c.003.154.033.262.07.358.062.159.308.085.413.119.534.169.884.197,1.395.056.487-.135,1.283.144,1.53-.607.136-.412.061-.894-.217-1.184-.27-.282-.801-.171-1.156-.11-.014-.907,1.108-.577,1.217-.732.037-.052.037-.238-.012-.292-.288-.322-.843-.036-1.137-.127-.539-.166-.912-.129-1.472-.006ZM19.749,23.081c.515.142.608-.205.701-.44l.966-2.464-1.741-.087c-.244-.012-.412.077-.395.303.026.35.646.103,1.424.268-.412.807-.867,1.506-.954,2.421ZM5.48,22.992c.004.157.51.126.511.004l.006-2.878c-.618.006-1.105.243-1.378.706.28.165.495.104.814.128l.048,2.04ZM8.781,22.475c.151-.402.029-.807-.159-1.027-.341-.398-1.554-.15-1.116-.726.26-.341,1.37.202,1.13-.543-.501-.12-1.009-.074-1.621-.051-.099.561-.153,1.102-.016,1.686.408-.108.765-.225,1.056-.065.316.174.232.632-.007.781-.462.288-1.383-.379-1.239.271.088.397,1.62.612,1.972-.325ZM18.062,22.811c-.004.283.303.353.466.242.078-.053.159-.186.156-.368l-.05-2.552c-.552-.037-1.032.177-1.403.713l.854.212-.022,1.753ZM5.431,28.307c0,.146.037.269.095.313s.307.049.454-.014l.013-2.846c-.569-.093-1.276.207-1.338.791.291.079.499-.024.765-.088l.01,1.844ZM6.807,28.264c.42.783,1.145.425,1.505.207.516-.312.561-.9.566-1.472.006-.639-.243-1.173-.781-1.299-.543-.127-1.168.055-1.332.663-.118.435.005.895.352,1.119.298.192.713.13,1.156.035-.202.796-.845.636-1.466.748ZM12.722,28.215l-1.145-.107.897-.923c.3-.309.384-.905.028-1.241-.443-.418-1.267-.358-1.659.071-.152.165-.076.39.072.432.265.075.79-.573,1.132-.12.46.609-.988,1.147-1.352,2.197,1.849.468,2.552-.26,2.028-.309ZM15.416,27.077c-.012-.772-.327-1.31-.946-1.391-.586-.077-1.151.249-1.259.932-.087.547-.065,1.169.247,1.644.316.48.964.524,1.41.277.44-.244.558-.803.548-1.462ZM19.256,28.678c.369.09.845.273,1.19-.056.092.022.455.072.555-.05l-.01-2.861c-.836.046-1.482.537-1.205.92-.059.103-.063.341-.263.364-.143.017-.27.007-.408-.024.087-.309.13-.805-.194-1.081-.422-.358-1.101-.286-1.515.017-.138.101-.158.358-.074.472.074.1.286.053.447-.073.23-.174.49-.216.701-.062.71.516-.974,1.188-1.294,2.293.727.233,1.457-.009,2.07.14Z" fill="#fbf7f1"/>
  <path d="M1.667,9.961c-.249-.966-.034-1.91.093-2.935.099-.796.364-1.698,1.152-2.114.913-.483,2.303-.031,3.378-.097l.031,1.115c.027.974.754,1.683,1.637,1.705.874.022,1.672-.692,1.679-1.669l.009-1.28,5.489-.107,3.675-.188,3.526-.09.003,1.677c.002,1.004.816,1.705,1.753,1.672.845-.03,1.573-.72,1.569-1.675l-.007-1.667,3.563.031c1.064.009,1.825.92,1.829,1.954l.013,3.628-29.391.04Z" fill="#df9891"/>
  <path d="M1.322,29.893c.473-.16.868.502,1.269.568,2.279.246,4.455.106,6.753.083l9.939-.102c3.152-.032,6.189-.039,9.308-.275.869-.066,1.411-.483,1.476-1.389.212-2.945.247-5.821.257-8.791.01-2.849.108-5.58-.143-8.401-1.428-.116-2.663-.047-4.078-.04l-24.054.121c-.092-.316-.055-.539.041-.774l29.036-.044-.015,18.499c0,1.113-.831,1.869-1.906,1.876l-26.323-.023c-.847,0-1.465-.638-1.56-1.309Z" fill="#f0dfd6"/>
  <path d="M8.248,1.246c-.065.105-.076.25-.03.385.04.117.226.148.363.13.141.649.054,1.309.058,1.993-.275-.098-.541-.197-.833-.16-.116.657-.115,1.195-.016,1.751.365-.207.6-.242.859-.106.002.372.014.637-.103.924-.203-.073-.492-.186-.671-.104-.182.083-.197.371-.204.502-.207-.098-.372-.357-.37-.627l.031-4.254c.002-.21.242-.417.391-.49.135-.067.322-.069.527.057Z" fill="#dadbc8"/>
  <path d="M6.289,4.814c-1.074.066-2.465-.386-3.378.097-.787.416-1.053,1.318-1.152,2.114-.128,1.025-.342,1.969-.093,2.935-.11.05-.491.003-.489-.228l.029-3.42c.01-1.184.91-2.019,2.104-2.016l2.781.007c.301,0,.194.375.198.511Z" fill="#edcbac"/>
  <path d="M23.617,6.477l.174-4.267c.01-.309.097-.584.261-.808.179-.057.381-.058.465.027.053.053.131.178.13.319l-.009,4.352c0,.262-.245.475-.403.527-.217.072-.404.045-.619-.151Z" fill="#edcbac"/>
  <path d="M18.808,4.39l-3.675.188-5.489.107c0-.059,0-.28.073-.338l9.09.044Z" fill="#edcbac"/>
  <path d="M24.053,1.402c-.164.224-.251.499-.261.808l-.174,4.267c-.08-.073-.247-.189-.25-.36-.037-2.435-.338-5.509.685-4.714Z" fill="#f0dfd6"/>
  <path d="M8.639,3.754l.009,1.485c-.259-.136-.494-.101-.859.106-.099-.556-.1-1.094.016-1.751.292-.037.558.062.833.16Z" fill="#edcbac"/>
  <path d="M8.545,6.162c-.077.188-.113.39-.306.444-.203.056-.379.045-.569-.045.007-.132.023-.42.204-.502.18-.082.469.031.671.104Z" fill="#edcbac"/>
  <path d="M8.581,1.761c-.137.017-.323-.014-.363-.13-.046-.135-.035-.28.03-.385.194.119.285.293.333.515Z" fill="#edcbac"/>
  <path d="M27.758,21.795c-.376.796-1.258,1.796-2.15,2.082-1.12-.251-2.108-1.465-2.451-2.48-.257-.76.222-1.22.631-1.524.606-.45,1.187.192,1.68.165.643-.035,1.225-.599,1.843-.122.506.391.848,1.029.446,1.879ZM27.29,21.427c.236-.628-.056-1.036-.426-1.129-.735-.186-1.105.687-1.436.612-.292-.066-.727-.955-1.428-.528-.901.548.19,2.329,1.505,2.844.775-.008,1.528-1.113,1.785-1.798Z" fill="#624132"/>
  <path d="M6.807,28.264c.621-.112,1.264.048,1.466-.748-.443.095-.857.158-1.156-.035-.347-.224-.469-.684-.352-1.119.164-.609.789-.791,1.332-.663.538.126.786.66.781,1.299-.005.573-.05,1.16-.566,1.472-.36.218-1.084.577-1.505-.207ZM7.533,26.219c-.278.204-.242.565-.082.777.119.157.383.218.592.081.226-.149.273-.4.169-.638-.082-.187-.369-.447-.679-.22Z" fill="#624132"/>
  <path d="M13.603,23.142c-.824-.933-.727-2.224.225-3.052.295.091.849-.195,1.137.127.049.054.048.24.012.292-.109.156-1.23-.175-1.217.732.355-.06.886-.172,1.156.11.278.29.352.771.217,1.184-.247.751-1.044.472-1.53.607ZM13.957,21.668c-.332.162-.345.537-.165.785.141.194.393.305.662.113.153-.11.217-.423.112-.673-.07-.167-.314-.369-.609-.225Z" fill="#624132"/>
  <path d="M13.785,17.47l-1.698-.064c-.109-1.019,1.703-1.531,1.33-2.252-.261-.505-.823.009-1.087.039-.262.029-.28-.339-.148-.44.598-.457,1.369-.403,1.693-.04.544.61-.018,1.472-.999,2.125.436.175.772.077,1.128.118.197.023.166.227.151.308-.019.106-.139.215-.372.207Z" fill="#624132"/>
  <path d="M15.416,27.077c.011.659-.107,1.218-.548,1.462-.446.247-1.094.203-1.41-.277-.312-.475-.335-1.097-.247-1.644.109-.683.674-1.009,1.259-.932.618.081.933.62.946,1.391ZM14.452,26.184c-.173-.078-.396-.008-.536.217-.256.413-.31,1.645.312,1.767.698.136.852-1.7.224-1.984Z" fill="#624132"/>
  <path d="M18.28,16.915c.306-.289.815.277,1.236.007.098-.063.221-.223.156-.43-.119-.379-1.138-.251-.881-.658.126-.2.556-.112.759-.384.119-.16.054-.359-.09-.448-.357-.22-.84.253-1.009.011-.096-.137-.037-.359.152-.441.415-.18.921-.177,1.329.045.405.22.391.76-.056,1.275.406.287.53.644.414.961-.164.447-.485.685-1.024.659-.355-.017-.925.036-.985-.597Z" fill="#624132"/>
  <path d="M8.781,22.475c-.352.936-1.884.722-1.972.325-.144-.649.777.017,1.239-.271.239-.149.324-.606.007-.781-.291-.16-.648-.043-1.056.065-.137-.584-.083-1.125.016-1.686.611-.023,1.12-.069,1.621.051.24.745-.87.201-1.13.543-.438.575.775.328,1.116.726.188.22.31.625.159,1.027Z" fill="#624132"/>
  <path d="M26.534,16.524c-.463.593-.676,1.296-.874.907-.062-.122-.143-.357-.202-.585l-1.347-.12c.264-.848.849-1.358,1.256-2.066.112-.196.346-.266.521-.211.546.172-.168,1.422.646,2.075ZM25.005,16.191c.221.269.585.073.536-.2-.023-.127.08-.341-.137-.573-.148.154-.439.551-.399.773Z" fill="#624132"/>
  <path d="M12.722,28.215c.524.049-.178.776-2.028.309.365-1.05,1.813-1.588,1.352-2.197-.342-.453-.867.195-1.132.12-.149-.042-.224-.266-.072-.432.393-.429,1.217-.489,1.659-.071.356.336.272.933-.028,1.241l-.897.923,1.145.107Z" fill="#624132"/>
  <path d="M19.115,26.972c-.261.441-.658.704-1.034,1.12l1.034.09c.182.016.201.329.141.496-.613-.149-1.342.093-2.07-.14.32-1.106,2.004-1.777,1.294-2.293-.211-.153-.471-.112-.701.062-.162.126-.373.173-.447.073-.084-.114-.064-.371.074-.472.414-.302,1.093-.375,1.515-.017.324.275.281.771.194,1.081Z" fill="#624132"/>
  <path d="M13.828,20.089c-.952.828-1.049,2.119-.225,3.052-.51.141-.861.113-1.395-.056l.148-3.003c.56-.122.933-.16,1.472.006Z" fill="#fbf7f1"/>
  <path d="M20.446,28.622c-.345.329-.82.146-1.19.056.06-.167.041-.48-.141-.496l-1.034-.09c.376-.417.773-.679,1.034-1.12.138.031.265.04.408.024.2-.023.204-.261.263-.364l.658-.153.002,2.144Z" fill="#fbf7f1"/>
  <path d="M19.749,23.081c.088-.915.542-1.614.954-2.421-.778-.165-1.398.083-1.424-.268-.017-.226.152-.315.395-.303l1.741.087-.966,2.464c-.092.235-.186.582-.701.44Z" fill="#624132"/>
  <path d="M18.062,22.811l.022-1.753-.854-.212c.371-.535.852-.749,1.403-.713l.05,2.552c.004.182-.077.315-.156.368-.163.11-.47.041-.466-.242Z" fill="#624132"/>
  <path d="M5.48,22.992l-.048-2.04c-.318-.025-.533.036-.814-.128.274-.463.761-.7,1.378-.706l-.006,2.878c0,.122-.507.153-.511-.004Z" fill="#624132"/>
  <path d="M20.446,28.622l-.002-2.144-.658.153c-.277-.383.369-.874,1.205-.92l.01,2.861c-.1.122-.463.072-.555.05Z" fill="#624132"/>
  <path d="M5.431,28.307l-.01-1.844c-.266.064-.474.167-.765.088.062-.584.769-.884,1.338-.791l-.013,2.846c-.147.063-.397.058-.454.014s-.094-.167-.095-.313Z" fill="#624132"/>
  <path d="M6.664,17.318l-.079-2.078c-.262.066-.464.166-.744,0,.233-.518.796-.739,1.35-.746l.044,2.565c.002.141-.072.336-.148.39-.089.065-.419-.008-.424-.131Z" fill="#624132"/>
  <path d="M12.356,20.083l-.148,3.003c-.106-.033-.351.041-.413-.119-.037-.096-.067-.204-.07-.358l-.035-1.715c-.265.14-.672.083-.709-.077.219-.564.928-.636,1.375-.733Z" fill="#5e3d2e"/>
  <path d="M27.29,21.427c-.257.684-1.01,1.79-1.785,1.798-1.315-.514-2.405-2.295-1.505-2.844.701-.427,1.136.462,1.428.528.332.075.701-.797,1.436-.612.369.093.662.501.426,1.129Z" fill="#df9891"/>
  <path d="M7.533,26.219c.31-.227.598.032.679.22.104.238.057.489-.169.638-.209.138-.474.076-.592-.081-.16-.213-.197-.573.082-.777Z" fill="#fbf7f1"/>
  <path d="M13.957,21.668c.295-.144.539.058.609.225.104.25.041.564-.112.673-.269.192-.521.081-.662-.113-.18-.248-.167-.623.165-.785Z" fill="#fbf7f1"/>
  <path d="M14.452,26.184c.628.284.474,2.121-.224,1.984-.622-.122-.568-1.354-.312-1.767.14-.225.363-.295.536-.217Z" fill="#fbf7f1"/>
  <path d="M25.005,16.191c-.04-.222.251-.62.399-.773.217.232.114.446.137.573.05.273-.315.469-.536.2Z" fill="#fbf7f1"/>
  <path d="M31.932,5.453c.172.621.158,1.278.157,2.001l-.033,22.021c-.002,1.33-1.028,2.686-2.358,2.687l-26.814.025c-1.431.001-2.643-1.129-2.646-2.61l-.049-23.1c-.004-1.688,1.159-3.023,2.782-3.133,1.121-.076,2.146-.015,3.283-.004.096-.42.072-.85.053-1.275-.047-1.045.558-1.798,1.551-1.871.928-.068,1.736.629,1.767,1.703l.041,1.429,12.638-.022.043-1.587c.023-.857.68-1.446,1.483-1.523.755-.072,1.575.393,1.735,1.267.116.631.051,1.235.07,1.861h3.439c1.34,0,2.501.838,2.859,2.13ZM7.67,6.561c.191.09.367.101.569.045.193-.053.23-.256.306-.444.117-.287.105-.552.103-.924l-.009-1.485c-.004-.683.083-1.343-.058-1.993-.048-.223-.139-.396-.333-.515-.205-.126-.392-.123-.527-.057-.149.073-.39.28-.391.49l-.031,4.254c-.002.27.164.529.37.627ZM23.617,6.477c.215.196.403.223.619.151.158-.052.403-.266.403-.527l.009-4.352c0-.141-.077-.266-.13-.319-.084-.085-.286-.085-.465-.027-1.024-.795-.723,2.279-.685,4.714.003.171.17.288.25.36ZM1.667,9.961l29.391-.04-.013-3.628c-.004-1.035-.765-1.945-1.829-1.954l-3.563-.031.007,1.667c.004.955-.724,1.645-1.569,1.675-.937.033-1.752-.668-1.753-1.672l-.003-1.677-3.526.09-9.09-.044c-.073.059-.073.279-.073.338l-.009,1.28c-.007.977-.805,1.691-1.679,1.669-.883-.022-1.61-.731-1.637-1.705l-.031-1.115c-.004-.137.103-.51-.198-.511l-2.781-.007c-1.193-.003-2.094.832-2.104,2.016l-.029,3.42c-.002.231.379.278.489.228ZM1.322,29.893c.095.671.714,1.309,1.56,1.309l26.323.023c1.074-.008,1.905-.763,1.906-1.876l.015-18.499-29.036.044-.904.024v18.021s.135.954.135.954Z" fill="#7a5636" stroke="#7a5636" stroke-miterlimit="10" stroke-width=".376"/>
</svg>
