<?xml version='1.0' encoding='utf-8'?>
<svg xmlns="http://www.w3.org/2000/svg" viewBox="0 0 39.481 32">
  <path d="M39.263,19.282c-.508-.537-1.816-.475-3.346-.38.005-1.471-.053-2.717-.512-3.925l-.688-1.809-1.323-2.928-.018-.885c-.051-2.713-.1-5.276-.785-7.902-.147-.563-.53-1.044-1.026-1.286-.433-.21-.917-.222-1.362-.03-1.792.773-3.407,1.949-4.801,3.495l-1.435,1.593c-3.1-.87-6.142-.485-8.489-.027-.382-.268-.662-.634-.933-.988-.175-.229-.356-.466-.561-.671C12.8,2.355,9.857-.344,8.124.112c-.378.101-.877.399-1.109,1.248-.74,2.707-1.02,5.442-.853,8.358.041.709-.185,1.165-.558,1.848-1.37,2.523-2.01,4.939-1.949,7.374l-2.588.016c-.253.001-.511.071-.71.192-.362.221-.442.75-.271,1.076.205.393.692.417.957.43l2.704.153c.097.847.335,1.912.568,2.507.04.101.112.19.188.285.052.065.148.184.181.156-.384.335-.945.521-1.487.7-.249.082-.493.164-.715.256l-.458.357c-.22.182-.257.488-.263.612-.006.139.008.397.178.565.311.308.789.29,1.136.17l2.392-.83c2.946,4.484,8.629,6.416,14.272,6.415,2.168,0,4.331-.285,6.329-.821,3.268-.877,5.937-2.787,7.935-5.68l2.628.92c.323.114.781.117,1.016-.147.252-.282.252-.554.207-.733-.171-.691-1.316-1.195-2.826-1.764.042-.442.195-.834.357-1.249.194-.499.319-1.039.405-1.767l2.827-.051c.504-.01.812-.39.856-.761.03-.257-.043-.486-.212-.664ZM30.456,22.689l-.132.023-.081.107c-.1.131-.184.276-.259.443l-.064.144.067.142c.03.063.062.123.094.18.044.078.088.158.09.201l.011.241,1.2.366c.104.031.21.052.319.073.169.033.332.064.508.15-2.277,3.104-5.388,4.791-9.498,5.154l-1.781.157c-1.333.119-2.578.062-3.747-.168-3.167-.201-7.326-1.618-9.718-4.977l1.18-.48c.493-.201.759-.577.748-1.059l-.029-.248-.229-.076c-.034-.011-.145-.076-.262-.166-.323-.251-.659-.149-.859-.087l-1.622.411c-.361-.721-.532-1.493-.709-2.304l1.901.28c.211.03.653.095,1.022-.141.375-.243.337-.82.132-1.285l-.08-.181-.197-.021c-.355-.038-.714-.119-1.095-.205-.56-.127-1.184-.268-1.893-.286-.082-2.203.528-4.437,1.859-6.82.5-.895.603-1.717.606-2.756l.06-3.315.617-3.925c.032-.206.091-.296.132-.311.363-.134,1.607.926,2.43,1.627l.224.19c1.096.932,2.031,2.014,3.096,3.352l.137.172,2.144-.534,1.223-.111c1.634-.15,3.367-.257,5.016.188l1.813.49.135-.214c1.225-1.946,5-5.197,5.74-5.197.011,0,.022,0,.032.003.528.449.777,5.341.883,7.43.032.636.061,1.204.09,1.651l1.961,4.464c.013.029.033.073.033.091l-.028.09.022.092c.252,1.055.457,2.177.258,3.235-.099.103-.647.155-1.049.193-.611.058-1.373.131-2.137.387l-.213.064-.032.206c-.03.05-.062.103-.085.157l-.03.07.002.077c.022.682.243.834.316.885.183.126.547.205.797.168l2.34-.331-.152.915-.513,1.305c-.204-.045-.405-.097-.602-.148-.688-.177-1.398-.362-2.144-.229Z" fill="#81624f"/>
  <path d="M33.968,15.28c.049.11.114.219.066.374-.413-.111-.748.228-1.145.422-2.019.992-3.261-1.399-4.703-.933-.531.171-.328,1.444-1.13,1.541-.127-.526-.434-1.004-.947-1.101-.527-.1-1.115.133-1.366.694-.344.768-.404,1.742.092,2.483.323.484,1.312.621,1.757.207.791.244.154,1.252,1.151,1.261-.619.52-.374,1.401-.032,1.948.881,1.408,2.714-.014,2.805.849-.09.119-.16.245-.219.377-2.673.389-2.938-1.377-3.8-2.11-.807-.687-1.603-1.133-2.372-1.888-.409-.402-1.402-.431-1.948-.642l-1.202.919c-.726-.608-2.473-.317-2.688.177-.38.871.824,1.566.745,2.378-.059.603-.659.848-1.015.983-1.018.385-1.693-.754-2.18-.239-.129.137-.19.444-.052.625.833,1.09,2.565,1.074,3.773-.297.991.915,2.267,1.355,3.38.884.021.574.366,1.028,1.016,1.043l1.76.042,1.493,1.033c1.655.48,2.945-.881,3.307-2.396l.967.295c.184.53-.391.785-.628,1.133-.952,1.399-2.156,2.047-3.86,2.153l-1.399.77c-.862.15-1.505.797-1.961,1.379l-.753.177c-.11.026-.189.254-.136.434l-1.781.157c-.005-.38-.247-.622-.536-.812-.325-.214-.638-.066-1.079-.052l-1.571.05c-.223.007-.4.086-.511.196-.096.095-.124.282-.101.449-3.824-.243-7.97-2.021-10.217-5.475l1.571-.639c.359-.146.543-.399.535-.734,1.084.224,2.304-.285,2.995-1.349.307-.472.118-1.306-.321-1.751-.359-.365-.947-.585-1.497-.535-.545.049-1.328.201-1.805.15-1-.108-1.988-.529-3.276-.489-.177-2.625.619-5.063,1.885-7.329.482-.862.559-1.664.562-2.589.356-.006.798-.298.745-.646-.062-.413-.355-.757-.74-.77l.059-1.952c1.092-.082.706,1.11,1.284,1.096l.072,1.805.002.367c0,.084.189.161.288.109.063-.034.123-.208.153-.316.317-.094.617-.264.921-.516l2.233-1.854c-.583-1.45-2.009-2.003-2.427-2.764.255-.612.861-.659,1.437-.552,1.181,1.003,2.168,2.176,3.143,3.4-.351.087-.679.215-1.268.194-.135.303.069.643.197.834.215.322.664.502,1.063.364.824-.285,1.543-.111,2.424-.273,4.228-.774,3.051,2.354,6.12,3.082.313.466.816,1.026,1.305,1.191.704.237,1.112-.104,1.792-.29.802-.219,1.614-.333,2.151-1.071.405-.558,1.019-.533,1.604-.292,1.281.526,1.628-3.537,1.152-3.855-.159-.107-.42-.11-.614-.069.136-1.075.019-2.297-.958-3.036-.819.534-1.281,1.326-1.888,1.97-.388.413-.664.749-.576,1.352-.605-.539-1.692.162-2.593-.081,1.198-1.903,5.434-5.739,6.234-5.307.825.445.977,6.84,1.142,9.354l1.913,4.306ZM14.437,18.609c.513-.963.402-2.328-.426-2.915-.505-.358-1.178-.111-1.465.209-.728.811-.687,2.57.22,3.069.449.247,1.292.349,1.671-.363ZM20.987,28.815l-.169-1.634c-.043-.411.121-.777-.106-1.027-.47-.516-2.056-.377-3.651-1.028-.685-.28-1.504-.856-2.238-.858-.741.1-1.39.634-2.313.307-.174.508.003.938.491,1.258.85.558,1.657,1.544,2.654,1.82.899.249,1.377.626,2.141,1.128.82.538,2.236.227,3.191.035Z" fill="#fdf4ef"/>
  <path d="M24.678,6.927c.901.243,1.988-.458,2.593.081.918.818,1.637,1.882,3.098,2.27l.323-2.556c.193-.04.454-.037.614.069.476.319.129,4.381-1.152,3.855-.585-.24-1.198-.265-1.604.292-.537.739-1.349.852-2.151,1.071-.679.186-1.088.527-1.792.29-.489-.165-.992-.725-1.305-1.191-3.069-.728-1.892-3.857-6.12-3.082-.881.161-1.6-.013-2.424.273-.399.138-.848-.042-1.063-.364-.128-.191-.332-.531-.197-.834.588.021.917-.107,1.268-.194l1.982-.49c.107.346.376.344.718.332.257-.009.563-.01.506-.444,1.662-.151,3.434-.261,5.136.199l1.569.423Z" fill="#fdfaf7"/>
  <path d="M30.297,23.402c.09.19.209.336.217.511-.362,1.516-1.652,2.877-3.307,2.396l-1.493-1.033-1.76-.042c-.651-.016-.995-.469-1.016-1.043.315-.133.813-.786.605-1.112-.576-.902-1.407.957-2.819-.284-1.303-1.145.361-1.821.252-3.115l1.202-.919c.546.211,1.539.241,1.948.642.769.755,1.566,1.202,2.372,1.888.861.733,1.127,2.499,3.8,2.11Z" fill="#fdfaf7"/>
  <path d="M30.757,20.112c.007.219.046.53.168.615.1.069.372.136.554.111l2.802-.396-.248,1.444-.618,1.573c-1.025-.187-1.941-.603-2.9-.433-.092-.863-1.925.559-2.805-.849-.342-.547-.587-1.427.032-1.948,1.184-.995,1.804-.55,3.016-.117Z" fill="#f8e5de"/>
  <path d="M22.743,30.253c-.053-.18.026-.408.136-.434l.753-.177c.456-.582,1.1-1.229,1.961-1.379l1.399-.77c1.704-.106,2.909-.753,3.86-2.153.237-.348.812-.603.628-1.133.352.105.734.075,1.217.457-2.458,3.523-5.819,5.224-9.955,5.588Z" fill="#f8e5de"/>
  <path d="M9.053,23.393c-.109-.026-.298-.158-.387-.227-.224-.173-.453-.051-.666.003l-1.781.448c-.557-.979-.733-2.048-.975-3.111l2.391.352c.335,1.015,1.223,1.56,2.393,1.436.504-.053.988-.166,1.251-.514.284-.377.318-1.221-.125-1.453l-.923-.569c.55-.05,1.137.17,1.497.535.439.445.627,1.279.321,1.751-.691,1.065-1.912,1.573-2.995,1.349Z" fill="#f8e5de"/>
  <path d="M11.625,3.507c-.576-.107-1.182-.06-1.437.552-.122-.223-.947-.445-1.02-.199-.327,1.104-.267,2.247-.222,3.369-.578.014-.192-1.177-1.284-1.096l.617-3.924c.226-1.437,1.759-.05,3.346,1.299Z" fill="#fdf4ef"/>
  <path d="M10.231,19.758l.923.569c.443.232.409,1.076.125,1.453-.263.349-.747.461-1.251.514-1.17.124-2.058-.421-2.393-1.436.204.03.532.074.786-.09.187-.121.155-.519.005-.86.476.051,1.259-.1,1.805-.15Z" fill="#f8cbb5"/>
  <path d="M20.962,30.41c-1.26.111-2.558.081-3.799-.168-.023-.167.005-.354.101-.449.111-.11.288-.189.511-.196l1.571-.05c.441-.014.754-.162,1.079.052.289.19.531.431.536.812Z" fill="#f8e5de"/>
  <path d="M7.598,9.5l.005-1.415c.386.013.678.357.74.77.053.347-.389.639-.745.646Z" fill="#f8e5de"/>
  <path d="M17.973,6.305c.057.434-.249.434-.506.444-.342.012-.611.014-.718-.332l1.224-.112Z" fill="#f8e5de"/>
  <path d="M34.033,15.654c.263,1.104.473,2.259.26,3.384-1.597.015-3.379-.119-3.412.835-.009.061-.085.149-.124.239-1.212-.433-1.832-.878-3.016.117-.997-.009-.359-1.017-1.151-1.261.6-.557.637-1.568.464-2.284.802-.097.599-1.37,1.13-1.541,1.442-.466,2.684,1.925,4.703.933.397-.195.732-.534,1.145-.422Z" fill="#fdfaf7"/>
  <path d="M34.293,19.038c-.117.616-1.781.288-3.412.835.034-.954,1.815-.82,3.412-.835Z" fill="#f8e5de"/>
  <path d="M20.987,28.815c-.955.192-2.372.503-3.191-.035-.764-.502-1.242-.879-2.141-1.128-.997-.276-1.804-1.262-2.654-1.82-.487-.32-.664-.749-.491-1.258.922.328,1.571-.207,2.313-.307.734.003,1.553.579,2.238.858,1.596.652,3.181.512,3.651,1.028.227.25.064.616.106,1.027l.169,1.634Z" fill="#fdfaf7"/>
  <path d="M20.975,19.681c.109,1.294-1.555,1.97-.252,3.115,1.412,1.241,2.244-.618,2.819.284.208.326-.29.979-.605,1.112-1.113.471-2.389.031-3.38-.884-1.208,1.372-2.94,1.387-3.773.297-.138-.181-.077-.488.052-.625.486-.515,1.161.624,2.18.239.356-.135.956-.38,1.015-.983.08-.812-1.125-1.507-.745-2.378.215-.494,1.962-.784,2.688-.177Z" fill="#785847"/>
  <path d="M10.187,4.059c.417.761,1.844,1.314,2.427,2.764l-2.233,1.854c-.304.252-.604.422-.921.516l-.443-.159-.072-1.805c-.045-1.122-.105-2.264.222-3.369.073-.245.898-.023,1.02.199Z" fill="#f8cbb5"/>
  <path d="M30.693,6.721l-.323,2.556c-1.461-.387-2.18-1.451-3.098-2.27-.089-.603.187-.939.576-1.352.607-.644,1.069-1.437,1.888-1.97.977.738,1.094,1.961.958,3.036Z" fill="#f8cbb5"/>
  <path d="M14.437,18.609c-.38.712-1.222.61-1.671.363-.907-.499-.947-2.258-.22-3.069.287-.32.96-.567,1.465-.209.828.587.939,1.952.426,2.915Z" fill="#785847"/>
  <path d="M27.055,16.685c.173.715.136,1.726-.464,2.284-.445.414-1.433.277-1.757-.207-.496-.742-.436-1.716-.092-2.483.251-.561.839-.795,1.366-.694.513.097.82.575.947,1.101Z" fill="#6f4d3d"/>
  <path d="M9.46,9.192c-.029.109-.089.283-.153.316-.099.053-.288-.025-.288-.109l-.002-.367.443.159Z" fill="#f8e5de"/>
</svg>
