<?xml version='1.0' encoding='utf-8'?>
<svg xmlns="http://www.w3.org/2000/svg" viewBox="0 0 33.203 32">
  <path d="M12.887,29.488c-.047-.163-.37-.51-.193-.724.138-.166.51-.242.475-.582,2.702.588,5.435.505,8.06-.246,2.29-.655,4.363-1.726,6.209-3.362,3.063-2.714,4.743-6.694,4.388-10.733-.012-.134-.017-.262-.078-.384-.034-.068-.02-.162-.031-.232-.756-5.001-4.375-9.006-9.055-10.781-4.527-1.717-9.688-1.451-13.991.934-1.616.896-2.935,2.046-4.172,3.423-2.479,2.761-3.563,6.555-3,10.228.439,2.865,2.427,6.269,4.809,7.906.344.541.351,1.125.316,1.698-.397.107-.781.076-1.206-.059.083-.535-.22-.726-.58-1.046-1.245-1.109-2.354-2.388-3.168-3.863C-1.188,16.484-.305,9.834,3.759,5.533,7.456,1.62,12.248-.246,17.66.026c4.808.241,9.236,2.346,12.296,6.011,4.753,5.691,4.241,14.165-1.231,19.235-4.25,3.937-10.18,5.484-15.838,4.217Z" fill="#9c784b"/>
  <path d="M6.625,26.633c-.086,1.393-.524,2.731-1.188,4.034,1.454-.084,2.74-.594,3.944-1.238l2.112-1.515c.204-.147.559-.023.741-.014l.935.281c.035.34-.337.416-.475.582-.178.214.145.561.193.724l-1.076-.202c-2.037,1.743-4.536,2.758-7.206,2.712-.379-.006-.708-.148-.853-.429-.104-.202-.139-.611.041-.853.919-1.235,1.392-2.633,1.626-4.141.426.135.809.165,1.206.059Z" fill="#86634a"/>
  <path d="M22.663,2.444c.011.622.592.888.461,1.534-4.175-1.55-8.748-1.367-12.854.633C4.459,7.442,1.525,14.847,4.404,20.741c.72,1.474,2.38,3.68,3.813,4.461-.133,1.331-.314,2.599-.964,3.744-.191.336-.344.611-.456,1.106l1.97-.569c.223-.065.423-.174.614-.052-1.204.644-2.489,1.153-3.944,1.238.664-1.303,1.102-2.641,1.188-4.034.035-.574.028-1.157-.316-1.698-2.382-1.637-4.37-5.041-4.809-7.906-.562-3.674.522-7.468,3-10.228,1.237-1.377,2.556-2.527,4.172-3.423,4.303-2.385,9.464-2.651,13.991-.934Z" fill="#fdfaf9"/>
  <path d="M31.718,13.225c.01.069-.003.164.031.232-.156-.012-.24.136-.168.309.027.066.141.102.246.075.355,4.038-1.326,8.019-4.388,10.733-1.846,1.636-3.919,2.707-6.209,3.362-.138-.35-.324-.603-.299-.971,2.071-.728,3.911-1.8,5.599-3.289,1.914-1.689,3.21-3.89,3.735-6.409.31-1.49.499-2.953.413-4.391.375.018.588.371,1.041.35Z" fill="#fdfaf9"/>
  <path d="M31.718,13.225c-.453.021-.666-.332-1.041-.35-.13-2.186-1.189-3.997-2.703-5.571-1.425-1.482-2.954-2.623-4.851-3.327.132-.646-.45-.912-.461-1.534,4.68,1.775,8.299,5.78,9.055,10.781Z" fill="#faeee6"/>
  <path d="M20.931,26.965c-.025.367.16.62.299.971-2.626.751-5.358.834-8.06.246l-.935-.281c.82.038,1.625-.113,2.492-.151l1.592-.069c1.616-.07,3.155-.203,4.613-.715Z" fill="#faeee6"/>
  <path d="M31.827,13.841c-.105.028-.219-.008-.246-.075-.071-.173.012-.321.168-.309.061.121.066.25.078.384Z" fill="#faeee6"/>
  <path d="M23.124,3.978c1.897.704,3.426,1.845,4.851,3.327,1.514,1.574,2.572,3.385,2.703,5.571.086,1.438-.103,2.902-.413,4.391-.525,2.519-1.821,4.72-3.735,6.409-1.688,1.49-3.528,2.562-5.599,3.289-1.459.512-2.997.645-4.613.715l-1.592.069c-.867.038-1.671.189-2.492.151-.182-.008-.537-.132-.741.014l-2.112,1.515c-.191-.121-.39-.012-.614.052l-1.97.569c.112-.495.266-.77.456-1.106.65-1.145.832-2.413.964-3.744-1.433-.781-3.094-2.987-3.813-4.461-2.879-5.894.055-13.299,5.866-16.13,4.105-2,8.679-2.183,12.854-.633ZM11.737,15.782c.26-.603.125-1.284-.316-1.636-.457-.364-1.137-.353-1.609-.04-.461.306-.621.899-.478,1.481.138.56.598.871,1.073.915.571.052,1.07-.115,1.33-.72ZM16.197,13.918c-.823.226-1.099,1.019-.884,1.743.193.651.96.957,1.636.798.703-.165,1.059-.947.888-1.668-.159-.669-.856-1.088-1.64-.873ZM22.225,13.908c-.803.179-1.074.943-.933,1.628.165.8.916,1.093,1.656.935s1.058-.939.877-1.682c-.162-.667-.86-1.045-1.6-.88Z" fill="#fdfaf9"/>
  <path d="M16.197,13.918c.784-.215,1.481.204,1.64.873.171.721-.185,1.502-.888,1.668-.676.159-1.444-.146-1.636-.798-.214-.724.061-1.516.884-1.743Z" fill="#876d5a"/>
  <path d="M22.225,13.908c.74-.165,1.438.213,1.6.88.181.743-.133,1.523-.877,1.682s-1.491-.135-1.656-.935c-.141-.684.13-1.449.933-1.628Z" fill="#876d5a"/>
  <path d="M11.737,15.782c-.26.604-.758.772-1.33.72-.475-.043-.935-.355-1.073-.915-.143-.582.016-1.175.478-1.481.473-.313,1.153-.325,1.609.04.441.352.575,1.033.316,1.636Z" fill="#876d5a"/>
</svg>
