<?xml version='1.0' encoding='utf-8'?>
<svg xmlns="http://www.w3.org/2000/svg" viewBox="0 0 38.05 32">
  <path d="M19.455,1.525c-.268.888.992,1.784,2.074,1.694l.298.382c-.511.194-.957.578-.99,1.174-.058,1.045-.604,1.879-.875,2.824-.342,1.191.93,2.466,1.954,2.426l-.42.833c-.185.106-.365.173-.556.207-1.041.19-.818-.902-1.428-1.239-.258-.143-.742-.147-.883.162-.202.442-.223.887-.29,1.271-.435-.053-.743.223-.783.537-.152,1.185,1.029,1.024.865,1.953l-1.337,1.752c-.006-1.33.259-2.474-.059-3.677-.258-.978.638-2.562-.244-3.567-.399.672-.367,1.263-.386,1.973l-.046,1.668c-.031,1.133-.148,2.222-.219,3.623l-1.871-2.56c-.667-.913-1.583-1.539-2.291-2.569-.214.298-.137.585-.102.87-.626.689-1.225,1.393-1.586,2.362-.584.209-1.11.303-1.733.336.122.417.38.529.662.812-.686.852-.905,1.727-.409,2.688l-.487,1.102c-.552.146-1.132.206-1.624.571-2.352-.183-4.447-1.896-5.14-4.165-.48-1.569.3-2.491,1.362-3.339-.119-.925-.29-2.127.703-2.852,2.404-1.752,5.539-1.517,7.864.79-.915-2.835-.342-5.279,1.613-7.165.896-.865,2.116-1.435,3.275-.637.128.318.465.544.73.554.673.025.605-1.237,2.361-.796ZM15.588,12.628c.456-.276.285-.824.133-1.061-.214-.334-.751-.456-1.173-.245-.44.219-.396.848-.126,1.172.197.236.728.4,1.166.135Z" fill="#f4cfc3"/>
  <path d="M11.167,18.452l.767,1.593.153.562c.039.143.287.193.437.141l-.115.403c-.63.212-.875.923-1.495,1.498.72.725,1.045-.892,1.915-.603.035.667.161,1.506.895,1.798.255.102.713-.124.968-.212.442.363.823.495,1.27.457l.004,1.61c-.312,1.963-1.91,3.348-3.793,4.085-1.573.616-3.237.425-4.396-.867l-.174-1.298c-1.34.347-2.462-.098-2.894-1.455-.834-2.619.507-5.395,2.892-6.762.824-.472,2.048-.286,2.852-.969l.715.02Z" fill="#f4cfc3"/>
  <path d="M31.015,10.471c.224.617.115,1.264-.091,2.049,1.533.894,1.593,2.114.925,3.728-.299.724-.681,1.316-1.368,1.928l-.952.848c-.582.519-1.485.626-2.24.748-.149-.309-.645-.524-.981-.455-.956.197-1.393-.247-2.189-.529-.601-.212-1.784-.425-1.525-1.278.402-.181,1.421-.357,1.15-1.08-.137-.366-.551-.843-.331-1.228.026-.045.02-.105.029-.179.48-.184,1.195-.118,1.708-.733l-1.758.113c-.376.024-.431-.505-.441-.862l-.063-2.187c-.019-.668,1.058-.746,1.465-.967.737-.402,1.206-.778,2.095-.597.281-.311.472-.628.88-.844,2.123.119,2.306,1.533,3.687,1.524Z" fill="#f4cfc3"/>
  <path d="M31.015,10.471c-1.382.009-1.565-1.405-3.687-1.524-.407.216-.598.533-.88.844-.889-.181-1.358.195-2.095.597-.406.221-1.484.299-1.465.967l.063,2.187c.01.357.066.886.441.862l1.758-.113c-.513.614-1.228.549-1.708.733-.191-.156-.487-.211-.75-.259l-1.23-.226c-.074-.568-.11-1.32-.618-1.678-.223-.644,1.25-1.193.651-2.002l.42-.833c.133-.005.217-.025.325.016l1.722-1.092c2.559-1.622,6.324-.49,7.053,1.52Z" fill="#e3bbb1"/>
  <path d="M22.24,10.042c-.108-.041-.192-.021-.325-.016-1.024.039-2.296-1.235-1.954-2.426.271-.945.817-1.778.875-2.824.033-.597.479-.981.99-1.174,1.398,1.794,1.399,4.38.413,6.44Z" fill="#f8d7c8"/>
  <path d="M18.66,28.811l-.06.22c-.212-.206-.565-.281-.817-.412-.294-.947-1.368-1.922-1.236-2.898.767-.344,2.203-.409,2.449.663l-.336,2.428Z" fill="#f8d7c8"/>
  <path d="M16.614,22.402l.093,2.143-.159,1.175c-.127.013-.408-.064-.581-.021l-.004-1.61.13-1.688h.521Z" fill="#d87d75"/>
  <path d="M10.394,18.108l.059.325c-.804.682-2.029.497-2.852.969l-.913-.266c.492-.364,1.072-.425,1.624-.571.666-.176,1.396-.524,2.082-.457Z" fill="#d87d75"/>
  <path d="M21.529,3.22c-1.081.09-2.342-.806-2.074-1.694.881.221,1.531.998,2.074,1.694Z" fill="#e3bbb1"/>
  <path d="M25.731,20.094c1.589,1.083,2.651,3.189,2.318,5.251-.213,1.322-.701,2.368-1.77,3.091l-1.762.04-.482,1.214-.856.398c-.509-.698-1.098-.754-1.929-.509-.82.242-1.827-.702-2.59-.767l.336-2.428c-.246-1.072-1.682-1.008-2.449-.663l.159-1.175c.532.031.905-.26,1.43-.382l1.682-.39c.795-.184-.458-1.483-.048-2.596.106.037.276.004.36.026.227.854.831,1.881,1.799,2.311-.102-1.104-1.668-2.103-1.086-2.546.308-.235,1.335,1.156,2.412-.15.347-.42.908-.814,1.402-1.066.321-.164.82.168,1.072.34Z" fill="#f4cfc3"/>
  <path d="M23.413,15.203c-.22.385.194.862.331,1.228.27.723-.749.899-1.15,1.08-.26.853.924,1.066,1.525,1.278.796.281,1.233.725,2.189.529.337-.069.833.146.981.455l-1.558.321c-.252-.172-.75-.504-1.072-.34-.494.252-1.055.645-1.402,1.066-1.077,1.305-2.104-.085-2.412.15-.582.444.983,1.442,1.086,2.546-.968-.43-1.573-1.458-1.799-2.311.189-.161.345-.401.376-.577.051-.298-.095-.53-.365-.575l-.02-.141c-.024-.167-.081-.335-.222-.432l-.173.008c-.408-.532-.933-.908-1.513-1.224l-.675-.592c.529-.079,1.024-.021,1.543.181l2.246.87c.311.121.72-.093.769-.342.038-.193-.101-.643-.376-.715l-3.061-.799c1.809-.962,3.522.189,4.022-1.661l.731-.003Z" fill="#e3bbb1"/>
  <path d="M36.454,22.479c-.774,1.321-2.248,2.788-3.982,3.069l-2.846-.493c-.224-.039-.454-.074-.574-.165-.17-.129-.145-.404-.09-.59l5.395-1.697c-.612-.04-1.223,0-1.688.156-.04-.27-.063-.58.086-.774.206-.268,1.181.057,1.164-.587.878.204,1.785.452,2.535,1.082Z" fill="#94a166"/>
  <path d="M33.033,27.781c.328.586.643,1.322.84,2.098.019.284-.587.321-.805.346-.006-.334-.486-.474-.598-.756-.196-.494-2.799-2.612-4.183-2.54.196-.464.276-1.003.605-1.468l1.652.526c1.021.325,1.985.891,2.49,1.794Z" fill="#94a166"/>
  <path d="M33.919,21.397c.017.644-.958.319-1.164.587-.15.194-.126.505-.086.774l-2.686.903c-.461.155-.85.29-1.259.178-.085-.535.217-.991.732-1.352l.945-.663c.987-.693,2.332-.703,3.518-.427Z" fill="#8dad56"/>
  <path d="M30.408,30.431c-1.489-.224-3.478-.974-3.28-1.886l.626-.397c1.228.278,2.82,1.506,2.654,2.282Z" fill="#8dad56"/>
  <path d="M31.034,28.759c-.163.007-.193.116-.175.176l.112.362c.147.475-.055.85-.2,1.188l-.364-.055c.166-.776-1.426-2.004-2.654-2.282.202-.128.245-.537.339-.76,1.075.176,2.088.722,2.942,1.371Z" fill="#94a166"/>
  <path d="M37.765,21.863l-.05-.072c-1.258-1.881-4.905-2.324-7.426-1.495l.014-.021c.018-.028.049-.083.031-.071,1.312-.598,2.092-1.87,2.738-3.156.751-1.493.9-3.618-.422-5.064.022-2.068-.779-3.516-2.445-4.426-1.726-.943-3.687-1.089-5.835-.439-.05-2.655-1.071-4.763-3.035-6.268-1.194-.936-2.893-1.112-4.369-.465-1.41-.548-2.72-.512-3.812.122-2.111,1.455-3.336,3.53-3.561,6.021-2.583-.742-4.867-.418-6.615.936-1.232.864-1.817,2.151-1.662,3.641C.2,12.029-.233,13.413.12,14.914c.395,2.397,2.039,4.319,4.435,5.216-1.413,2.217-1.859,4.385-1.288,6.291.469,1.567,1.582,2.623,3.066,2.922.593,1.211,1.614,1.936,3.036,2.156,2.567.401,5.085-.655,6.806-2.822l.313.249c.061.32.236.607.54.892,2.008,1.878,5.222,2.904,7.481,1.23l.07-.051c.383-.283.748-.553,1.085-1.159,1.647,1.419,3.682,2.161,5.835,2.161.801,0,1.619-.103,2.438-.312.061-.015.139-.031.225-.048.532-.105,1.422-.281,1.461-1.003.063-1.178-.633-2.276-1.193-3.158l-.483-.772c1.745-1.014,3.028-2.176,3.915-3.545.392-.604.074-1.057-.097-1.3ZM32.564,22.446l-2.715.913c-.305.103-.563.189-.8.192.043-.279.243-.545.597-.794l.945-.663c.584-.41,1.286-.535,1.926-.535.514,0,.988.081,1.328.16.628.146,1.277.316,1.855.641l-1.321-.085c-.498-.035-1.218-.029-1.815.172ZM29.796,20.641c-.346.11-.639.291-.946.481-.066.041-.134.083-.204.125-.024-.046-.044-.091-.061-.139l1.277-.56c-.023.028-.045.059-.066.093ZM27.524,28.886c-.042-.062-.064-.113-.073-.156l.48-.303c.231-.147.322-.422.389-.659.82.186,1.665.607,2.516,1.254.467.354,1.003.619,1.55.765l.48.128-2.087.238-.321-.049c-1.33-.199-2.591-.723-2.933-1.218ZM32.777,29.347c-.21-.529-2.453-2.417-4.034-2.711.011-.033.021-.066.032-.099.077-.24.151-.471.263-.683l1.406.448c.769.245,1.792.727,2.302,1.64.324.58.595,1.242.771,1.877-.087.027-.241.053-.485.077l-.034.004-.22-.554ZM32.473,25.212l-2.829-.489c-.127-.021-.339-.058-.383-.087-.006-.011-.011-.039-.01-.082l6.633-2.086c.045.028.09.058.134.09-.721,1.111-2.016,2.383-3.545,2.653ZM23.777,29.446l-.741.343c-1.382.665-3.198-.016-4.206-.996-.188-.183-.431-.278-.645-.361-.046-.018-.092-.036-.137-.055-.135-.357-.352-.706-.563-1.045-.348-.559-.677-1.088-.612-1.568l.038-.391-.395.018c-.04.002-.085-.007-.139-.014-.146-.017-.328-.038-.491,0l-.212.052-.034.216c-.261,1.643-1.569,3.038-3.588,3.829-1.53.601-2.968.342-3.962-.707l-.21-1.564-.36.094c-.725.191-2.014.278-2.497-1.236-.75-2.354.403-5.036,2.742-6.376l.674-.386-1.725-.495c-2.201-.171-4.195-1.789-4.851-3.933-.406-1.329.178-2.128,1.252-2.986l.14-.155-.024-.185c-.115-.892-.246-1.904.575-2.503,2.337-1.704,5.257-1.407,7.438.758l.962.954-.416-1.29c-.874-2.709-.36-5.006,1.528-6.827.568-.549,1.675-1.35,2.787-.649.193.368.595.644.977.659.376-.012.629-.24.817-.444.281-.306.544-.596,1.476-.362.762.192,1.354.884,1.894,1.577l.298.383c1.239,1.59,1.387,3.982.376,6.095l-.495,1.036,2.691-1.706c1.222-.775,2.916-.939,4.417-.425,1.075.367,1.878,1.032,2.149,1.78.187.516.105,1.07-.1,1.851l-.064.243.216.126c1.252.73,1.472,1.661.787,3.318-.31.748-.681,1.272-1.282,1.807l-.952.848c-.466.415-1.227.535-1.899.641l-2.51.509.644.438c1.577,1.075,2.473,3.101,2.178,4.926-.215,1.333-.695,2.206-1.551,2.817l-1.881.042-.514,1.295Z" fill="#825e4e"/>
  <path d="M32.47,29.469c.112.282.592.422.598.756l-2.297.261c.145-.338.347-.713.2-1.188l-.112-.362c-.019-.06.012-.169.175-.176.418.317.919.571,1.436.71Z" fill="#8dad56"/>
  <path d="M23.179,30.087c-1.475.712-3.417.072-4.579-1.057l.06-.22c.763.065,1.77,1.009,2.59.767.831-.245,1.42-.188,1.929.509Z" fill="#e3bbb1"/>
  <path d="M16.348,11.899c.194-.157.437-.2.676-.074.318,1.203.052,2.347.059,3.677l1.337-1.752.265-.007c.346.796-.501,1.163-.446,1.829.007.088-.102.279.029.47l2.123-.941c.458-.203.546-.659,1.07-.562l1.23.226c.004.162.024.317-.01.44-.5,1.85-2.213.699-4.022,1.661l3.061.799c.275.072.414.521.376.715-.049.249-.458.463-.769.342l-2.246-.87c-.52-.201-1.014-.26-1.543-.181l.721-.606c-.154-.414-.591-.4-.748-.566-.411-.435-.904-.591-1.497-.414.018-.182-.183-.448-.336-.467-.147-.018-.416.094-.534.2l-2.079-2.478-1.2-2.076c-.035-.285-.112-.571.102-.87.708,1.03,1.624,1.656,2.291,2.569l1.871,2.56c.071-1.401.188-2.491.219-3.623ZM17.918,16.009l-.103.103.103.103.103-.103-.103-.103Z" fill="#c07a7d"/>
  <path d="M15.144,15.818c-.059.053-.077.209-.208.254-.12.041-.284-.03-.402-.069.003-.185-.095-.33-.204-.346l-.657-.098c-.286-.043-.771-.707-1.084-.559.063-.305-.048-.546-.219-.683-.24-.194-.485-.231-.744-.218l-.212.01c-.471.175-1.017.297-1.664.223-.02.629.584.49.825.596.202,1.54,1.807.608,3.237,1.203l.43.179.284.17c-1.004.544-2.497.122-3.559,1.118-.156.146-.517.239-.573.509-.686-.068-1.416.281-2.082.457l.487-1.102c-.496-.961-.277-1.836.409-2.688-.282-.283-.54-.395-.662-.812.622-.033,1.149-.127,1.733-.336.361-.969.961-1.673,1.586-2.362l1.2,2.076,2.079,2.478Z" fill="#e3bbb1"/>
  <path d="M18.338,11.26c.746.092,1.017.829,1.774.832.007.083,0,.164-.02.25-.448.436-1.206.814-1.407,1.401l-.265.007c.164-.929-1.017-.768-.865-1.953.04-.314.348-.59.783-.537Z" fill="#e89c66"/>
  <path d="M20.938,11.066c-.162.414-.425.817-.826,1.026-.757-.003-1.029-.74-1.774-.832.067-.384.088-.829.29-1.271.141-.309.625-.304.883-.162.609.337.387,1.43,1.428,1.239Z" fill="#e3bbb1"/>
  <path d="M17.024,11.825c-.239-.127-.481-.084-.676.074l.046-1.668c.019-.71-.012-1.301.386-1.973.882,1.005-.014,2.589.244,3.567Z" fill="#d87d75"/>
  <path d="M15.588,12.628c-.438.265-.968.101-1.166-.135-.27-.324-.314-.953.126-1.172.422-.21.958-.089,1.173.245.152.238.323.786-.133,1.061Z" fill="#e3bbb1"/>
  <path d="M20.844,12.861c-.13.058-.263.079-.374.085.035-.098.047-.343-.021-.471-.051-.096-.217-.158-.357-.134.02-.086.027-.167.02-.25.401-.208.664-.611.826-1.026.191-.034.372-.101.556-.207.599.809-.874,1.358-.651,2.002Z" fill="#d87d75"/>
  <path d="M16.014,16.085c-.263.314-.4.884-.153,1.172.309.361.8.367,1.192.206.315-.129.471-.57.457-.964.157.166.594.152.748.566l-.721.606.675.592c-.006.508.233.966.635,1.215l-.015.408c-.006.146-.091.285-.185.396l-1.643-2.085.07,3.676-.46.527h-.521c-.051-.33-.374-.676-.37-1.234l.02-2.337c-1.568.631-1.899,2.904-3.333,2.32l.115-.403c-.108-.275-.214-.732-.089-1.088.101-.289,1.889-.682,2.619-2.054l-3.887.847-.715-.02-.059-.325c.056-.27.418-.363.573-.509.258.239.592.311.965.197l2.853-.872c.247-.075.199-.433.021-.424-.071.004-.184.038-.281-.02l-.284-.17c.045-.109.186-.288.292-.308.118.039.283.11.402.069.131-.045.149-.202.208-.254.119-.106.387-.218.534-.2.153.019.354.285.336.467ZM15.442,16.009l-.103.103.103.103.103-.103-.103-.103ZM15.236,17.454l-.103.103.103.103.103-.103-.103-.103Z" fill="#c35e4d"/>
  <path d="M16.093,22.401l-.13,1.688c-.447.038-.827-.094-1.27-.457-.255.088-.713.314-.968.212-.734-.292-.859-1.13-.895-1.798-.87-.289-1.195,1.328-1.915.603.62-.576.865-1.286,1.495-1.498,1.435.584,1.765-1.689,3.333-2.32l-.02,2.337c-.005.558.319.904.37,1.233Z" fill="#e3bbb1"/>
  <path d="M12.525,20.748c-.15.052-.398.002-.437-.141l-.153-.562-.767-1.593,3.887-.847c-.73,1.372-2.517,1.765-2.619,2.054-.125.356-.018.813.089,1.088Z" fill="#e3bbb1"/>
  <path d="M23.442,15.024c-.009.073-.004.134-.029.179l-.731.003c.033-.123.014-.278.01-.44.263.048.559.103.75.259Z" fill="#e89c66"/>
  <path d="M21.462,14.539c-.525-.097-.612.359-1.07.562l-2.123.941c-.131-.19-.021-.381-.029-.47.896-.717,1.815-1.528,2.23-2.625.111-.006.245-.027.374-.085.508.358.543,1.11.618,1.678Z" fill="#e89c66"/>
  <path d="M18.648,20.595c.332.267.722.444,1.123.583-.41,1.112.842,2.412.048,2.596l-1.682.39c-.525.122-.898.413-1.43.382l-.093-2.143.46-.527c1.082-.14.859-1.854,1.574-1.279Z" fill="#e3bbb1"/>
  <path d="M20.142,20.053c.269.044.416.277.365.575-.03.176-.187.415-.376.577-.084-.022-.254.011-.36-.026-.401-.139-.791-.316-1.123-.583v-.313c.094-.112.179-.25.185-.396.599.246,1.149,1.13,1.245.552l.065-.386Z" fill="#d87d75"/>
  <path d="M19.726,19.487l.173-.008.014.319c.005.087.072.177.207.113l.02.141-.065.386c-.097.578-.646-.306-1.245-.552l.015-.408c.293.046.586.021.879.009Z" fill="#e89c66"/>
  <path d="M19.726,19.487c-.293.013-.586.037-.879-.009-.402-.249-.641-.707-.635-1.215.58.315,1.106.692,1.513,1.224Z" fill="#d87d75"/>
  <path d="M20.122,19.911c-.135.064-.202-.025-.207-.113l-.014-.319c.141.096.198.264.222.432Z" fill="#d87d75"/>
  <path d="M20.47,12.946c-.415,1.097-1.335,1.908-2.23,2.625-.055-.666.791-1.033.446-1.829.202-.588.959-.965,1.407-1.401.14-.023.305.038.357.134.068.127.055.373.021.471Z" fill="#c35e4d"/>
  <path d="M17.511,16.5c.014.394-.142.835-.457.964-.393.161-.883.155-1.192-.206-.248-.289-.11-.859.153-1.172.593-.176,1.086-.02,1.497.414Z" fill="#e89c66"/>
  <rect x="17.845" y="16.04" width=".146" height=".146" transform="translate(-6.146 17.385) rotate(-44.989)" fill="#e89c66"/>
  <path d="M12.588,15.001c.313-.148.798.516,1.084.559.1.175.152.361.139.573-1.43-.595-3.035.337-3.237-1.203.033-.165.453-.551.546-.368.202.396.52.888.787.762l.68-.322Z" fill="#c35e4d"/>
  <path d="M10.967,17.599c1.061-.996,2.554-.574,3.559-1.118.097.058.21.023.281.02.178-.009.226.348-.021.424l-2.853.872c-.373.114-.707.042-.965-.197Z" fill="#c07a7d"/>
  <path d="M11.414,14.109c-.035.327.305.244.212-.01.259-.012.503.024.744.218.17.137.282.378.219.683l-.68.322c-.267.126-.585-.366-.787-.762-.093-.183-.514.203-.546.368-.241-.106-.845.032-.825-.596.646.073,1.193-.048,1.664-.223Z" fill="#c07a7d"/>
  <path d="M14.534,16.003c-.106.02-.247.199-.292.308l-.43-.179c.013-.211-.039-.397-.139-.573l.657.098c.109.016.207.161.204.346Z" fill="#c07a7d"/>
  <path d="M11.414,14.109l.212-.01c.093.254-.246.338-.212.01Z" fill="#c35e4d"/>
  <path d="M18.647,20.282v.313c-.714-.574-.491,1.14-1.573,1.279l-.07-3.676,1.643,2.085Z" fill="#e89c66"/>
  <rect x="15.369" y="16.04" width=".146" height=".146" transform="translate(-6.87 15.634) rotate(-44.989)" fill="#c07a7d"/>
  <rect x="15.163" y="17.484" width=".146" height=".146" transform="translate(-7.952 15.911) rotate(-44.989)" fill="#e3bbb1"/>
</svg>
