<?xml version='1.0' encoding='utf-8'?>
<svg xmlns="http://www.w3.org/2000/svg" viewBox="0 0 32.394 32">
  <path d="M31.601,10.888c-.569-1.796-1.414-3.343-2.583-4.73-.173-.206-.346-.426-.523-.65-.49-.624-1.046-1.33-1.728-1.898C22.774.288,17.489-.808,12.271.601,3.841,2.878-1.214,10.832.252,19.516l.016.079c.947,3.83,3.249,7.207,6.656,9.765l1.056.482c2.259,1.422,4.966,2.158,7.775,2.158,1.269,0,2.559-.15,3.837-.456,1.267-.303,2.33-.773,3.373-1.234,7.52-3.325,11.152-11.493,8.637-19.422ZM5.018,20.963c-3.035-4.457-.373-11.763,3.854-14.842,2.787-2.029,6.139-2.855,9.441-2.323,3.117.501,5.837,2.176,7.69,4.756l.714.901c1.905,3.083,2.41,6.763,1.385,10.108-1.015,3.312-3.387,5.941-6.678,7.403-4.111,1.826-8.239,1.774-11.627-.149l-.005-.003c-1.944-1.106-4.641-4.237-4.603-5.08l.068-.42-.24-.352Z" fill="#7e5545"/>
  <path d="M27.592,8.84l-.752-.949c-.755.213-1.261.051-1.985-.379-6.002-3.567-7.489-.679-8.063-.782-.94-.169-1.868-1.217-2.795-.542-.43.313-.022,1.496-.493,1.709-.109.049-.364.057-.476.067-1.051,1.023-2.528,1.989-3.28,3.336-.378.678-1.099,1.82-2.22,1.532-1.093-.281-1.381-1.753-1.402-3.001-3.735,2.587-1.454,8.437-1.991,11.734-.249,1.53,3.258,5.118,5.135,6.182,3.981,2.259,8.48,2.021,12.587.196,7.646-3.397,9.981-12.298,5.734-19.102Z" fill="#f6c7a5"/>
  <path d="M26.84,7.891c-.755.213-1.261.051-1.985-.379-6.002-3.567-7.489-.679-8.063-.782-.94-.169-1.868-1.217-2.795-.542-.43.313-.022,1.496-.493,1.709-.109.049-.364.057-.476.067.082-.596.119-1.288-.288-1.781-1.212-1.471-2.942-.797-4.704.75-1.222,1.072-1.853,3.116-.623,4.415.559.59,1.759.092,2.335-.049-.378.677-1.099,1.82-2.22,1.532-1.093-.281-1.381-1.753-1.402-3.001-3.735,2.587-1.454,8.437-1.991,11.734-3.3-4.846-.772-12.752,4.108-16.305,6.083-4.429,14.373-3.251,18.596,2.633Z" fill="#fae3d0"/>
  <path d="M13.029,7.963c-1.051,1.023-2.528,1.989-3.28,3.336-.575.141-1.776.639-2.335.049-1.229-1.299-.598-3.343.623-4.415,1.761-1.546,3.492-2.22,4.704-.75.406.493.369,1.185.288,1.781Z" fill="#fff"/>
  <path d="M6.28,16.042c-.678.112-1.003-.656-1.036-1.068-.044-.535.252-1.327.959-1.355.6-.024.933.693.977,1.074.054.473-.134,1.222-.899,1.349Z" fill="#fff"/>
</svg>
