<?xml version='1.0' encoding='utf-8'?>
<svg xmlns="http://www.w3.org/2000/svg" viewBox="0 0 31.377 32">
  <path d="M15.199,1.163c3.577.02,7.03,1.131,9.777,3.671.998.922,1.996,1.997,2.701,3.074,2.04,3.12,3.008,7.517,2.055,11.22l-1.788,4.529c-.159.402-.697.829-1.004,1.134-.553-.316-1.313-.362-1.729.294.017.458.339.814.456,1.219l-.727.813c-2.913,2.366-6.469,3.666-10.225,3.332l-.331-.006-1.792-.277c-2.587-.557-4.75-1.954-6.85-3.544-.029-.343-.491-.457-.643-.653l-1.133-1.46-1.297-2.123C.201,16.852,1.015,10.783,5.182,6.296l-.129,1.191c1.045-.579,1.667-1.482,2.524-2.283l.667-.624c1.673-.66,2.124-2.267,4.288-2.44.114-.037.087-.446.036-.447l.652-.308.89-.055c.38-.023.706-.171,1.089-.168ZM5.652,11.549c-.984,2.336-1.153,4.879-.497,7.365,1.024,3.878,4.391,7.068,8.439,7.843,7.113,1.361,10.214-3.894,10.943-4.077,1.998-.5,1.563-2.815,1.874-3.304.09-.141.024-.371-.261-.326,1.62-6.58-1.953-13.309-9.102-14.149-4.928-.579-9.507,2.161-11.396,6.648Z" fill="#b4d68e"/>
  <path d="M12.568,1.694c-1.633.318-3.07.996-4.401,1.919-1.112.771-2.063,1.691-2.985,2.683l-.129,1.191c1.045-.579,1.667-1.482,2.524-2.283l.667-.624c1.673-.66,2.124-2.267,4.288-2.44.114-.037.087-.446.036-.447Z" fill="#d1e7ca"/>
  <path d="M28.39,6.661C24.932,1.846,19.63-.65,13.692.146c-3.584.481-6.712,2.277-9.249,4.975C-.212,10.073-1.36,17.289,1.718,23.295l1.034,1.734c.41.687,1.002,1.591,1.737,1.983.092.049.199.264.22.374,2.723,2.684,6.413,4.334,10.246,4.583,3.623.234,7.308-.842,9.98-3.231,1.557-.984,2.772-2.487,3.747-4.011-.076-.069-.097-.128-.116-.169.289-.032.473-.203.644-.503,3.171-5.549,2.827-12.314-.821-17.394ZM27.944,23.657c-.159.402-.697.829-1.004,1.134l-.035.18c-.377.522-.84.887-1.238,1.333l-.727.813c-2.913,2.366-6.469,3.666-10.225,3.332l-.331-.006-1.792-.277c-2.587-.557-4.75-1.954-6.85-3.544-.029-.343-.491-.457-.643-.653l-1.133-1.46-1.297-2.123C.201,16.852,1.015,10.783,5.182,6.296c.921-.992,1.873-1.912,2.985-2.683,1.331-.923,2.768-1.601,4.401-1.919l.652-.308.89-.055c.38-.023.706-.171,1.089-.168,3.577.02,7.03,1.131,9.777,3.671.998.922,1.996,1.997,2.701,3.074,2.04,3.12,3.008,7.517,2.055,11.22l-1.788,4.529Z" fill="#785847"/>
  <path d="M26.94,24.79l-.035.18c-.377.522-.84.887-1.238,1.333-.117-.405-.439-.761-.456-1.219.416-.656,1.175-.61,1.729-.294Z" fill="#8dc069"/>
  <path d="M17.048,4.901c-4.928-.579-9.507,2.161-11.396,6.648-.984,2.336-1.153,4.879-.497,7.365,1.024,3.878,4.391,7.069,8.439,7.843,7.113,1.361,10.214-3.894,10.943-4.077l1.613-3.63c1.62-6.58-1.953-13.309-9.102-14.149ZM17.77,25.396c-4.944,1.146-10.111-2.277-11.333-7.012-.46-1.784-.387-3.654.122-5.386,1.626-5.53,7.86-8.367,13.186-5.967,2.321,1.046,4.216,3.118,4.994,5.561,1.831,5.752-1.397,11.513-6.97,12.804Z" fill="#785847"/>
  <path d="M24.537,22.68l1.613-3.63c.286-.044.351.186.261.326-.311.489.124,2.804-1.874,3.304Z" fill="#d1e7ca"/>
</svg>
