<?xml version='1.0' encoding='utf-8'?>
<svg xmlns="http://www.w3.org/2000/svg" viewBox="0 0 37.219 32">
  <path d="M15.679,30.855c-3.335,1.99-5.726,1.224-8.903-1.055l-4.682-3.359c-.856-.614-1.604-1.577-1.752-2.653C-.963,14.324,1.463,14.339,7.686,9.9c4.526-3.229,9.141-6.107,13.974-8.853,1.561-.887,3.583-1.385,5.249-.783,3.179,1.149,5.981,2.954,8.532,5.076,1.134.943,1.853,2.23,1.772,3.666l-.294,5.177c-.122,2.148-1.173,3.642-2.941,4.846-6.032,4.107-12.022,8.081-18.299,11.826ZM20.187,17.287c.522.44.505,1.172.502,1.867l-.028,7.025,12.831-8.566c1.599-1.068,2.148-2.76,2.226-4.554.117-2.677.754-5.051-1.02-6.656-2.09-1.891-4.53-3.096-7.031-4.381-1.501-.772-3.081-1.027-4.657-.128-4.573,2.608-9.021,5.212-13.48,8.389l6.742,4.343,3.915,2.661ZM9.488,29.824c1.532,1.026,3.227,1.109,4.809.163l5.461-3.266.035-7.797c.001-.224-.009-.452-.159-.714-.493-.86-1.411-1.248-2.149-1.74l-6.329-4.218c-.736-.491-1.381-1.015-2.303-1.41l-5.463,3.749c-2.228,1.529-2.111,5.117-1.892,8.125.061.838.388,1.788,1.082,2.32,2.241,1.716,4.45,3.436,6.906,4.787Z" fill="#81614d"/>
  <path d="M34.698,6.403c-.062.505.16,1.279-.25,1.756l-.841.979c-.254.296-.6.33-.914.531l-10.648,6.838-1.858.779-3.915-2.661-6.742-4.343c4.459-3.178,8.908-5.782,13.48-8.389,1.576-.899,3.156-.644,4.657.128,2.501,1.285,4.941,2.49,7.031,4.381Z" fill="#b0afb5"/>
  <path d="M20.187,17.287l1.858-.779c.029.262.119.469.241.5.156.039.478.014.643-.098l4.513-3.046c1.821-1.229,6.05-3.394,6.461-4.504.039-.106-.169-.299-.296-.221l.841-.979c.41-.477.188-1.251.25-1.756,1.775,1.605,1.137,3.979,1.02,6.656-.078,1.794-.627,3.486-2.226,4.554l-12.831,8.566.028-7.025c.003-.694.02-1.427-.502-1.867Z" fill="#b1a98d"/>
  <path d="M11.158,12.253c-1.14.574-2.983-.376-3.749.19l-2.74,2.025c-.621.459-.762,1.526-1.767,1.905.279.972.989,1.47,1.494,2.103l.635.798,5.375,3.576.493.179c.172.063.467-.177.433-.385-.023-.141-.187-.272-.36-.432.429-.199.931-.258,1.557.215.93-1.689,2.007-3.073,3.401-4.291l1.014-.883c-.059,2.013-2.269,1.549-1.548,3.493l-1.818,1.198c-.422.278-.6.553-.657.936-.036.243-.358.49-.509.683-.312.402-.574.952-.584,1.561l-.067,3.932c-1.046.852-1.971.16-2.272.769-2.456-1.35-4.665-3.071-6.906-4.787-.694-.532-1.021-1.482-1.082-2.32-.219-3.008-.336-6.596,1.892-8.125l5.463-3.749c.922.394,1.566.919,2.303,1.41Z" fill="#f9e7dc"/>
  <path d="M11.158,12.253l6.329,4.218c-.133.338-.301.611-.544.781l-1.014.883c-1.394,1.218-2.471,2.603-3.401,4.291-.626-.474-1.127-.414-1.557-.215l-5.577-3.527c-.359-.227-.673-.261-.999-.209-.504-.633-1.215-1.131-1.494-2.103,1.004-.379,1.145-1.445,1.767-1.905l2.74-2.025c.766-.566,2.609.384,3.749-.19Z" fill="#fbece5"/>
  <path d="M9.488,29.824c.301-.61,1.225.083,2.272-.769l.047.342c.032.233.514.224.519.001l.086-5.836c.15-.193.473-.439.509-.683.705-.053,1.247-.508,1.872-.897l5.002-3.058-.035,7.797-5.461,3.266c-1.582.946-3.277.864-4.809-.163Z" fill="#ebddd5"/>
  <path d="M19.635,18.21l-4.24,2.534c-.722-1.944,1.489-1.48,1.548-3.493.243-.17.411-.443.544-.781.738.492,1.656.88,2.149,1.74Z" fill="#ebddd5"/>
  <path d="M19.794,18.924l-5.002,3.058c-.625.389-1.167.844-1.872.897.057-.383.235-.658.657-.936l1.818-1.198,4.24-2.534c.15.262.16.49.159.714Z" fill="#be9278"/>
  <path d="M22.045,16.507l10.648-6.838c.314-.201.66-.236.914-.531.126-.078.335.115.296.221-.411,1.11-4.64,3.275-6.461,4.504l-4.513,3.046c-.166.112-.488.137-.643.098-.122-.031-.212-.238-.241-.5Z" fill="#87685c"/>
  <path d="M10.972,22.211c.173.159.337.291.36.432.034.208-.261.448-.433.385l-.493-.179-5.375-3.576-.635-.798c.326-.052.64-.019.999.209l5.577,3.527Z" fill="#b1a98d"/>
  <path d="M11.76,29.055l.067-3.932c.01-.609.272-1.159.584-1.561l-.086,5.836c-.004.222-.487.232-.519-.001l-.047-.342Z" fill="#b1a98d"/>
</svg>
