<?xml version='1.0' encoding='utf-8'?>
<svg xmlns="http://www.w3.org/2000/svg" viewBox="0 0 24.812 32">
  <path d="M24.151,1.28c-.574-.74-1.467-1.201-2.449-1.265-3.487-.223-7.682,2.101-9.632,5.322-.033.003-.066.006-.099.009-.304.028-.649.061-.903.243-2.293,1.648-4.817,5.021-5.207,8.198-.234-.03-.463-.003-.676.082-.345.138-.621.425-.778.809-.889,2.168-.716,4.75.472,7.103-.09.264-.67.502-.96.62-.087.036-.164.068-.228.097l-.183.084-.028.199c-.153,1.084-.755,1.422-1.452,1.815-.527.297-1.125.633-1.491,1.321L.007,30.885c-.007.072-.061.711.304.974.131.094.308.141.491.141.187,0,.38-.048.538-.146l3.168-1.951c1.87-.816,1.875-2.014,1.879-2.978.003-.691.006-1.237.581-1.686.526-.41.378-1.083.289-1.485-.02-.09-.039-.173-.047-.243-.022-.189.038-.255.058-.276.107-.117.386-.178.744-.17,2.542.053,5.096-1.146,6.876-3.228.439-.513.578-1.092.432-1.807,2.189-1.472,3.687-3.326,4.456-5.516.144-.409.126-.789-.058-1.172,2.644-1.779,4.47-4.476,5.032-7.452.18-.955-.032-1.882-.598-2.612ZM2.048,26.453l1.952-1.294c.546-.362.839-.8.911-1.382.202.064.369.15.503.248l-.3.748c-.314.783-.344,1.491-.368,2.061-.03.711-.06,1.062-.411,1.277l-2.585,1.583c.177-1.106.31-2.13.298-3.241ZM16.845,11.341c-.121.304.076.533.166.632l.11.246.268-.031c.087-.01.174-.024.264-.038.199-.031.387-.056.599-.055-.321,1.041-1.044,1.885-1.746,2.704l-.198.231c-1.025,1.204-2.343,2.034-3.919,2.466-.276.076-.501.277-.588.525-.071.204-.042.419.082.589l.092.126.154.022c.25.035.476.013.694-.009.25-.025.492-.05.783.013-1.194,1.61-3.232,2.645-5.512,2.806,1.47-2.855,3.097-5.581,4.95-8.298l3.884-4.881c.264-.331.51-.656.63-.984l.108-.297-.941-.515-.175.093c-.259.137-.536.304-.816.591-3.552,3.635-6.778,7.851-9.848,12.873-.84-1.834-.47-4.134-.124-4.681.01.025.02.05.028.071.084.214.224.571.629.655.195.04.397-.009.555-.134.167-.132.262-.329.269-.555.091-2.99,1.515-5.775,4.127-8.086.003.058.005.116.007.173.013.359.028.805.483,1.011.241.11.427.07.54.018.308-.142.409-.497.55-.987.239-.834.639-2.23,2.251-3.513,2.047-1.63,5.898-3.62,7.516-2.03.368.362.666,1.012.502,1.649-1.127,4.379-4.083,6.092-5.504,6.916-.517.3-.777.45-.869.683Z" fill="#765341"/>
  <path d="M17.346,11.822c.291.653-1.028,1.23-1.152,2.377l.393,1.069c-1.051,1.235-2.435,2.125-4.102,2.582-.272.075-.447.349-.306.543.589.084,1.093-.233,2.002.175-1.355,2.172-3.949,3.385-6.699,3.388,1.601-3.173,3.324-6.061,5.273-8.916l3.884-4.881c.243-.305.471-.602.572-.881.987-.708,2.28-1.378,2.888-2.814-1.493.064-2.668,1.379-3.378,2.546-.213.113-.471.262-.726.523-3.939,4.03-7.19,8.474-10.128,13.353-1.513-2.367-.726-6.16.003-5.855.301.126.236.723.622.802.176.036.375-.09.383-.34.109-3.575,2.003-6.525,4.737-8.764.264.73-.033,1.343.399,1.539.832.378.137-2.188,2.959-4.435,2.336-1.859,6.251-3.726,8.003-2.004.476.468.794,1.251.601,2.003-1.497,5.815-6.181,7.125-6.388,7.644-.057.144.114.241.16.345Z" fill="#fcf9f4"/>
  <path d="M5.583,24.594c.058-.371-.684-.82-.816-.487-.042.405.544.651.689.803-.657,1.638.03,2.928-.928,3.514l-3.271,2.002c.258-1.549.458-2.765.419-4.169l2.12-1.405c.524-.347.805-.777.76-1.536.581.095,1.219.351,1.455.841.122.254-.318.514-.429.435ZM3.732,27.486c.194-.381-.028-.688-.294-.716-.163-.018-.377.044-.557.22-.179.175-.252.451-.175.715.043.149.206.304.471.25.153-.031.377-.119.556-.469Z" fill="#efcdbc"/>
  <path d="M16.587,15.269l-.393-1.069c.124-1.147,1.443-1.725,1.152-2.377.389-.045.801-.168,1.363-.037-.285,1.422-1.261,2.472-2.122,3.484Z" fill="#fbedde"/>
  <path d="M17.211,7.279l-.49-.268c.71-1.167,1.885-2.482,3.378-2.546-.608,1.436-1.9,2.106-2.888,2.814Z" fill="#efcdbc"/>
  <path d="M6.058,23.117c-.251.151-.514-.147-.46-.251l.242-.463,3.373-5.252-3.155,5.966Z" fill="#cf9b85"/>
  <path d="M5.583,24.594l-.127.317c-.145-.152-.732-.398-.689-.803.132-.333.874.116.816.487Z" fill="#958b6f"/>
  <path d="M9.246,16.96l.494-.726.108.104c-.36.427-.406.872-.601.622Z" fill="#cf9b85"/>
  <path d="M3.732,27.486c-.178.349-.403.438-.556.469-.265.054-.428-.101-.471-.25-.077-.264-.004-.539.175-.715.18-.176.394-.238.557-.22.266.029.489.336.294.716Z" fill="#6f4d3a"/>
</svg>
