<?xml version='1.0' encoding='utf-8'?>
<svg xmlns="http://www.w3.org/2000/svg" viewBox="0 0 27.22 32">
  <path d="M27.139,19.615c-.216-1.678-.863-3.175-1.98-4.576-1.298-1.628-1.726-2.889-1.476-4.353.058-.337.149-.605.315-.925.268-.515.183-1.143-.212-1.569-.266-.287-.634-.441-1.009-.441-.182,0-.365.036-.539.11-1.865.795-3.106,2.032-3.578,3.512l-.815-.835c-.66-.826-.547-1.695-.068-3.195.927-2.904-.398-5.73-3.376-7.202-.194-.096-.402-.142-.609-.142-.333,0-.662.121-.92.353-.419.377-.565.971-.371,1.499.48,1.302-.056,2.355-.59,3.008-.444.543-1.068,1.034-1.73,1.553-.569.447-1.157.909-1.691,1.451-2.175,2.21-1.844,4.528-1.626,6.062.069.483.134.938.093,1.206-.003.021-.032.054-.101.075-.034.01-.068.016-.101.016-.024,0-.049-.003-.072-.009l-.012-1.005c-.016-1.432-.844-2.734-2.213-3.484-.207-.113-.434-.169-.661-.169-.283,0-.565.087-.804.259-.43.31-.644.839-.55,1.36.227,1.262-.053,2.306-1.032,3.852C.486,17.489.011,19.078,0,20.75c-.036,5.532,4.547,10.081,11.144,11.061.857.127,1.674.189,2.497.189.364,0,.732-.013,1.094-.038.826-.058,1.617-.167,2.35-.324,1.029-.221,2.021-.533,2.949-.929.959-.409,1.854-.91,2.66-1.488.235-.169.467-.347.687-.529,2.829-2.335,4.198-5.644,3.757-9.077Z" fill="#785847"/>
  <path d="M24.083,15.897c-1.348-1.69-2.11-3.373-1.756-5.443.081-.472.217-.878.45-1.328-1.809.771-3.027,2.055-2.952,3.781l.062,1.435c.02.464-.029.908-.327,1.351-.049-1.174-.629-2.187-1.562-3.028l-1.181-1.21c-1.186-1.43-.859-2.94-.351-4.53.713-2.233-.312-4.383-2.675-5.55.565,1.531.226,3.08-.815,4.355-.956,1.171-2.422,1.998-3.506,3.099-2.401,2.44-.909,4.912-1.153,6.511-.082.534-.467,1.001-1.056,1.182-.168.052-.338.077-.506.077-.304,0-.599-.082-.855-.234-.341-.203-.586-.562-.59-.968l-.013-1.171c-.011-.941-.559-1.779-1.498-2.293.33,1.832-.237,3.274-1.223,4.831-.79,1.247-1.189,2.562-1.198,3.996-.033,5.054,4.314,8.851,9.971,9.691.765.114,1.527.174,2.295.174.332,0,.664-.011.999-.035.726-.051,1.45-.145,2.157-.297.931-.199,1.838-.482,2.697-.849.856-.365,1.665-.814,2.399-1.341.211-.151.415-.308.613-.472,2.482-2.049,3.644-4.914,3.268-7.841-.184-1.435-.748-2.711-1.691-3.894Z" fill="#ef7f47"/>
  <path d="M17.067,29.943c-.117.047-.236.092-.356.135-.945.338-1.964.522-2.987.544-.76.016-1.522-.056-2.253-.24-.021-.005-.042-.011-.063-.016-1.482-.392-2.863-1.056-3.914-2.066-2.963-2.848-2.494-7.042.776-9.635-.268,1.068-.35,2.103.765,2.538.575.225,1.192.128,1.711-.2,1.228-.776.607-2.178.329-3.211l-.432-1.61c-.353-2.045.589-3.818,2.372-5.143l.579-.431c-.641,2.362.082,3.858,1.862,5.578,1.662,1.606,2.584,3.289,1.714,5.473.983-.062,1.725-.61,2.041-1.36.23-.547.161-1.071.076-1.703.85.713,1.412,1.537,1.814,2.462.297.683.493,1.4.565,2.127.067.685.022,1.378-.145,2.051-.162.654-.439,1.286-.822,1.868-.389.59-.886,1.127-1.464,1.589-.64.512-1.378.931-2.17,1.25Z" fill="#f1da75"/>
</svg>
