<?xml version='1.0' encoding='utf-8'?>
<svg xmlns="http://www.w3.org/2000/svg" viewBox="0 0 24.412 32">
  <path d="M23.622,21.003c-7.586-.705-10.163,3.689-10.791,5.092l-.3.617c-.025.052-.05.104-.076.157l-.038-1.517s.003-1.432.005-1.672l.009-4.083c.017.015.033.03.05.046,1.401,1.275,3.296,1.717,4.946,1.154,1.574-.538,2.814-1.973,3.161-3.656.3-1.46-.12-3.33-1.685-4.408.391-.131.744-.294.896-.39,1.756-1.116,2.555-2.839,2.251-4.858-.399-2.198-2.227-3.689-4.341-3.542-.865.075-1.783.353-2.524.757l.005-.116c.014-1.665-.718-3.178-1.912-3.948-1.315-.849-3.043-.849-4.509,0-1.44.834-2.251,2.247-2.17,3.78l.047.892c-.551-.207-1.52-.353-1.532-.354-2.311-.136-4.153,1.069-4.691,3.087-.345,1.294-.137,2.674.57,3.789.672,1.057,1.725,1.797,2.992,2.107-1.489,1.624-1.857,3.698-.952,5.486.596,1.176,1.622,2.015,2.887,2.361,1.326.361,2.764.138,3.946-.617.399-.255.751-.631,1.08-1.161l.025,1.247v4.073s-.036,1.848-.036,1.848c-.884-1.703-3.615-5.718-9.877-6.239-.437-.035-.847.271-.924.701-.714,3.986,1.444,7.895,5.251,9.507,1.605.641,3.329.907,5.101.789l1.227.055.065.014.057-.053c.135-.078,1.042-.217,1.919-.35,1.586-.242,3.56-.543,4.61-.948,3.809-1.471,5.804-5.542,6.045-8.701.036-.476-.317-.9-.788-.944ZM4.093,25.014c-.216.107-.262.482-.267.525-.023.21.027.375.14.465l3.765,2.994,1.999,1.477.123.087c.081.057.142.1.186.141-1.855-.067-3.342-.397-4.658-1.034-2.833-1.371-4.411-4.222-4.154-7.476l2.954.717c2.293.742,4.155,2.289,5.377,4.454l.74,1.736-5.4-3.922c-.222-.164-.58-.277-.805-.165ZM7.789,7.826c.182.026.357-.018.491-.13.213-.178.234-.418.251-.611.005-.057.009-.112.02-.163l.022-.106-.082-.072c-.473-.413-.53-1.782-.376-2.956.102-.781.501-1.194,1.097-1.734.83-.752,2.6-1.175,3.599-.153,1.159,1.187,1.032,2.762.94,3.911-.06.743-.103,1.279.259,1.462.26.131.575.003.804-.323.635-.906,1.552-1.508,2.516-1.654.835-.125,1.634.086,2.312.613.621.483,1.026,1.288,1.056,2.102.062,1.643-1.173,3.158-2.938,3.602l-1.052.264c-.143.036-.259.139-.328.291-.081.178-.083.399-.006.548.133.258.448.405.846.591.619.289,1.39.649,1.779,1.561.393.919.37,1.927-.063,2.837-.426.892-1.196,1.572-2.061,1.818-.96.273-1.952.153-2.796-.337-.9-.522-1.566-1.43-1.83-2.493-.047-.189-.18-.361-.365-.47-.163-.097-.339-.13-.485-.09-.324.086-.454.492-.635,1.054-.215.673-.511,1.593-1.251,2.407-.83.911-2.095,1.215-3.382.816-.876-.273-1.862-1.117-2.049-2.202-.014-.086-.087-.9-.075-1.125.042-.813.419-1.415.973-2.069.321-.379.613-.641.847-.852.382-.342.657-.589.603-.995-.041-.308-.424-.357-1.005-.432-1.152-.149-3.081-.398-3.63-2.638-.279-1.138-.001-2.215.761-2.955.529-.514,1.319-.8,2.172-.8.143,0,.289.008.435.024.907.102,1.698.518,2.066,1.085.13.2.34.34.56.373ZM13.836,30.243c.063-.044.128-.09.185-.143l.336-.313c.693-.648,1.347-1.26,2.143-1.719l2.657-2.193c.32-.264.451-.542.4-.848-.027-.164-.171-.307-.394-.392-.1-.038-.225-.065-.353-.065-.152,0-.31.038-.436.14l-5.267,4.257c-.025.02-.048.043-.069.067.818-2.709,2.414-4.787,4.541-5.893,1.449-.754,3.322-1.077,5.577-.95-.405,3.385-3.454,7.095-6.261,7.565l-3.106.52c.015-.01.03-.021.047-.033Z" fill="#795645"/>
  <path d="M9.728,27.293l1.003,2.353-5.944-4.317c-.191-.141-.472-.218-.612-.149-.132.065-.251.552-.093.678l3.759,2.99,1.999,1.477c.248.183.476.288.483.571-1.711-.035-3.418-.285-5.023-1.061-3.01-1.456-4.584-4.515-4.238-7.873l3.176.771c2.404.778,4.285,2.418,5.491,4.559Z" fill="#a7c98b"/>
  <path d="M16.925,29.94c-.272-.246-.139-.618-.21-.932-.088-.391-.426-.688-.335-1.082l2.657-2.194c.246-.203.379-.414.335-.675-.039-.233-.604-.427-.883-.202l-5.267,4.256c-.184.149-.236.576-.542.521.685-2.762,2.227-5.312,4.812-6.657,1.717-.893,3.806-1.094,5.868-.96-.317,3.509-3.44,7.421-6.435,7.923Z" fill="#a7c98b"/>
  <path d="M16.925,29.94l-3.458.579c-.059-.291.235-.377.427-.555.829-.767,1.573-1.514,2.487-2.038-.091.393.247.691.335,1.082.071.314-.062.686.21.932Z" fill="#c9c486"/>
  <path d="M20.883,8.005l-1.181.074c-1.326.09-.668,1.378-1.545,2.434-.317.382-.423.808-.352,1.281l-1.052.264c-.233.058-.299.409-.214.574.283.548,1.972.619,2.632,2.164.92,2.153-.454,4.397-2.244,4.906-2.222.631-4.316-.78-4.858-2.963-.072-.289-.41-.482-.622-.425-.528.141-.457,1.934-1.796,3.406-.9.989-2.233,1.286-3.575.868-.97-.302-1.983-1.227-2.177-2.348.441.292,1.607,0,1.671-.26.073-.298.08-.677-.119-.809-.203-.135-.612-.049-.775-.091l.161-2.184c.837-.99,1.476-1.194,1.408-1.702-.076-.567-3.812.294-4.631-3.05-.291-1.187.002-2.347.812-3.133,1.399-1.358,4.1-.98,4.958.342.189.29.555.387.776.202.211-.176.163-.453.208-.67.132-.633-.055-1.269-.11-1.971-.107-1.355,1.906-2.716.828-2.997.948-.859,2.81-1.216,3.857-.145,1.928,1.973.469,4.993,1.149,5.336.192.097.413-.042.569-.263,1.27-1.81,3.479-2.334,5.093-1.08.622.483,1.094,1.319,1.128,2.241ZM2.208,10.748c.818-.63.055-2.219,1.581-3.926-1.641.357-2.204,2.284-1.581,3.926ZM9.389,9.452c-.845.713-1.108,1.608-.979,2.738.163,1.435,1.354,2.352,2.797,2.398,1.033.033,1.825-.284,2.444-1.145.987-1.372.909-3.474-.61-4.454-1.159-.748-2.707-.334-3.652.464Z" fill="#e2a59d"/>
  <path d="M20.883,8.005c.068,1.808-1.339,3.352-3.078,3.789-.071-.473.035-.899.352-1.281.877-1.056.219-2.343,1.545-2.434l1.181-.074Z" fill="#f6c4b4"/>
  <path d="M8.369,6.884c-.568-.496-.585-2-.438-3.12.115-.877.586-1.331,1.156-1.848,1.077.281-.935,1.642-.828,2.997.055.701.242,1.337.11,1.971Z" fill="#f6c4b4"/>
  <path d="M5.451,17.17c-.203-.135-.612-.049-.775-.091l.161-2.184c-.548.649-.977,1.289-1.016,2.179-.024.549.061,1.178.077,1.165.441.292,1.607,0,1.671-.26.073-.298.08-.677-.119-.809Z" fill="#f6c4b4"/>
  <path d="M13.041,8.989c-1.159-.748-2.707-.334-3.652.464-.845.713-1.107,1.608-.979,2.738.163,1.435,1.354,2.352,2.797,2.398,1.033.033,1.824-.284,2.444-1.145.987-1.372.909-3.474-.61-4.454ZM11.6,13.569c-.79.111-1.822-.362-2.078-1.256-.264-.924.102-1.984.904-2.432.613-.342,1.38-.317,1.943-.003.537.299.864.925.873,1.65.013,1.045-.631,1.899-1.643,2.041Z" fill="#795645"/>
  <path d="M2.208,10.748c-.623-1.641-.06-3.569,1.581-3.926-1.526,1.707-.763,3.295-1.581,3.926Z" fill="#f6c4b4"/>
  <path d="M9.522,12.313c-.264-.924.102-1.984.904-2.432.613-.342,1.38-.317,1.943-.003.537.299.864.925.873,1.65.013,1.045-.631,1.899-1.643,2.041-.79.111-1.822-.362-2.078-1.256Z" fill="#d1b540"/>
</svg>
