<?xml version='1.0' encoding='utf-8'?>
<svg xmlns="http://www.w3.org/2000/svg" viewBox="0 0 35.966 32">
  <path d="M2.5,29.924v-.344c.364-.335.845-.03,1.323-.036l11.131-.13,6.533-1.74c.288.005.683.194.765,0,.106-.037.943-.48,1.013-.31l6.551,2.01c.805.005,1.986-.591,1.993-1.461l.064-8.547-.187-7.261c-.061-.472-.191-1.728-.844-1.743l-9.388-.212-7.019.084c-1.435.017-2.549-.844-2.992-2.203-.166-.507-.587-.908-1.15-.883l-2.167.097c-.58.026-.906-.343-1.206-.439.506-.126,1.079-.191,1.372-.627l2.758.016c1.21.007.917,2.868,3.291,2.869l16.614.003c.91,0,1.606.691,1.628,1.605l.447,18.704c.017.723-.483,1.281-1.245,1.281l-27.935.019c-.643,0-1.082-.261-1.351-.751Z" fill="#e5aca8"/>
  <path d="M13.783,1.453l.09.04c-.081.124,0,.204.094.207l.295.002c.166.089.279.198.354.358l.312,1.545c.125.577.345.837.819.905.184.026.435.332.53.51.721,1.356,8.684.835,11.851.797l3.494-.041c.381-.004.757-.133.971-.323.797.003,1.677.624,1.884,1.444.203.807.112,1.551.089,2.272-.413-.049-.814.031-1.228.223-.43-.864-1.364-1.361-2.424-1.364l-16.816-.043c-.79-.002-.971-1.743-2.322-2.823l2.85-.246c-.084-1.375-.808-2.456-1.715-3.301l.872-.164Z" fill="#f0d0af"/>
  <path d="M13.783,1.453l-.872.164c.907.845,1.631,1.926,1.715,3.301l-2.85.246-2.013-.088-4.833.063.175-2.29c.075-.975.936-1.603,1.925-1.6l5.707.02c.408.001.756.053,1.046.183Z" fill="#f6e1cb"/>
  <path d="M8.291,6.179c-.293.436-.867.501-1.372.627l-3.618-.061c-1.371-.023-1.452,1.844-1.406,3.716l.125,5.097.226,8.441.224,4.085.028,1.496v.344c-.3-.264-.497-.656-.513-1.124l-.693-20.315c-.038-1.119.705-2.28,1.777-2.284l5.221-.022Z" fill="#f6e1cb"/>
  <path d="M34.567,9.17l-.326,10.003v2.234s-.168,2.413-.168,2.413l-.18-.002-.034-4.093-.243-8.418c-.019-.658-.019-1.396-.277-1.914.414-.193.815-.272,1.228-.223Z" fill="#e5aca8"/>
  <path d="M32.595,5.455c-.214.19-.59.319-.971.323l-3.494.041c-3.168.037-11.131.559-11.851-.797,1.122.58,2.372.378,3.702.383l12.614.05Z" fill="#f6e1cb"/>
  <path d="M15.748,4.512c-.474-.068-.694-.328-.819-.905l-.312-1.545,1.132,2.45Z" fill="#f6e1cb"/>
  <path d="M33.893,23.819l.18.002-.051,1.486c-.031,0-.095-.023-.128-.095v-1.393Z" fill="#b1a68d"/>
  <path d="M14.262,1.703l-.295-.002c-.095-.003-.175-.084-.094-.207l.389.209Z" fill="#f6e1cb"/>
  <path d="M6.919,6.806c.3.096.626.465,1.206.439l2.167-.097c.563-.025.984.376,1.15.883.444,1.359,1.558,2.22,2.992,2.203l7.019-.084,9.388.212c.653.015.783,1.271.844,1.743l.187,7.261-.064,8.547c-.007.87-1.187,1.466-1.993,1.461l-14.862.04-11.131.13c-.477.006-.959-.299-1.324.036l-.028-1.496-.224-4.085-.226-8.441-.125-5.097c-.046-1.873.035-3.74,1.406-3.716l3.618.061Z" fill="#f0d0af"/>
  <path d="M34.896,5.115c-.632-.658-1.506-1.007-2.529-1.012l-14.612-.063c-.773-.003-.972-.426-1.315-1.305-.222-.569-.474-1.215-1.017-1.83C14.929.347,14.133.013,13.292.011l-6.501-.011h-.007c-.826,0-1.5.256-2.001.759-.773.776-1.141,2.101-1.152,4.16-.912-.013-1.759.04-2.42.706C.389,6.453-.04,7.605.003,8.867l.689,20.113c.062,1.808,1.423,3.02,3.39,3.02h.014l27.999-.085c1.627-.004,2.914-1.222,2.993-2.833l.454-9.157.42-11.611h0c.047-1.299-.332-2.435-1.066-3.199ZM2.683,29.823l-.045-.057c-.272-.239-.429-.585-.442-.973l-.693-20.315c-.02-.599.207-1.221.594-1.623.195-.202.522-.443.975-.445l5.219-.022,2.758.016c.356.002.552.367.844.963.394.804.932,1.906,2.449,1.906l16.614.003c.79,0,1.401.602,1.419,1.4l.447,18.704c.007.304-.093.578-.282.772-.188.193-.449.295-.754.296l-27.934.019h-.002c-.547,0-.929-.21-1.166-.643ZM14.098,7.778c-.275,0-.496-.404-.777-.915-.318-.58-.714-1.301-1.415-1.862l-.053-.042-2.093-.091-4.605.061.158-2.062c.062-.816.78-1.407,1.709-1.407h.007l5.707.02c.409.002.715.054.961.165l.466.243c.132.071.211.149.263.262l1.132,2.45.053.1.107.02c.076.013.279.218.376.401l.031.057.058.03c.931.482,1.92.454,2.967.421.273-.008.545-.019.83-.015l12.614.05c.737.003,1.507.592,1.682,1.286.158.629.129,1.232.1,1.814-.007.134-.013.267-.018.399l-.316,9.69-.222-7.697c-.016-.626-.035-1.335-.295-1.856-.453-.91-1.454-1.477-2.611-1.48l-16.816-.043Z" fill="#81614d"/>
</svg>
