<?xml version='1.0' encoding='utf-8'?>
<svg xmlns="http://www.w3.org/2000/svg" viewBox="0 0 27.493 32">
  <path d="M25.703,1.922c-.236.029-.609.144-.713.391-.686,1.626-1.7,2.93-2.796,4.283l-3.9,4.813c-.266.329-.433.746-.905.782l-2.262-1.817c.197-.328.538-.478.635-1.042-.494.19-.729.592-.993.993-.122.01-.579.043-.598-.078-.086-.523,4.978-5.891,6.565-7.454.71-.7,1.439-1.263,2.314-1.689,1.036-.504,2.06-.09,2.654.819ZM17.644,7.482l5.089-5.442c-.351-.186-.62.075-.821.286-2.099,2.199-4.084,4.338-6.067,6.757.883-.223,1.242-1.006,1.798-1.601Z" fill="#b1a98d"/>
  <path d="M13.289,12.53c-.045.197-.105.422-.3.643-.309.475-.882.698-1.013,1.46.735-.47,1.292-1.199,1.725-1.989,1.096.303,1.912,1.126,2.482,2.102-.309-.135-.634-.053-.864.222l-2.567,3.064-1.671,2.31c-.579.8-1.331,1.391-1.907,2.194-.839-.918-1.794-1.599-3.063-1.887,2.023-2.806,4.144-5.364,6.469-7.87.204-.22.41-.33.707-.248ZM11.894,14.976c.111-.135.117-.358-.152-.403-1.61,2.051-3.436,3.778-4.582,6.143l4.734-5.74Z" fill="#b1a98d"/>
  <path d="M21.013,11.611c-.481.038-.571.398-.539.741-.03-.057-.154.02-.26.154-.693.28-.993.958-1.616,1.455l-1.208-1.769c.471-.036.638-.453.905-.782l3.9-4.813c1.096-1.353,2.11-2.658,2.796-4.283.104-.246.477-.361.713-.391.266.408.446.743.196,1.299l-.959,2.134c-.816,1.815-2.128,3.271-3.224,4.928-.303.44-.666.827-.703,1.329Z" fill="#87685c"/>
  <path d="M27.002,3.372C27.04,1.645,25.727.039,23.925,0c-.863-.018-1.809.392-2.467.989-3.328,3.017-6.45,6.259-9.036,9.948-.488.696-.649,1.41-1.252,2.065-2.073,2.251-4.019,4.552-5.802,7.048l-.967,1.601c-.226.373-.078.966-.101,1.346l-2.626,2.084c-.511.406-.834.987-.841,1.655-.027,2.653-1.428,4.295-.536,5.104.797.724,2.431-1.236,4.853-1.633.821-.135,1.235-.36,1.601-1.164.395-.867.702-2.038,1.468-2.72.264-.235,1.07.116,1.45-.161.276-.202.428-.691.744-1.038.67-.736,1.401-1.359,2.026-2.157l2.487-3.173.421-.493c1.038-1.216,1.957-2.431,3.202-3.558.374.424.796.624,1.293.616.535-.008.884-.261,1.254-.706,2.302-2.765,4.847-5.602,6.096-8.939.446-1.126.409-2.258-.189-3.343ZM6.352,27.386c-.263.527-.362,1.134-.723,1.684-1.58.149-2.8.773-4.265,1.456l2.269-2.573c.157-.178.857.08.936-.443.035-.237.098-.581-.19-.813-.21-.17-.489-.236-.817-.255-.233.44-.429.863-.624,1.358-.279.707-.926,1.219-1.456,1.937l.271-2.535c.053-.493.05-1.119.554-1.474l2.592-1.828.322-.338.199-.259c.196-.254,1.886.634,2.106,1.734l-1.174,2.35ZM8.793,25.269c-.393.008-.353-.42-.509-.568-.31-.294-.54-.667-.755-.922-.613-.726-1.343-1.118-2.287-1.319-.036-.386.285-1.069.711-1.08.977-.025,1.717.632,2.35,1.185.666.582,1.206,1.274,1.135,2.207-.029.376-.335.491-.644.497ZM16.609,15.909l-1.539,2.136-1.547,1.916c-1.128,1.397-2.12,2.842-3.45,4.197l-.897-1.623c-.839-.918-1.794-1.599-3.063-1.887,2.023-2.806,4.144-5.364,6.469-7.87.204-.22.41-.33.707-.248l.413.114c1.097.303,1.912,1.126,2.482,2.102.157.269.686.801.425,1.163ZM17.319,15.638c-.426-1.195-1.227-2.105-2.179-2.958-.525-.471-1.308-.532-1.916-.958-.204-.143.186-.726.399-.777.922-.219,1.551.174,2.207.666.988.742,2.025,1.589,2.332,2.898.098.42-.397.91-.842,1.129ZM18.598,13.96l-1.208-1.769-2.262-1.817c-.045-.036-.27-.057-.359-.05-.122.01-.579.043-.598-.078-.086-.523,4.978-5.891,6.565-7.454.71-.7,1.439-1.263,2.314-1.689,1.036-.504,2.06-.09,2.654.819.266.408.446.743.196,1.299l-.959,2.134c-.816,1.815-2.128,3.271-3.224,4.928-.303.44-.666.827-.703,1.329-.481.038-.571.398-.539.741-.03-.057-.154.02-.26.154-.693.28-.993.958-1.616,1.455ZM24.488,7.052l.455-.906c.133.314-.101.733-.455.906ZM24.421,7.238c-.707,1.468-1.679,2.683-2.801,3.948l2.801-3.948ZM23.737,10.862l-3.321,4.196c-.292.369-.657.429-.956.196-.259-.201-.267-.686.082-.971.604-.492.926-1.108,1.403-1.65,1.728-1.967,3.471-3.934,4.495-6.374.23-.549-.145-1.537.785-2.211,1.147,1.448-.945,4.863-2.488,6.813Z" fill="#785847"/>
  <path d="M16.184,14.746c.157.269.686.801.425,1.163l-1.539,2.136-1.547,1.916c-1.128,1.397-2.12,2.842-3.45,4.197l-.897-1.623c.576-.803,1.328-1.394,1.907-2.194l1.671-2.31,2.567-3.064c.231-.275.555-.357.864-.222Z" fill="#87685c"/>
  <path d="M20.416,15.058c-.292.369-.657.429-.956.196-.259-.201-.267-.686.082-.971.604-.492.926-1.108,1.403-1.65,1.728-1.967,3.471-3.934,4.495-6.374.23-.549-.145-1.537.785-2.211,1.147,1.448-.945,4.863-2.488,6.813l-3.321,4.196Z" fill="#e5bf85"/>
  <path d="M15.14,12.68c.091-.424.359-.747.689-1.069.988.742,2.025,1.589,2.331,2.898.098.42-.397.91-.842,1.129-.426-1.195-1.227-2.105-2.179-2.958Z" fill="#e5bf85"/>
  <path d="M6.352,27.386c-.615.03-.471.908-1.048,1.464-.195.188-.694-.008-.63-.152.267-.539.471-1.02.746-1.503l1.298-2.276-1.497-1.359.199-.259c.196-.254,1.886.634,2.106,1.734l-1.174,2.35Z" fill="#e5bf85"/>
  <path d="M3.561,26.442c-.233.44-.429.863-.624,1.358-.308-.331-.725-.54-1.185-.598.053-.493.05-1.119.554-1.474l2.592-1.828c.108.002.199.125.156.23l-.945,1.188c-.344.432-.377.8-.548,1.125Z" fill="#fff"/>
  <path d="M8.302,22.564l-.774,1.214c-.613-.726-1.343-1.118-2.287-1.319-.036-.386.285-1.069.71-1.08.977-.025,1.718.632,2.35,1.185Z" fill="#f1cda3"/>
  <path d="M15.829,11.611c-.33.322-.598.646-.689,1.069-.525-.471-1.308-.532-1.916-.958-.204-.143.186-.726.399-.777.922-.219,1.551.174,2.207.666Z" fill="#f1cda3"/>
  <path d="M9.437,24.772l-1.153-.071c-.31-.294-.54-.667-.755-.922l.774-1.214c.666.582,1.206,1.274,1.135,2.207Z" fill="#e5bf85"/>
  <path d="M2.938,27.799c-.279.707-.926,1.219-1.456,1.937l.271-2.535c.46.058.878.267,1.185.598Z" fill="#fff"/>
  <path d="M13.702,12.644c-.433.79-.99,1.519-1.725,1.989.131-.762.704-.985,1.013-1.46.195-.221.255-.446.3-.643l.413.114Z" fill="#ebddd5"/>
  <path d="M9.437,24.772c-.029.376-.335.491-.644.497-.393.008-.353-.42-.509-.568l1.153.071Z" fill="#e4a867"/>
  <path d="M15.128,10.374c-.045-.036-.27-.057-.359-.05.264-.4.499-.802.993-.993-.097.565-.438.715-.635,1.042Z" fill="#ebddd5"/>
  <path d="M21.62,11.185l2.801-3.948c-.707,1.468-1.679,2.683-2.801,3.948Z" fill="#be9278"/>
  <path d="M24.488,7.052l.455-.906c.133.314-.101.733-.455.906Z" fill="#be9278"/>
  <path d="M6.352,27.386c-.263.527-.362,1.134-.723,1.684-1.58.149-2.8.773-4.265,1.456l2.269-2.573c.157-.178.857.08.936-.443.035-.237.098-.581-.19-.813-.21-.17-.489-.236-.817-.255.172-.325.204-.693.548-1.125l.945-1.188c.043-.105-.048-.228-.156-.23l.322-.338,1.497,1.359-1.298,2.276c-.276.484-.48.964-.746,1.503-.064.143.436.339.63.152.577-.556.434-1.435,1.048-1.464ZM4.424,28.838l-.091.091.091.091.091-.091-.091-.091Z" fill="#f1cda3"/>
  <path d="M17.644,7.482c-.556.595-.916,1.378-1.798,1.601,1.982-2.419,3.968-4.558,6.067-6.757.201-.211.47-.472.821-.286l-5.089,5.442Z" fill="#ebddd5"/>
  <path d="M11.894,14.976l-4.734,5.74c1.146-2.365,2.972-4.092,4.582-6.143.269.045.264.268.152.403Z" fill="#ebddd5"/>
  <rect x="4.36" y="28.865" width=".128" height=".128" transform="translate(-19.158 11.598) rotate(-44.992)" fill="#e5bf85"/>
</svg>
