<?xml version='1.0' encoding='utf-8'?>
<svg xmlns="http://www.w3.org/2000/svg" viewBox="0 0 31.692 32">
  <path d="M.355,18.044c-.008-.102-.092-.166,0-.343.265.036.297.353,0,.343Z" fill="#866450"/>
  <path d="M12.753,1.597l.128-.335c.055.172.023.365-.128.335Z" fill="#866450"/>
  <path d="M11.59,4.166c-.063.183-.245.217-.339.137l.339-.137Z" fill="#866450"/>
  <path d="M20.979,4.494c-.186.036-.34-.009-.336-.14l.336.14Z" fill="#866450"/>
  <path d="M13.01,31.254c-.109-.165-.262-.308-.29-.57.218.139.307.347.29.57Z" fill="#8d875e"/>
  <path d="M17.702,2.393l.426,2.595,1.151.347c.33.549-.462.83-.066,1.536.341.608,1.983-.136,2.16-.158.508-.062,1.171.517,1.72.109l2.095-1.585c.536.423,1.388,1.132,1.846,1.806l-1.767,2.665c.693,1.306,1.181,2.647,1.618,3.999.093.287.266.566.651.59l2.438.162-.043,3.554c-1.088.124-2.06.127-3.06.47-.376,1.364-.883,2.598-1.655,3.811l1.818,2.837-2.354,2.319-2.115-1.55c-.331-.242-.67-.346-1.032-.104-1.047.699-2.219,1.066-3.453,1.332l-.48,3.26-2.883-.01c-.162-1.004-.294-2.138-.893-2.949-.09-.122-.299-.377-.485-.417-1.348-.29-2.515-.835-3.672-1.551l-2.631,2.003c-.626-.434-1.255-1.192-1.65-1.67.406-.326.412-.956,1.225-1.65,1.605-1.37-.275-2.715-.935-4.854-.109-.354-.389-.376-.584-.493-.131-.079-.163-.356-.506-.407l-1.915-.287-.002-1.979c-.002-.47.248-.883.689-.972l2.001-.404c.808-.163.4-2.284,2.097-4.371.807-.992-.946-1.973-1.201-2.899-.19-.689.687-1.388,1.186-1.632l2.877,1.359,2.013-.982,2.197-.535.345-1.764c.298-1.526,1.2-1.48,2.828-1.529ZM10.006,19.081c.38.774.845,1.358,1.526,1.889l1.091.85c-.038.339.383.468.525.64.8.968,1.776,1.154,2.914,1.155,1.946.002,3.454-.673,4.827-1.926,1.392-1.27,2.219-2.728,2.3-4.682.073-1.746-.284-3.377-1.476-4.746-.241-.277-.529-.538-.91-.482-1.841-2.069-4.758-2.833-7.414-1.769-3.56,1.426-5.042,5.692-3.382,9.072Z" fill="#e3d5cf"/>
  <path d="M7.64,5.114l-.197.731c-.499.244-1.376.944-1.186,1.632.255.926,2.008,1.907,1.201,2.899-1.698,2.087-1.289,4.208-2.097,4.371l-2.001.404c-.441.089-.69.502-.689.972l.002,1.979c-.192-.029-.625.055-.79-.161-.213-.334-.13-.85-.122-1.205l.055-2.529,3.11-.465c.338-1.304.755-2.478,1.401-3.603.188-.328.117-.639-.076-.932l-1.395-2.112.026-.302.653-.753,1.376-1.25c.227-.206.562.211.731.324Z" fill="#fcf3ef"/>
  <path d="M14.394,1.626h.938c.696-.008,1.475-.17,2.207.051.205.095.134.542.163.715-1.628.049-2.529.003-2.828,1.529l-.345,1.764-2.197.535-.009-.824,1.264-.383.532-3.071c.036-.21.189-.263.274-.316Z" fill="#fdf9f7"/>
  <path d="M5.387,25.793c-.158-.192-.728-.434-.597-.75l1.692-2.709c-.629-1.184-1.192-2.291-1.388-3.538.195.117.475.139.584.493.66,2.139,2.541,3.484.935,4.854-.814.695-.819,1.324-1.225,1.65Z" fill="#fcf3ef"/>
  <path d="M25.188,5.237l-2.095,1.585c-.549.408-1.212-.171-1.72-.109-.178.022-1.819.766-2.16.158-.397-.706.395-.987.066-1.536,1.781.538,2.492,1.482,3.147,1.005l2.104-1.535c.326-.238.503.309.659.431Z" fill="#fcf3ef"/>
  <polygon points="12.324 5.396 12.333 6.221 10.32 7.203 7.443 5.844 7.64 5.114 9.698 6.487 12.324 5.396" fill="#f5dad6"/>
  <path d="M14.718,30.377l-.658-.037-.235-2.912c.6.811.732,1.946.893,2.949Z" fill="#fcf3ef"/>
  <path d="M29.975,14.457l-2.438-.162c-.385-.024-.558-.302-.651-.59l2.777.41c.239.037.314.176.312.341Z" fill="#fcf3ef"/>
  <path d="M5.534,6.04l-.653.753c-.281-.16-.183-.402-.074-.544.184-.238.486-.313.727-.209Z" fill="#866450"/>
  <path d="M15.333,1.627h-.938c.08-.225.26-.46.546-.433.222.021.377.211.393.433Z" fill="#866450"/>
  <path d="M20.803,11.778c.672.756,1.052,1.622,1.314,2.578-.378.095-.474,1.287-.389,1.448.101.195.323.313.579.366.016,2.162-1.033,4.146-2.7,5.277-1.845,1.251-4.103,1.456-6.13.694.009-.348-.583-.434-.568-.946.006-.205.285-.359.473-.614,1.992,1.074,4.457.725,6.111-.737.275.023.591-.02.785-.208s.191-.589-.001-.837c1.203-2.195.914-5.042-1.084-6.682-2.026-1.663-4.871-1.545-6.74.13-1.916,1.717-2.279,4.539-.839,6.706-.571-.057-1.055.086-1.605.128-1.66-3.38-.177-7.647,3.382-9.072,2.656-1.064,5.573-.299,7.414,1.769Z" fill="#81614d"/>
  <path d="M12.623,21.82l.852.321c2.027.763,4.285.557,6.13-.694,1.667-1.131,2.716-3.114,2.7-5.277-.005-.64-.023-1.208-.189-1.814-.262-.956-.642-1.822-1.314-2.578.381-.056.668.205.91.482,1.193,1.369,1.549,3,1.476,4.746-.081,1.954-.908,3.412-2.3,4.682-1.373,1.253-2.881,1.928-4.827,1.926-1.138,0-2.114-.187-2.914-1.155-.142-.172-.563-.301-.525-.64Z" fill="#fcf3ef"/>
  <path d="M11.611,18.953c.432.651,1.071,1.251,1.769,1.627-.188.255-.467.409-.473.614-.015.512.577.598.568.946l-.852-.321-1.091-.85c-.681-.53-1.146-1.115-1.526-1.889.549-.043,1.033-.186,1.605-.128Z" fill="#866450"/>
  <path d="M22.306,16.17c-.255-.053-.477-.171-.579-.366-.084-.162.011-1.353.389-1.448.166.606.184,1.174.189,1.814Z" fill="#866450"/>
  <path d="M19.491,19.843l.784-1.045c.192.248.195.649.001.837s-.51.231-.785.208Z" fill="#866450"/>
  <path d="M31.678,14.153c-.003-.83-.633-1.537-1.463-1.644l-2.13-.275c-.222-.902-.583-1.683-.944-2.408l1.147-1.775c.395-.612.574-1.52.036-2.067l-2.466-2.505c-.624-.634-1.482-.693-2.183-.149l-1.759,1.361-.901-.45-.08.016c-.017.003-.032.005-.045.007l.002-.068-.155-.064c-.33-.137-.67-.278-1.102-.361l-.395-2.519c-.115-.733-.732-1.245-1.502-1.245l-3.634-.005h-.003c-.782,0-1.341.469-1.459,1.225l-.009.057.015.048-.099-.02-.339,2.387-.698.24-.066.069-.039.112-.116-.098-1.389.616-1.867-1.335c-.707-.507-1.515-.426-2.16.211l-2.414,2.389c-.366.363-.476.911-.3,1.504.186.629.638,1.18,1.001,1.622.197.24.467.569.466.667l-.931,2.587-2.023.241c-.901.108-1.553.852-1.55,1.77l.008,2.974c0,.037.004.081.008.129.005.058.014.164.001.195l-.141.311.103.014.011.148c.07.917.717,1.534,1.733,1.649l1.764.2c.285.859.573,1.604.993,2.368l-1.266,1.8c-.41.583-.49,1.539.087,2.125l2.388,2.428c.607.62,1.564.652,2.325.08l1.653-1.244.111.057c.75.388,1.461.756,2.333.911l.256,2.39.098.062c.13.082.19.2.179.349l-.006.081.045.069c.246.373.606.572,1.042.576l3.734.037h.023c.936,0,1.598-.555,1.689-1.418l.227-2.147c.777-.179,1.521-.461,2.429-.924l1.619,1.201c.782.581,1.8.517,2.419-.147l2.323-2.49c.513-.55.396-1.489-.015-2.078l-1.177-1.692c.46-.724.779-1.48,1.018-2.412l2.208-.314c.819-.116,1.346-.766,1.343-1.656l-.013-3.771ZM26.672,18.294l-.034.123c-.395,1.434-.912,2.624-1.626,3.746l-.083.13,1.795,2.803-2.067,2.037-1.949-1.43c-.466-.341-.906-.377-1.31-.109-1.118.746-2.388,1.085-3.369,1.297l-.164.035-.473,3.218-2.66-.009-.448-.025-.223-2.771-.041-.056c-.15-.203-.381-.456-.63-.51-1.189-.255-2.332-.739-3.595-1.521l-.141-.087-2.62,1.994c-.56-.432-1.117-1.106-1.46-1.522-.067-.08-.164-.152-.267-.228-.085-.062-.286-.21-.312-.239l1.765-2.828-.066-.123c-.658-1.24-1.176-2.281-1.363-3.463l-.009-.105-.097-.059c-.009-.009-.031-.041-.047-.064-.084-.124-.224-.331-.556-.381l-1.915-.287c-.061-.009-.144-.009-.235-.009-.111,0-.35.003-.386-.042-.13-.206-.112-.546-.095-.846.005-.079.009-.155.01-.224l.051-2.325,3.067-.459.04-.155c.373-1.442.798-2.534,1.376-3.543.216-.375.187-.774-.084-1.185l-1.348-2.043.032-.372-.135-.077c-.038-.022-.058-.043-.061-.053-.003-.017.009-.068.059-.132.11-.144.29-.2.439-.135l.144.062,1.469-1.348c.063.004.223.145.291.205.062.055.119.104.165.134l2.166,1.445,2.722-1.132,1.407-.427.557-3.218c.011-.063.036-.08.163-.151l.072-.044.029-.08c.025-.068.121-.295.295-.272.111.01.168.115.174.209l.016.228.228-.003c.2-.002.406-.017.616-.032.508-.037,1.033-.075,1.465.044.033.049.035.238.035.329,0,.087.003.166.012.222l.45,2.743,1.295.391c.709.214,1.247.497,1.68.724.655.344,1.172.615,1.679.245l2.109-1.549c.043.017.13.147.171.209.06.09.116.174.19.232.786.618,1.357,1.163,1.702,1.621l-1.754,2.645.068.128c.725,1.367,1.216,2.77,1.601,3.96l.046.143,2.924.432c.107.017.107.043.106.098l-.04,3.34c-.195.02-.387.037-.577.054-.794.071-1.544.137-2.322.405l-.121.042Z" fill="#815f4b"/>
</svg>
