<?xml version='1.0' encoding='utf-8'?>
<svg xmlns="http://www.w3.org/2000/svg" viewBox="0 0 55.563 32">
  <path d="M38.752,27.942c-2.67,2.726-6.852,2.692-9.734.329.242-1.429-.781-2.737-2.135-3.197l-.237-.662c.297.118.454-.003.466-.127l.061-.667c.446-1.703.824-3.741-.057-4.772l.865-1.622c2.186-2.817,6.004-3.611,9.155-1.849,2.21,1.236,3.58,3.499,3.879,5.815.323,2.495-.549,5-2.264,6.752ZM29.031,21.011l4.48-4.701c-2.271-.954-4.227.641-5.026,2.648-.292.734-.353,1.592.545,2.053Z" fill="#fdf4ef"/>
  <path d="M16.305,18.246c.144.315.127.688.425.945.012.804.122,1.761.073,2.588l-3.548-1.126c-.259-.085-.261-.735-.372-1.172l-5.646,4.089c-.857.621-1.862,1.028-2.61,1.859l.191,1.712-.202-.009c-.919-1.139-1.804-2.253-2.261-3.756-1.374-4.513,1.437-9.413,6.221-9.972,3.474-.406,6.378,1.886,7.729,4.842ZM6.093,18.05c1.084-.655,2.248-1.162,2.818-2.488-.651-.613-1.729-.58-2.498-.105-1.908,1.178-3.395,3.474-2.474,4.261.18.154.563.14.831.08.876-.198.966-1.258,1.323-1.747Z" fill="#f8e5de"/>
  <path d="M16.803,21.779l-.027.466c-.37.005-.694.253-.949.627l-1.173,1.715c-.334.489.141,1.227.402,1.691-2.465,3.281-7.288,3.761-10.238.863l-.191-1.712c.749-.831,1.753-1.238,2.61-1.859l5.646-4.089c.111.436.113,1.087.372,1.172l3.548,1.126Z" fill="#fdf4ef"/>
  <path d="M26.647,24.413c-.649-1.815-.44-3.862.47-5.567.881,1.031.503,3.07.057,4.772l-.061.667c-.011.124-.169.245-.466.127Z" fill="#f8e5de"/>
  <path d="M16.776,22.245l-.323,1.759c-.165.897-.873,1.577-1.397,2.274-.262-.464-.737-1.202-.402-1.691l1.173-1.715c.256-.374.579-.622.949-.627Z" fill="#f8e5de"/>
  <path d="M29.018,28.272c-1.034-.848-1.681-1.928-2.135-3.197,1.354.459,2.377,1.768,2.135,3.197Z" fill="#f8e5de"/>
  <path d="M54.166,6.291c-1.147-.886-2.619-1.053-3.844-.435-1.205.608-1.917,1.638-2.491,2.557l-5.801,9.287c-1.176-2.007-2.477-3.33-4.133-4.221-3.977-2.139-8.936-.962-11.539,2.753-.606.864-1.146,1.634-1.551,2.731-1.447-.864-3.092-1.116-5.003-.767l-1.467.269c-.697-2.441-2.172-4.444-4.197-5.685-1.746-1.068-3.823-1.516-5.983-1.311,2.257-2.688,4.651-5.024,7.46-7.705l1.518-.953c.51-.32,1.225-.347,1.781-.065.745.376.934.964,1.118,1.532.161.504.46,1.437,1.516,1.217.552-.115.936-.554,1.027-1.173.171-1.159-.667-2.956-2.187-3.784-1.313-.714-2.931-.717-4.328-.007-1.519.772-2.85,1.766-4.071,3.04l-5.94,6.196c-1.876,1.956-3.42,4.028-4.722,6.332-2.416,4.278-1.465,9.611,2.259,12.682,1.632,1.346,3.079,2.03,4.689,2.218,4.614.534,8.852-2.266,10.099-6.666.299-1.053.423-1.991.401-3.065,1.431-.712,3.455-.778,4.687-.116.544.292.83.674.848,1.138.093,2.399.852,4.559,2.193,6.247,1.693,2.132,4.219,3.393,6.929,3.462.079.001.156.002.235.002,2.654,0,5.167-1.133,6.926-3.133,1.99-2.263,2.82-4.858,2.466-7.719l6.957-11.402.167-.278c.343-.575.697-1.168,1.116-1.358.279-.126.57-.11.861.045.427.227.761.707.851,1.223.042.242.171.979.833,1.24.337.13.758.086,1.103-.118.328-.196.541-.514.585-.873.156-1.264-.381-2.573-1.371-3.337ZM33.616,15.088c1.088,0,2.192.274,3.209.844,1.935,1.082,3.265,3.079,3.557,5.341.293,2.263-.487,4.589-2.087,6.223-2.34,2.389-6.154,2.511-8.873.282-.863-.708-1.479-1.634-1.939-2.917l-.236-.663c-.577-1.613-.42-3.454.431-5.05l.807-1.531c1.277-1.647,3.179-2.528,5.13-2.528ZM3.83,17.035c1.113-1.7,2.824-2.765,4.821-2.997,3.525-.42,6.014,2.152,7.075,4.473.034.075.052.153.073.232.054.201.122.458.3.698.008.234.022.479.036.726.03.536.061,1.091.033,1.574l-.341,2.147c-.1.542-.492,1.025-.907,1.536-.128.157-.254.313-.373.469-1.093,1.455-2.759,2.369-4.571,2.504-1.771.135-3.449-.475-4.71-1.712l-.175-.172-.158-.007c-.786-.979-1.568-2.006-1.967-3.317-.638-2.097-.323-4.34.864-6.153Z" fill="#785847"/>
  <path d="M29.031,21.011c-.898-.461-.837-1.319-.545-2.053.799-2.007,2.755-3.602,5.026-2.648l-4.48,4.701Z" fill="#fff"/>
  <path d="M6.093,18.05c-.357.489-.447,1.549-1.323,1.747-.267.06-.651.074-.831-.08-.921-.787.566-3.083,2.474-4.261.769-.474,1.847-.508,2.498.105-.571,1.327-1.734,1.834-2.818,2.488Z" fill="#fff"/>
</svg>
