<?xml version='1.0' encoding='utf-8'?>
<svg xmlns="http://www.w3.org/2000/svg" viewBox="0 0 27.103 32">
  <path d="M21.57,2.232l-.667-.567c.16-.662.067-1.145-.277-1.435-.246-.207-.581-.276-.972-.199-.644.129-1.306.635-1.499,1.009-.172.334-.165.682.019,1.038l-.431.655c-3.019-1.475-6.541-1.654-9.7-.488-3.221,1.189-5.814,3.691-7.112,6.862l-.049.12.02.038c-.131.178-.186.358-.239.532l-.043.135c-.715,2.138-.814,4.499-.286,6.827.653,2.877,2.535,5.571,4.942,7.096l-.314.588c-.433.029-.861.121-1.164.46-.325.364-.446.906-.325,1.451.114.513.462.92.907,1.061.349.111.855.129,1.357-.357,1.615.809,3.393,1.299,5.42,1.495l.02.873-2.034.062-1.337.26c-.642.125-.877.741-.824,1.261.061.602.537.99,1.214.99h.005l7.948-.019c.498-.001.849-.141,1.074-.427.274-.348.314-.829.107-1.286-.151-.335-.569-.685-1.076-.705l-3.054-.124.006-.888c7.518-.468,13.46-6.444,13.871-14.005.261-4.805-1.799-9.408-5.511-12.315ZM22.647,13.508l-.003.8c-.003.851-.248,1.699-.477,2.426-.238.757-.479,1.359-.758,1.895-1.217,2.337-3.382,4.174-5.941,5.039-.789.267-1.644.424-2.774.51-2.214.167-4.38-.403-6.263-1.65-.068-.045-.148-.083-.231-.122-.067-.031-.178-.082-.202-.114l-.031-.08-.074-.049c-2.008-1.336-3.414-3.468-3.956-6.005-.403-1.885-.313-3.822.259-5.602.1-.31.236-.617.368-.914.061-.137.121-.273.178-.409.957-2.281,2.964-4.156,5.652-5.279,2.105-.88,4.38-1.022,6.578-.407,1.026.286,1.929.677,2.684,1.163l.463.298c1.07.688,2.001,1.642,2.693,2.76l.116.186c.185.297.376.604.537.921.789,1.556,1.187,3.115,1.181,4.634ZM6.812,24.773c4.93,2.109,10.395,1.136,13.992-2.515l.664-.732c2.24-2.669,3.22-6.046,2.758-9.507-.447-3.348-2.256-6.381-4.979-8.365l.381-.559c.1.045.195.108.298.183,3.567,2.606,5.563,6.771,5.339,11.141-.344,6.7-5.674,12.011-12.398,12.353-2.093.106-4.228-.351-6.351-1.361.062-.209.155-.408.297-.638Z" fill="#86634a"/>
  <path d="M1.129,9.427l.059-.214c.055.103.03.226-.059.214Z" fill="#876d5a"/>
  <path d="M14.967,3.498c.212.003.45.019.681.13l-.938.853c-1.459.821-2.766,1.995-3.855,3.303,1.921,1.258,3.857,2.133,5.904,3.016.508-1.792.901-3.786.608-5.481-.041-.183-.063-.392.041-.6.055-.11.213-.209.399-.244l.463.297c.156.324.244.663.288,1.056l.088.795c-.06,1.561-.48,3.064-.89,4.627l2.358,1.022c.109.047.221.049.315.008.08-.035.147-.156.182-.301.263-1.106.138-2.205-.008-3.332l-.136-.898c.126-.069.302-.086.437-.042l.651,1.064c.381,1.344.151,2.76.041,4.162-.229.372-.276.811-.37,1.25-.628,2.208-1.56,4.281-3.148,6.04.169.331.453.453.778.527-.171.245-.138.883-.698.89l-.677-.208c-.056-.063-.111-.166-.185-.189-.126-.038-.26-.022-.372.059l-2.166,1.569c-.13.094-.224.146-.219.27-.921.313-2.426.677-3.156.476,1.702-.728,3.223-1.767,4.753-2.984l-2.197-1.316c-1.116,1.535-2.37,2.862-3.783,4.026l-1.078.436c-.425.053-.832-.205-1.193-.428l.217-.323c.582-.085,1.076-.396,1.595-.782,1.304-.971,2.356-2.171,3.315-3.513l-5.956-3.046c-.557,2.298-.509,4.536-.232,6.742-.009.09-.056.19-.118.227-.194.115-.567-.225-.963-.269l-.062-.817-.096-2.037c.029-1.476.241-2.862.52-4.306l-3.362-1.37c-.295-.271-.712-.29-1.099-.482-.045-.379.019-.694.169-1.04l1.088.301c1.133.513,2.283.953,3.457,1.564.571-2.119,1.517-3.995,2.705-5.795.132-.2.034-.385-.142-.495-.862-.54-1.683-1.062-2.425-1.701-.218-.188-.52-.459-.665-.766-.13-.275.273-.422.445-.472.259-.075.488.058.663.278.153.247.423.308.592.423l2.342,1.592c.894-1.065,1.78-1.973,2.875-2.74.124-.087.194-.186.211-.311.442.07,1.106-.732,2.01-.719ZM13.661,17.855c1.23-1.932,2.113-3.858,2.774-5.96l-1.626-.794c-1.592-.777-3.143-1.521-4.672-2.442-1.2,1.846-2.286,3.877-2.791,5.97l2.7,1.323,3.616,1.903ZM19.173,16.654c.503-1.011.905-1.965,1.102-3.054l-2.887-1.25c-.661,2.198-1.592,4.159-2.803,6.04l2.381,1.415c.966-.897,1.61-1.967,2.207-3.151Z" fill="#99a4a4"/>
  <path d="M21.594,14.173c.019.769-.016,1.516-.177,2.263-.145.67-.43,1.28-.772,1.888-.476.846-1.189,1.74-1.791,2.429-.171.245-.138.883-.698.89l-.677-.208c-.195.289-.446.59-.792.754l-2.063.98c-.02.005-.063.002-.087-.024-.921.313-2.426.677-3.155.476-.385-.106-.848-.059-1.227-.274l-1.078.436c-.425.053-.832-.205-1.193-.428l.217-.323c-.356-.288-.83-.472-1.279-.598-.009.09-.056.19-.118.227-.194.115-.567-.225-.963-.269.072.189.362.249.538.365,1.919,1.271,4.136,1.87,6.437,1.696,1.009-.076,1.94-.219,2.842-.523,2.591-.875,4.834-2.744,6.098-5.174.324-.622.567-1.273.777-1.939.257-.815.487-1.655.49-2.508-.505.283-.762-.159-1.327-.136Z" fill="#fff"/>
  <path d="M5.021,21.078c-1.575-1.88-2.582-4.774-2.281-7.216-.295-.271-.712-.29-1.099-.482-.045-.379.019-.694.169-1.04l1.088.301c.17-.831.335-1.668.663-2.413.429-.976,1.06-1.866,1.786-2.694l1.145-1.32c-.218-.188-.52-.459-.665-.766-.13-.275.273-.422.445-.472.259-.075.488.058.663.278.153.247.423.308.592.423.067-.113.13-.208.232-.275,1.305-.854,3.732-1.416,5.196-1.184.442.07,1.106-.732,2.01-.719.212.003.45.019.682.13l-.938.853c.954.14,1.833.411,2.657.837-.041-.183-.063-.392.041-.6.055-.11.213-.209.398-.244-.849-.546-1.794-.927-2.759-1.197-2.231-.622-4.583-.491-6.76.418-2.556,1.068-4.755,2.935-5.801,5.427-.185.442-.405.879-.555,1.346-.598,1.861-.673,3.842-.266,5.745.54,2.523,1.936,4.755,4.074,6.177l-.062-.817c-.253-.062-.464-.267-.657-.497Z" fill="#fff"/>
  <path d="M21.594,12.935c.481.098.936.309,1.33.574.006-1.666-.459-3.278-1.211-4.76l-.161.024c.381,1.344.151,2.76.041,4.162Z" fill="#fff"/>
  <path d="M18.645,6.624c.293-.012.41.274.618.428.39.288.786.58,1.202.699.126-.069.302-.086.437-.042.035.012.095-.027.146-.088-.697-1.127-1.66-2.129-2.779-2.848.156.324.244.663.288,1.056l.088.795Z" fill="#fff"/>
  <path d="M22.924,13.509l-.003.8c-.505.283-.762-.159-1.327-.136-.118.005-.246-.027-.371.012.094-.439.142-.878.37-1.25.481.098.936.309,1.33.574Z" fill="#c5cfcd"/>
  <path d="M21.713,8.749l-.161.024-.651-1.064c.035.012.095-.027.146-.088.229.37.465.733.665,1.128Z" fill="#d2ded5"/>
  <path d="M13.661,17.855l-3.616-1.903-2.7-1.323c.506-2.093,1.592-4.124,2.791-5.97,1.528.921,3.079,1.665,4.672,2.442l1.626.794c-.661,2.102-1.543,4.028-2.774,5.96Z" fill="#d2ded5"/>
  <path d="M8.1,23.033c-.356-.288-.83-.472-1.279-.598-.277-2.207-.325-4.444.232-6.742l5.956,3.046c-.959,1.342-2.011,2.542-3.315,3.513-.519.386-1.012.697-1.595.782Z" fill="#d2ded5"/>
  <path d="M2.899,12.641c.17-.831.335-1.668.663-2.413.429-.976,1.06-1.866,1.786-2.694l1.145-1.32c.742.64,1.563,1.161,2.425,1.701.176.111.274.295.142.495-1.187,1.8-2.134,3.676-2.705,5.795-1.174-.611-2.324-1.051-3.457-1.564Z" fill="#d2ded5"/>
  <path d="M14.71,4.481c.954.14,1.833.411,2.657.837.293,1.695-.1,3.69-.608,5.481-2.047-.883-3.983-1.758-5.904-3.016,1.089-1.307,2.396-2.481,3.855-3.303Z" fill="#d2ded5"/>
  <path d="M19.173,16.654c-.597,1.184-1.241,2.254-2.207,3.151l-2.381-1.415c1.212-1.88,2.142-3.842,2.803-6.04l2.887,1.25c-.197,1.089-.599,2.043-1.102,3.054Z" fill="#d2ded5"/>
  <path d="M5.678,21.576c-.253-.062-.464-.267-.657-.497-1.575-1.88-2.582-4.774-2.281-7.216l3.362,1.37c-.279,1.444-.491,2.83-.52,4.306l.096,2.037Z" fill="#d2ded5"/>
  <path d="M20.465,7.751l.136.898c.147,1.127.271,2.226.008,3.332-.035.145-.102.266-.182.301-.094.041-.206.039-.315-.008l-2.358-1.022c.41-1.563.83-3.066.89-4.627.293-.012.41.274.618.428.39.288.786.58,1.202.699Z" fill="#d2ded5"/>
  <path d="M11.381,23.621c-.385-.106-.848-.059-1.227-.274,1.413-1.164,2.667-2.491,3.783-4.026l2.197,1.316c-1.529,1.217-3.051,2.255-4.753,2.984Z" fill="#d2ded5"/>
  <path d="M12.957,4.217c-.018.125-.087.224-.211.311-1.095.767-1.981,1.675-2.875,2.74l-2.342-1.592c.067-.113.13-.208.232-.275,1.305-.854,3.732-1.416,5.196-1.184Z" fill="#d2ded5"/>
  <path d="M21.594,14.173c.019.769-.016,1.516-.177,2.263-.145.67-.43,1.28-.772,1.888-.476.846-1.189,1.74-1.791,2.429-.325-.074-.609-.196-.778-.527,1.588-1.759,2.52-3.833,3.148-6.04.124-.039.253-.007.371-.012Z" fill="#d2ded5"/>
  <path d="M17.478,21.435c-.195.289-.446.59-.792.754l-2.063.98c-.02.005-.063.002-.087-.024-.005-.125.089-.176.219-.27l2.166-1.569c.111-.081.246-.097.372-.059.074.023.13.126.185.189Z" fill="#d2ded5"/>
</svg>
