<?xml version='1.0' encoding='utf-8'?>
<svg xmlns="http://www.w3.org/2000/svg" viewBox="0 0 35.099 32">
  <!-- heart.svg の緑バージョン（メンタルゲージ用） -->
  <path d="M28.352.459c-4.006-1.353-8.524.377-10.579,3.971-.044.061-.148.185-.215.17-.153-.033-2.467-4.429-7.662-4.579C6.65-.072,3.577,1.514,1.805,4.205.054,6.864-.354,10.024.284,13.032l.149.443c.109-.045.141.039.138.092-.003.081-.02.213-.056.262.955,4.117,5.852,8.995,9.143,12.053,2.284,2.123,4.64,4.02,7.144,5.861.384.283.924.357,1.311.093,1.934-1.321,3.604-2.85,5.399-4.332l1.581-1.305,4.988-5.01c1.735-1.742,3.076-3.721,4.021-5.986,2.47-5.925.275-12.708-5.749-14.744ZM28.885,20.138c-3.447,3.772-7.206,7.129-11.359,10.161l-2.582-1.932-1.475-1.237c-.995-.835-1.944-1.728-2.906-2.584-2.182-1.94-5.521-5.521-7.006-8.024-.705-1.189-1.342-2.352-1.65-3.639-.128.034-.147-.088-.03-.119l-.115-.379c-.331-1.989-.219-3.97.591-5.901C3.597,3.515,6.473,1.5,9.766,1.568c2.569.053,4.844,1.563,6.186,3.587l.499.753c.239.361.216.922.571,1.306.273.296.751.175,1.026.22,1.107-3.756,4.932-6.514,8.795-5.74,2.072.415,3.832,1.694,5.004,3.371,3.515,5.034.975,10.764-2.963,15.073Z" fill="#81614d"/>
  <path d="M.515,13.829l-.082-.354c.109-.045.141.039.138.092-.003.081-.02.213-.056.262Z" fill="#876d5a"/>
  <path d="M31.847,5.065c3.515,5.034.975,10.764-2.963,15.073-3.447,3.772-7.206,7.129-11.359,10.161l-2.582-1.932c.074-.29-.31-.439-.4-.6-.275-.49-.59-.636-.897-.932l-2.761-2.613.017-.219c-.109-.167-.267-.296-.461-.356l-1.195-1.379c-1.346-1.554-2.468-3.165-3.459-4.993s-1.541-3.84-1.617-5.948c-.113-3.154,1.654-6.063,4.633-7.132,1.68-.603,3.584-.472,5.228.094l1.919.867.499.753c.239.361.216.922.571,1.306.273.296.751.175,1.026.22l.668,1.373c2.132-3.841,5.081-5.725,9.563-5.467,1.367.255,2.494.92,3.568,1.724Z" fill="#97c489"/>
  <path d="M15.951,5.155l-1.919-.867c-1.643-.565-3.547-.696-5.228-.094-2.98,1.069-4.747,3.978-4.633,7.132.076,2.108.63,4.127,1.617,5.948s2.113,3.439,3.459,4.993l1.195,1.379c.117.135.229.347.461.356l-.017.219c-.011.133-.144.225-.323.324-2.182-1.94-5.521-5.521-7.006-8.024-.705-1.189-1.341-2.352-1.65-3.639l-.03-.119-.115-.379c-.331-1.989-.219-3.97.591-5.901C3.597,3.515,6.473,1.5,9.766,1.568c2.569.053,4.844,1.563,6.186,3.587Z" fill="#fdfaf9"/>
  <path d="M31.847,5.065c-1.074-.805-2.201-1.469-3.568-1.724-4.482-.258-7.431,1.626-9.563,5.467l-.668-1.373c1.107-3.756,4.932-6.514,8.795-5.74,2.072.415,3.832,1.694,5.004,3.371Z" fill="#fdfaf9"/>
  <path d="M13.646,26.835l-.177.295c-.995-.835-1.944-1.728-2.906-2.583.179-.1.312-.191.323-.324l2.761,2.613Z" fill="#eaf3e4"/>
  <path d="M14.943,28.367l-1.475-1.237.177-.295c.307.296.623.442.897.932.091.161.475.31.4.6Z" fill="#cbdcc2"/>
  <path d="M1.906,12.883c-.128.034-.147-.088-.03-.119l.03.119Z" fill="#876d5a"/>
  <path d="M10.903,24.003c-.231-.009-.344-.221-.461-.356.194.06.352.189.461.356Z" fill="#eaf3e4"/>
</svg>
