<?xml version='1.0' encoding='utf-8'?>
<svg xmlns="http://www.w3.org/2000/svg" viewBox="0 0 42.806 32">
  <path d="M30.279,1.602c-.119.291-.062.645.18.903.587.626.914,1.361,1.295,2.108,1.92,3.771-1.535,6.528-3.289,8.928l-1.754,2.4c-.528.723-1.178,1.261-1.731,1.982l-8.298-6.077,6.123-8.106c1.227-1.625,3.266-2.384,5.265-2.538.826-.049,1.474.152,2.208.4ZM23.471,7.898c1.06-1.293,2.07-2.413,3.369-3.324.3-.211.39-.644.28-.894-.311-.703-2.075-.38-3.055.959l-4.288,5.862c-.192.262-.137.633-.066.814.084.213.633.399.826.164l2.935-3.581Z" fill="#eab1ae"/>
  <path d="M17.244,13.691c-.414.06-.746.324-.968.692l-1.418,2.347-3.239,4.695c-1.437,2.083-1.239,3.786-.45,3.588.872-.218.633-1.682,1.487-2.76,1.646-2.079,3.035-4.242,4.412-6.512.305-.504.658-.925,1.186-1.024.367-.089.553.022.759.18l5.367,4.119-5.997,7.667c-.992,1.274-2.754,1.915-4.36,1.673-1.29-.195-2.309-1.052-3.337-1.773-.421.009-.73.29-1.104.276-.786-2.05-.349-4.327.934-6.181l5.423-7.833c.641.157.909.603,1.305.847Z" fill="#fbf7f1"/>
  <path d="M9.582,26.859c.374.014.683-.267,1.104-.276,1.029.72,2.047,1.578,3.337,1.773,1.606.242,3.368-.399,4.36-1.673l5.997-7.667,2.084,1.657-6.634,8.188c-1.416,1.748-3.681,2.304-5.975,1.789-1.811-.407-3.492-1.753-4.273-3.791Z" fill="#f6dfca"/>
  <path d="M24.98,17.923c.553-.722,1.203-1.259,1.731-1.982l1.754-2.4c1.754-2.4,5.208-5.157,3.289-8.928-.38-.747-.707-1.482-1.295-2.108-.242-.258-.298-.612-.18-.903,2.549.859,4.107,3.246,4.159,5.971.038,2.007-.776,3.818-2.02,5.408l-5.228,6.685-2.21-1.743Z" fill="#df9891"/>
  <path d="M17.244,13.691c.447.275.953.452,1.009,1.026-.528.098-.88.52-1.186,1.024-1.377,2.27-2.766,4.434-4.412,6.512-.854,1.078-.615,2.542-1.487,2.76-.79.197-.987-1.505.45-3.588l3.239-4.695,1.418-2.347c.222-.368.554-.632.968-.692Z" fill="#fffefe"/>
  <path d="M23.471,7.898l-2.935,3.581c-.193.235-.741.049-.826-.164-.071-.181-.125-.551.066-.814l4.288-5.862c.98-1.339,2.743-1.662,3.055-.959.111.25.021.684-.28.894-1.3.911-2.309,2.031-3.369,3.324Z" fill="#f0dfd6"/>
  <path d="M35.593,6.569c.284,2.053-.163,4.183-1.406,5.905l-2.949,4.12h3.244l.697,2.515,1.506-6.413c.079-.337.459-.433.7-.382.207.044.438.204.513.489l1.069,4.048,3.346.038c.379.004.525.432.487.705-.037.265-.245.579-.633.571l-4.072-.083-.848-2.34-1.441,6.279c-.077.335-.409.406-.636.405-.238-.001-.557-.072-.638-.401l-1.037-4.121h-3.477l-8.954,11.416c-2.265,2.591-5.764,3.384-8.861,2.016-.29-.128-.518-.21-.738-.311-2.917-1.783-4.242-5.362-3.1-8.757.566-1.683,2.605-4.632,2.605-4.632h-2.975l-1.018-4.485-1.385,5.91c-.137.584-.952.629-1.152.063l-.539-1.526H.629c-.392-.009-.596-.284-.626-.571-.02-.196.056-.618.381-.616h4.152l.26.882,1.584-7.145c.071-.334.435-.505.674-.5.27.005.557.188.633.538l1.328,6.136h2.967L21.135,3.781C23.289.834,26.828-.729,30.428.334c2.841.838,4.774,3.407,5.165,6.236ZM24.98,17.923l2.21,1.743,5.228-6.685c1.244-1.59,2.058-3.402,2.02-5.408-.052-2.725-1.609-5.112-4.159-5.971-.734-.247-1.382-.449-2.208-.4-1.999.153-4.038.912-5.265,2.538l-6.123,8.106,8.298,6.077ZM9.582,26.859c.781,2.038,2.462,3.384,4.273,3.791,2.294.515,4.559-.041,5.975-1.789l6.634-8.188-2.084-1.657-5.367-4.119c-.206-.158-3.053-2.053-3.074-2.053s-5.423,7.833-5.423,7.833c-1.284,1.855-1.72,4.132-.934,6.181Z" fill="#81614d"/>
</svg>
