<?xml version='1.0' encoding='utf-8'?>
<svg xmlns="http://www.w3.org/2000/svg" viewBox="0 0 41.02 32">
  <path d="M37.142,15.423l-.678,2.088,3.681-.031c.664-.029.972-.704.85-1.238-.133-.585-.648-.807-1.325-.79l-2.527-.029Z" fill="#ea9781"/>
  <path d="M3.823,15.366l.78,2.052-3.678.15c-.665.003-1.005-.655-.91-1.194.104-.591.608-.838,1.285-.854l2.523-.154Z" fill="#ea9781"/>
  <path d="M36.588,4.332C34.809,1.763,32.027.19,28.952.017c-3.161-.179-6.085,1.042-8.216,3.442.216-.243-2.638-2.187-2.93-2.34-2.64-1.389-5.499-1.43-8.249-.393-1.14.43-2.208,1.046-3.111,1.869-3.286,2.993-4.413,7.582-2.951,11.946l.153.891.791,2.075c1.573,2.87,3.476,5.314,5.821,7.472,2.748,2.529,5.747,4.706,9.169,6.653.431.245.85.368,1.264.368.412,0,.818-.121,1.226-.362,5.088-3.018,9.113-6.256,12.305-9.9,3.891-4.443,6.556-11.348,2.363-17.406ZM35.268,15.453c-.106.212-.184.443-.26.667-.154.459-.301.892-.673,1.189l-.04.032-.018.048c-.503,1.347-1.46,2.36-2.474,3.434l-.097.103c-2.75,2.916-6.113,5.603-10.279,8.216-.531.333-.938.326-1.494-.018-3.018-1.876-6.185-3.997-8.893-6.797-1.368-1.416-2.778-2.986-3.814-4.872-.07-.128-.143-.255-.216-.383-.306-.531-.595-1.032-.694-1.609l-.031-.076c-.015-.02-.042-.049-.076-.082-.021-.02-.065-.063-.071-.068l-.17-.583c-.899-2.99-.907-5.335-.025-7.379,1.29-2.992,4.002-4.865,7.077-4.889h.037c.635,0,1.189.119,1.775.246l.052.011c2.2.475,3.985,1.884,5.025,3.966.132.264.451.427.833.427h.012c.393-.004.718-.173.847-.443.839-1.75,2.117-2.952,3.911-3.676,3.48-1.404,7.533.02,9.428,3.316,1.656,2.882,1.778,6.329.328,9.221Z" fill="#815f4b"/>
  <path d="M35.435,15.536l-8.167-.025-1.395-2.389c-.261-.447-.652-.624-1.101-.548-.389.066-.643.313-.836.736l-3.027,6.613-3.318-10.757c-.164-.531-1.307-.663-1.522-.167l-2.862,6.589-7.075-.095c-.03-.042-.154-.133-.174-.21.059-.019.034-.076-.042-.154l-.127-.423c.294.023.244-.264.241-.514-.028-1.907.613-3.588,1.201-5.318.875-2.575,3.234-4.831,5.879-5.309.682-.123,1.379-.553,1.815-1.106,2.296.495,4.104,1.964,5.152,4.065.222.445,1.148.424,1.357-.013.845-1.763,2.157-3.02,4.009-3.768,3.565-1.44,7.73.04,9.659,3.395,1.701,2.958,1.804,6.464.333,9.397Z" fill="#ea9781"/>
  <path d="M34.452,17.455c-.533,1.425-1.558,2.483-2.61,3.6-3.034,3.217-6.57,5.897-10.315,8.245-.621.389-1.109.344-1.692-.018-3.215-1.997-6.298-4.104-8.929-6.825-1.495-1.546-2.84-3.086-3.844-4.912l6.463-.014c.552.002.94-.202,1.163-.688l1.972-4.298,1.834,6.078,1.274,4.175c.13.426.359.759.745.834.264.052.852.095,1.039-.321l3.531-7.849c.387.51.654,1.655,1.426,1.873,1.418.401,2.999.049,4.479.051l3.462.069Z" fill="#ea9781"/>
  <path d="M35.435,15.536c-.311.62-.37,1.43-.983,1.919l-3.462-.069c-1.48-.003-3.061.35-4.479-.051-.772-.218-1.039-1.363-1.426-1.873l-3.531,7.849c-.187.416-.775.373-1.039.321-.387-.075-.615-.409-.745-.834l-1.274-4.175-1.834-6.078-1.972,4.298c-.223.486-.611.69-1.163.688l-6.463.014c-.363-.661-.801-1.295-.93-2.05l7.075.095,2.862-6.589c.215-.496,1.358-.365,1.522.167l3.318,10.757,3.027-6.613c.194-.423.447-.67.836-.736.448-.076.84.101,1.101.548l1.395,2.389,8.167.025Z" fill="#fdfaf9"/>
  <path d="M13.018,2.198c.69-.005,1.274.125,1.906.261-.435.554-1.133.983-1.815,1.106-2.645.478-5.004,2.734-5.879,5.309-.588,1.729-1.229,3.41-1.201,5.318.004.25.053.537-.241.514-.752-2.5-1.054-5.102-.018-7.506,1.296-3.005,3.997-4.976,7.247-5.002Z" fill="#faeee6"/>
  <path d="M5.958,15.283l-.042-.154c.076.078.101.135.042.154Z" fill="#faeee6"/>
</svg>
