<?xml version='1.0' encoding='utf-8'?>
<svg xmlns="http://www.w3.org/2000/svg" viewBox="0 0 36.064 32">
  <path d="M33.894,6.95c-.376.087-.58.36-.585.755l-.038,3.222,1.111.14-.121.607c-.394-.017-.666-.154-1.018-.615l-.677,2.086c-.103.317-.295.506-.6.483l.497-2.483c-.027-.068-.221-.126-.412-.074l-.47,1.753c-.437-.056-.522.226-.672.601-.625,1.568-1.593,2.92-2.643,4.258-.208.265-.126.531.086.692-.239.471-.801.82-.827,1.524.582-.062.867-.528,1.212-.823.528.346-.345,1.316-.812,1.44-.439.116-.83-.614-1.384-.31-.258.142-.165.511-.239.702-.147.375-.482.69-.855.813-.869.286-1.611,1.115-1.989,1.882-.233.473-.775.97-1.281,1.152-.38.137-.56.325-.944.6l-2.472,1.767c-.804.575-1.67.296-2.456-.102-.45-.228-.874-.564-1.063-1.012-.339-.806-1.096-1.538-1.916-2.087-.635-.425-.952-1.005-1.476-1.495-1.92-1.795-3.728-3.571-5.194-5.717-.256-.374-.625-.498-.895-.717-.42-.34-.747-1.041-.8-1.566-.055-.546-.082-1.244-.705-1.471-.163-.844-.08-1.698-.56-2.589-.454.698-.161,1.309-.057,1.846-.637-.02-1.038.451-1.62.572-.769-2.749-.428-5.463,1.237-7.839C5.566,1.651,9.941.539,13.708,2.417c2.877,1.434,3.546,3.73,4.427,3.669.689-.047,1.478-1.727,3.425-3.036,2.224-1.495,4.973-1.994,7.741-.967,2.06.765,3.824,2.615,4.593,4.866ZM8.448,3.456c-.381.018-.882.491-1.304.39-1.028-.244-2.476,1.245-2.178,1.842.21.422-.321.705-.389,1.006-.716-.141-1.006,1.105-1.058,2.357.056.104.463.12.528.071.089.174.552.286.681.039l1.142-2.189c1.187-2.277,4.069-1.939,3.611-3.565.421-.02.935.168,1.354-.382-1.162-.464-2.542-.209-2.386.431ZM28.927,4.016c-.719-.873-1.713-.82-2.472-.812.025.299-.025.394.003.453s.233.132.403.063c.683.066,1.333.628,2.066.295ZM14.252,4.575c-.284-.682-1.308-1.024-2.024-1.13-.068.66.599.736,1.013.997l.572.362c.143.09.524-.024.439-.229ZM23.256,3.653c-.78.131-1.69.49-1.976,1.191l-.203.244c-.549-.137-.859.347-1.271.587-.732.427-1.112.904-.857,1.644-.205.172-.539.506-.792.398l-1.026-.437c-.287.543.522,1.018,1.005,1.083.66.09.879-.627,1.233-.786.448-.201.798-.583,1.268-.866.753-.453,1.376-.822,1.864-1.591.121-.191.702-.282.568-.682.585-.186,1.188-.332,1.856-.79-.592-.466-1.15-.084-1.669.004ZM31.506,6.545c-.064-.931-.803-1.708-1.71-1.951.269.866.823,1.497,1.71,1.951ZM15.007,5.349c-.379.384.702,1.599,1.344,1.346.236-.093-.578-1.165-1.344-1.346ZM32.232,9.873c.474-.887.37-1.818-.428-2.423.012.879.025,1.615.428,2.423Z" fill="#b0d586"/>
  <path d="M34.261,11.673c-.23,1.157-.465,2.258-.954,3.356-2.607,5.853-8.376,10.764-13.787,14.603-.452.321-1.004.903-1.666.826-6.198-4.455-13.845-10.569-15.833-17.673.582-.122.983-.593,1.62-.572l.11.567c.038.198.371.126.507.176.622.226.65.925.705,1.471-.18-.11-.358-.248-.655-.167.284,1.284.9,2.46,1.345,2.148.088-.062.08-.282.109-.415.27.218.639.342.895.717,1.466,2.146,3.274,3.922,5.194,5.717.524.49.841,1.069,1.476,1.495.819.549,1.577,1.281,1.916,2.087-.146-.171-.786-.013-.693.189.284.616.956.92,1.526,1.298.204-.15.192-.32.229-.475.787.398,1.652.676,2.456.102l2.472-1.767c.384-.275.564-.462.944-.6-.129,1.156.466.493,1.696-.614.191-.172.168-.485-.053-.53-.085-.017-.217-.003-.362-.008.378-.767,1.12-1.596,1.989-1.882-.033.248-.287.478-.16.953.694-.347,1.085-.901,1.597-1.556-.095-.285-.349-.299-.582-.21.075-.19-.019-.56.239-.702.555-.304.946.426,1.384.31.468-.124,1.34-1.094.812-1.44.209-.179.31-.58.351-.925-.302-.013-.538.088-.737.223-.213-.161-.295-.426-.086-.692,1.05-1.338,2.017-2.691,2.643-4.258.15-.375.235-.656.672-.601-.07.262-.203.576-.077.896.222.046.402-.078.463-.092.305.023.497-.166.6-.483l.677-2.086c.351.461.623.598,1.018.615ZM30.459,16.554c.304-.618.832-1.087.665-1.764-.848.65-1.494,2.131-1.157,2.194.075.014.263.037.292-.022l.2-.407ZM6.64,17.558c-.219-.085-.485.105-.36.305l.795,1.268c.471.752,1.341.305-.435-1.574ZM10.353,22.25c-.243-.889-.932-1.436-1.672-1.773.192.847.703,1.561,1.672,1.773ZM13.239,24.887c-.401-.988-.987-1.437-1.82-1.751.204.889,1.025,1.706,1.82,1.751ZM20.284,26.527c-.603.537-1.523.67-1.913,1.596,1.661-.307,2.95-1.703,1.913-1.596Z" fill="#cee6cd"/>
  <path d="M34.382,11.066l-1.111-.14.038-3.222c.005-.396.208-.669.585-.755.453,1.326.777,2.668.489,4.117Z" fill="#cee6cd"/>
  <path d="M9.48,3.407c.458,1.625-2.424,1.288-3.611,3.565l-1.142,2.189c-.129.247-.592.134-.681-.039l.53-2.427c.068-.3.599-.584.389-1.006l2.178-1.842c.422.1.922-.372,1.304-.39l1.032-.049Z" fill="#fff"/>
  <path d="M23.256,3.653c-.174.21-.268.545-.187.787.134.399-.447.491-.568.682-.489.769-1.111,1.139-1.864,1.591-.47.282-.82.665-1.268.866.004-.174-.05-.253-.138-.278-.067-.02-.235-.021-.282.019-.255-.74.125-1.217.857-1.644.412-.24.722-.724,1.271-.587-.253.304-.717.469-.752,1.181.685-.148,1.236-.642,1.703-1.238-.006-.218-.547-.302-.748-.187.286-.701,1.196-1.06,1.976-1.191Z" fill="#cee6cd"/>
  <path d="M31.922,7.294c-.059-.045-.139-.052-.206-.019-.066.034-.108.102-.107.177.012.887.022,1.654.448,2.508.032.066.099.107.172.108h.003c.072,0,.138-.04.172-.103.541-1.012.356-2.035-.482-2.671Z" fill="#81614d"/>
  <path d="M35.585,6.74c-1.078-3.124-3.273-5.341-6.181-6.243-4.097-1.271-8.496.121-11.281,3.545C15.018.076,9.501-1.16,5.182,1.179,1.659,3.086-.312,6.834.04,10.963c.643,6.378,6.304,13.329,16.826,20.66.362.252.766.377,1.192.377.541,0,1.116-.203,1.676-.604,3.168-2.271,6.003-4.362,8.603-6.941,6.414-6.364,8.853-12.321,7.247-17.714ZM34.19,11.028l-.121.607c-.237,1.19-.471,2.26-.941,3.315-2.127,4.775-6.487,9.39-13.722,14.523-.092.065-.187.14-.287.219-.358.283-.767.606-1.196.576-6.311-4.539-13.783-10.629-15.716-17.535-.778-2.781-.36-5.435,1.209-7.675C5.691,1.815,9.982.778,13.621,2.592c1.612.804,2.509,1.876,3.164,2.66.516.617.899,1.065,1.363,1.03.408-.028.782-.448,1.301-1.028.544-.61,1.222-1.369,2.22-2.04,2.318-1.559,5.004-1.896,7.563-.946,2.016.748,3.731,2.566,4.476,4.746.421,1.23.77,2.568.482,4.015Z" fill="#81614d"/>
  <path d="M23.859,23.419c-.072-.015-.153-.014-.239-.012-.047.001-.099.002-.153,0-.077,0-.149.04-.183.109-.216.438-.72.891-1.172,1.055-.07.026-.119.089-.128.162-.038.339-.04.669.192.788.048.025.099.037.153.037.279,0,.642-.332,1.311-.941l.364-.331c.161-.145.231-.365.177-.561-.044-.159-.164-.273-.322-.305Z" fill="#81614d"/>
  <path d="M4.927,5.879c.013.003.026.004.039.004.046,0,.09-.016.126-.046l2.178-1.842c.056-.048.081-.123.064-.195s-.073-.127-.145-.145c-.716-.172-1.589.371-2.083.994-.342.43-.457.841-.315,1.125.027.054.077.092.135.104Z" fill="#81614d"/>
  <path d="M28.445,4.316c.182,0,.37-.034.564-.122.055-.025.096-.074.11-.134.014-.06-.001-.122-.04-.169-.748-.907-1.78-.897-2.525-.884h-.1c-.055.002-.106.025-.143.065-.037.04-.055.093-.05.148.013.149.004.242-.001.304-.006.073-.013.142.023.217.079.164.371.245.601.178.205.026.413.101.632.18.287.103.599.216.93.216Z" fill="#81614d"/>
  <path d="M32,10.881c-.067.018-.119.071-.137.138l-.47,1.753-.034.119c-.074.253-.168.567-.036.9.024.061.077.106.142.119.048.01.094.015.139.015.169,0,.309-.063.416-.11.071-.019.125-.077.14-.15l.496-2.483c.007-.037.004-.075-.01-.11-.078-.199-.397-.26-.645-.191Z" fill="#81614d"/>
  <path d="M19.168,8.022c.101-.117.196-.227.281-.265.069-.031.114-.098.116-.174.007-.336-.171-.439-.279-.471-.078-.023-.333-.051-.462.057h0s-.083.071-.083.071c-.129.111-.397.346-.508.297l-1.026-.437c-.093-.04-.202-.002-.249.089-.11.208-.11.43-.002.641.197.384.741.671,1.153.727.048.007.095.01.139.01.448,0,.718-.313.919-.546Z" fill="#81614d"/>
  <path d="M14.433,4.5h0c-.303-.729-1.323-1.122-2.176-1.249-.054-.006-.106.006-.148.039-.042.033-.069.081-.074.134-.065.637.428.861.788,1.024.11.05.219.098.314.159l.572.361c.067.043.15.061.235.061.143,0,.292-.053.385-.131.124-.104.164-.258.105-.4Z" fill="#81614d"/>
  <path d="M3.631,9.318s.121.025.253.025c.103,0,.213-.015.282-.068.037-.028.062-.068.072-.113l.53-2.427c.011-.051.002-.105-.027-.149-.029-.044-.074-.074-.126-.084-.213-.043-.413.007-.584.141-.546.43-.677,1.688-.707,2.399-.001.035.006.069.023.1.047.087.14.145.284.176Z" fill="#81614d"/>
  <path d="M5.156,14.407c-.006-.061-.04-.115-.092-.147l-.047-.029c-.173-.108-.41-.257-.761-.16-.101.027-.162.129-.14.231.223,1.007.682,2.115,1.204,2.317.059.023.119.034.178.034.093,0,.184-.029.266-.086.134-.094.153-.266.171-.418.005-.041.009-.081.016-.114.016-.073-.01-.148-.068-.194-.351-.284-.677-.927-.728-1.433Z" fill="#81614d"/>
  <path d="M4.254,13.15c.047,0,.094-.016.13-.048.052-.046.079-.115.066-.183-.048-.251-.074-.5-.102-.764-.062-.604-.127-1.229-.478-1.881-.033-.061-.095-.1-.164-.103-.077-.003-.134.031-.172.089-.418.643-.271,1.23-.152,1.701.025.098.049.195.067.289l.11.567c.056.285.355.301.516.31.039.002.099.006.117.012.02.006.042.01.063.01Z" fill="#81614d"/>
  <path d="M31.417,6.719c.028.014.058.021.089.021.037,0,.075-.011.108-.032.059-.039.092-.106.087-.176-.067-.978-.83-1.852-1.854-2.126-.07-.018-.142.002-.191.053s-.067.126-.046.193c.284.913.875,1.589,1.807,2.067Z" fill="#81614d"/>
  <path d="M29.099,17.956c-.309-.02-.58.07-.855.255-.028.019-.05.044-.065.074-.071.141-.181.277-.298.421-.249.307-.53.654-.55,1.185-.002.057.021.111.062.15.036.034.084.052.133.052.007,0,.014,0,.021-.001.508-.054.812-.365,1.081-.639.079-.081.156-.16.237-.229.269-.23.376-.697.418-1.049.006-.054-.01-.108-.045-.15-.035-.042-.086-.066-.14-.069Z" fill="#81614d"/>
  <path d="M15.052,5.159c-.068-.017-.137.004-.184.053-.2.203-.174.543.068.91.246.372.748.803,1.224.803.089,0,.177-.015.263-.049.11-.044.173-.15.164-.279-.028-.392-.812-1.267-1.535-1.438Z" fill="#81614d"/>
  <path d="M8.459,2.909c-.184.16-.255.37-.2.593.021.088.1.149.19.149.003,0,.006,0,.009,0l1.032-.049h0c.084-.002.174.002.265.006.356.019.843.048,1.235-.465.037-.048.049-.112.032-.171-.016-.059-.059-.106-.116-.129-.894-.358-1.993-.329-2.448.066Z" fill="#81614d"/>
  <path d="M25.046,3.496c-.526-.414-1.04-.257-1.453-.132-.126.038-.249.076-.37.097-.046.008-.088.032-.118.068-.226.272-.319.682-.222.973.027.082.103.134.185.134.019,0,.04-.003.059-.009l.234-.073c.526-.162,1.07-.329,1.673-.743.052-.035.083-.092.085-.155.002-.062-.026-.122-.074-.16Z" fill="#81614d"/>
  <path d="M26.785,20.716c-.155-.073-.346-.07-.552.009-.052.019-.092.06-.113.111-.125.319-.413.593-.734.699-.071.023-.123.085-.132.16-.007.053-.034.116-.066.19-.082.19-.193.451-.089.84.015.056.055.103.109.127.026.011.053.017.08.017.03,0,.06-.007.087-.021.675-.338,1.075-.853,1.539-1.45l.125-.161c.04-.052.052-.12.032-.182-.068-.201-.192-.295-.285-.34Z" fill="#81614d"/>
  <path d="M15.422,25.932c-.008-.019-.018-.036-.031-.051-.187-.219-.646-.152-.867-.01-.194.124-.203.297-.152.408.252.547.76.86,1.252,1.162.116.071.232.142.344.217.033.022.071.032.108.032.04,0,.081-.013.116-.038.229-.168.263-.364.288-.509.005-.026.009-.053.015-.078.021-.088-.021-.179-.102-.22-.34-.172-.784-.47-.97-.913Z" fill="#81614d"/>
  <path d="M22.223,5.026c-.002-.075-.033-.215-.217-.319-.211-.119-.601-.161-.824-.033-.02.011-.038.027-.053.045l-.203.244c-.059.071-.132.134-.206.198-.25.218-.561.488-.59,1.098-.003.061.022.119.069.158.035.031.081.047.126.047.014,0,.027-.002.041-.004.64-.138,1.234-.566,1.816-1.309.028-.036.043-.08.042-.126Z" fill="#81614d"/>
  <path d="M20.264,26.333c-.041.004-.079.021-.11.048-.194.172-.427.301-.674.439-.473.263-1.009.561-1.29,1.227-.028.066-.017.142.028.198.037.047.094.073.152.073.012,0,.024-.001.035-.003,1.322-.245,2.516-1.169,2.442-1.681-.015-.107-.104-.351-.584-.301Z" fill="#81614d"/>
  <path d="M6.71,17.376c-.2-.078-.438-.017-.568.141-.109.132-.119.304-.027.45l.795,1.269c.172.274.406.438.621.438.014,0,.028,0,.042-.002.139-.014.252-.103.302-.237.147-.397-.24-1.111-1.091-2.012-.02-.021-.045-.037-.072-.048Z" fill="#81614d"/>
  <path d="M11.488,22.954c-.067-.026-.143-.012-.197.036-.054.047-.078.121-.062.191.23.999,1.127,1.852,1.999,1.902.004,0,.007,0,.011,0,.063,0,.122-.03.159-.082.039-.055.047-.125.022-.187-.386-.95-.946-1.489-1.932-1.86Z" fill="#81614d"/>
  <path d="M31.189,14.606c-.063-.02-.131-.011-.184.029-.761.582-1.421,1.85-1.312,2.303.031.127.119.216.238.238.073.013.139.02.197.02.156,0,.257-.049.306-.148l.2-.408c.081-.166.179-.32.275-.471.268-.421.544-.857.404-1.426-.016-.064-.063-.116-.125-.138Z" fill="#81614d"/>
  <path d="M8.762,20.299c-.066-.03-.146-.021-.205.026-.058.047-.084.122-.067.195.234,1.033.88,1.715,1.82,1.921.014.003.028.005.042.005.053,0,.105-.022.142-.061.047-.05.065-.12.047-.186-.226-.824-.824-1.464-1.779-1.899Z" fill="#81614d"/>
</svg>
