<?xml version='1.0' encoding='utf-8'?>
<svg xmlns="http://www.w3.org/2000/svg" viewBox="0 0 36.246 32">
  <path d="M27.252,6.906l3.245,2.964,2.796,2.667,1.872,1.854c-.361.634-.914,1.033-1.49,1.047-1.359-1.549-2.968-2.81-4.516-4.245l-4.893-4.536c-1.143-1.059-2.128-2.203-3.44-3.092l-1.673,1.537-3.238,3.09-3.522,3.332-4.115,4.017c-.307-.103-.605-.217-.773-.364-.247-.218-.493-.497-.638-.854l2.429-2.301,2.909-2.749,4.627-4.445,3.474-3.38c.185-.18.339-.309.561-.298.176.009.394.123.568.29l2.538,2.435,3.278,3.031Z" fill="#d98f7d"/>
  <path d="M30.905,9.152c-.353-.442-1.142-.79-1.168-1.433l-.064-1.578.082-.365c.641-.222,1.239-.779,1.281-1.473.164-.006.231.137.235.335l.084,4.139c.004.2-.073.321-.192.359-.074.023-.169.026-.258.017Z" fill="#d98f7d"/>
  <path d="M31.036,4.303c-.042.694-.64,1.251-1.281,1.473l-.014-1.428,1.295-.045Z" fill="#e2a59d"/>
  <path d="M6.21,25.616c-.554-.154-1.524-.503-2.074-.039-.376.317-.145,1.506.235,1.792.416.312.695-.205.967-.458l.968-.894c.173.209.559.711.888.54l1.05-.54c.295.029.499.231.506.596l.034,1.759c.444-.345.794-.451,1.27-.372.346.057.956.453.832.994-.102.445-.313,1.024-.527,1.392-.247.425-.93.28-1.231.39l-1.033-.931c-.37-.32-.966-.173-1.384-.129.006-.418-.151-1.086-.711-1.271-.334-.111-.601.458-.391.797.187.302.438.72.361,1.052-.21.128-.5.31-.389.573l-.225.021-.344-.015-1.076.051-1.017-.042c-.644-.026-1.706-.457-1.772-1.205-.1-1.122,1.12-1.91,2.124-1.698.275.058.593.015.674-.113.359-.56-1.196-1.628-.293-4.01.145-.382.366-.699.672-.801.344-.115.726-.114.998.145.689.656.859,1.56.885,2.416Z" fill="#c5bea1"/>
  <path d="M6.21,25.616c.003.107.055.306.097.401l-.968.894c-.272.253-.551.77-.967.458-.38-.285-.611-1.475-.235-1.792.55-.464,1.52-.116,2.074.039Z" fill="#b29d91"/>
  <path d="M32.247,15.434c-1.298.655-3.036-.756-3.058-1.475-.013-.43.087-.753.451-1.037l-1.578-1.5-4.023-3.69c-2.075.062-2.658-1.752-4.088-2.066l-6.134,5.734-4.243,4.029-.013,3.106.014,6.673-.041,1.88c.341-.083.655-.148.975-.11.195.023.525.139.68.293-.01-.077-.073-.178.031-.386.58.394,1.02.183,1.474-.142l.018-1.18-.005-2.048.112-3.029c.011-.307.267-.692.627-.688l6.358.061c.297.186.355.816.356,1.155l.083,9.818,4.468-.016,7.723-.054.002-15.295c-.049.001-.137.022-.189-.034ZM29.025,25.232c-.01.462-.22.805-.715.804l-4.265-.007c-.386,0-.713-.211-.714-.638l-.002-4.796c0-.444.306-.778.742-.776l4.531.012c.749.002.46,3.514.421,5.401Z" fill="#f8f1eb"/>
  <path d="M32.247,15.434c-1.298.655-3.036-.756-3.058-1.475-.013-.43.087-.753.451-1.037.876.832,1.875,1.583,2.607,2.512Z" fill="#e3d6d0"/>
  <path d="M24.039,7.733c-2.075.062-2.658-1.752-4.088-2.066l.892-.916,3.197,2.982Z" fill="#e3d6d0"/>
  <path d="M18.733,30.887c-.22-.04-.465-.11-.691-.105.086-.697-1.354-.631-1.818-1.157-.718-.814-1.635-1.062-2.586-.579l-.045-3.48.12-4.86h5.446s.055,9.487.055,9.487c.052.387-.187.626-.481.695ZM18.816,26.439c.148-.349.14-.83-.127-.959-.377-.182-.842-.068-.99.196-.18.321-.093.698.218.949.224.181.688.309.898-.186Z" fill="#d98f7d"/>
  <path d="M18.042,30.782l-3.949.075c.003-.272-.179-.486-.438-.554l-.018-1.257c.952-.483,1.868-.235,2.586.579.464.526,1.905.461,1.818,1.157Z" fill="#e2a59d"/>
  <path d="M12.694,26.745l.047,4.115c-.621.006-1.105.074-1.677-.105.993-1.081,1.015-2.593.124-3.481-.01-.077-.073-.178.031-.386.58.394,1.02.183,1.474-.142Z" fill="#fcece0"/>
  <path d="M9.13,30.776c-.791.29-1.614.105-2.43.1l.013-1.159c.419-.044,1.015-.191,1.384.129l1.033.931Z" fill="#b29d91"/>
  <path d="M6.713,29.716l-.013,1.159-1.117-.008c-.111-.263.179-.445.389-.573.077-.332-.174-.751-.361-1.052-.21-.338.057-.907.391-.797.56.186.717.854.711,1.271Z" fill="#a59085"/>
  <path d="M14.093,30.856c-.163.003-.452.033-.449-.105l.011-.449c.259.068.441.282.438.554Z" fill="#d98f7d"/>
  <path d="M18.816,26.439c-.21.495-.674.367-.898.186-.311-.252-.398-.628-.218-.949.148-.264.613-.378.99-.196.267.129.275.61.127.959Z" fill="#795645"/>
  <path d="M35.533,13.028c-.074-.071-3.158-3.002-3.158-3.002-.093-.087-.065-.369-.048-.537.008-.077.014-.145.014-.199.014-1.666.031-3.331.059-4.997.004-.225.009-.532-.175-.776-.137-.184-.342-.303-.625-.364-.204-.044-.413-.049-.598-.055l-.078-.002c-.267-.007-.537,0-.807.011-.189.007-.378.013-.566.013-.005,0-.012,0-.016,0-.526,0-.895.349-.897.85l-.009,2.229-.007.39c-.174-.105-.377-.266-.542-.41l.01-.013-1.425-1.321c-1.265-1.173-2.53-2.346-3.793-3.52-.121-.113-.237-.24-.357-.37-.318-.346-.678-.739-1.163-.896-.438-.131-.927-.039-1.452.282-.598.367-1.067.879-1.52,1.374-.211.23-.421.459-.642.673-1.143,1.1-2.293,2.193-3.443,3.286-1.296,1.231-2.592,2.463-3.879,3.706l.013.013c-.181.148-.653.605-2.101,2.004l-2.467,2.527-.014.053c-.212.772.214,1.291.552,1.615l.176.173c.393.391.839.834,1.502.913.123.016.248-.021.357-.054.003,0,.007-.002.011-.002.005.082.002.184.001.233,0,.05-.001.092,0,.109l-.004,5.179.019,2.223-.022.653-.698.049c-.088.007-.172.044-.245.075-.032.014-.081.035-.075.053-.056-.068-.126-.342-.183-.562-.2-.775-.502-1.948-1.625-2.488l-.339-.163c-.376-.18-.762-.203-1.148-.065-.573.202-1.128.773-1.493,1.545-.346.976-.669,2.111-.217,3.367-.81.086-1.49.526-2.026,1.312-.323.475-.449,1.056-.362,1.68.036.253.105.517.21.805.157.427.609.861.962,1.083.339.213.749.25,1.11.283l.056.005c.064.007.246.004.649-.002.251-.003.598-.006.785-.006l.004.014,20.066-.048,1.704.01,7.192-.03.081-.016c.715-.301.691-1.022.672-1.602-.003-.095-.006-.188-.006-.278l.005-13.588.435.084c.944.191,1.754-.816,2.058-1.255.516-.744.114-1.687-.476-2.249ZM12.528,30.654c-.055.002-.109.003-.162.005-.328.01-.622.021-.924-.03.825-1.118.801-2.601-.104-3.503-.213-.212-.606-.33-.804-.354-.269-.033-.525,0-.783.053l.035-1.616-.014-6.671.012-3.017,4.177-3.965,6.141-5.74.748-.769,3.047,2.843,4.02,3.687,1.578,1.499c.278.263.568.519.858.775.609.537,1.239,1.093,1.739,1.726.041.044.087.072.134.086l-.002,14.892-11.771.067-.082-9.608c-.001-.393-.063-1.088-.456-1.332l-.05-.031-6.416-.062h-.008c-.471,0-.816.467-.832.891l-.112,3.036-.012,3.231.044,3.906ZM4.126,27.98c.189-.295.04-.636-.134-1.031-.291-.662-.689-1.569-.139-3.018.139-.366.331-.606.542-.676.189-.064.542-.134.786.097.693.661.8,1.612.82,2.27.005.139.065.365.116.481l.059.084c.213.259.656.798,1.118.558l.99-.509c.168.037.256.165.26.381l.042,2.18.332-.258c.402-.313.693-.398,1.107-.33.181.03.45.181.586.383.079.118.103.234.075.356-.104.453-.311,1.002-.504,1.333-.104.179-.349.209-.684.231-.16.012-.312.021-.437.067-.532.194-1.085.158-1.672.119-.228-.016-.456-.03-.684-.032l-1.139-.007-.196.021-.363-.015-1.057.051-1.017-.042c-.606-.025-1.519-.431-1.571-1.013-.036-.399.126-.779.453-1.071.387-.344.944-.503,1.418-.403.27.058.732.051.895-.205ZM23.436,5.562c-.761-.753-1.548-1.532-2.492-2.17l-.138-.093-1.798,1.652-6.762,6.425-4.022,3.926c-.23-.081-.459-.175-.579-.281-.236-.208-.408-.421-.523-.647l5.231-4.947c3.466-3.331,4.371-4.201,4.607-4.464l.018.019,2.928-2.848c.066-.065.137-.142.212-.224.211-.231.474-.518.7-.542.199-.034.412.164.594.339,1.818,1.761,3.688,3.517,5.56,5.223l-.002.002,3.383,3.089,2.793,2.665,1.753,1.737c-.302.462-.714.751-1.134.798-.928-1.045-1.943-1.94-3.017-2.886-.481-.425-.967-.853-1.446-1.297l-4.893-4.535c-.334-.309-.654-.626-.974-.941ZM29.954,4.549l1.081-.045s.024.032.026.137l.084,4.14c.002.081-.017.145-.044.154-.023.007-.056.012-.093.012-.121-.134-.27-.258-.416-.378-.323-.267-.629-.521-.643-.858l-.063-1.553.081-.384-.012-1.224ZM13.848,29.047l.073-8.131h5.028l.056,9.304c.041.305-.169.415-.28.451l-.121-.025c-.176-.037-.358-.075-.542-.075h-.024l-3.949.074-.07.002c-.04,0-.106.005-.162.002l.009-.351-.018-1.252Z" fill="#795645"/>
  <path d="M29.335,19.346c-.202-.196-.482-.305-.79-.305l-4.793-.022c-.267,0-.523.103-.702.283-.171.171-.263.403-.261.653l.053,6.048c.002.229.189.416.418.418l5.948.037c.109,0,.217-.044.297-.123.079-.079.124-.188.124-.297l.024-5.9c0-.309-.112-.591-.319-.792ZM24.059,20.255l1.566-.043.059,2.067c-.565.066-1.08.051-1.644-.002l.019-2.023ZM24.033,25.208l-.007-1.834h1.651l.014,1.831-1.658.002ZM26.69,25.185c-.082-.696-.084-1.268-.005-1.853l1.697.023.014,1.911-1.706-.081ZM28.363,22.272c-.602.089-1.122.076-1.666.037l-.034-2.078,1.713-.016c.132.661.08,1.308-.013,2.057Z" fill="#795645"/>
  <path d="M28.363,22.272c.093-.75.145-1.397.013-2.057l-1.713.016.034,2.078c.544.039,1.064.052,1.666-.037Z" fill="#fff"/>
  <path d="M25.684,22.28l-.059-2.067-1.566.043-.019,2.023c.565.053,1.08.067,1.644.002Z" fill="#fff"/>
  <polygon points="24.026 23.374 24.033 25.208 25.691 25.205 25.678 23.374 24.026 23.374" fill="#fff"/>
  <path d="M26.685,23.332c-.078.584-.077,1.156.005,1.853l1.706.081-.014-1.911-1.697-.023Z" fill="#fff"/>
</svg>
