<?xml version='1.0' encoding='utf-8'?>
<svg xmlns="http://www.w3.org/2000/svg" viewBox="0 0 29.472 32">
  <path d="M22.658,12.865c1.9-.124,3.29-1.451,3.513-3.201.246.998.416,2.367-.325,3.114-.724.729-2.134.695-3.188.087Z" fill="#f1cda3"/>
  <polygon points="23.114 16.559 22.933 16.538 23.127 16.365 23.114 16.559" fill="#66402f"/>
  <path d="M24.484,16.551l-1.37.008.013-.194c.457-.015,1.007-.114,1.357.186Z" fill="#603d2c"/>
  <path d="M25.457,15.032c.012-.325.104-.673-.014-1.095-2.857,1.404-3.702.105-6.101-1.763l-1.661,1.257c-.11.133.343.495.481.504-.437.397-.376,1.035-.725,1.275-.555.381-1.033-.838-2.297-2.186.594-.251.64-.977.915-1.361,1.327-1.856-1.131-2.295-1.224-5,.099.012.27-.052.304-.256.287-1.739,1.218-3.293,2.741-4.23.534-.328,1.155-.47,1.511-.946.826-.02,1.597-.476,2.39-.065l1.693.065c1.65-.451,3.249.448,4.037,1.744.895,1.471.682,3.204-.407,4.628,1.407,1.549,1.631,3.46.833,5.229-.514,1.14-1.387,1.802-2.477,2.201ZM23.388,13.016c.741.17,1.696.194,2.26-.374.578-.582.737-1.488.545-2.266-.251-1.018-.456-1.958-1.565-2.625.975-.528,1.252-1.439,1.071-2.505-.155-.912-.909-1.593-1.748-1.699-.885-.113-1.615.403-2.265,1.319-.604-.592-1.072-1.13-1.682-1.208-.77-.099-1.459.1-1.996.659-.724.754-1.013,1.817-.742,2.841.198.749.833,1.1,1.509,1.341-.436.774-.394,1.639.189,2.175.535.492,1.428.489,2.302-.154-.205,1.528.812,2.197,2.123,2.497Z" fill="#e5bf85"/>
  <path d="M11.928,19.646l-1.122.911c-.02-.233.05-.493-.132-.698l-2.344,2.159c-.244.225-.552.36-.654.646-.092.26-.02.568.168.786l.022.259-2.594,2.22c-.176-.161-.353-.215-.493-.198-.124.016-1.95,1.213-1.703,2.187-.223.134-.326.509-.705.435-.307-.06-.477-.186-.719-.335-.016-.291-.139-.911.165-1.21l7.302-7.175,5.099-5.023c.264-.26.551-.454.618-.787.424.3,1.001.795,1.364,1.368l-4.274,4.455Z" fill="#e5bf85"/>
  <path d="M14.838,13.824c-.067.333-.355.527-.618.787l-5.099,5.023-7.302,7.175c-.304.299-.181.919-.165,1.21-.551-.338-.786-1.215-.189-1.794l12.871-12.471c.124-.12.225-.11.304-.093.079.016.146.125.199.163Z" fill="#e2cdbf"/>
  <path d="M25.457,15.032l-1.342.491c-2.777.28-4.13-1.923-4.943-1.699-.23.063-.574-.114-.789.094l-.221.018c-.138-.01-.591-.371-.481-.504l1.661-1.257c2.399,1.868,3.244,3.167,6.101,1.763.118.422.027.77.014,1.095Z" fill="#e4a867"/>
  <path d="M11.17,24.091l-.988-.409c-.241.007-.397.16-.605.367l-3.78,3.759c-.257.255-.382.53-.379.869-.189-.232-.978-.529-.703-.892l3.576-3.658,1.246-1.152c.542-.547,1.62.906,1.633,1.115Z" fill="#be9278"/>
  <path d="M19.387,1.232c-.356.477-.977.618-1.511.946-1.523.937-2.454,2.491-2.741,4.23-.034.204-.205.268-.304.256-.093-2.703,1.675-5.362,4.557-5.432Z" fill="#e2cdbf"/>
  <path d="M5.273,25.93c-.739.649-1.326,1.466-2.196,1.989-.247-.974,1.579-2.172,1.703-2.187.139-.017.316.037.493.198Z" fill="#e4a867"/>
  <path d="M16.054,11.664c-.274.384-.32,1.109-.915,1.361l-.339-.171c-.15-.076-.225-.797-.064-.994.341-.417.813-.162,1.318-.196Z" fill="#f1cda3"/>
  <path d="M7.923,30.329c-.184.156-.45.53-.68.303l-.527-.521c.207-.129.445-.236.634-.244.287-.012.464.201.572.462Z" fill="#be9278"/>
  <path d="M10.806,20.557l-2.962,2.894c-.188-.218-.261-.526-.168-.786.102-.286.41-.422.654-.646l2.344-2.159c.182.205.112.465.132.698Z" fill="#e4a867"/>
  <path d="M25.937,11.251c-.352.754-1.014,1.366-1.84,1.63-.441.141-.928.105-1.362-.058-.976-.366-1.641-1.042-1.471-2.305-.874.643-1.767.647-2.302.154-.583-.537-.624-1.402-.189-2.175-.676-.241-1.31-.592-1.509-1.341-.271-1.024.018-2.088.742-2.841.537-.559,1.227-.757,1.996-.659.611.078,1.078.616,1.682,1.208.65-.915,1.38-1.431,2.265-1.319.839.107,1.593.787,1.748,1.699.181,1.066-.096,1.977-1.071,2.505.874.525,1.187,1.221,1.403,1.99.141.501.127,1.04-.093,1.511ZM23.429,7.731c-.018-1.067,1.275-.914,1.236-1.979-.019-.527-.31-.856-.682-.932-1.157-.235-1.251,1.052-2.352,1.069-.452.007-.723-.308-1.055-.691-.572-.66-1.576-.404-1.999.188-.402.562-.476,1.621.252,1.911.474.189.884.231,1.008.742.15.622-.603,1.395-.079,1.858.478.422,1.088-.695,2.249-.081.445.235.275.846.444,1.275.374.948,1.698.706,2.19-.011,1.05-1.529-1.19-2.167-1.211-3.349Z" fill="#765341"/>
  <path d="M28.66,7.599c.704-1.759.775-3.581-.307-5.229-.835-1.32-2.567-2.37-4.23-2.37s-2.548.594-2.548.594c-1.316-.526-2.478-.746-3.8-.252-2.24.837-3.744,2.829-4.021,5.226-.22,1.906.075,3.528,1.684,5.16-1.785-.083-1.591,1.398-2.157,2.162-1.478,1.993-3.472,3.515-5.241,5.267L.681,25.449c-1.151,1.141-.75,2.847.514,3.706.864.586,1.848.637,2.687-.159l2.512,2.5c.632.628,1.51.691,2.167.063l1.209-1.155c.717-.686.366-1.374-.151-2.272,1.067.497,1.8.742,2.514.053l1.206-1.165c.495-.478.484-1.338-.027-1.862-.672-.69-1.35-1.581-2.047-2.058-.192-.131-.498-.629-.311-.821l1.376-1.413,4.202-4.179c1.086-.146,2.085-.743,2.34-1.724.69-.666,1.363,1.262,4.061,1.574l.194-.174c.457-.015,1.007-.114,1.357.186,1.657-.01,3.082-1.066,4.052-2.519,1.222-1.925,1.232-4.314.124-6.434ZM12.588,26.033l-1.576,1.535c-.506-.506-.756-1.043-1.357-1.399l-1.952,1.735.908,1.224c.407.549-.373.934-.688,1.201-.185.156-.45.53-.68.303l-.527-.521c-.417-.412-.959-1.018-1.298-1.433-.189-.232-.978-.529-.703-.892l3.576-3.658,1.246-1.152c.331-.224,1.129.816,1.339,1.06l1.713,1.997ZM11.928,19.646l-1.122.911-2.962,2.894-2.572,2.478c-.739.649-1.326,1.466-2.196,1.989-.223.134-.326.509-.705.435-.307-.06-.477-.186-.719-.335-.551-.338-.786-1.215-.189-1.794l12.871-12.471c.124-.12.225-.11.304-.093.079.016.146.125.199.163.424.3,1.001.795,1.364,1.368l-4.274,4.455ZM27.934,12.831c-.514,1.14-1.387,1.802-2.477,2.201l-1.342.491c-1.386.14-2.567-.488-3.622-1.319-.397-.313-.886-.848-1.438-.751-.188.033-.401.099-.572.185-.227.114-.433.366-.556.585-.121.216-.123.45-.344.602-.332.229-.955-.375-1.171-.561-.525-.452-.99-.965-1.457-1.474-.174-.19-.24-.565-.064-.781.29-.354.675-.332,1.094-.339.019,0,.038,0,.055-.008.022-.01.038-.03.052-.05.331-.471.458-1.001.226-1.537-.195-.45-.525-.833-.785-1.245-.417-.658-.675-1.381-.702-2.165-.093-2.703,1.675-5.362,4.557-5.432.827-.02,1.683.431,2.313.833.599-.501,1.771-.834,1.771-.834,1.65-.451,3.249.448,4.037,1.744.895,1.471.682,3.204-.407,4.628,1.407,1.549,1.631,3.46.833,5.229Z" fill="#765341"/>
  <path d="M10.182,23.683c.257-.007.484.109.693.354l1.713,1.997-1.576,1.535c-.506-.506-.756-1.043-1.357-1.399l-1.952,1.735.908,1.224c.407.549-.373.934-.688,1.201-.108-.26-.285-.473-.572-.462-.189.008-.427.115-.634.244-.417-.412-.959-1.018-1.298-1.433-.003-.34.122-.614.379-.869l3.78-3.759c.208-.207.364-.361.605-.367Z" fill="#e5bf85"/>
</svg>
