<?xml version='1.0' encoding='utf-8'?>
<svg xmlns="http://www.w3.org/2000/svg" viewBox="0 0 30.696 32">
  <path d="M25.405,26.615c1.342,1.142,2.359,2.803,1.495,3.283-1.344.746-.775-1.578-2.439-2.082-5.043,5.75-13.49,5.46-18.344-.176-1.61.351-1.258,2.357-2.318,2.091-1.214-.304-.168-2.074,1.289-3.405-1.22-2.345-1.991-4.762-1.921-7.335-1.775-.507-1.648.817-2.196.863-.33.028-.642-.037-.825-.26-.228-.279-.174-.689.041-1.012.655-.989,1.92-1.11,3.023-1.228.562-1.728.76-3.744,2.016-5.249l-2.037-2.099c-.322-.332-.403-.928.032-1.199,1.239-.77,1.411,1.894,2.975,1.838.998-.678,1.818-1.61,2.916-2.171.356-1.98,1.474-3.402,3.261-4.311-.443-3.049-2.443-1.469-2.712-2.915-.107-.576.099-1.114.781-1.229.668-.113.973.279,1.343.843.599.915,1.318,1.707,1.524,2.949,1.671-.146,3.095-.249,4.808.066.356-1.251,1.14-2.013,1.871-2.933.382-.481.591-.962,1.304-.809.557.119.845.637.785,1.151-.094.808-.735.792-1.471.876-.856.099-1.405,1.336-1.49,2.145,1.695.943,2.738,2.385,2.991,4.293,1.03.679,1.912,1.374,2.781,2.329,1.927-.979,2.092-2.73,3.178-1.904.363.276.347.82-.093,1.194l-1.902,1.62c-.37.315-.023.923.205,1.276.859,1.325.884,3.063,1.401,4.454,1.018.1,2.361.136,2.9,1.208.196.39.151.871-.131,1.022-.99.53-1.006-1.152-2.813-.851.044,2.796-.698,5.366-2.227,7.668ZM13.132,5.528c-.218-.047-.411-.018-.569-.055-1.063-.246-1.986,1.299-2.372,2.758,2.914-1.172,5.716-1.175,8.614-.637.52-.055,1.09-.627,1.456-1.068-1.549-1.973-4.125-2.419-6.494-1.861-.257.061-.484.104-.623.227-.229.204-.132.383-.013.636ZM7.107,27.255c1.632,1.819,3.793,3.028,6.254,3.574.51.113.948.218,1.356-.02.271-.158.535-.36.855-.451,0,.148.04.352.129.445.836.867,9.252-1.145,10.817-9.531.297-1.594.104-2.963-.123-4.544-.766-5.33-5.153-8.773-10.651-8.74l-.165,8.894-.591.035.123-6.448-.019-2.472c-4.478-.031-8.452,2.495-10.082,6.512-1.803,4.443-1.021,9.272,2.095,12.745Z" fill="#6e4e31"/>
  <path d="M15.572,30.358c.048-2.476.086-4.937-.021-7.686,1.562-.282,2.672-1.408,2.635-2.895-.039-1.557-1.053-2.798-2.605-2.894l.165-8.894c5.498-.033,9.885,3.41,10.651,8.74.227,1.58.42,2.95.123,4.544-1.565,8.387-9.981,10.399-10.817,9.531-.09-.093-.129-.297-.129-.445ZM20.322,12.351c-.979.305-1.395,1.435-.995,2.28.404.855,1.314,1.247,2.243.902.792-.294,1.187-1.286.943-2.066-.298-.957-1.19-1.427-2.191-1.115ZM23.48,18.274c-.947.306-1.419,1.342-1.096,2.146.393.978,1.238,1.343,2.198,1.054.928-.279,1.256-1.254.966-2.18-.267-.851-1.102-1.333-2.068-1.02ZM18.361,25.861c.003,1.22.898,1.947,1.994,1.774.784-.124,1.509-.993,1.369-1.923-.132-.878-.979-1.545-1.988-1.413-.774.101-1.377.638-1.375,1.563Z" fill="#c17353"/>
  <path d="M15.112,10.47c-.996-.558-2.136-.313-3.296-.475-.485-.067-.662-.431-1.169-.167-.319.166-.821.08-1.259.437-1.308,1.065-2.461,2.323-2.856,4.049-.04.174.536.317.644.229.352.846.95,1.604,1.863,1.947.376.809,1.153.884,1.864,1.114l1.827.638c-.134.284-.196.818-.238,1.231-.166,1.621.849,2.893,2.495,3.155l-.058,6.122c-2.01.158-4.05.063-5.861-1.001-.621-.365-1.321-.445-1.962-.495-3.117-3.474-3.898-8.302-2.095-12.745,1.63-4.017,5.604-6.543,10.082-6.512l.019,2.472ZM6.065,21.807c.867.329,1.733-.126,2.062-.729.407-.745.218-1.638-.317-2.148-.581-.554-1.536-.577-2.222-.082-.502.363-.655,1.027-.565,1.59.082.515.362,1.111,1.042,1.368ZM9.923,24.753c-1.005.437-1.153,1.598-.697,2.381.441.759,1.421,1.108,2.169.711.884-.469,1.204-1.462.844-2.283-.371-.846-1.33-1.238-2.316-.81Z" fill="#c17353"/>
  <path d="M15.112,10.47l-.123,6.448c-.925.055-1.644.68-2.259,1.324l-1.827-.638c-.711-.229-1.488-.304-1.864-1.114-.913-.343-1.51-1.101-1.863-1.947.76-1.375,1.872-2.475,3.108-3.578.36-.322.629-.649.363-1.137.507-.264.684.1,1.169.167,1.16.161,2.299-.084,3.296.475ZM9.821,12.736c-1.03.186-1.659,1.156-1.363,2.19.229.8,1.057,1.386,2.061,1.164.796-.176,1.462-1.021,1.244-1.997-.183-.82-.918-1.542-1.942-1.358Z" fill="#c17353"/>
  <path d="M14.989,16.918l.591-.035c1.553.096,2.566,1.337,2.605,2.894.037,1.488-1.073,2.613-2.635,2.895.107,2.748.069,5.21.021,7.686-.32.09-.584.292-.855.451.306-.662.206-1.369.213-2.058l.058-6.122c-1.646-.262-2.661-1.534-2.495-3.155.042-.413.105-.947.238-1.231.615-.644,1.334-1.269,2.259-1.324Z" fill="#6e4e31"/>
  <path d="M12.563,5.473c-.157.351-.617.561-.579,1.09.481-.052,1.309-.63,1.147-1.035-.119-.253-.217-.432.013-.636.139-.123.366-.167.623-.227,2.369-.558,4.945-.112,6.494,1.861-.366.441-.936,1.013-1.456,1.068-2.898-.537-5.7-.535-8.614.637.386-1.459,1.309-3.004,2.372-2.758ZM18.496,6.557c-.167.227.09.361.206.36.064,0,.172.056.243-.092.045-.095-.037-.302-.132-.345-.059-.026-.217-.059-.317.077Z" fill="#87654e"/>
  <path d="M14.93,28.751c-.007.69.094,1.396-.213,2.058-.407.238-.845.133-1.356.02-2.461-.546-4.622-1.755-6.254-3.574.641.05,1.341.13,1.962.495,1.811,1.064,3.851,1.159,5.861,1.001Z" fill="#c1633d"/>
  <path d="M13.132,5.528c.162.405-.666.983-1.147,1.035-.038-.529.422-.739.579-1.09.158.036.35.007.569.055Z" fill="#db9e8f"/>
  <path d="M20.322,12.351c1.001-.312,1.893.158,2.191,1.115.243.78-.152,1.772-.943,2.066-.929.345-1.839-.047-2.243-.902-.4-.845.017-1.975.995-2.28Z" fill="#6e4e31"/>
  <path d="M18.361,25.861c-.002-.925.601-1.462,1.375-1.563,1.008-.132,1.856.536,1.988,1.413.14.931-.584,1.799-1.369,1.923-1.096.173-1.991-.553-1.994-1.774Z" fill="#6e4e31"/>
  <path d="M23.48,18.274c.967-.313,1.802.169,2.068,1.02.29.926-.038,1.901-.966,2.18-.96.289-1.805-.076-2.198-1.054-.323-.804.149-1.84,1.096-2.146Z" fill="#6e4e31"/>
  <path d="M6.065,21.807c-.679-.258-.959-.853-1.042-1.368-.09-.564.063-1.227.565-1.59.686-.496,1.641-.473,2.222.082.535.51.725,1.403.317,2.148-.33.603-1.195,1.058-2.062.729Z" fill="#6e4e31"/>
  <path d="M9.923,24.753c.986-.429,1.945-.036,2.316.81.36.82.04,1.814-.844,2.283-.748.397-1.728.048-2.169-.711-.455-.783-.307-1.944.697-2.381Z" fill="#6e4e31"/>
  <path d="M10.647,9.828c.266.488-.003.816-.363,1.137-1.236,1.102-2.348,2.202-3.108,3.578-.108.087-.684-.055-.644-.229.396-1.726,1.548-2.984,2.856-4.049.438-.356.94-.27,1.259-.437Z" fill="#e5cabf"/>
  <path d="M9.821,12.736c1.024-.185,1.759.537,1.942,1.358.218.976-.448,1.821-1.244,1.997-1.004.222-1.832-.365-2.061-1.164-.296-1.034.333-2.005,1.363-2.19Z" fill="#6e4e31"/>
  <path d="M18.496,6.557c.1-.136.258-.103.317-.077.095.042.177.25.132.345-.071.148-.179.092-.243.092-.116.001-.373-.133-.206-.36Z" fill="#a29475"/>
</svg>
