<?xml version='1.0' encoding='utf-8'?>
<svg xmlns="http://www.w3.org/2000/svg" viewBox="0 0 32.364 32">
  <path d="M32.077,6.683c-.195-1.619-.523-2.963-1.491-4.259-1.152-1.543-3.131-1.876-4.877-2.171-.159-.027-.317-.053-.474-.081l.03-.101-.601-.002-.38-.069-.02.067c-.956-.004-1.913-.012-2.869-.02C16.598.005,11.64-.038,6.66.515,3.214.898.836,3.114.454,6.299-.243,12.107-.011,18.028.313,24.088c.08,1.513.417,2.892.898,4.497l.046.154.13.095c.356.26.68.568,1.023.894.916.871,1.955,1.857,3.766,1.933l5.963.251,3.775.071c.595.011,1.178.017,1.749.017,3.49,0,6.55-.207,9.308-.63,3.037-.465,5.333-3.291,5.339-6.574l.016-7.507c.002-.773.01-1.537.019-2.295.032-2.861.062-5.562-.268-8.312Z" fill="#7e5545"/>
  <path d="M29.406,8.619l.264,4.035-.167,10.539c-.047,2.972-.881,4.666-2.701,5.478l-10.354.54-8.06-.109c-1.086-.015-2.051-.389-2.903-.72-.579-.225-1.946-.92-2.132-2.508l-.251-2.135-.012-.322c-.194-5.161-.394-10.497-.006-15.894.176-2.447,1.876-4.212,4.136-4.292l7.907-.281,9.18.03c1.613.005,2.971.401,3.726,1.084.879.796,1.248,2.102,1.13,3.995l-.038.612.28-.051Z" fill="#fff"/>
  <path d="M25.652,15.943l.07.113-.044-.008h0l-.108-.032c.022-.028.051-.053.083-.073Z" fill="#7e5545"/>
  <path d="M16.091,20.946l-6.134.406v-12.231c0-.39-.142-.73-.424-1.012-.575-.573-1.493-.551-2.046,0-.281.282-.424.622-.424,1.011v13.78c0,.374.146.71.436.999.274.274.591.414.946.414.023,0,.048,0,.071-.002l7.703-.496c.36-.02.676-.183.938-.485.257-.295.387-.622.387-.973,0-.423-.14-.773-.415-1.039-.277-.266-.621-.393-1.038-.372Z" fill="#7e5545"/>
  <path d="M25.916,21.786c-.266-.276-.623-.415-1.062-.415h-.688l.162-11.919c0-.37-.132-.7-.393-.98-.266-.286-.617-.431-1.042-.431-.165,0-.346.044-.54.131-.188.084-.342.187-.468.313l-2.771,3.008c-.248.287-.375.603-.375.938,0,.39.139.726.412.999.556.557,1.479.542,2.028-.006l.289-.306-.148,8.254h-1.099c-.407,0-.749.14-1.015.415-.263.273-.396.608-.396.996s.133.723.396.996c.266.276.607.416,1.015.416h4.68c.373,0,.704-.137.984-.409.283-.274.427-.611.427-1.003,0-.388-.133-.723-.397-.996Z" fill="#7e5545"/>
</svg>
