<?xml version='1.0' encoding='utf-8'?>
<svg xmlns="http://www.w3.org/2000/svg" viewBox="0 0 32.364 32">
  <path d="M32.077,6.683c-.195-1.619-.523-2.963-1.491-4.259-1.152-1.543-3.131-1.876-4.877-2.171-.159-.027-.317-.053-.474-.081l.03-.101-.601-.002-.38-.069-.02.067c-.956-.004-1.913-.012-2.869-.02C16.598.005,11.64-.038,6.66.515,3.214.898.836,3.114.454,6.299-.243,12.107-.011,18.028.313,24.088c.08,1.513.417,2.892.898,4.497l.046.154.13.095c.356.26.68.568,1.023.894.916.871,1.955,1.857,3.766,1.933l5.963.251,3.775.071c.595.011,1.178.017,1.749.017,3.49,0,6.55-.207,9.308-.63,3.037-.465,5.333-3.291,5.339-6.574l.016-7.507c.002-.773.01-1.537.019-2.295.032-2.861.062-5.562-.268-8.312Z" fill="#7e5545"/>
  <path d="M29.406,8.619l.264,4.035-.167,10.539c-.047,2.972-.881,4.666-2.701,5.478l-10.354.54-8.06-.109c-1.086-.015-2.051-.389-2.903-.72-.579-.225-1.946-.92-2.132-2.508l-.251-2.135-.012-.322c-.194-5.161-.394-10.497-.006-15.894.176-2.447,1.876-4.212,4.136-4.292l7.907-.281,9.18.03c1.613.005,2.971.401,3.726,1.084.879.796,1.248,2.102,1.13,3.995l-.038.612.28-.051Z" fill="#fff"/>
  <path d="M13.871,20.934l-6.134.406v-12.231c0-.389-.142-.729-.424-1.011-.575-.575-1.496-.552-2.046,0-.281.282-.424.622-.424,1.011v13.78c0,.374.146.71.436.999.274.274.591.413.947.413.023,0,.047,0,.07-.002l7.703-.496c.36-.02.676-.183.938-.485.257-.295.387-.622.387-.974,0-.423-.14-.772-.415-1.038-.277-.267-.622-.395-1.038-.373Z" fill="#7e5545"/>
  <path d="M27.441,11.983c-.48-1.187-1.155-2.15-2.005-2.862-.867-.725-1.857-1.093-2.943-1.093-1.134,0-2.192.408-3.145,1.211-.936.79-1.686,1.851-2.228,3.154-.54,1.296-.813,2.696-.813,4.16,0,1.354.242,2.637.718,3.815.479,1.187,1.158,2.15,2.018,2.863.875.725,1.869,1.092,2.954,1.092,1.117,0,2.166-.403,3.12-1.199.936-.782,1.686-1.835,2.229-3.131.54-1.289.813-2.693.813-4.172,0-1.368-.241-2.659-.717-3.838ZM20.561,20.849c-.455-.455-.814-1.074-1.068-1.841-.257-.779-.388-1.621-.388-2.501,0-1.018.162-1.981.48-2.86.315-.869.744-1.565,1.277-2.068.519-.49,1.052-.728,1.63-.728.511,0,.973.213,1.412.652.456.456.819,1.076,1.08,1.843.265.78.399,1.628.399,2.523,0,1.018-.165,1.975-.49,2.845-.323.863-.753,1.556-1.28,2.06-.976.935-2.132.994-3.051.075Z" fill="#7e5545"/>
</svg>
