<?xml version='1.0' encoding='utf-8'?>
<svg xmlns="http://www.w3.org/2000/svg" viewBox="0 0 32.364 32">
  <path d="M32.077,6.683c-.195-1.619-.523-2.963-1.491-4.259-1.152-1.543-3.131-1.876-4.877-2.171-.159-.027-.317-.053-.474-.081l.03-.101-.601-.002-.38-.069-.02.067c-.956-.004-1.913-.012-2.869-.02C16.598.005,11.64-.038,6.66.515,3.214.898.836,3.114.454,6.299-.243,12.107-.011,18.028.313,24.088c.08,1.513.417,2.892.898,4.497l.046.154.13.095c.356.26.68.568,1.023.894.916.871,1.955,1.857,3.766,1.933l5.963.251,3.775.071c.595.011,1.178.017,1.749.017,3.49,0,6.55-.207,9.308-.63,3.037-.465,5.333-3.291,5.339-6.574l.016-7.507c.002-.773.01-1.537.019-2.295.032-2.861.062-5.562-.268-8.312Z" fill="#7e5545"/>
  <path d="M29.406,8.619l.264,4.035-.167,10.539c-.047,2.972-.881,4.666-2.701,5.478l-10.354.54-8.06-.109c-1.086-.015-2.051-.389-2.903-.72-.579-.225-1.946-.92-2.132-2.508l-.251-2.135-.012-.322c-.194-5.161-.394-10.497-.006-15.894.176-2.447,1.876-4.212,4.136-4.292l7.907-.281,9.18.03c1.613.005,2.971.401,3.726,1.084.879.796,1.248,2.102,1.13,3.995l-.038.612.28-.051Z" fill="#fff"/>
  <path d="M14.958,20.945l-6.134.406v-12.231c0-.39-.142-.73-.424-1.012-.575-.573-1.493-.55-2.046,0-.281.282-.424.622-.424,1.011v13.78c0,.374.146.71.436.999.274.274.591.414.946.414.023,0,.048,0,.071-.002l7.703-.496c.36-.02.676-.183.938-.485.257-.295.387-.622.387-.973,0-.423-.14-.773-.415-1.039-.277-.266-.621-.394-1.038-.372Z" fill="#7e5545"/>
  <path d="M27.235,21.802c-.281-.271-.612-.409-.984-.409h-5.835c.158-.711.463-1.308.907-1.778.534-.564,1.273-1.155,2.191-1.752.809-.507,1.484-.988,2.006-1.43.534-.452.995-1.008,1.372-1.656.386-.663.581-1.437.581-2.302,0-.805-.213-1.557-.632-2.237-.418-.677-1.002-1.219-1.736-1.612-.731-.39-1.571-.588-2.494-.588-.906,0-1.744.193-2.49.574-.73.374-1.373.827-1.908,1.345-.321.304-.534.548-.651.746-.128.215-.192.445-.192.685,0,.369.131.701.39.989.266.296.61.446,1.021.446.294,0,.525-.057.706-.174.154-.1.32-.247.499-.444.234-.278.592-.578,1.065-.893.447-.298.972-.45,1.56-.45.602,0,1.087.154,1.481.47.376.303.558.677.558,1.144,0,.403-.104.75-.317,1.06-.226.329-.517.629-.862.894-.366.28-.93.674-1.669,1.167-.863.544-1.601,1.099-2.192,1.651-.607.567-1.122,1.312-1.529,2.216-.408.906-.615,2.03-.615,3.34v1.388h8.786c.373,0,.704-.137.984-.409.283-.274.427-.603.427-.979,0-.391-.144-.729-.427-1.003Z" fill="#7e5545"/>
</svg>
