<?xml version='1.0' encoding='utf-8'?>
<svg xmlns="http://www.w3.org/2000/svg" viewBox="0 0 32.663 32">
  <path d="M30.627,6.731c-.009-.995-.044-1.984-.107-2.955-3.988-.533-7.624-.426-11.076.246-1.151.224-2.281.51-3.397.856-3.664,1.137-6.563,3.421-8.978,6.337-.387.467-.733.965-1.039,1.49-.306.525-.572,1.077-.8,1.652-.114.287-.218.58-.312.878-.189.596-.339,1.212-.451,1.844-.112.632-.187,1.28-.225,1.939-.095,1.648.041,3.367.393,5.089.141.689.316,1.378.526,2.063l4.596-4.368c.416-.427.935-.943.825-1.676-.342-2.274-.482-5.156.242-5.459.153-.064.617.084.68.28.455,1.41-.624,2.993.107,4.696.934-.678,2.633-1.665,2.74-3.003-.69-3.552-.197-7.302,1.252-6.405,1.073.664-.227,3.037.118,5.712l6.301-5.73c.331-.301,1.252.206,1.498.529.295.387.316.961-.076,1.324l-4.613,4.27c1.448.45,2.575.441,3.667,1.046.248.137.203.796.008.888-.965.459-3.49-.58-5.207-.234-1.569.316-2.479,1.575-3.62,2.58,2.239,1.142,4.749.571,4.946,1.854.107.694-.323,1.225-1.094,1.069l-5.179-1.049-5.745,5.177c.451.215.889.392,1.322.54s.86.269,1.286.373c.854.209,1.707.352,2.609.521.576.108,1.143.189,1.701.242.557.053,1.104.079,1.642.078,1.074-.002,2.108-.112,3.098-.329.99-.217,1.936-.539,2.835-.966.899-.427,1.752-.958,2.555-1.592.763-.579,1.45-1.237,2.069-1.962.619-.725,1.168-1.517,1.654-2.363.729-1.27,1.316-2.662,1.779-4.134.309-.982.563-2,.768-3.041.275-1.398.455-2.838.567-4.29.024-.312.046-.624.063-.937.046-.829.07-1.66.072-2.487,0-.198,0-.395,0-.592Z" fill="#b0c28f"/>
  <path d="M30.628,5.73c-.002.827-.026,1.658-.072,2.487.046-.829.07-1.659.072-2.487Z" fill="none"/>
  <path d="M30.493,9.154c-.112,1.452-.292,2.893-.567,4.29.275-1.398.455-2.838.567-4.29Z" fill="none"/>
  <path d="M18.266,27.503c-.99.217-2.023.327-3.098.329,1.074-.002,2.108-.112,3.098-.329Z" fill="none"/>
  <path d="M30.627,5.138c-.009-.995-.044-1.984-.107-2.955-3.988-.533-7.624-.425-11.076.246,3.452-.671,7.088-.778,11.076-.246.063.971.098,1.96.107,2.955Z" fill="none"/>
  <path d="M30.556,8.217c-.017.313-.039.625-.063.937.024-.312.046-.624.063-.937Z" fill="#c5bea1"/>
  <path d="M21.101,26.536c-.899.427-1.845.75-2.835.966.99-.217,1.936-.539,2.835-.966Z" fill="#c5bea1"/>
  <path d="M5.232,12.764c.227-.574.494-1.126.8-1.652-.306.525-.572,1.077-.8,1.652Z" fill="#c5bea1"/>
  <path d="M4.469,15.486c.112-.632.262-1.248.451-1.844-.189.596-.339,1.212-.451,1.844Z" fill="#c5bea1"/>
  <path d="M30.627,5.138c.002.197.001.394,0,.592,0-.198,0-.395,0-.592Z" fill="#c5bea1"/>
  <path d="M4.244,17.425c-.095,1.648.041,3.367.393,5.089-.352-1.722-.488-3.441-.393-5.089Z" fill="#c5bea1"/>
  <path d="M6.609,26.076c.451.215.89.392,1.322.54-.433-.148-.872-.325-1.322-.54h0Z" fill="#c5bea1"/>
  <path d="M9.217,26.99c.854.209,1.707.352,2.609.521.576.108,1.143.189,1.701.242-.557-.053-1.124-.134-1.701-.242-.902-.169-1.755-.312-2.609-.521Z" fill="#c5bea1"/>
  <path d="M29.158,16.485c-.463,1.473-1.05,2.865-1.779,4.134.729-1.269,1.316-2.662,1.779-4.134Z" fill="#c5bea1"/>
  <path d="M23.656,24.944c.763-.579,1.45-1.237,2.069-1.962-.619.725-1.306,1.383-2.069,1.962Z" fill="#c5bea1"/>
  <path d="M27.379,20.619c-.486.846-1.035,1.638-1.654,2.363.619-.725,1.168-1.517,1.654-2.363Z" fill="#c5bea1"/>
  <path d="M31.9.936C30.869-.091,29.465-.014,28.397.053c-.736.046-1.52-.036-2.278-.049-1.687-.03-3.327.121-4.97.256C10.644,1.127,2.818,7.497,2.41,18.184c-.106,2.762.506,4.941,1.555,7.73C3.964,25.915-.011,30.214,0,30.365c.043.571,1.088,2.037,1.639,1.53l3.026-3.197c.374-.344.643-1.154,1.56-.809,8.449,3.187,16.901,2.015,21.52-4.067,2.385-3.14,3.705-7.12,4.346-11.287.326-2.123.477-4.313.479-6.537,0-.234.017-.523.037-.845.082-1.357.206-3.309-.707-4.218ZM30.556,8.217c-.017.313-.039.625-.063.937-.112,1.452-.292,2.893-.567,4.29-.205,1.041-.459,2.059-.768,3.041-.463,1.473-1.05,2.865-1.779,4.134-.486.846-1.035,1.638-1.654,2.363-.619.725-1.306,1.383-2.069,1.962-.803.634-1.656,1.165-2.555,1.592-.899.427-1.845.75-2.835.966-.99.217-2.023.327-3.098.329-.537.001-1.085-.025-1.642-.078-.557-.053-1.124-.134-1.701-.242-.902-.169-1.755-.312-2.609-.521-.427-.104-.854-.225-1.286-.373-.433-.149-.872-.325-1.322-.54-.068-.033-.152-.06-.243-.087.091.028.175.054.243.087l5.745-5.177,5.179,1.049c.771.156,1.201-.375,1.094-1.069-.197-1.283-2.707-.712-4.946-1.854,1.141-1.005,2.051-2.264,3.62-2.58,1.716-.345,4.242.693,5.207.234.195-.093.239-.751-.008-.888-1.092-.605-2.219-.596-3.667-1.046l4.613-4.27c.392-.363.371-.937.076-1.324-.246-.323-1.167-.83-1.498-.529l-6.301,5.73c-.346-2.674.954-5.048-.118-5.712-1.449-.897-1.943,2.854-1.252,6.405-.107,1.337-1.806,2.324-2.74,3.003-.731-1.703.348-3.286-.107-4.696-.063-.195-.526-.344-.68-.28-.725.303-.585,3.185-.242,5.459.11.733-.408,1.249-.825,1.676l-4.596,4.368c-.209-.685-.385-1.374-.526-2.063-.352-1.722-.488-3.441-.393-5.089.038-.659.113-1.307.225-1.939.112-.632.262-1.248.451-1.844.094-.298.198-.591.312-.878.227-.574.494-1.126.8-1.652.306-.525.652-1.023,1.039-1.49,2.415-2.916,5.313-5.2,8.978-6.337,1.116-.346,2.246-.633,3.396-.856,3.452-.671,7.088-.778,11.076-.246.063.971.098,1.96.107,2.955.002.197.001.394,0,.592-.002.827-.026,1.658-.072,2.487Z" fill="#825e4e"/>
  <path d="M6.609,26.076c-.136-.065-.336-.108-.53-.177.195.069.394.112.53.177h0Z" fill="#a59085"/>
  <path d="M5.575,25.566c-.153-.218-.279-.552-.413-.989.133.437.26.771.413.989Z" fill="#a59085"/>
</svg>
