<?xml version='1.0' encoding='utf-8'?>
<svg xmlns="http://www.w3.org/2000/svg" viewBox="0 0 28.639 32">
  <path d="M2.822,12.732c.135.026.315.238.323.372.011.176-.064.42-.139.566l-2.532-.034c-.341-.005-.517-.261-.464-.549.044-.244.242-.387.549-.383l2.264.028Z" fill="#f1c67a"/>
  <path d="M8.199,4.303c.146.28-.144.677-.427.695-.349-.264-.6-.619-.838-1.032-.409-.709-1.094-1.373-.63-1.802.097-.09.417-.177.528-.024.512.71.983,1.426,1.368,2.163Z" fill="#f1c67a"/>
  <path d="M20.913,4.852c-.168.057-.346.107-.513.022-.148-.075-.248-.31-.335-.438l1.397-2.135c.163-.25.397-.259.598-.161.208.101.341.39.184.635l-1.333,2.077Z" fill="#f1c67a"/>
  <path d="M25.279,8.63c-.253.182-.495.194-.667.079-.205-.137-.253-.557-.022-.717l1.83-1.273c.193-.134.488-.032.615.114.123.142.12.449-.102.608l-1.653,1.189Z" fill="#f1c67a"/>
  <path d="M4.057,7.968c.243.177.238.51.068.704-.122.139-.406.188-.632.022l-1.667-1.227c-.199-.147-.257-.461-.138-.661.097-.165.433-.251.66-.085l1.71,1.247Z" fill="#f1c67a"/>
  <path d="M27.254,12.596h.963c.253-.001.401.197.42.385.024.233-.131.48-.418.48h-.965s-1.411-.004-1.411-.004l-.318-.086c-.041-.15-.091-.326-.048-.459.06-.187.255-.315.483-.315h1.294Z" fill="#f1c67a"/>
  <path d="M14.665,2.463c.001.268-.018.489-.226.624-.194.125-.61.024-.613-.288l-.025-2.355c-.003-.255.201-.416.381-.44.189-.025.473.073.474.322l.01,2.137Z" fill="#f1c67a"/>
  <path d="M3.747,17.555c.217-.014.406.319.376.478-.032.173-.126.361-.269.512-.692.093-2.037,1.585-2.288.643-.038-.141.031-.418.227-.527.674-.376,1.276-.882,1.954-1.107Z" fill="#f1c67a"/>
  <path d="M25.42,17.5l1.406.914.235.286c.123.151.108.376-.027.501-.089.082-.3.187-.469.089l-1.626-.942c-.163-.094-.251-.203-.288-.347l.02-.471c.233-.159.491-.042.748-.029Z" fill="#f1c67a"/>
  <path d="M20.186,6.362c-3.421-2.748-8.376-2.755-11.781-.016-3.705,2.981-4.664,8.122-2.279,12.226.607,1.044,1.247,1.808,1.76,2.421.422.503.787.939,1.014,1.381.291.565.498,1.789.492,2.148-.433.744-.153,1.526.035,2.051.043.12.085.233.112.337-.157.985-.134,2.166,1.148,2.921.393.868,1.108,1.534,2.032,1.89.486.187,1.011.28,1.539.28.69,0,1.386-.158,2.01-.47.693-.346,1.226-.93,1.587-1.738.504-.241.9-.637,1.072-1.076.341-.56.184-1.156.079-1.555-.016-.06-.032-.119-.045-.176.3-.623.634-1.386.264-2.264-.073-.174-.056-.35.01-.68.03-.147.055-.292.08-.435.051-.293.099-.57.185-.837.209-.65.664-1.189,1.24-1.871.663-.784,1.488-1.76,2.149-3.231,1.777-3.95.665-8.599-2.704-11.306ZM14.229,30.673c-.91-.006-1.753-.358-2.203-1.196l4.48.02c-.412.84-1.358,1.183-2.277,1.176ZM17.729,28.171c-.116.196-.35.479-.676.49l-1.463.048-3.624-.012-.565-.078c-.292-.04-.479-.28-.567-.463-.117-.241-.124-.617.065-.812.156-.161.388-.053.568-.042,1.497.09,2.931.151,4.37.071l1.792-.099c.207.15.246.652.101.897ZM17.617,26.398c-.57.182-1.13.16-1.712.181-1.588.058-3.146.048-4.712-.111-.365-.037-.6-.288-.657-.562-.062-.301-.049-.591.121-.858l.553.107c1.582.195,3.167.172,4.803.151l1.86-.182c.331.241.199,1.129-.256,1.274ZM15.185,24.523l-1.819.004c.059-1.096.094-2.134.024-3.228-.073-1.139-.604-1.971-.329-2.681.801.032,1.543.042,2.391-.026.321.797-.304,1.744-.34,3.108-.025.949.007,1.854.073,2.822ZM21.737,16.985c-.501,1.163-1.206,2.161-2.068,3.093-.985,1.065-1.664,2.264-1.725,3.738-.011.255-.228.5-.464.526l-1.458.165c-.111.013-.211-.01-.238-.071-.079-.174-.152-2.756.032-3.56l.35-1.527-.002-.832c.892-.187,1.66-.804,1.701-1.709.035-.761-.468-1.425-1.109-1.532-.709-.118-1.326.257-1.578.956-.201.558-.095,1.133.048,1.744l-1.93.022c.16-.622.254-1.186.063-1.744-.236-.69-.854-1.09-1.551-.981-.61.095-1.121.701-1.134,1.425-.017.938.771,1.628,1.645,1.819.134.029.042.209.034.275-.013.108-.042.292-.021.384l.401,1.81c.152,1.175.079,2.311.043,3.513l-1.507-.117c-.358-.028-.642-.257-.66-.642-.122-2.679-2.137-3.577-3.469-6.105-1.327-2.518-1.311-5.377.065-7.841,2.378-4.261,7.925-5.478,11.846-2.594,3.033,2.231,4.212,6.243,2.686,9.786ZM15.745,16.486c.088-.383.434-.658.783-.62.348.037.707.412.693.836-.021.653-.615,1.143-1.326,1.21-.23-.494-.256-.96-.149-1.426ZM12.654,17.923c-.708-.071-1.332-.545-1.348-1.222-.009-.391.238-.722.55-.824.325-.106.71.113.873.487.204.467.138.983-.075,1.56Z" fill="#825e4e"/>
  <path d="M19.773,15.665c.117-.226.488-.465.351-.802-.121-.299-.443-.584-.401-.976.044-.414.013-.835-.187-1.194-.309-.554.396-1.365-1.202-2.148-.778-1.176-2.045-1.784-3.384-2.126-.528-.135-.802-.089-1.326.027l-1.43-.266c-.03.654-1.162,1.568-1.805,2.303l-.899,1.027c-.278.318-.669.315-.938.37-.155.67-1.115.336-.923.926.199-.09.609-.21.794.001.176.2.219,1.222-.041,1.526-.125.146-.318.228-.542.217.163.456.624.198.799.939l.127.536c-.081.427-.251.744-.451,1.141l.339.896c.408.121.54.577.776.799.459.213,1.118.032,1.51.356l.703.581c.173.143.201-.072.233-.284.019-.129.04-.258.095-.304.091-.076.239-.076.36-.035-.02-.092.008-.276.021-.384l-.034-.275c-.874-.19-1.662-.881-1.645-1.819.013-.724.524-1.33,1.134-1.425.697-.109,1.315.292,1.551.981.191.558.097,1.123-.063,1.744l1.93-.022c-.143-.611-.25-1.186-.048-1.744.252-.7.869-1.075,1.578-.956.641.107,1.143.772,1.109,1.532-.041.905-.809,1.522-1.701,1.709l.002.832.512.087.722.123c.344-.106.594-.281.94-.064.523-.681.882-1.146,1.316-2.025.182-.369.482-.725.526-1.108-.227-.101-.558-.407-.408-.697Z" fill="#f9ebb9"/>
  <path d="M20.52,10.493c-.226-.787-.588-1.497-.982-2.198-.044-.078-.086-.156-.13-.233-.165-.289-.442-.499-.357-.863-3.921-2.884-9.467-1.666-11.846,2.594-1.376,2.464-1.392,5.323-.065,7.841,1.333,2.528,3.347,3.426,3.469,6.105.018.385.301.614.66.642l1.507.117c.036-1.201.108-2.338-.043-3.513l-.401-1.81c-.122-.042-.269-.042-.36.035-.055.046-.076.175-.095.304-.032.212-.06.427-.233.284l-.703-.581c-.392-.324-1.05-.143-1.51-.356-.236-.222-.368-.678-.776-.799l-.339-.896c.2-.397.37-.714.451-1.141l-.127-.536c-.175-.741-.636-.484-.799-.939-.795-.705-.136-1.513-.212-1.744-.192-.59.768-.257.923-.926-.323-.23-.471-.698-.368-1.153.469-2.064,2.876-3.717,3.784-3.046.138.102.237.289.227.498l1.43.266c.525-.115.798-.162,1.326-.027,1.338.343,2.606.95,3.384,2.126,1.599.783.893,1.594,1.202,2.148.2.359.231.78.187,1.194-.042.392.28.677.401.976.137.337-.234.576-.351.802-.15.289.181.596.408.697l.273-.574c.491-1.726.568-3.549.066-5.295Z" fill="#f6daa1"/>
  <path d="M19.05,7.199c-.084.363.192.574.357.863.044.077.086.156.13.233.394.701.756,1.41.982,2.198.502,1.747.424,3.57-.066,5.295l-.273.574c-.044.383-.343.74-.526,1.108-.434.878-.793,1.344-1.316,2.025-.822,1.069-1.324,2.28-1.681,3.602-.081.3-.257.57-.407.843-.101.184-.193.369-.228.568l1.458-.165c.235-.027.453-.272.464-.526.061-1.474.74-2.673,1.725-3.738.862-.932,1.568-1.93,2.068-3.093,1.525-3.543.347-7.554-2.686-9.786Z" fill="#f1c67a"/>
  <path d="M17.4,19.559l-.722-.123-.512-.087-.35,1.527c-.184.804-.11,3.386-.032,3.56.027.06.127.083.238.071.035-.199.127-.384.228-.568.15-.273.326-.543.407-.843.358-1.322.859-2.533,1.681-3.602-.345-.217-.595-.042-.94.064Z" fill="#f6daa1"/>
  <path d="M16.014,25.307c-1.636.021-3.221.044-4.803-.151-.04.171-.055.342-.06.514-.003.086-.004.171,0,.257.007.182.022.363.044.542,1.565.159,3.123.169,4.712.111.06-.178.101-.351.129-.522.013-.081.02-.161.024-.241.008-.17,0-.339-.045-.51Z" fill="#cac9cd"/>
  <path d="M15.837,27.374c-1.439.08-2.873.019-4.37-.071-.088.166-.127.334-.147.503-.005.043-.015.087-.016.13-.008.23.031.46.098.684l.565.078,3.624.012c.12-.176.209-.351.271-.527.034-.097.053-.195.061-.294.014-.168,0-.338-.085-.514Z" fill="#cac9cd"/>
  <path d="M15.452,18.593c-.848.068-1.591.058-2.391.026-.274.71.256,1.542.329,2.681l.513-.061.134-.016c.228-.048.397.091.573.232.148.118.302.238.502.247.035-1.364.661-2.312.34-3.108Z" fill="#fad9b6"/>
  <path d="M15.185,24.523c-.065-.968-.097-1.874-.073-2.822-.2-.009-.354-.129-.502-.247-.176-.141-.345-.28-.573-.232l-.134.016-.513.061c.07,1.094.035,2.131-.024,3.228l1.819-.004Z" fill="#f6daa1"/>
  <path d="M12.025,29.476c.451.838,1.293,1.19,2.203,1.196.918.006,1.864-.337,2.277-1.176l-4.48-.02Z" fill="#858875"/>
  <path d="M17.629,27.274l-1.792.099c.084.177.099.346.085.514-.008.098-.027.197-.061.294-.062.176-.151.351-.271.527l1.463-.048c.326-.011.56-.294.676-.49.145-.244.106-.747-.101-.897Z" fill="#a3ab94"/>
  <path d="M17.874,25.125l-1.86.182c.044.17.053.34.045.51-.004.08-.011.16-.024.241-.027.171-.069.344-.129.522.582-.021,1.142,0,1.712-.181.455-.145.588-1.033.256-1.274Z" fill="#a3ab94"/>
  <path d="M12.729,16.364c-.163-.374-.549-.593-.873-.487-.312.102-.559.433-.55.824.016.678.64,1.151,1.348,1.222.213-.576.279-1.093.075-1.56Z" fill="#f9ebb9"/>
  <path d="M16.528,15.866c-.349-.037-.695.238-.783.62-.107.466-.081.932.149,1.426.711-.067,1.305-.557,1.326-1.21.014-.424-.344-.799-.693-.836Z" fill="#f9ebb9"/>
  <path d="M11.151,25.67c.006-.172.021-.344.06-.514l-.553-.107c-.17.267-.183.558-.121.858.056.274.292.525.657.562-.022-.179-.037-.36-.044-.542-.003-.086-.002-.171,0-.257Z" fill="#f1eee5"/>
  <path d="M11.32,27.806c.02-.169.059-.337.147-.503-.18-.011-.412-.119-.568.042-.189.195-.182.571-.065.812.088.182.276.423.567.463-.066-.224-.105-.454-.098-.684.001-.043.011-.087.016-.13Z" fill="#e3e1d6"/>
  <path d="M12.319,18.517l.034.275c.008-.066.1-.245-.034-.275Z" fill="#f6daa1"/>
  <path d="M10.389,10.482c.643-.735,1.776-1.649,1.805-2.303.009-.209-.089-.396-.227-.498-.907-.672-3.315.981-3.784,3.046-.103.455.045.923.368,1.153.27-.055.66-.052.938-.37l.899-1.027Z" fill="#fff"/>
  <path d="M8.423,12.806c-.185-.211-.595-.091-.794-.001.075.231-.583,1.039.212,1.744.224.011.417-.072.542-.217.26-.303.217-1.326.041-1.526Z" fill="#fff"/>
  <path d="M16.878,15.423c-.709-.118-1.326.257-1.578.956-.201.558-.095,1.133.048,1.744l-1.93.022c.16-.622.254-1.186.063-1.744-.236-.69-.854-1.09-1.551-.981-.61.095-1.121.701-1.134,1.425-.017.938.771,1.628,1.645,1.819.134.029.042.209.034.275-.013.108-.042.292-.021.384l.401,1.81c.152,1.175.079,2.311.043,3.513l.59.028c.059-1.096.094-2.134.024-3.228-.073-1.139-.604-1.971-.329-2.681.801.032,1.543.042,2.391-.026.321.797-.304,1.744-.34,3.108-.025.949.007,1.854.073,2.822,0,0,.626-.027.599-.087-.079-.174-.152-2.756.032-3.56l.35-1.527-.002-.832c.892-.187,1.66-.804,1.701-1.709.035-.761-.468-1.425-1.109-1.532ZM12.776,18.071c-.708-.071-1.332-.545-1.348-1.222-.009-.391.238-.722.55-.824.325-.106.71.113.873.487.204.467.138.983-.075,1.56ZM16.016,18.06c-.23-.494-.256-.96-.149-1.426.088-.383.434-.658.783-.62.348.037.707.412.693.836-.021.653-.615,1.143-1.326,1.21Z" fill="#825e4e" stroke="#825e4e" stroke-miterlimit="10" stroke-width=".376"/>
  <path d="M18.923,24.477c-.126-.033-.254-.061-.383-.079-.01-.001-.02-.003-.03-.004-.014-.002-.029-.004-.043-.005-.036-.004-.072-.008-.108-.011-.073-.007-.147-.012-.22-.017-.08-.005-.161-.005-.241-.007-.07.049-.146.088-.227.096l-1.523.165c-.116.013-.22-.01-.249-.071-.003-.006-.005-.021-.008-.031-.208.001-.416-.004-.624-.009.003.043.004.084.007.127l-1.9.004c.001-.021.001-.041.002-.062-.206-.015-.411-.037-.615-.07-.001.035-.002.069-.004.104l-1.574-.117c-.336-.025-.598-.22-.663-.537-.05.024-.098.052-.146.078-.056.383-.064.77-.057,1.158.027.011.054.021.08.034.033.016.064.033.096.05.017-.039.026-.079.052-.117l.578.107c1.652.195,3.308.172,5.016.151l1.943-.182c.033.023.057.058.082.092.04-.003.079-.013.118-.015.083-.005.167-.008.25-.015.019-.002.043-.002.062-.006.003,0,.007,0,.01-.001.04-.006.08-.013.12-.021.047-.01.091-.028.136-.04.041-.241.07-.478.064-.738,0-.003,0-.007,0-.01Z" fill="#825e4e"/>
  <path d="M17.909,27.477c.13-.048.262-.085.398-.116.037-.068.077-.134.104-.209.083-.234.143-.475.2-.716-.003-.002-.006-.004-.01-.006.001,0-.007-.004-.014-.008-.001,0,.001,0,0,0-.041-.013-.081-.025-.124-.033-.008-.002-.027-.006-.04-.007-.022-.002-.045-.004-.067-.005-.048-.003-.097-.003-.145-.002-.07.002-.14.01-.211.016-.055.051-.115.093-.186.115-.596.182-1.18.16-1.788.181-1.659.058-3.286.048-4.921-.111-.29-.028-.5-.18-.61-.371-.048.014-.095.028-.143.043.015.358.022.717.015,1.077.015.006.031.012.046.019.122.048.248.086.372.127.004-.005.007-.012.012-.017.163-.161.405-.053.593-.042,1.564.09,3.061.151,4.564.071l1.871-.099c.033.023.06.055.084.094Z" fill="#825e4e"/>
  <path d="M17.418,28.766c-.005-.006-.015-.018-.018-.022-.004-.004-.008-.008-.011-.011-.053.016-.105.035-.164.037l-1.528.048-3.785-.012-.59-.078c-.136-.018-.247-.079-.34-.154-.013.002-.026.003-.039.005-.062.009-.123.024-.184.036.329.283.636.586.884.933.025.004.05.004.075.008.096.016.19.045.284.07-.009-.014-.02-.027-.028-.042l4.679.02c-.022.043-.056.075-.081.115.067-.015.134-.03.2-.046.098-.024.198-.038.297-.057.055-.301.185-.583.353-.846,0-.001-.002-.003-.003-.004Z" fill="#825e4e"/>
</svg>
