<?xml version='1.0' encoding='utf-8'?>
<svg xmlns="http://www.w3.org/2000/svg" viewBox="0 0 21.244 32">
  <path d="M20.394,14.176c-.005.304-.002.605-.207.896-.145.207-.494.371-.801.413-.432.06-.867-.053-1.285-.157.035-.103-.045-.142-.097-.136l-.243.051-4.627-.859c-.282-.052-.532-.235-.633-.429-.121-.231-.125-.59.007-.883l1.655-3.66,3.007-7.032c-.8.471-1.29,1.129-1.883,1.664l-1.645,1.486-1.993,1.908L2.643,16.005c-.251.238-.546.426-.71.825l.75.161,5.601.966c.437.075.684.333.7.737.058.365-.144.687-.311,1.069l-3.081,7.04.009.088c-.049.052-.122.114-.15.18l-.973,2.305,3.598-3.208,7.369-6.775,3.948-3.59c.38-.346,1.386-.186,1.791-.045-.064.212-.112.502-.274.684-1.32,1.48-2.783,2.67-4.259,4.02l-9.507,8.698c-1.538,1.408-3.328,3.601-4.571,2.575-.385-.318-.626-.977-.379-1.52l1.877-4.128,2.985-6.666-5.894-1.086c-.631-.116-1.069-.655-1.144-1.155-.095-.632.192-1.062.654-1.503L11.863,5.03c1.722-1.638,3.313-3.199,5.139-4.688.536-.437,1.538-.516,1.903.127.348.613.231,1.497-.058,2.164l-4.419,10.214,4.502.955c.528.112.986.151,1.463.374Z" fill="#81614d"/>
  <path d="M21.185,15.758c-.406-.142-1.411-.301-1.791.045l-.007-.318c.308-.042.656-.206.801-.413.204-.291.202-.592.207-.896.609.284,1.005.88.791,1.583Z" fill="#7a5d3e"/>
  <path d="M12.07,7.749c-.083.387-.442.788-.711,1.069-.291.094-.548.294-.555.611-.394,0-.571.417-.838.689l-2.506,2.55c-.352.358-.708.775-1.15.915-.382.121-.543.448-.867.713-.508.416-1.065.765-1.378,1.331l-1.001.55c-.153-.005-.3-.033-.421-.174L11.65,7.438c.121.025.219.027.324.055.095.026.138.143.095.257Z" fill="#fbe1cb"/>
  <path d="M5.592,26.803l3.081-7.04c.167-.382.37-.704.311-1.069.153-.017.304.036.358.131.071.126.143.387.08.549l-.99,2.532-1.023,2.051c-.351.703-.643,2.096-1.816,2.847Z" fill="#fadbc2"/>
  <path d="M12.07,7.749c.043-.114,0-.231-.095-.257-.105-.029-.204-.03-.324-.055l1.993-1.908,1.645-1.486c-.068.265-.163.571-.383.788-.834.822-1.637,1.622-2.326,2.575-.147.203-.332.297-.51.341Z" fill="#fadbc2"/>
  <path d="M3.064,16.179c-.079.366-.512.399-.381.811l-.75-.161c.164-.398.459-.586.71-.825.121.141.268.169.421.174Z" fill="#f6c7a5"/>
  <path d="M18.102,15.328l-.34-.085.243-.051c.052-.007.132.033.097.136Z" fill="#7a5d3e"/>
  <path d="M5.452,27.071c.028-.066.101-.128.15-.18.009.092-.053.182-.15.18Z" fill="#fadbc2"/>
  <path d="M17.762,15.243l.34.085c.418.104.853.217,1.285.157l.007.318-3.948,3.59-7.369,6.775-3.598,3.208.973-2.305c.097.001.159-.088.15-.18l-.009-.088c1.173-.751,1.465-2.144,1.816-2.847l1.023-2.051.99-2.532c.063-.162-.009-.422-.08-.549-.054-.095-.205-.148-.358-.131-.015-.404-.263-.662-.7-.737l-5.601-.966c-.131-.412.302-.445.381-.811l1.001-.55c.223-.122.464-.105.679-.356.694-.809,1.472-1.096,1.566-1.688.442-.14.798-.557,1.15-.915l2.506-2.55c.267-.272.444-.689.838-.689.173,0,.377-.011.484-.156.083-.111.057-.338.071-.455.269-.282.628-.683.711-1.069.178-.044.363-.138.51-.341.689-.954,1.492-1.753,2.326-2.575.221-.218.315-.523.383-.788.593-.535,1.082-1.193,1.883-1.664l-3.007,7.032-1.655,3.66c-.132.293-.128.652-.007.883.101.194.352.376.633.429l4.627.859Z" fill="#f4c97e"/>
  <path d="M6.31,13.585c-.094.592-.872.88-1.566,1.688-.215.251-.456.234-.679.356.313-.566.87-.915,1.378-1.331.324-.265.485-.592.867-.713Z" fill="#f4daae"/>
  <path d="M10.804,9.43c.007-.317.264-.517.555-.611-.014.118.012.344-.071.455-.107.145-.311.155-.484.156Z" fill="#f4daae"/>
</svg>
