<?xml version='1.0' encoding='utf-8'?>
<svg xmlns="http://www.w3.org/2000/svg" viewBox="0 0 20.72 32">
  <path d="M8.806,19.365c-.032-.086-.045-.229.061-.268l-.061.268Z" fill="#734f42"/>
  <path d="M19.079,12.029h0l-.969-.101-2.065-.065c-.415-.013-.799-.016-1.174-.014l1.741-3.441c.408-.705.73-1.451,1.041-2.172.1-.232.201-.466.306-.7l.77-1.729c.212-.474.408-.945.491-1.506.126-.854-.343-1.622-1.168-1.912-.627-.22-1.265-.239-1.828-.255l-4.72-.134-5.27.159c-.543.016-1.26.354-1.523.893-.542,1.109-.865,2.201-1.214,3.385l-1.038,3.518c-.287.972-.542,1.925-.8,2.887l-.867,3.206c-.045.166-.1.356-.159.561-.408,1.425-.736,2.668-.603,3.44.117.684.675,1.508,2.656,1.554l1.491.055,3.2-.017-1.093,3.877c-.179.634-.334,1.214-.496,1.848l-.666,2.615c-.014.051-.021.101-.025.147-.044.134-.051.251-.052.318l-.047.173c-.022.054-.064.156-.08.291-.033.085-.056.183-.065.299-.033.086-.054.185-.059.297-.047.134-.056.256-.064.343l-.068.674c-.047.467.136.926.477,1.194.258.204.512.282.752.282.596,0,1.105-.481,1.366-.727.068-.065.135-.128.199-.182.494-.418,1.294-1.366,1.689-1.861l4.792-5.905,3.861-4.97.931-1.266c.12-.164.242-.326.363-.486.414-.549.843-1.117,1.189-1.75l.073-.129c.162-.279.385-.661.364-1.189-.034-.837-.647-1.399-1.639-1.505ZM17.488,15.28s-.018.026-.034.051c-.139.088-.243.22-.296.373l-2.198,2.987-2.777,3.486c-.552.693-1.105,1.364-1.659,2.037-.41.498-.821.996-1.232,1.505l-2.063,2.511.446-1.908c.154-.661.34-1.285.535-1.946.127-.43.255-.862.375-1.305l.936-3.469c.023-.084.03-.171.021-.257.011-.028.019-.058.026-.087.076-.334.113-.81-.145-1.185-.161-.234-.408-.384-.696-.424-.87-.121-1.721-.098-2.544-.074l-.56.015c-.631.018-1.226.034-1.81-.025l-1.115-.054c-.189-.004-.467-.01-.662-.035l.124-.587.177-.462c.015-.038.026-.078.034-.118.088-.453.209-.895.337-1.363.06-.221.12-.441.177-.662l.706-2.761,1.689-5.831c.066-.229.129-.458.193-.688.17-.62.331-1.205.551-1.767.036-.092.054-.178.065-.264.117-.208.171-.425.216-.607.016-.064.033-.132.05-.188.054-.008.135-.015.253-.017l2.5-.036c1.237-.018,2.638-.037,4.031.016l2.07.062.578-.008c.165,0,.324.011.484.022.132.01.265.019.4.024l.167.005c.107.003.205.011.295.025-.06.161-.146.352-.202.477l-1.244,2.831c-.273.622-.565,1.234-.867,1.821l-1.781,3.404-.76,1.52c-.146.293-.153.663-.016.967.168.373.557.624.969.624h1.211c.035,0,.069-.004.104-.008l.235-.034,3.542.186c-.025.036-.051.073-.076.109l-.114.165-.642.951Z" fill="#825e4e"/>
  <path d="M6.409,28.571c-.038-.027-.036-.061.012-.052l-.012.052Z" fill="#ecc896"/>
  <path d="M18.759,13.355l-2.676-.127-.579-.031-.755-.05c.008.248-.537.014-.938.154-.388.136-.745.102-1.03-.229l-.554.115c.181.492.309,1.068.013,1.197-.108.047-.298.079-.4.013l-.397-.259c-.173-.009-.359.104-.531.154l-.197.834c-.371.217-.254.578-.345.903-.099.353-.405.704-.578,1.029-.099.185-.424.251-.504.499l-.515-.637c-.698-.197-1.387-.269-2.114-.309-.13-.007-.233-.123-.278-.195-.066-.106.008-.236.027-.364.004-.084-.103-.199-.126-.293.177-.26.169-.497.026-.749l-.483-.85c-.142-.249.038-.6.064-.866l.039-.401c.021-.215-.368-.787-.106-1.273-.079-.3-.231-.412-.195-.56.023-.092.141-.181.194-.281.219-.412-.425-.808-.574-1.145-.045-.103-.063-.234-.124-.283-.096-.077-.211-.059-.313-.039-.197.607-.695,2.101-.911,2.063-.145-.025-.126-.655-.022-1.084l.378-1.566c.021-.087.013-.174.106-.204l-.026-.246c-.022-.213-.2-.386-.45-.375l-.99,3.426-.712,2.782c-.175.683-.386,1.363-.523,2.065l-.197.514-.185.875c-.142.672.757.655,1.52.673l.611.015.327.033c.706.071,1.418.04,2.129.022.905-.023,1.835-.07,2.759.058.344.048.294.502.24.736l-.061.268c-.003.014-.017.04.02.049l-.936,3.469c-.3,1.113-.654,2.153-.917,3.275l-.552,2.361-.012.052-.022.069-.3,1.431c-.035.165-.06.316-.033.458l.277-.212.83-.89.843-1.005,1.182-1.432.664-.82c.968-1.196,1.933-2.337,2.895-3.545l2.777-3.486,1.264-1.698.955-1.317c.039-.054.104-.106.096-.184.116-.037.174-.15.246-.256l.643-.952c.225-.334.532-.716.616-1.154-.053-.204-.425-.212-.582-.222Z" fill="#e6b770"/>
  <path d="M4.864,9.063l-.051.246c-.197.607-.695,2.101-.911,2.063-.145-.025-.126-.655-.022-1.084l.378-1.566c.021-.087.013-.174.106-.204l.125.748c.149-.086.234-.203.375-.204Z" fill="#fff"/>
  <path d="M3.529,12.604c.233.031.043,1.227-.304,1.261-.282.027-.012-1.303.304-1.261Z" fill="#fff"/>
  <path d="M6.62,3.033c-.112-.088-.243-.157-.392-.106.042-.116.192-.388.352-.339.157.049.103.349.04.445Z" fill="#fff"/>
  <path d="M17.698,1.674c-.282-.104-.564-.141-.842-.149l-.168-.005c-.307-.009-.605-.05-.916-.046l-.577.008-.921-.018c-.002.051-.069.166-.155.165-.332-.007-.609.14-.9.248-.318.118-.452.291-.485.64l-.324.608c-.011.17,0,.297-.142.433l-.524.501c-.344.23-.633.482-.907.798-.137.158-.282.3-.452.378l-.109.008c-.228-.064-.369.052-.545.224-.291.284-.898-.121-.971-.122-.058,0-.153.106-.222.148-.115-.093-.085-.328-.005-.446.245-.042.359-.217.316-.463.272-.193.41-.457.456-.774.085-.027.17-.089.16-.127l-.057-.218c.055-.24.049-.43-.092-.635-.061-.088-.013-.373-.106-.425-.156-.088-.271-.121-.402-.23-.138-.116-.363-.053-.412.118-.021.073-.079.1-.12.094-.153-.021.019-.413-.296-.423-.077-.002-.166-.026-.194-.067-.027-.039-.022-.19-.059-.233-.357-.097-.723.184-1.031.384-.235.153-.597.208-.725.489-.117.255-.298.541-.62.439-.318.816-.52,1.674-.764,2.516l-.698,2.407c.251-.011.428.162.45.375.093-.044.098-.146.128-.251l.614-2.161c.355-.991.622-2.017,1.147-2.935.042-.116.192-.388.352-.339.157.049.103.349.04.445l-.951,3.379-.325,1.088c-.161.539-.271,1.069-.479,1.564l-.051.246c.101-.02.217-.038.313.039.061.049.078.18.124.283.149.337.794.733.574,1.145-.053.1-.171.189-.194.281-.037.148.116.26.195.56-.262.486.127,1.058.106,1.273l-.039.401c-.026.266-.206.617-.064.866l.483.85c.143.252.151.49-.026.749.023.094.13.209.126.293-.019.129-.093.258-.027.364.045.072.149.188.278.195.727.04,1.416.112,2.114.309l.515.637c.08-.248.405-.314.504-.499.173-.325.479-.676.578-1.029.091-.324-.027-.686.345-.903l.197-.834c.171-.049.357-.163.531-.154l.397.259c.102.067.292.035.4-.013.295-.13.168-.705-.013-1.197l.554-.115c.285.331.642.366,1.03.229.4-.141.946.094.938-.154l-.311.045h-1.211c-.148,0-.269-.1-.314-.199-.043-.094-.052-.238.004-.351l.76-1.52,1.079-2.045.697-1.35c.316-.612.611-1.234.887-1.861l1.162-2.647c.26-.593.669-1.368.194-1.544Z" fill="#ecc68e"/>
  <path d="M6.62,3.033l-.951,3.379-.325,1.088c-.161.539-.271,1.069-.479,1.564-.141,0-.225.118-.375.204l-.125-.748-.026-.246c.093-.044.098-.146.128-.251l.614-2.161c.355-.991.622-2.017,1.147-2.935.149-.05.28.019.392.106Z" fill="#fff"/>
  <path d="M14.275,1.464c-.002.051-.069.166-.155.165-.332-.007-.609.14-.9.248-.318.118-.452.291-.485.64l-.324.608c-.011.17,0,.297-.142.433l-.524.501c-.344.23-.633.482-.907.798-.137.158-.282.3-.452.378l-.109.008c-.228-.064-.369.052-.545.224-.291.284-.898-.121-.971-.122-.058,0-.153.106-.222.148-.115-.093-.085-.328-.005-.446.245-.042.359-.217.316-.463.272-.193.41-.457.456-.774.085-.027.17-.089.16-.127l-.057-.218c.055-.24.049-.43-.092-.635-.061-.088-.013-.373-.106-.425-.156-.088-.271-.121-.402-.23-.138-.116-.363-.053-.412.118-.021.073-.079.1-.12.094-.153-.021.019-.413-.296-.423-.077-.002-.166-.026-.194-.067-.027-.039-.022-.19-.059-.233-.357-.097-.723.184-1.031.384-.235.153-.597.208-.725.489-.117.255-.298.541-.62.439.028-.073.026-.16.039-.253.223-.266.196-.722.403-1.044.137-.209.56-.233.802-.237l2.5-.036c1.371-.02,2.698-.036,4.068.017l1.111.043Z" fill="#eecea3"/>
</svg>
