<?xml version='1.0' encoding='utf-8'?>
<svg xmlns="http://www.w3.org/2000/svg" viewBox="0 0 28.937 32">
  <path d="M4.935,31.079c-.865,1.204-2.519,1.097-3.588.423s-1.815-2.304-1.003-3.465l4.316-6.171c.406-.581.983-.902,1.708-.888.415-.41.733-.838,1.059-1.383C2.883,14.971,3.11,7.386,7.861,3.062c4.113-3.743,10.295-4.136,14.687-.729,5.222,4.05,5.993,11.696,1.697,16.685-3.381,3.927-8.885,5.12-13.597,2.901l-1.004,1.371c.192.603.07,1.137-.287,1.633l-4.423,6.156ZM10.898,2.437c-.98.529-1.897,1.175-2.662,2.03-1.153,1.289-2.068,2.778-2.502,4.508-1.138,4.538.938,9.168,5.007,11.488,4.229,2.412,9.686,1.28,12.696-2.503,3.509-4.41,2.921-10.586-1.305-14.271-3.114-2.716-7.567-3.23-11.234-1.252ZM1.638,29.994c.276.413.616.63,1.01.672.49.052,1.006-.087,1.311-.492l1.177-1.558,3.132-4.397.04-1.201.948-1.455c.058-.09.363-.268.206-.384l-1.067-.794-1.376,1.79-1.12.208-4.274,5.856c-.381.522-.287,1.306.012,1.754Z" fill="#81614d"/>
  <path d="M24.589,27.791c.187.379.033.784-.282.978-.237.147-.712.175-.923-.223-.605-1.141-1.215-2.28-1.614-3.507-.116-.356.321-.691.601-.726.308-.038.576.139.748.488l1.47,2.989Z" fill="#b8ac91"/>
  <path d="M28.272,24.367l-3.085-1.342c-.333-.145-.444-.521-.404-.81.031-.218.333-.657.645-.525l3.035,1.284c.33.14.483.428.472.686-.011.262-.3.865-.664.706Z" fill="#b8ac91"/>
  <path d="M18.307,28.749c-.111.46-.454.682-.764.64-.381-.051-.737-.388-.626-.826l.756-2.987c.116-.457.477-.673.843-.542.378.135.58.445.471.9l-.679,2.815Z" fill="#b8ac91"/>
  <path d="M8.235,4.467c.507.265.359.806.762,1.261-2.779,3.358-2.886,8.135-.065,11.448,2.859,3.357,7.692,4.08,11.34,1.765,3.743-2.375,5.095-7.067,3.231-11.123-2.213-4.814-8.081-6.633-12.58-3.773-.075-.555.565-.721-.026-1.609,3.667-1.979,8.121-1.464,11.234,1.252,4.226,3.685,4.814,9.861,1.305,14.271-3.01,3.783-8.467,4.915-12.696,2.503-4.069-2.321-6.145-6.95-5.007-11.488.434-1.729,1.348-3.219,2.502-4.508Z" fill="#e3d5cf"/>
  <path d="M9.256,21.563l-.948,1.455-.04,1.201-3.132,4.397-1.177,1.558c-.306.404-.821.544-1.311.492-.394-.042-.734-.259-1.01-.672.044-.347.203-.675.48-.978l1.625-1.784,3.032-4.239.935-.027,1.165-1.547c.047-.063.235-.078.292-.067.05.01.106.073.089.211Z" fill="#e3d5cf"/>
  <path d="M9.256,21.563c.017-.138-.039-.201-.089-.211-.057-.011-.245.004-.292.067l-1.165,1.547-.935.027-3.032,4.239-1.625,1.784c-.276.303-.436.631-.48.978-.299-.448-.393-1.233-.012-1.754l4.274-5.856,1.12-.208,1.376-1.79,1.067.794c.157.117-.148.295-.206.384Z" fill="#fcf3ef"/>
  <path d="M10.898,2.437c.591.887-.05,1.054.026,1.609-.721.458-1.386,1.03-1.926,1.683-.403-.456-.255-.996-.762-1.261.765-.855,1.682-1.501,2.662-2.03Z" fill="#fcf3ef"/>
  <path d="M8.998,5.729c.54-.652,1.205-1.224,1.926-1.683,4.499-2.86,10.368-1.042,12.58,3.773,1.864,4.056.512,8.748-3.231,11.123-3.648,2.314-8.481,1.592-11.34-1.765-2.821-3.313-2.713-8.09.065-11.448ZM13.784,4.169c-1.847.472-3.353,1.583-4.377,3.16-1.886,2.904-1.606,6.576.622,9.132,2.242,2.572,6.019,3.322,9.101,1.675,2.405-1.285,3.826-3.783,3.903-6.393.081-2.733-1.329-5.249-3.651-6.707l-.046-.262c-.013-.074-.266.003-.363-.035-.966-.383-1.885-.731-2.881-.768-.081-.177-.182-.509-.463-.585-.457-.122-1.179-.039-1.508.273-.171.162-.22.447-.338.509Z" fill="#81614d"/>
  <path d="M16.093,3.971c.996.037,1.915.385,2.881.768.04.153.21.244.409.297,2.322,1.458,3.731,3.973,3.651,6.707-.077,2.61-1.498,5.108-3.903,6.393-3.082,1.647-6.859.897-9.101-1.675-2.228-2.556-2.508-6.228-.622-9.132,1.024-1.576,2.53-2.688,4.377-3.16.786-.201,1.571-.225,2.309-.198Z" fill="#fefefe"/>
  <path d="M16.093,3.971c-.738-.027-1.523-.003-2.309.198.118-.062.167-.347.338-.509.329-.312,1.05-.396,1.508-.273.281.075.382.407.463.585Z" fill="#8b6f54"/>
  <path d="M19.382,5.036c-.199-.053-.369-.144-.409-.297.097.039.35-.039.363.035l.046.262Z" fill="#8b6f54"/>
</svg>
