<?xml version='1.0' encoding='utf-8'?>
<svg xmlns="http://www.w3.org/2000/svg" viewBox="0 0 43.569 32">
  <path d="M41.695.425c.019.069.102.123.263.159.893.512,1.545,1.507,1.553,2.552l.015,1.943c-.321-.062-.695-.127-.908-.255-.608-.367.074-1.443-.734-1.729-.813-.288-.773.837-1.722.43.159-.426.717-.58,1.041-1.071.207-.314-.501-.818-.988-.818l-23.255-.012-5.805-.005-1.597-.006-6.181.004c-.399,0-1.007.347-1,.752l4.231,3.823,3.08,2.757c.124.111.226.253.34.402-.298-.055-.794-.168-1.149-.103-.346.064-.435.499-.561.747l-.869-.714c-.156-.128-.526-.288-.627-.461-.265-.581-.991-.869-1.392-1.266-.37-.365-.727-.689-1.105-1.034l-2.645-2.406-.047,2.842v1.758s-.015,3.352-.015,3.352c-.543.102-1.059-.062-1.62-.224l.017-1.602c.117.123.552.126.552-.114,0-.242-.434-.237-.564-.243l.004-6.318C.01,1.905,1.322.028,3.187.026l37.338-.026c.434.289.873.092,1.171.425Z" fill="#866450"/>
  <path d="M43.528,7.777l.04,18.202c-.229.719-.231,1.956-.01,2.731-.202,1.795-1.66,3.268-3.581,3.269.05-.092-.053-.164-.258-.164l-14.756.002c-.131-.27-.357-.457-.401-.819.314-.18.532-.42.519-.711l11.455-.029c.779.221,1.715.221,2.494-.002,1.45-.001,2.499-.016,2.804-1.605.132.013.215-.137.084-.19l.03-20.82c.18-.104.374-.466.611-.477.42-.02.675.404.967.614Z" fill="#7a5636"/>
  <path d="M1.62,12.065l.015.522-.003,6.007-.004,2.997v6.357c-.001.759.269,1.526.804,1.981-.498.419-.637.984-.58,1.55-.941-.479-1.81-1.607-1.813-2.864l-.04-16.775c.561.162,1.077.326,1.62.224Z" fill="#8b6f54"/>
  <path d="M43.527,5.078l.002,2.698c-.292-.21-.547-.634-.967-.614-.237.011-.431.373-.611.477l-.09-3.421-6.864,6.096c.012-.235.134-.788-.232-.928-.318-.121-1.137.016-1.397.238l6.796-6.101c.948.407.908-.718,1.722-.43.808.286.125,1.362.734,1.729.213.129.588.194.908.255Z" fill="#827969"/>
  <path d="M13.839,30.289c-.109.883-1.627.505-.86,1.429l-.15.282-9.242-.028c-.648-.002-1.155-.196-1.736-.492-.057-.566.082-1.132.58-1.55.374.318,1.087.365,1.661.365l9.745-.005Z" fill="#81614d"/>
  <path d="M25.082,30.287c.012.291-.205.531-.519.711.044.362.27.549.401.819h-10.445c-.14.001-.206.132-.2.183l-.597-.006c-.135-.21-.461-.223-.743-.276-.768-.924.751-.546.86-1.429l11.243-.002Z" fill="#835e44"/>
  <path d="M24.964,31.817l14.756-.002c.205,0,.309.072.258.164l-25.659.021c-.006-.051.06-.182.2-.182h10.445Z" fill="#8d875e"/>
  <path d="M43.559,28.71c-.221-.775-.219-2.012.01-2.731l-.01,2.731Z" fill="#8d875e"/>
  <path d="M.017,10.239l-.012-.356c.13.005.564,0,.564.243,0,.24-.435.236-.552.114Z" fill="#8b6f54"/>
  <path d="M13.722,31.994l-.892.006.15-.282c.282.053.607.066.743.276Z" fill="#8d875e"/>
  <path d="M41.958.584c-.161-.036-.244-.09-.263-.159.078.087.171.107.263.159Z" fill="#8d875e"/>
  <path d="M41.95,7.64l-.03,20.82c-.087.038-.091.139-.084.19-.305,1.589-1.354,1.604-2.804,1.605l-2.494.002-11.455.029-11.243.002-9.745.005c-.575,0-1.288-.047-1.661-.365-.535-.455-.805-1.222-.805-1.981v-6.357c.344-.056.542.152.84.404l1.133.957c.415.35-.184,2.982-.859,3.857-.393.508-.667,1.787-.182,2.308,1.303.525,2.965.101,4.01-.793.874-.748.084-2.04.562-2.908.18-.327.687-.638,1.225-.626,1.412.032,3.298-1.007,4.587-1.922.989-.702,2.401-1.164,2.974-2.346.45-.929-.431-1.906-.87-2.6-.513-.812-.88-1.27-1.634-1.808-.513-.366-.804-1.261-1.601-1.393-.763-.126-1.354.443-1.613,1.183-.6,1.712,1.458,3.013.643,3.788-.637.606-1.613.137-2.339.198-1.132.096-2.178.084-3.055-.739-.717-.673-1.847-1.18-2.866-.987-.32.061-.62.545-.949.43l.003-6.007c1.885.237,3.857-.599,4.893-2.356.133-.384-.132-1.117.296-1.414.101.173.471.333.627.461-.101,2.3-1.768,3.054-2.356,4.976.667-.113,1.297-.463,1.803-.124.041.175-.168.55-.302.56-.21.016-.462-.084-.841-.241-.233.793-.122,2.138.666,2.624.567.349,1.341.345,1.752,1.02.178.293.997.252,1.164-.111l-.611-1.742c-.078-.223-.108-.477.027-.652.085-.111.302-.164.537-.31.614-.381,1.226-1.195,2.053-1.223,1.07-.036,1.727,1.757,3.158,1.518l.66.516c-.089.974.523,1.985,1.134,2.833,1.102,1.528,2.594,2.582,4.193,3.562.637.391,1.451.542,2.131.161,2.37-1.328,5.189-3.739,5.615-6.24l5.696-5.157.198-.218c.039-.044.127-.096.149-.148.141-.042.238-.139.338-.228l.38-.34,6.864-6.096.09,3.421Z" fill="#fdf9f7"/>
  <path d="M11.156,1.618c-.046.52-.892,1.125-1.734,1.82-1.288,1.063-.718,3.919.234,4.081.308.052.533-.271.778-.373.605-.252,1.027-.419,1.299-1.058.926-2.175,2.858-.819,4.853-3.054.391-.438.704-.805.374-1.411l23.255.012c.487,0,1.195.504.988.818-.324.491-.882.646-1.041,1.071l-6.796,6.101-5.292,4.466c-.374-1.168-1.369-2.103-2.416-2.356-1.335-.323-2.53.014-3.453.99-.643.68-1.068-.829-2.893-1.071-.024-.166-.094-.274-.185-.288l-.539-.08c-.715-.106-1.62.083-2.245-.374-1.453-1.063-2.028-2.116-3.759-1.083-.68.406-1.595-.132-2.014-.694-.223-.299-.61-.248-.88-.187l-3.08-2.757c1.284-.654-.386-1.49,1.302-2.847.337-.271.455-.808,1.018-.923.385-.079.64-.482.629-.809l1.597.006Z" fill="#fdf9f7"/>
  <path d="M8.32,9.993l6.181,5.582c-1.431.239-2.088-1.554-3.158-1.518-.827.028-1.439.841-2.053,1.223-.235.146-.452.199-.537.31-.135.175-.105.429-.027.652l.611,1.742c-.167.364-.985.404-1.164.111-.411-.675-1.185-.671-1.752-1.02-.788-.486-.899-1.831-.666-2.624.379.157.631.257.841.241.134-.011.344-.385.302-.56-.507-.34-1.137.011-1.803.124.588-1.922,2.255-2.676,2.356-4.976l.869.714Z" fill="#fcf3ef"/>
  <path d="M16.961,1.623c.33.605.017.972-.374,1.411-1.996,2.236-3.927.879-4.853,3.054-.272.639-.695.806-1.299,1.058-.245.102-.47.425-.778.373-.952-.162-1.523-3.018-.234-4.081.842-.695,1.688-1.3,1.734-1.82l5.805.005Z" fill="#fefefe"/>
  <path d="M5.432,7.552c.402.397,1.128.685,1.392,1.266-.428.296-.163,1.029-.296,1.414-1.036,1.756-3.008,2.592-4.893,2.356l-.015-.522.015-3.352,2.44-.897c.451-.173.883-.28,1.357-.264Z" fill="#fefefe"/>
  <path d="M9.559,1.612c.01.327-.244.73-.629.809-.562.115-.681.652-1.018.923-1.688,1.358-.018,2.193-1.302,2.847L2.379,2.368c-.007-.404.601-.751,1-.752l6.181-.004Z" fill="#fcf3ef"/>
  <path d="M19.313,11.653c-1.755-.233-3.192.722-3.853,2.365l-5.429-4.668c-.114-.149-.216-.291-.34-.402.27-.061.657-.111.88.187.42.562,1.334,1.1,2.014.694,1.731-1.033,2.305.02,3.759,1.083.625.457,1.53.268,2.245.374l.539.08c.091.013.161.122.185.288Z" fill="#fcf3ef"/>
  <path d="M10.03,9.35l5.429,4.668c-.239.595-.232,1.355-.298,2.073l-.66-.516-6.181-5.582c.126-.248.215-.683.561-.747.355-.065.851.048,1.149.103Z" fill="#8b6f54"/>
  <path d="M4.327,6.519c.378.344.735.668,1.105,1.034-.474-.016-.906.091-1.357.264l-2.44.897v-1.758c.903.174,1.779-.129,2.692-.436Z" fill="#fdf9f7"/>
  <path d="M4.327,6.519c-.913.307-1.789.61-2.692.436l.047-2.842,2.645,2.406Z" fill="#f5dad6"/>
  <path d="M39.031,30.255c-.779.223-1.715.223-2.494.002l2.494-.002Z" fill="#b8ac91"/>
  <path d="M41.836,28.65c-.006-.052-.002-.152.084-.19.131.053.048.203-.084.19Z" fill="#8d875e"/>
  <path d="M1.629,21.591l.004-2.997c.329.115.629-.37.949-.43,1.019-.193,2.149.314,2.866.987.877.823,1.923.835,3.055.739.726-.061,1.702.408,2.339-.198.815-.775-1.242-2.076-.643-3.788.259-.74.85-1.309,1.613-1.183.796.132,1.088,1.027,1.601,1.393.754.538,1.121.996,1.634,1.808.439.695,1.32,1.672.87,2.6-.573,1.182-1.985,1.644-2.974,2.346-1.289.915-3.174,1.953-4.587,1.922-.538-.012-1.045.298-1.225.626-.477.868.312,2.161-.562,2.908-1.045.894-2.706,1.318-4.01.793-.486-.521-.211-1.8.182-2.308.676-.874,1.274-3.506.859-3.857l-1.133-.957c-.298-.252-.496-.459-.839-.404Z" fill="#fefefe"/>
  <path d="M34.996,10.314l-.38.34c-.168-.017-.287.077-.338.228-.022.053-.109.105-.149.148-.105.006-.196.076-.198.218l-5.696,5.157c.13-.763.038-1.698-.16-2.315l5.292-4.466c.26-.222,1.079-.359,1.397-.238.366.139.244.693.232.928Z" fill="#8b6f54"/>
  <path d="M28.075,14.09c.198.617.29,1.552.16,2.315-.426,2.501-3.245,4.912-5.615,6.24-.68.381-1.493.23-2.131-.161-1.599-.98-3.091-2.034-4.193-3.562-.611-.848-1.224-1.859-1.134-2.833.066-.718.059-1.478.298-2.073.661-1.643,2.098-2.598,3.853-2.365,1.824.242,2.249,1.751,2.893,1.071.923-.976,2.118-1.313,3.453-.99,1.047.254,2.042,1.188,2.416,2.356ZM26.59,16.17c.353-1.218-.341-2.462-1.422-2.762-2.038-.565-2.336,2.1-3.506,1.998-.692-.061-1.557-2.48-3.247-2.049-1.52.388-1.961,2.18-1.323,3.51.624,1.302,1.592,2.224,2.746,3.112.501.386,1.15,1.201,1.879,1.089.992-.154,1.712-1.022,2.464-1.611,1.057-.829,2.011-1.909,2.41-3.286Z" fill="#cc7e67"/>
  <path d="M34.615,10.654c-.1.089-.197.186-.338.228.051-.151.17-.245.338-.228Z" fill="#8d875e"/>
  <path d="M33.931,11.248c.001-.142.093-.212.198-.218l-.198.218Z" fill="#8d875e"/>
  <path d="M26.59,16.17c-.399,1.378-1.353,2.457-2.41,3.286-.751.59-1.471,1.458-2.464,1.611-.729.113-1.378-.703-1.879-1.089-1.154-.888-2.122-1.81-2.746-3.112-.638-1.33-.197-3.123,1.323-3.51,1.69-.431,2.555,1.988,3.247,2.049,1.171.103,1.469-2.563,3.506-1.998,1.081.3,1.775,1.544,1.422,2.762Z" fill="#e8a89e"/>
</svg>
