<?xml version='1.0' encoding='utf-8'?>
<svg xmlns="http://www.w3.org/2000/svg" viewBox="0 0 30.832 32">
  <path d="M29.448,23.784c-.359-.528-1.055-.365-2.019-.14-1.102.258-2.61.612-4.525.341-3.265-.46-6.229-2.322-7.928-4.981-1.756-2.749-2.247-6.133-1.348-9.284.907-3.179,3.13-5.817,6.097-7.236.462-.221.635-.727.568-1.112-.059-.344-.338-.771-.808-.892-5.548-1.426-11.423.386-15.335,4.729-5.591,6.207-5.527,15.49.149,21.591,3.199,3.44,7.516,5.201,11.876,5.201,3.526,0,7.08-1.152,10.093-3.5.042-.033,4.148-3.295,3.179-4.717ZM4.643,24.492C.19,18.606.881,10.631,6.284,5.53c2.624-2.477,5.956-3.81,9.389-3.81.564,0,1.131.036,1.698.109-2.65,1.76-4.615,4.473-5.463,7.583-.944,3.464-.467,7.054,1.343,10.109,2.747,4.637,8.206,7.022,13.594,6.062-.662.747-1.412,1.415-2.24,1.993-5.173,3.611-12.06,3.519-17.135-.231-1.023-.755-1.947-1.689-2.828-2.853Z" fill="#81614d"/>
  <path d="M4.915,31.51c-.29.652-1.157-.71-2.159.065-.156.12-.527.122-.663.008-.407-.34.475-1.203-.49-1.873-.208-.144-.32-.423-.265-.652.048-.202.331-.333.589-.333,1.155,0,.893-1.251,1.497-1.287.55-.033.523.662.994,1.224.345.021.787-.002,1.076.238.278.231.053.675-.192.855-.817.601-.172,1.271-.387,1.755ZM4.379,31.033c-.215-.823-.148-1.227.524-1.732-1.338-.045-1.214-1.094-1.468-.98-.248.111-.127.993-1.418.935.626.511.753.956.594,1.719.717-.513,1.179-.321,1.768.057Z" fill="#81614d"/>
  <path d="M7.221,27.682l-.688-.817c-.715-.741-1.363-1.469-1.886-2.295-2.325-3.675-2.862-8.141-1.664-12.306.115.186.257.267.485.31l.648.123c.002.053.011.112.037.162.036.072.127.107.221.082l.347,1.66c.084.399.358.636.452.953.425,1.444,1.086,2.705,1.586,4.718.184.741.454,1.374.6,1.973l.273,1.121c.264,1.083.86,1.797.644,2.66,2.371,1.875,5.246,2.882,8.221,2.943,3.045.063,6.167-.854,8.646-2.875-3.802.784-7.394-.196-10.25-2.461-3.789-3.006-5.543-7.806-4.678-12.58.501-2.763,1.88-5.302,4.022-7.247.955-.867,2.046-1.493,3.225-2.009.207-.091.389-.124.468-.309.163.027.312.005.552.157-6.23,3.435-8.539,11.47-4.87,17.662,2.896,4.889,8.743,7.121,14.312,5.604-.879,1.203-1.915,2.196-3.078,3.008-5.367,3.747-12.377,3.638-17.624-.237Z" fill="#afacb1"/>
  <path d="M17.93,1.488c-.079.186-.261.219-.468.309-1.179.516-2.27,1.141-3.225,2.009-2.141,1.945-3.521,4.484-4.022,7.247-.316.052-.348-.315-.488-.497-.561-.73-1.181-1.848-1.147-2.674l-.791-.811,1.913-1.879c-.366-.187-.577.02-.757.123-.015-.18-.077-.748-.358-.772-.432-.036-.765.359-1.056.611-2.201,1.91-3.762,4.377-4.548,7.109-1.199,4.165-.662,8.631,1.664,12.306l-.339.175C-.253,18.714.496,10.417,5.997,5.225c3.177-2.999,7.559-4.465,11.933-3.737Z" fill="#e3e1d6"/>
  <path d="M7.221,27.682c-1.147-.847-2.088-1.846-2.913-2.937l.339-.175c.522.826,1.17,1.553,1.886,2.295l.688.817Z" fill="#cac9cd"/>
  <path d="M4.379,31.033c-.589-.379-1.052-.57-1.768-.057.158-.764.032-1.208-.594-1.719,1.291.058,1.17-.823,1.418-.935.254-.114.13.935,1.468.98-.672.505-.739.909-.524,1.732Z" fill="#afacb1"/>
  <path d="M10.215,11.053c-.866,4.774.888,9.575,4.678,12.58-.261.246-.166.512-.045.808l.738,1.8c.207.505.372.888.513,1.429.112.429.518.814.398,1.299-2.975-.061-5.85-1.068-8.221-2.943.216-.863-.38-1.577-.644-2.66l-.273-1.121c-.146-.6-.416-1.232-.6-1.973-.5-2.013-1.161-3.273-1.586-4.718-.093-.317-.368-.554-.452-.953l-.347-1.66c.654-2.177,1.886-4.192,3.415-5.87l.791.811c-.034.826.587,1.944,1.147,2.674.14.182.172.549.488.497Z" fill="#cac9cd"/>
  <path d="M16.497,28.969c.12-.485-.286-.87-.398-1.299-.142-.541-.307-.924-.513-1.429l-.738-1.8c-.121-.296-.216-.562.045-.808,2.856,2.266,6.448,3.245,10.25,2.461-2.479,2.021-5.6,2.937-8.646,2.875Z" fill="#e3e1d6"/>
  <path d="M8.946,5.316c-2.677,1.531-4.443,4.326-4.829,7.381l-.648-.123c-.228-.043-.37-.124-.485-.31.786-2.732,2.348-5.199,4.548-7.109.29-.252.624-.647,1.056-.611.281.023.343.592.358.772Z" fill="#cac9cd"/>
  <path d="M7.79,7.072c-1.529,1.678-2.762,3.693-3.415,5.87-.094.025-.185-.01-.221-.082-.025-.051-.035-.109-.037-.162.386-3.056,2.152-5.85,4.829-7.381.18-.103.39-.31.757-.123l-1.913,1.879Z" fill="#f1eee5"/>
  <path d="M25.067,14.732l-2.461,1.312c-.172.092-.337.172-.539.172-.333.027-.598-.244-.544-.57l.179-1.08.358-1.792c.016-.078-.003-.165-.062-.226l-1.928-1.975c-.147-.151-.21-.35-.166-.548.037-.167.192-.356.405-.399.979-.199,1.943-.343,2.948-.47l1.37-2.724c.096-.19.27-.284.452-.283.182,0,.37.083.465.268l.859,1.682.507,1.045,2.906.468c.222.036.393.205.445.371.07.222.003.44-.158.603l-2.016,2.045.192,1.105.326,1.814c.041.227-.03.478-.231.595-.194.114-.448.091-.649-.015l-2.657-1.401ZM20.245,10.189c.039.081.056.147.123.215l1.849,1.88c.129.131.222.296.184.486l-.342,1.713-.208,1.194c-.013.077.029.158.074.181.058.03.166.062.245.02l2.62-1.376c.172-.091.342-.119.516-.025l1.224.665,1.43.725c.088.044.191.036.242-.004.079-.061.094-.164.075-.267l-.497-2.713c-.033-.179-.049-.366.084-.5l1.109-1.12.899-.913c.087-.088.141-.289.002-.354-.201-.094-.434-.113-.636-.147l-.95-.162-1.289-.194c-.205-.031-.349-.104-.448-.308l-.722-1.491-.513-1.003c-.039-.076-.075-.159-.167-.19-.091-.031-.209.014-.256.111l-1.244,2.525c-.108.218-.229.34-.479.369-.941.107-1.862.258-2.785.447-.126.026-.18.15-.138.237Z" fill="#81614d"/>
  <path d="M28.079,16.768c-.205,0-.415-.051-.609-.153l-2.402-1.266-2.206,1.176c-.213.113-.468.235-.793.236-.292.025-.608-.097-.828-.337-.215-.234-.308-.55-.255-.867l.179-1.079.332-1.663-1.817-1.861c-.274-.281-.39-.672-.309-1.044.087-.399.428-.735.829-.817.816-.166,1.659-.304,2.699-.439l1.241-2.465c.181-.361.522-.556.941-.583.407,0,.77.217.948.565l1.247,2.483,2.626.423c.405.065.757.364.878.744.128.405.02.835-.288,1.149l-1.82,1.846.47,2.641c.087.48-.106.936-.491,1.162-.17.1-.367.149-.57.149ZM25.083,13.875c.196,0,.36.058.482.124l2.064,1.091-.386-2.108c-.032-.173-.115-.631.232-.982l1.606-1.625-2.165-.344c-.408-.061-.689-.26-.858-.609l-.971-1.978-.952,1.933c-.127.258-.359.607-.905.669-.698.079-1.399.185-2.129.32l1.504,1.537c.281.285.398.632.329.975l-.428,2.209,2.029-1.066c.202-.107.386-.146.547-.146ZM21.608,12.929s0,0,0,0h0Z" fill="#81614d"/>
  <path d="M25.827,7.693c-.15.011-.242-.037-.337-.151-.042-.051-.11.038-.084.075.012.017.017.04.061.064l.713,1.607c.126.284.3.475.622.585-.617,1.028-1.291,1.946-2.11,2.734l-.8.771c-.398.383-.844.684-1.302.957-.038-.004-.072.005-.13-.015l.111-.593c.058-.309.094-.61.057-.915l-.229-.043c.038-.191-.055-.355-.184-.486l-1.849-1.88c-.067-.068-.084-.134-.123-.215l.945-.13,2.072-.324c.328-.051.471-.234.604-.513l1.077-2.258c.079-.166.189-.295.204-.463.092.031.128.114.167.19l.513,1.003ZM24.109,9.71c.034-.001.11-.02.13-.074l.751-1.95c-.227.034-.257.248-.329.399l-.402.835c-.147.305-.428.802-.15.791ZM23.572,10.162c.054-.045.034-.132-.006-.166-.025-.022-.081-.061-.14-.052l-1.171.178c-.317.048-.63.075-.933.265.566.089,2.047-.057,2.25-.226Z" fill="#fad9b6"/>
  <path d="M27.296,12.297c-.06.145-.077.317-.043.494l.448,2.326c-.147.045-.231-.057-.335-.112l-1.348-.714-.627-.343c-.215-.117-.458-.123-.674,0l-.725.414-1.488.8c-.103.056-.186.097-.315.029l-.159.372c-.036.084-.1.133-.18.114l.208-1.194c.133.019.127-.149.208-.155.09-.007.162.109.251.084.03-.008.046-.06.073-.076.457-.273.904-.574,1.302-.957l.8-.771c.13.029.254.106.392.08l.095-.12c.031-.039.124-.029.148.035.024.065.041.128.085.162.05.038.179.044.201-.028.027-.089-.027-.171-.07-.275l.403-.102c.231-.058.501.028.732-.063.137-.054.247-.136.405-.033.057.037.15.044.213.032Z" fill="#f7c49c"/>
  <path d="M25.827,7.693l.722,1.491c.099.204.243.277.448.308-.032.113-.113.182-.208.34l1.259.188c.148.022.236-.214.237-.334l.95.162c-.015.102.009.206.092.313l-.738.773-.568.554-.471.498c-.096.101-.205.194-.253.31-.063.012-.155.005-.213-.032-.159-.103-.268-.022-.405.033-.231.091-.502.005-.732.063l-.403.102c.043.104.097.186.07.275-.022.072-.151.066-.201.028-.044-.033-.06-.097-.085-.162-.024-.064-.116-.074-.148-.035l-.095.12c-.137.026-.261-.051-.392-.08.819-.788,1.493-1.706,2.11-2.734-.322-.11-.496-.302-.622-.585l-.713-1.607c-.044-.025-.049-.048-.061-.064-.026-.037.042-.126.084-.075.094.114.187.161.337.151Z" fill="#f8cea6"/>
  <path d="M28.971,11.263l-1.109,1.12c-.133.134-.117.321-.084.5l.497,2.713c.019.103.004.206-.075.267-.051.039-.154.048-.242.004l-1.43-.725-1.224-.665c-.173-.094-.343-.066-.516.025l-2.62,1.376c-.079.041-.187.01-.245-.02-.045-.023-.087-.104-.074-.181.079.02.144-.03.18-.114l.159-.372c.129.068.212.027.315-.029l1.488-.8.725-.414c.217-.124.46-.118.674,0l.627.343,1.348.714c.104.055.187.157.335.112l-.448-2.326c-.034-.177-.017-.349.043-.494.048-.116.157-.209.253-.31l.471-.498.568-.554c.185-.01.374.131.381.329Z" fill="#edaa83"/>
  <path d="M25.148,6.5c-.015.168-.125.297-.204.463l-1.077,2.258c-.133.279-.275.461-.604.513l-2.072.324-.945.13c-.042-.088.012-.212.138-.237.923-.189,1.844-.34,2.785-.447.249-.028.371-.15.479-.369l1.244-2.525c.047-.096.166-.141.256-.111Z" fill="#fbf3db"/>
  <path d="M28.971,11.263c-.008-.198-.196-.339-.381-.329l.738-.773c-.083-.106-.107-.211-.092-.313.202.034.434.053.636.147.139.065.085.266-.002.354l-.899.913Z" fill="#f7c49c"/>
  <path d="M22.591,14.337c-.028.017-.043.068-.073.076-.089.025-.161-.091-.251-.084-.081.006-.075.174-.208.155l.342-1.713.229.043c.037.305,0,.606-.057.915l-.111.593c.058.02.092.011.13.015Z" fill="#f8cea6"/>
  <path d="M28.286,9.687c0,.119-.09.356-.237.334l-1.259-.188c.095-.158.176-.227.208-.34l1.289.194Z" fill="#f7c49c"/>
  <path d="M23.572,10.162c-.204.169-1.684.315-2.25.226.303-.19.615-.217.933-.265l1.171-.178c.059-.009.114.03.14.052.04.034.06.121.006.166Z" fill="#fbf3db"/>
  <path d="M24.109,9.71c-.278.011.003-.486.15-.791l.402-.835c.073-.151.102-.365.329-.399l-.751,1.95c-.021.054-.096.073-.13.074Z" fill="#fbf3db"/>
</svg>
