<?xml version='1.0' encoding='utf-8'?>
<svg xmlns="http://www.w3.org/2000/svg" viewBox="0 0 32 32">
  <!-- Moonlit Grove Ⅱ テーマ用アイコン：モーブの三日月＋スパークル（手描き風） -->
  <path d="M20.8 3.2 A12.6 12.6 0 1 0 28.9 19.8 A10.2 10.2 0 0 1 20.8 3.2 Z" fill="#cdb2e0" stroke="#81614d" stroke-width="1.7" stroke-linejoin="round"/>
  <path d="M19.2 6.1 A10.4 10.4 0 0 0 26.4 20.6 A12.6 12.6 0 0 1 8.4 24.9 A12.6 12.6 0 0 1 19.2 6.1 Z" fill="#bb9bd4" opacity="0.55"/>
  <path d="M24.5 1.5 C25.1 4 26.5 5.4 29 6 C26.5 6.6 25.1 8 24.5 10.5 C23.9 8 22.5 6.6 20 6 C22.5 5.4 23.9 4 24.5 1.5 Z" fill="#f2c08f" stroke="#81614d" stroke-width="1.2" stroke-linejoin="round"/>
  <path d="M29 11.5 C29.35 13 30.2 13.85 31.7 14.2 C30.2 14.55 29.35 15.4 29 16.9 C28.65 15.4 27.8 14.55 26.3 14.2 C27.8 13.85 28.65 13 29 11.5 Z" fill="#fbf3db" stroke="#81614d" stroke-width="0.9" stroke-linejoin="round"/>
  <circle cx="13.2" cy="12.6" r="1.5" fill="#e8ddf2" opacity="0.9"/>
  <circle cx="10.4" cy="18.8" r="2.1" fill="#e8ddf2" opacity="0.7"/>
  <circle cx="15.6" cy="22.4" r="1.2" fill="#e8ddf2" opacity="0.8"/>
</svg>
