<?xml version='1.0' encoding='utf-8'?>
<svg xmlns="http://www.w3.org/2000/svg" viewBox="0 0 31.205 32">
  <path d="M30.922,20.729c-.467-.442-1.114-.132-2.01.295-1.025.489-2.43,1.158-4.363,1.303-3.294.252-6.604-.943-8.84-3.187-2.31-2.319-3.516-5.531-3.309-8.814.209-3.312,1.823-6.374,4.428-8.401.406-.315.468-.849.32-1.213-.132-.325-.496-.683-.983-.701C10.418-.209,5.047,2.834,2.14,7.931-2.013,15.214.037,24.302,6.91,29.07c2.844,1.973,6.084,2.93,9.298,2.93,4.704,0,9.35-2.05,12.607-5.966.034-.041,3.363-4.119,2.108-5.306ZM10.647,10.392c-.184,3.598,1.052,7.017,3.481,9.624,3.686,3.959,9.551,5.128,14.627,3.034-.489.874-1.082,1.69-1.77,2.434-4.299,4.649-11.072,6.032-16.851,3.442-1.163-.521-2.269-1.237-3.383-2.191C1.126,21.916.095,13.948,4.301,7.79c2.378-3.482,6.03-5.65,10.078-6.003-2.221,2.293-3.568,5.373-3.733,8.605Z" fill="#81614d"/>
  <path d="M9.963,29.31l-.85-.654c-.86-.574-1.651-1.149-2.34-1.846-3.067-3.105-4.549-7.369-4.266-11.71.153.158.309.207.542.2l.662-.018c.013.052.035.107.071.151.051.063.147.078.234.033l.696,1.553c.167.374.488.547.647.838.726,1.325,1.644,2.419,2.565,4.286.339.687.74,1.249,1.011,1.806l.507,1.041c.49,1.005,1.228,1.577,1.2,2.47,2.726,1.331,5.76,1.703,8.691,1.126,2.999-.591,5.864-2.158,7.862-4.67-3.56,1.582-7.291,1.391-10.577-.219-4.359-2.136-7.107-6.467-7.28-11.334-.1-2.817.709-5.601,2.392-7.967.75-1.055,1.686-1.902,2.732-2.66.184-.133.355-.204.393-.404.166-.008.307-.062.575.036-5.373,4.702-5.917,13.074-.994,18.361,3.887,4.174,10.098,5.11,15.233,2.431-.605,1.368-1.407,2.563-2.374,3.609-4.461,4.823-11.357,6.217-17.331,3.54Z" fill="#d5c37c"/>
  <path d="M14.855,1.333c-.037.199-.209.27-.393.404-1.046.758-1.982,1.605-2.732,2.66-1.683,2.366-2.492,5.15-2.392,7.967-.298.119-.409-.234-.585-.383-.706-.595-1.554-1.559-1.697-2.376l-.949-.625,1.473-2.252c-.399-.105-.561.143-.716.283-.053-.173-.236-.717-.516-.68-.431.057-.674.516-.904.825-1.749,2.344-2.752,5.098-2.938,7.944-.283,4.341,1.199,8.605,4.266,11.71l-.295.244C.714,22.117-.328,13.821,3.954,7.553,6.427,3.933,10.41,1.556,14.855,1.333Z" fill="#f8ed91"/>
  <path d="M9.963,29.31c-1.306-.585-2.443-1.363-3.485-2.256l.295-.244c.689.698,1.48,1.273,2.34,1.846l.85.654Z" fill="#eedc8b"/>
  <path d="M9.338,12.364c.173,4.866,2.921,9.198,7.28,11.334-.203.297-.053.538.129.802l1.109,1.607c.311.45.554.791.809,1.291.202.397.682.687.669,1.188-2.93.577-5.965.205-8.691-1.126.027-.893-.71-1.465-1.2-2.47l-.507-1.041c-.272-.557-.672-1.119-1.011-1.806-.921-1.867-1.839-2.961-2.565-4.286-.16-.291-.48-.464-.647-.838l-.696-1.553c.175-2.274.952-4.514,2.092-6.486l.949.625c.143.817.992,1.781,1.697,2.376.176.148.286.501.585.383Z" fill="#eedc8b"/>
  <path d="M19.333,28.586c.014-.501-.466-.792-.669-1.188-.255-.5-.499-.84-.809-1.291l-1.109-1.607c-.182-.264-.332-.505-.129-.802,3.286,1.61,7.017,1.801,10.577.219-1.998,2.512-4.862,4.079-7.862,4.67Z" fill="#f8ed91"/>
  <path d="M6.865,7.011c-2.297,2.074-3.43,5.193-3.154,8.271l-.662.018c-.233.006-.389-.043-.542-.2.186-2.847,1.189-5.6,2.938-7.944.231-.309.473-.768.904-.825.28-.037.463.507.516.68Z" fill="#eedc8b"/>
  <path d="M6.107,8.98c-1.14,1.973-1.917,4.212-2.092,6.486-.087.045-.183.03-.234-.033-.036-.044-.058-.1-.071-.151-.276-3.079.857-6.197,3.154-8.271.155-.14.316-.388.716-.283l-1.473,2.252Z" fill="#f7f293"/>
</svg>
