<?xml version='1.0' encoding='utf-8'?>
<svg xmlns="http://www.w3.org/2000/svg" viewBox="0 0 30.414 32">
  <path d="M29.175,28.71c-.964,1.431-2.573,2.094-4.166,2.466-1.333.28-2.614.185-3.943-.027-.98.373-1.933.618-2.969.732-2.788.282-5.488.051-8.195-.595l-4.145-.991c-1.484-.355-3.855-.092-4.941-1.909-.607-1.017-.381-2.108-.506-3.221-.228-2.025-.437-3.953-.214-6.022.37-3.424.909-6.716,1.63-10.096-.02-1.969.328-3.824,1.085-5.608C4.428-.36,9.641-.8,12.846,1.086c1.332.784,1.718,2.188,1.878,3.742.511.926.56,2.028.127,3.009-.567,1.09-1.28,1.648-2.483,1.934-.854,1.12-2.209,1.577-3.725,1.465l.536,3.469c.217,1.405.503,2.715.52,4.204,2.462-1.311,5.608-1.657,7.845.041,2.049-2.204,5.255-2.942,7.955-1.593,1.916.958,3.261,2.434,4.03,4.428.661,1.715.449,5.733-.354,6.925ZM7.394,1.793c-.487.117-.902.273-1.326.508-.707.392-1.273.954-1.638,1.749-.525,1.144-.928,2.316-.973,3.512l-.073,1.923-.857,4.546-.432,2.938c-.185,1.26-.345,2.524-.397,3.796-.042,1.04.055,2.058.221,3.085.137.846.148,1.721.138,2.652l.155.575c.171.632.651,1.073,1.372,1.189l3.649.588,3.36.804c1.305.312,2.599.513,3.958.612,1.141.083,2.621.232,3.64-.216,1.322.169,2.34-.908,3.694-.588,1.731.409,3.658-.027,5.191-1.015.798-.514.918-1.291,1.01-2.09.17-1.471.232-2.955-.245-4.447-.183-.573-.557-.938-.901-1.319l-1.191-1.32c-.275-.304-.643-.364-1.063-.531-2.7-1.078-5.515.289-5.846,1.749-.577.12-1.141.331-1.767.311-.849-.936-2.043-1.469-3.39-1.347-1.137.103-2.272.409-3.233,1.006l-1.059.99c-.324.303-.483.706-.536,1.105-.353.206-.767.421-1.199.208-1.066-.524.186-1.73.288-2.458.191-1.364-.017-2.683-.248-3.957l-.38-2.095c-.187-1.033-.36-2.017-.371-3.003-.005-.412-.092-.929.14-1.34.429-.761,2.034.042,3.138-.657.173-.11.391-.139.486-.346.122-.264.014-.397-.081-.598-.237-.498-.234-1.084.002-1.572.223.025.4-.118.426-.338.305.016.598-.33.937-.375.436-.058.655.617.531.977-.331.034-.525.896-.174.887.879-.023,1.297-1.247.897-1.837l.032-.06c-.392-1.202-.304-2.843-1.412-3.475-1.376-.784-3.031-1.069-4.476-.723Z" fill="#81614d"/>
  <path d="M24.519,13.211c-.05.568-.493.94-.941.971-.332.023-1.056-.284-1.016-.777l.328-4.087c.045-.566.477-1.028,1.055-1.007.498.018.954.56.902,1.157l-.327,3.743Z" fill="#f4c97e"/>
  <path d="M20.168,13.558c.288.51.154,1.045-.212,1.327-.398.307-1.041.349-1.406-.158-.749-1.038-1.329-2.202-1.818-3.409-.21-.519-.062-1.021.394-1.248.395-.197,1.046-.052,1.324.442l1.718,3.046Z" fill="#f4c97e"/>
  <path d="M28.193,12.535l-1.193,1.383c.158.464.515.769,1.02.988.637-.545,1.304-1.036,1.767-1.782.195-.314-.159-1.173-.509-1.257-.409-.098-.739.426-.953.634-.007-.681.767-1.409,1.56-1.037.474.222.711,1.103.367,1.542-1.035,1.322-2.629,3.12-3.597,2.458-.293-.2-.531-.82-.23-1.287.433-.67,1.154-1.181,1.769-1.642Z" fill="#f4c97e"/>
  <path d="M28.193,12.535c.036.001.095.001.131-.034.214-.208.544-.733.953-.634.35.084.704.943.509,1.257-.463.746-1.13,1.236-1.767,1.782-.505-.219-.862-.524-1.02-.988l1.193-1.383Z" fill="#f4c97e"/>
  <path d="M17.075,20.803c.276.305.582.494,1.047.429.032.272-.139.482-.478.561-.511.118-1.008.76-.581,1.205,1.33.446,3.071.049,3.643,1.322.13.289.032.805.261.988.498.397,1.818.123,2.039-.72.13-.498-.133-.982-.532-1.288l-.774-.594c-.294-.226-.357-1.216-.065-1.425.609-.216.755-.512.989-.993.251-.517,1.188-.119,1.62-.107.528.015,1.069-.077,1.496.299.344.303.797.31,1.203.116.343.381.717.746.901,1.319.477,1.493.416,2.976.245,4.447-.834-.414-1.509-.132-2.108.531-1.323,1.462-4.247,1.073-4.094,2.574-1.354-.32-2.372.757-3.694.588.2-.624,1.123-.452,1.56-1.118.161-.246-.028-1.844-.263-2.137-.541-.674-1.157-.317-1.569-.617.066-.284-.008-.775-.295-.934-.589-.326-.978.151-1.434.356-1.569.704-3.339.468-4.843-.119-.204-.339.303-.479.363-.675.293-.949-.473-1.78-1.464-1.933-.445-.069-.936-.582-1.389-.318.053-.399.212-.803.536-1.105l1.059-.99c.96-.597,2.095-.903,3.233-1.006,1.347-.122,2.541.411,3.39,1.347Z" fill="#fbe1cb"/>
  <path d="M7.698,16.35c.231,1.274.439,2.593.248,3.957-.102.728-1.354,1.934-.288,2.458.433.213.846-.002,1.199-.208.453-.265.944.249,1.389.318.992.153,1.757.984,1.464,1.933-.06.195-.566.336-.363.675-.621-.242-1.383-.564-1.585.079-.29.924,1.541,1.444,2.776,1.865-.476.011-1.623,1.388-1.944,2.23l-3.36-.804-3.649-.588c-.721-.116-1.201-.558-1.372-1.189.306.063.58-.011.876-.187.925-.55,1.99-.65,2.382.186.289.617.896.77,1.476.494.402-.191.681-1.01.302-1.404l-1.646-1.709c-.715.096-1.199-.349-1.798-.544l-1.885-.063c-.167-1.027-.263-2.045-.221-3.085l2.135.272c.297.038.836-.436.912-.707-.017-1.005-.34-1.987-.839-2.812l-.653-.248c-.416-.158-.745-.364-1.159-.301l.432-2.938c1.537.419,2.909,2.278,3.743,2.404.457.069.97-.174,1.428-.084Z" fill="#fadbc2"/>
  <path d="M7.394,1.793c.329.536.853.717,1.42,1.022.363.195.728.93.605,1.387-.135.5-.522.959-.816,1.365-.141.194-.513.239-.569.404-.085.254-.183.679.143.856.176.096.688.047.783.384.099.351-.076.998.283,1.311.303.264.71.431.982.732-1.105.7-2.71-.103-3.138.657-.232.411-.144.928-.14,1.34-.941.087-1.121-1.109-1.905-2.235-1.085-.482-1.144.404-1.657.468l.073-1.923c.928.304.769-1.845,1.599-3.056.474-.691,1.01-1.348,1.012-2.205.424-.235.839-.391,1.326-.508Z" fill="#fadbc2"/>
  <path d="M6.947,11.251c.011.986.184,1.971.371,3.003l.38,2.095c-.458-.09-.971.153-1.428.084-.834-.126-2.206-1.985-3.743-2.404l.857-4.546c.513-.065.573-.951,1.657-.468.784,1.126.964,2.322,1.905,2.235Z" fill="#fbe1cb"/>
  <path d="M25.751,19.273l1.191,1.32c-.406.194-.858.187-1.203-.116-.427-.376-.968-.284-1.496-.299-.432-.012-1.369-.41-1.62.107-.234.482-.379.777-.989.993-.291.209-.229,1.199.065,1.425l.774.594c.399.307.662.79.532,1.288-.22.843-1.54,1.117-2.039.72-.229-.182-.131-.699-.261-.988-.572-1.273-2.313-.875-3.643-1.322-.427-.446.07-1.087.581-1.205.339-.079.51-.289.478-.561.327-.046.614-.275.691-.614.551.135.69-.784,1.394-.978,1.291-.355,2.548-.59,3.904-.627l.592.431,1.047-.171ZM21.174,23.971c.294-.059.369-.289.412-.389.051-.12.049-.348-.148-.437-.313-.142-.531.094-.587.337-.047.206.069.54.323.49Z" fill="#fadbc2"/>
  <path d="M13.282,5.991l-1.086-.579c-.319-.171-.729-.013-.905.256-.127.194-.206.469-.233.731-.026.22-.203.363-.426.338-.327-.037-.702.07-.898.328-.223.293-.186.698.058.96.2.215.508.309.838.283.096.201.203.334.081.598-.095.207-.313.237-.486.346-.271-.301-.679-.469-.982-.732-.359-.312-.184-.96-.283-1.311-.095-.338-.606-.289-.783-.384-.325-.176-.228-.602-.143-.856.055-.165.428-.21.569-.404.294-.406.681-.864.816-1.365.123-.457-.242-1.192-.605-1.387-.568-.304-1.091-.486-1.42-1.022,1.445-.346,3.1-.061,4.476.723,1.108.632,1.02,2.274,1.412,3.475Z" fill="#fbe1cb"/>
  <path d="M18.192,30.052c-1.019.448-2.499.299-3.64.216l1.049-1.267c-.259-.56-.333-1.095-.349-1.638.973-.212,1.967-.456,2.669-1.184.412.3,1.028-.058,1.569.617.235.293.424,1.891.263,2.137-.437.667-1.361.494-1.56,1.118Z" fill="#fadbc2"/>
  <path d="M2.213,27.076l-.155-.575c.01-.931-.001-1.806-.138-2.652l1.885.063c.6.196,1.083.64,1.798.544l1.646,1.709c.379.394.101,1.213-.302,1.404-.58.275-1.187.122-1.476-.494-.392-.835-1.458-.736-2.382-.186-.296.176-.57.25-.876.187Z" fill="#fbe1cb"/>
  <path d="M15.251,27.364c.016.542.09,1.078.349,1.638l-1.049,1.267c-1.359-.099-2.653-.3-3.958-.612.321-.842,1.468-2.219,1.944-2.23l2.713-.063Z" fill="#fbe1cb"/>
  <path d="M28.087,26.359c-.092.799-.212,1.575-1.01,2.09-1.534.988-3.46,1.425-5.191,1.015-.154-1.501,2.771-1.112,4.094-2.574.599-.662,1.274-.945,2.108-.531Z" fill="#f6c7a5"/>
  <path d="M1.698,20.764c.051-1.272.211-2.536.397-3.796.414-.063.743.143,1.159.301l.653.248c.498.826.822,1.807.839,2.812-.076.271-.615.745-.912.707l-2.135-.272Z" fill="#fbe1cb"/>
  <path d="M25.751,19.273l-1.047.171-.592-.431c-1.356.036-2.614.271-3.904.627-.704.194-.843,1.113-1.394.978l.029-.126c.331-1.46,3.146-2.827,5.846-1.749.42.167.788.227,1.063.531Z" fill="#fbe1cb"/>
  <path d="M3.457,7.561c.045-1.196.448-2.368.973-3.512.365-.795.931-1.357,1.638-1.749-.002.857-.538,1.514-1.012,2.205-.83,1.211-.671,3.36-1.599,3.056Z" fill="#fbe1cb"/>
  <path d="M13.282,5.991l-.032.06c-.027.462-.237.9-.724.95.124-.36-.095-1.035-.531-.977-.339.045-.632.391-.937.375.027-.263.106-.537.233-.731.176-.269.586-.427.905-.256l1.086.579Z" fill="#a88869"/>
  <path d="M10.632,6.737c-.236.487-.239,1.074-.002,1.572-.33.025-.639-.069-.838-.283-.243-.261-.281-.667-.058-.96.196-.258.572-.365.898-.328Z" fill="#a88869"/>
  <path d="M12.526,7.001c.486-.051.697-.488.724-.95.399.59-.018,1.815-.897,1.837-.352.009-.157-.853.174-.887Z" fill="#fbe1cb"/>
  <path d="M18.842,20.491l-.029.126c-.077.339-.365.569-.691.614-.465.065-.77-.124-1.047-.429.625.02,1.19-.192,1.767-.311Z" fill="#a88869"/>
  <path d="M11.347,25.482c1.504.587,3.274.823,4.843.119.456-.205.845-.681,1.434-.356.288.159.361.65.295.934-.702.728-1.696.972-2.669,1.184l-2.713.063c-1.235-.421-3.066-.941-2.776-1.865.202-.644.964-.322,1.585-.079Z" fill="#f4c97e"/>
  <path d="M21.174,23.971c-.254.051-.37-.283-.323-.49.056-.244.273-.479.587-.337.197.089.199.317.148.437-.043.1-.118.331-.412.389Z" fill="#fbe1cb"/>
</svg>
