<?xml version='1.0' encoding='utf-8'?>
<svg xmlns="http://www.w3.org/2000/svg" viewBox="0 0 26.987 32">
  <path d="M19.882,2.949c.117.19.463.392.711.31.598-.197,1.008.244,1.391.284.863.088,1.72-.28,2.66-.064.288,1.548-.015,2.97-.017,4.418l-10.347,2.601c.154-.4.223-.979-.185-1.234l-2.358-1.474c.22-.039.727-.079.809-.384.173-.647-.39-1.365-1.085-1.314-.119.47.03.953.19,1.382-.665.056-1.297-.127-1.926-.275.021-.401-.168-1.307.311-1.566.983-.532,2.132-.765,3.12-1.011l6.728-1.673Z" fill="#e2a59d"/>
  <path d="M25.635,22.103c.012,1.52-.341,3.143-1.787,3.829-2.323,1.102-4.949.976-5.589-.433-.273-.6-.062-1.07.093-1.632.819.505,1.533.444,1.982-.3.385-.637.131-1.621-.596-2.135,1.287-1.596,5.594-1.258,5.832-.298.079.317.062.615.065.969Z" fill="#e2a59d"/>
  <path d="M11.65,7.474c.026.069.148.169.087.316l2.358,1.474c.407.255.338.834.185,1.234l-3.032,1.214c-.516.147-.835.388-1.543.911l.02-5.423c.629.148,1.261.331,1.926.275Z" fill="#d98f7d"/>
  <path d="M25.31,7.684l-.477.191c-.063-.018-.144.006-.206.021.003-1.448.305-2.87.017-4.418-.94-.215-1.797.153-2.66.064-.383-.039-.793-.48-1.391-.284-.248.082-.594-.12-.711-.31l3.275-.929,2.153-.468v6.132Z" fill="#f6c4b4"/>
  <path d="M19.738,21.432c1.444.54.981,1.497.596,2.135-.45.744-1.164.805-1.982.3.272-.988.462-2.071,1.387-2.435Z" fill="#e3d6d0"/>
  <path d="M25.194,7.981l-.361-.106.477-.191c-.142.027-.168.201-.116.297Z" fill="#e2a59d"/>
  <path d="M6.818,30.157c-1.169.525-2.531.694-3.653.361-1.478-.439-2.133-1.792-1.559-3.118.295.213.612.555.892.584.339.035,1.896-1.282,1.801-2.247,2.907.204,2.33,2.067,3.578,2.33.509-1.473-.096-2.725-.705-3.852.687.113,1.256.208,1.9.69.394,1.965-.325,4.386-2.254,5.251Z" fill="#e2a59d"/>
  <path d="M7.17,23.984c.61,1.127,1.295,2.511.707,4.083-1.248-.263-.671-2.126-3.578-2.33-.023-.229-.989-.631-1.173-.812l1.789-.684.298-.164c.744-.007,1.277-.205,1.956-.093Z" fill="#d98f7d"/>
  <path d="M4.092,25.086c.183.182.186.422.208.651.095.965-1.462,2.282-1.801,2.247-.28-.029-.597-.371-.892-.584.442-1.022,1.129-1.85,2.045-2.395l.441.081Z" fill="#fcece0"/>
  <path d="M26.987,20.134s-.112-9.157-.112-9.157l-.08-4.078c-.035-1.784-.07-3.568-.105-5.352-.008-.403.01-.868-.244-1.208-.453-.606-1.241-.247-1.821-.095l-15.07,3.944c-.571.119-.945.54-.945,1.023l.4,18.143c-.547-.298-1.806-.425-1.937-.43-.378-.016-.758-.004-1.134.035-.753.079-1.496.265-2.196.554-1.288.53-2.745,1.507-3.326,2.82-.625,1.414-.638,3.407.568,4.531.913.851,2.135,1.151,3.355,1.136,1.471-.018,2.858-.163,4.024-1.093.805-.643,1.34-1.435,1.739-2.385.423-1.008.503-2.255.497-3.329,0,0-.286-12.036-.286-12.036l6.362-1.656,8.721-2.444.06,10.596c-4.87-1.689-8.554,1.414-8.727,5.244.067,1.469,1.11,2.544,2.519,3.016,2.431.815,5.124-.276,6.755-2.139.644-.736.894-1.547.914-2.51l.068-3.129ZM6.818,30.157c-1.169.525-2.531.694-3.653.361-1.477-.439-2.133-1.791-1.559-3.117.239-.553.562-1.072.969-1.517.431-.471.989-.858,1.552-1.154s1.181-.479,1.812-.541c.528-.052,1.041.006,1.562.09.49.079.972.231,1.391.502.031.02.173.09.18.125.394,1.965-.325,4.386-2.254,5.251ZM24.627,7.897l-10.347,2.601-3.083.881c-.516.148-1.017.333-1.017.333l-.088-5.364c.021-.401.379-.721.858-.98.983-.532,1.217-.5,2.205-.746l6.728-1.673,5.428-1.396v6.132c-.142.027-.477.191-.477.191-.063-.018-.144.006-.206.021ZM25.5,22.115c.012,1.52-.207,3.13-1.653,3.817-2.323,1.102-4.949.976-5.589-.433-.273-.6-.062-1.07.093-1.632.272-.988.902-1.997,1.722-2.556,1.686-1.286,4.909-.859,5.306-.149.16.285.118.6.121.954Z" fill="#795645"/>
  <path d="M11.737,7.789c.062-.147-.061-.247-.087-.316-.16-.429-.309-.912-.19-1.382.696-.051,1.258.667,1.085,1.314-.082.305-.588.345-.809.384Z" fill="#f6c4b4"/>
</svg>
