<?xml version='1.0' encoding='utf-8'?>
<svg xmlns="http://www.w3.org/2000/svg" viewBox="0 0 34.622 32">
  <path d="M25.119,16.311l-.551-13.458c-.014-.331-.142-.653-.304-.779-.155-.12-.529-.168-.782-.153l-9.925.597-7.833.562c-.437.031-1.05.158-1.289.505-.444.644-.347,1.438-.391,2.113.606-.005,1.207.115,1.554.583.338.456.36,1.156.027,1.684-.298.472-.969.706-1.604.659l-.06,2.266c.41-.015.878-.007,1.304.219.661.351.794,1.123.566,1.797-.207.611-.901.881-1.636.858l-.118,2.562c.627-.052,1.22.059,1.591.472.403.448.488,1.128.218,1.687-.261.541-.877.779-1.56.748l-.107,2.552c.946.026,1.74.432,1.85,1.286.122.947-.555,1.658-1.602,1.654l-.043,3.678,16.675-.643c.195-1.09.497-2.15.93-3.16l3.261-7.597c-.177-.203-.161-.418-.172-.693Z" fill="#f6e1cb"/>
  <path d="M25.291,17.005c-.177-.203-.161-.418-.172-.693l-.551-13.458c-.014-.331-.142-.653-.304-.779-.155-.12-.529-.168-.782-.153l-9.925.597-7.833.562c-.437.031-1.05.158-1.289.505-.444.644-.347,1.438-.391,2.113l-1.006.008.006-2.222c.002-.8.582-1.433,1.45-1.471l19.137-.85c.914-.041,1.668.521,1.704,1.459l.498,13.031c.02.511-.37.95-.542,1.35Z" fill="#f0d0af"/>
  <path d="M23.455,27.081l-.835-.355c.057-.316.151-.667.315-1.045l3.768-8.712,2.553-5.657c.258-.572.689-1.077.538-1.743.044-.099.2-.228.202-.293l1.347.922-7.361,16.174c-.151.332-.189.596-.527.71Z" fill="#c4c0a5"/>
  <path d="M23.455,27.081c.339-.113.377-.378.527-.71l7.361-16.174-1.347-.922c.01-.289.111-.556.272-.623.388-.161,2.034.328,2.269,1.156l-6.151,13.772-1.95,3.946c-.396-.026-.652-.307-.982-.447Z" fill="#b1a68d"/>
  <path d="M4.468,24.727l-.043,3.678,16.675-.643c-.035.194.053.704-.16.832l-16.221.673c-.598.025-1.147-.403-1.17-.968l-.148-3.576c.363-.136.737.004,1.067.005Z" fill="#f0d0af"/>
  <path d="M27.408,12.246c.011.58-.412,1.137-.761,1.657l-.414-11.269c.589-.074,1.007.408,1.017.991l.157,8.621Z" fill="#f0d0af"/>
  <path d="M20.867,30.033l-10.414.369c-1.908-.065-3.741.368-5.66-.142l15.773-.806c.231-.012.475.14.301.579Z" fill="#e5aca8"/>
  <path d="M23.562,30.016c.576-1.214,3.05-.08,3.134-2.347l.095-2.539c.028-.758.557-1.378.873-2.007l-.009,5.498c-.001.701-.474,1.242-1.177,1.272l-2.917.123Z" fill="#f0d0af"/>
  <path d="M22.619,26.726c-.148-.063-.336-.228-.237-.452l7.411-16.706c.151.666-.28,1.172-.538,1.743l-2.553,5.657-3.768,8.712c-.164.378-.258.729-.315,1.045Z" fill="#ded9cd"/>
  <path d="M2.512,23.772c-.157.146-.186.394-.195.666-.5.095-.91-.164-1.04-.624-.114-.404.219-.948.759-.976l2.539-.13c.275-.014.441.177.56.323.122.15.17.602-.106.681-.781.222-1.552.131-2.517.059Z" fill="#e5aca8"/>
  <path d="M2.313,12.841c-.164.227-.127.549-.137.816-.561,0-.947-.328-1.016-.7-.083-.448.212-.989.704-1.012l2.68-.126c.315-.015.53.282.536.509.006.258-.213.499-.529.5l-2.238.014Z" fill="#e5aca8"/>
  <path d="M2.368,7.67c-.222.011-.331.421-.242.649-.466.107-.895-.16-1.03-.596-.106-.344.164-.937.64-.959l2.798-.132c.255-.012.363.232.425.354.067.132.053.552-.173.563l-2.419.122Z" fill="#e5aca8"/>
  <path d="M5.108,17.565c.568.774-1.002.831-2.768.758l-.055.697c-.477.081-.926-.177-1.049-.559-.147-.458.169-1.058.7-1.083l2.665-.126c.281-.013.421.195.508.314Z" fill="#e5aca8"/>
  <polygon points="23.797 28.194 21.745 30.492 22.106 27.301 23.797 28.194" fill="#f0d0af"/>
  <path d="M4.327,19.235l-.107,2.552-.85-.023-.051-2.529c.35-.076.662-.016,1.008,0Z" fill="#f0d0af"/>
  <path d="M4.196,13.765l-.118,2.562c-.263.022-.493.041-.782-.031l-.102-2.563,1.001.031Z" fill="#f0d0af"/>
  <path d="M32.471,8.381l-1.18-.435c.288-.849.926-1.694,1.372-1.545.463.155.194,1.056-.192,1.979Z" fill="#f0d0af"/>
  <polygon points="4.022 8.626 3.962 10.892 3.155 10.922 3.122 8.56 4.022 8.626" fill="#f0d0af"/>
  <path d="M25.092,28.426c.004-.578.329-.965.719-1.442.121.537.135,1.274-.719,1.442Z" fill="#b1a68d"/>
  <path d="M33.53,8.924l.518-1.676c.191-.618-.033-1.283-.569-1.693-.505-.386-1.189-.398-1.83-.036-.438.248-.685.661-.925,1.06-.174.289-.338.563-.558.738-.13.104-.261.189-.386.271-.398.262-.811.532-.948,1.226-.06.301-.221.626-.403.95l-.202-6.842s-.393-1.561-1.965-1.309C25.897.543,24.913-.05,23.612.003L4.335.884c-1.448.066-2.497,1.211-2.493,2.722l.006,1.994C.722,5.734-.028,6.54,0,7.612c.028,1.016.845,1.799,1.966,1.91.067.428.072.822.013,1.266-.541.04-1.023.251-1.37.604-.365.372-.562.881-.555,1.432.007.534.212,1.021.578,1.372.354.341.841.536,1.386.558.07.506.082.962.035,1.441-.555.034-1.052.255-1.413.635-.382.402-.573.93-.538,1.49.067,1.06.899,1.841,2.01,1.917l.031,1.453c-.594.04-1.112.266-1.476.648-.353.37-.532.867-.504,1.399.031.577.296,1.11.729,1.463.386.314.877.473,1.394.439l.078,2.806c.02.729.398,1.136.764,1.529.102.109.205.221.303.342.091.112.171.228.25.339.315.449.64.912,1.463.96l1.387.079,14.14-.578c.119.421.256.659.437.761.134.075.299.122.461.122.179,0,.356-.056.487-.189l.751-.763,3.904-.102c1.107-.029,1.918-.81,1.929-1.857l.085-7.56c.005-.446.195-.801.378-1.144.079-.149.157-.294.219-.442l.813-1.933.241-.552c-.044.156-.071.317-.066.488l.009.053c.078.255.233.351.373.421.174.09.465.098.676.023.144-.052.247-.141.298-.259l2.748-6.305c.476-1.091.119-2.259-.884-2.955ZM31.166,15.644l1.957-4.491c-.015.174-.088.354-.183.565l-1.774,3.926ZM23.476,28.252l-1.46,1.635.257-2.27,1.203.636ZM20.716,29.838l-10.258.363c-.141-.005-.281-.007-.422-.007h-.002l10.541-.538c.064-.013.112.013.132.041.016.022.024.069.009.141ZM20.889,27.992c0,.093,0,.321-.036.404l-16.142.67c-.503.024-.943-.335-.961-.776l-.141-3.415c.158-.025.324-.003.497.02.128.017.253.036.371.032.585,0,1.09-.207,1.422-.582.303-.343.435-.805.372-1.299-.114-.883-.879-1.43-2.044-1.461l-.658-.018-.044-2.161c.176-.017.35-.004.531.011.086.007.174.014.263.018.816.031,1.472-.285,1.751-.861.306-.635.206-1.402-.249-1.909-.374-.417-.979-.606-1.759-.538-.205.017-.376.031-.569.002l-.087-2.189.785.025c.902.012,1.615-.352,1.833-.994.241-.712.13-1.619-.662-2.039-.455-.241-.945-.258-1.406-.243l-.601.022-.028-1.936.681.05c.754.062,1.47-.246,1.789-.751.374-.593.36-1.379-.035-1.913-.337-.453-.905-.661-1.718-.664l-.802.006.006-2.018c.002-.716.519-1.239,1.257-1.271l19.136-.85c.424-.028.822.108,1.097.362.246.226.383.539.397.904l.498,13.032c.011.299-.155.587-.317.867-.079.136-.154.268-.209.396l-3.261,7.598c-.421.982-.738,2.059-.943,3.203-.011.064-.013.16-.013.266ZM4.626,17.452c.139,0,.217.09.309.218l.011.016c.063.086.091.159.073.192-.07.13-.507.336-2.672.245l-.193-.008-.057.72c-.309-.004-.588-.178-.671-.435-.057-.179-.018-.405.1-.575.061-.087.195-.235.418-.245l2.665-.127c.006,0,.011,0,.016,0ZM5.108,17.566h0s0,0,0,0ZM4.567,12.019c.089,0,.155.044.196.083.078.072.115.168.116.23.002.071-.026.139-.08.194-.062.064-.15.1-.249.101l-2.34.014-.06.083c-.156.218-.17.478-.172.715-.356-.064-.577-.292-.619-.519-.035-.191.022-.417.147-.573.069-.087.189-.193.369-.201l2.68-.126s.009,0,.013,0ZM4.551,6.832c.09,0,.145.076.228.242.026.06.016.241-.003.273l-2.419.122c-.134.007-.255.083-.34.215-.083.128-.126.296-.125.457-.277-.011-.517-.192-.605-.476-.04-.131.007-.336.114-.487.053-.075.169-.204.343-.212l2.798-.132h.007ZM1.574,23.303c.113-.158.285-.254.472-.263l2.539-.13c.006,0,.012,0,.018,0,.159,0,.265.113.376.25.034.042.073.195.039.304-.015.048-.035.053-.045.057-.667.189-1.324.138-2.158.074l-.376-.029-.064.06c-.176.163-.23.398-.25.632h-.009c-.312,0-.557-.184-.646-.497-.039-.138,0-.312.103-.456ZM24.321,27.307c-.149-.039-.281-.12-.429-.213-.116-.072-.233-.145-.359-.198l-.835-.354c-.064-.027-.12-.075-.137-.118-.006-.015-.01-.035.005-.068l7.412-16.706c.009-.02.051-.07.077-.1.072-.084.139-.163.142-.268.009-.27.102-.425.147-.444.114-.046.636.008,1.19.276.404.195.685.442.786.685l-6.115,13.693-1.885,3.814ZM24.979,29.507c.83-.15,1.863-.336,1.919-1.83l.095-2.54c.017-.447.235-.858.47-1.255l-.007,4.739c-.001.606-.406,1.046-.985,1.07l-2.454.104c.242-.159.585-.22.963-.288ZM25.33,28.135c.058-.229.18-.434.341-.65-.002.182-.041.333-.116.449-.055.083-.129.15-.225.201ZM31.55,7.827c.304-.759.817-1.319,1.049-1.235.037.012.059.033.076.071.066.146.061.519-.317,1.462l-.808-.298ZM26.772,2.984c.172.149.273.384.277.645l.157,8.62c.006.339-.166.684-.381,1.024l-.384-10.44c.123.017.235.067.33.15Z" fill="#825e4e"/>
</svg>
