<?xml version='1.0' encoding='utf-8'?>
<svg xmlns="http://www.w3.org/2000/svg" viewBox="0 0 28.892 32">
  <path d="M12.042.006c-1.143.341-2.79-.154-3.851.873-.047.045-.249.098-.281.155-.04.073.036.228.094.357l-3.471.018c-1.693.009-2.767,1.122-2.782,2.752l-.151,17.073.008,7.014c.001,1.16.929,1.963,2.109,1.981l7.781.118,8.572.047c2.263.012,4.915.411,5.191-1.496l.101-1.94.016-6.551-6.716-.216c-1.594-.051-2.793-1.192-3.196-2.671-.382-1.418-.227-2.864.538-4.014.137.343.008.605-.114.948-.539,1.522-.279,3.527.462,3.109.144-.081.31-.214.454-.443.128.381.432.783.71,1.065-.21.044-.728.211-.815.494.257.709,1.074,1.099,1.834,1.126l3.511.125,3.254.126c.199.008.397.122.5-.068.197-.363-.229-.496-.41-.922l1.873-.112.102-1.647c.083-1.345.11-2.63-.062-3.966l-2.071-.047c-.04-.102-.013-.317.144-.357l1.103-.284c-.151-.563-.574-.39-.943-.381l-3.961.089-.719-.588,4.634.088.077-6.958c.135-.686.663-1.366,1.434-1.286l.091,2.694-.09,5.634c1.098-.113,1.728.528,1.81,1.467.151,1.731.057,3.374-.048,5.108-.034.56-.014,1.103-.448,1.443-.36.282-.83.391-1.402.402l-.08,3.114v5.141c.001,1.043-.435,2.107-1.307,2.693-.882.592-1.96.71-3.016.688l-4.709-.097-9.279-.077-3.695.004c-1.095.001-2.287.02-3.224-.627C.455,30.405-.012,29.042,0,27.618L.178,6.425l.058-3.079C.44,1.612,1.674.008,3.562.004h8.48Z" fill="#9c784b"/>
  <path d="M17.945.09c-.025.15.062.195.2.194.134,0,.222-.04.199-.206L21.43.005c.388.199.962.199,1.346-.005l.807.106c.091.881-.73.914-.804,1.475-.087-.014-.195.02-.287.013.024-.055.034-.144.005-.182-.031-.041-.15-.078-.248-.078h-2.712c-.148-.001-.256.046-.263.227-.53-.077-1.19-.077-1.719,0-.015-.174-.117-.229-.267-.228l-2.979.004c-.145,0-.239.054-.261.144l-6.043-.091c-.058-.129-.135-.283-.094-.357.031-.057.234-.11.281-.155C9.252-.148,10.899.347,12.042.006l5.903.085Z" fill="#9c784b"/>
  <path d="M26.149,1.337c.68.541.826,1.463.853,2.278-.77-.08-1.299.6-1.434,1.286.01-.921-.155-1.951-.613-2.731-.046-.079-.218-.234-.115-.368.312-.408.835-.517,1.308-.466Z" fill="#8d6d44"/>
  <path d="M26.149,1.337c-.473-.052-.996.058-1.308.466-.102.134.069.289.115.368-.65-.43-1.433-.472-2.176-.59.074-.561.894-.594.804-1.475.739.097,1.462.281,2.143.71l.423.521Z" fill="#9c784b"/>
  <path d="M22.776,0c-.385.204-.959.204-1.346.005l1.346-.005Z" fill="#9c784b"/>
  <path d="M18.343.079c.023.167-.065.205-.199.206-.138,0-.224-.044-.2-.194.126-.147.284-.009.398-.012Z" fill="#9c784b"/>
  <path d="M14.048,1.481l1.861.032c.616.011,1.096.127,1.646.048.529-.077,1.189-.076,1.719,0,.54.078,1.015.047,1.631-.081l1.586.114c.092.007.2-.027.287-.013.743.117,1.526.16,2.176.59.458.779.623,1.809.613,2.731l-.077,6.958-4.634-.088c-1.054-.02-2.115-.124-3.135.338-.746.338-1.3.769-1.717,1.397-.765,1.15-.92,2.596-.538,4.014.403,1.478,1.602,2.619,3.196,2.671l6.716.216-.016,6.551-.101,1.94c-.276,1.907-2.928,1.508-5.191,1.496l-8.572-.047-7.781-.118c-1.181-.018-2.108-.821-2.109-1.981l-.008-7.014.151-17.073c.014-1.629,1.089-2.743,2.782-2.752l3.471-.018,6.043.091ZM24.181,5.971l-.004-2.553c0-.366-.236-.632-.529-.642s-.586.239-.57.608l.119,2.643c.015.331.245.541.463.563.319.031.522-.199.521-.619ZM3.728,11.378c.254-.481.267-.966.201-1.435-.092-.656-.022-1.247-.003-1.897l.105-3.575c.011-.379.306-.771.098-1.149-.1-.182-.749-.18-.762.049l-.248,4.414-.015,2.293c-.003.461-.016.915.192,1.333-.196,1.261-.378,3.187.107,3.311.753.193.615-1.843.326-3.345ZM24.15,10.602l.016-2.326c.002-.31-.254-.619-.493-.595-.228.023-.467.242-.472.522l-.044,2.399c-.007.387.182.555.494.559.302.004.496-.177.499-.559ZM3.85,20.096c-.347-.094-.559-.209-.547-.501.373.014.608-.195.6-.54l-.088-3.565c-.005-.184-.314-.348-.426-.307-.114.042-.286.241-.289.438l-.056,4.503.102,5.366c.004.221.356.344.487.274.117-.063.209-.209.231-.412l-.014-5.255ZM24.026,24.116l.003-3.101c0-.265-.321-.476-.49-.453-.236.032-.479.21-.481.501l-.021,3.078c-.002.299.247.532.479.535.215.003.51-.224.511-.56ZM23.991,26.158c-.049-.344-.291-.532-.577-.484-.214.036-.419.214-.431.511l-.083,1.989c-.016.373.17.614.489.645.772.074.785-1.376.603-2.661ZM5.276,28.918c.214-.032.252-.386.201-.544s-.212-.296-.471-.298l-2.073-.017c-.195-.002-.298.169-.37.242-.507.517,1.208.843,2.713.617ZM9.461,28.956c.304-.058.449-.317.384-.551-.052-.186-.233-.376-.496-.372l-2.385.038c-.254.004-.431.252-.429.433.006.676,1.616.703,2.928.452ZM13.726,28.987c.369.005.501-.36.43-.589-.047-.152-.292-.338-.536-.339l-2.115-.008c-.298-.001-.533.229-.535.452-.002.178.158.449.416.452l2.34.032ZM17.735,29.07c.364.004.498-.317.464-.554-.032-.221-.251-.434-.561-.418l-2.079.106c-.198.01-.254.399-.173.545.07.126.219.296.469.299l1.881.021ZM22.648,28.616c.061-.1,0-.425-.174-.427l-2.783-.027c-.285-.003-.453.204-.513.367-.044.12-.021.502.162.525,1.209.151,2.922.193,3.309-.439Z" fill="#c1d1bf"/>
  <path d="M25.233,13.293l2.071.047c.172,1.336.145,2.621.062,3.966l-.102,1.647-1.873.112-1.055-.021-2.333-.088-2.589-.087c-.712-.024-1.401-.18-1.897-.685-.278-.282-.582-.684-.71-1.065-.121-.36-.111-.785-.127-1.144-.073-1.641,1.125-2.846,2.743-2.811l5.81.128ZM21.556,17.629c1.012-.971.98-2.516.098-3.485-.333-.366-.812-.461-1.287-.51-1.197-.125-2.22.593-2.526,1.641-.323,1.105.111,2.317,1.231,2.76.816.323,1.814.237,2.484-.406Z" fill="#d9e3d1"/>
  <path d="M20.857,11.771l.719.588,3.961-.089c.369-.008.792-.181.943.381l-1.103.284c-.157.04-.183.255-.144.357l-5.81-.128c-1.618-.036-2.816,1.17-2.743,2.811.016.359.006.783.127,1.144-.144.229-.31.362-.454.443-.74.418-1-1.587-.462-3.109.121-.343.251-.604.114-.948.418-.628.971-1.059,1.717-1.397,1.02-.462,2.081-.358,3.135-.338Z" fill="#8d6d44"/>
  <path d="M17.517,18.184c.496.505,1.185.661,1.897.685l2.589.087c.074.231.22.382.495.379l1.632-.015c.11,0,.218-.033.25-.077.03-.041.025-.15-.044-.2l1.055.021c.181.426.607.559.41.922-.103.19-.302.076-.5.068l-3.254-.126-3.511-.125c-.76-.027-1.577-.417-1.834-1.126.087-.282.605-.45.815-.494Z" fill="#8d6d44"/>
  <path d="M22.493,1.594l-1.586-.114c-.617.129-1.091.16-1.631.081.007-.181.114-.228.263-.228h2.712c.098.001.217.038.248.079.029.038.019.126-.005.182Z" fill="#8d6d44"/>
  <path d="M17.556,1.561c-.55.079-1.03-.037-1.646-.048l-1.861-.032c.022-.091.117-.144.261-.144l2.979-.004c.15,0,.252.055.267.228Z" fill="#8d6d44"/>
  <path d="M3.728,11.378c.289,1.502.427,3.538-.326,3.345-.484-.124-.303-2.051-.107-3.311-.207-.417-.195-.871-.192-1.333l.015-2.293.248-4.414c.013-.229.662-.23.762-.049.208.378-.087.77-.098,1.149l-.105,3.575c-.019.65-.089,1.24.003,1.897.066.469.053.954-.201,1.435Z" fill="#dfebf3"/>
  <path d="M3.85,20.096l.014,5.255c-.022.203-.114.349-.231.412-.131.071-.483-.053-.487-.274l-.102-5.366.056-4.503c.002-.196.175-.396.289-.438.112-.041.422.123.426.307l.088,3.565c.009.345-.227.554-.6.54-.012.292.2.407.547.501Z" fill="#dfebf3"/>
  <path d="M24.026,24.116c0,.336-.296.563-.511.56-.232-.003-.481-.236-.479-.535l.021-3.078c.002-.291.245-.469.481-.501.169-.023.49.187.49.453l-.003,3.101Z" fill="#a88869"/>
  <path d="M24.181,5.971c0,.421-.202.65-.521.619-.217-.021-.448-.232-.463-.563l-.119-2.643c-.017-.37.278-.619.57-.608s.528.276.529.642l.004,2.553Z" fill="#a88869"/>
  <path d="M23.991,26.158c.181,1.285.169,2.735-.603,2.661-.319-.031-.505-.272-.489-.645l.083-1.989c.012-.297.217-.475.431-.511.287-.048.529.14.577.484Z" fill="#a88869"/>
  <path d="M9.461,28.956c-1.311.25-2.921.224-2.928-.452-.002-.181.176-.429.429-.433l2.385-.038c.263-.004.444.186.496.372.065.234-.08.493-.384.551Z" fill="#a88869"/>
  <path d="M24.15,10.602c-.003.382-.197.563-.499.559-.311-.004-.501-.172-.494-.559l.044-2.399c.005-.281.245-.499.472-.522.239-.024.495.284.493.595l-.016,2.326Z" fill="#a88869"/>
  <path d="M22.648,28.616c-.387.631-2.099.59-3.309.439-.182-.023-.206-.405-.162-.525.06-.163.229-.37.513-.367l2.783.027c.174.002.235.327.174.427Z" fill="#a88869"/>
  <path d="M13.726,28.987l-2.34-.032c-.258-.004-.417-.274-.416-.452.002-.223.237-.453.535-.452l2.115.008c.243,0,.489.187.536.339.07.229-.061.594-.43.589Z" fill="#a88869"/>
  <path d="M17.735,29.07l-1.881-.021c-.25-.003-.399-.173-.469-.299-.08-.146-.024-.535.173-.545l2.079-.106c.31-.016.53.197.561.418.034.237-.1.558-.464.554Z" fill="#a88869"/>
  <path d="M5.276,28.918c-1.505.226-3.22-.1-2.713-.617.072-.073.175-.244.37-.242l2.073.017c.26.002.42.141.471.298s.013.512-.201.544Z" fill="#a88869"/>
  <path d="M21.556,17.629c-.67.643-1.668.728-2.484.406-1.121-.444-1.555-1.655-1.231-2.76.306-1.048,1.329-1.765,2.526-1.641.475.049.955.145,1.287.51.882.969.914,2.515-.098,3.485ZM20.958,15.437c-.285-.457-.843-.464-1.23-.321-.38.14-.743.46-.715,1.008.034.666.838.971,1.412.78.526-.175.898-.883.534-1.466Z" fill="#8d6d44"/>
  <path d="M24.336,19.044c.069.05.074.159.044.2-.032.043-.14.076-.25.077l-1.632.015c-.274.002-.421-.148-.495-.379l2.333.088Z" fill="#7a5d3e"/>
  <path d="M20.958,15.437c.364.584-.008,1.291-.534,1.466-.573.191-1.378-.114-1.412-.78-.028-.548.336-.868.715-1.008.387-.143.945-.136,1.23.321Z" fill="#ebebeb"/>
</svg>
