<?xml version='1.0' encoding='utf-8'?>
<svg xmlns="http://www.w3.org/2000/svg" viewBox="0 0 55.549 32">
  <path d="M26.202,26.363c-4.404,6.065-12.962,6.672-19.134,3.375C-1.402,25.214-2.349,10.409,4.712,4.068c5.912-5.309,15.278-4.994,20.753.606,4.812,4.922,5.34,15.35.737,21.689ZM22.6,26.698c5.928-5.237,6.087-14.478,1.198-20.186-3.479-4.062-8.986-4.963-13.919-2.962-4.134,1.677-7.298,6.122-7.523,11.048-.194,4.26.648,8.483,3.906,11.598,4.146,3.963,11.681,4.616,16.337.502Z" fill="#b68776"/>
  <path d="M52.492,25.839c.789.878.723,1.983.005,2.804-.561.642-2.097,1.121-2.992.158l-9.952-10.71-2.029,2.368.008,6.478c.002,1.423-.747,2.328-1.988,2.543-1.105.191-2.576-.664-2.576-2.156l-.012-23.324c0-1.155,1.514-1.512,2.205-1.501.906.015,2.123.379,2.184,1.574l.471,9.207,6.337-5.915,4.269-3.944c.795-.735,1.866-.925,2.588-.507.883.511,1.511,2.069.653,2.897l-9.203,8.877,10.031,11.151Z" fill="#efcdbc"/>
  <path d="M22.6,26.698c-4.656,4.114-12.191,3.461-16.337-.502-3.258-3.115-4.101-7.338-3.906-11.598.225-4.926,3.389-9.371,7.523-11.048,4.933-2.001,10.44-1.1,13.919,2.962,4.889,5.709,4.729,14.949-1.198,20.186ZM20.65,22.305c2.366-3.657,2.169-8.2.426-11.843-1.213-2.535-3.525-3.589-6.256-3.684-3.083-.107-5.612,1.363-6.867,4.329-2.105,4.977-.608,12.874,4.872,13.986,2.923.593,6.112-.141,7.825-2.789Z" fill="#efcdbc"/>
  <path d="M20.65,22.305c-1.713,2.648-4.902,3.382-7.825,2.789-5.48-1.112-6.977-9.009-4.872-13.986,1.255-2.966,3.784-4.437,6.867-4.329,2.731.095,5.043,1.149,6.256,3.684,1.743,3.643,1.939,8.186-.426,11.843ZM19.298,20.093c1.36-3.208,1.206-6.784-.888-9.515-1.705-2.224-5.53-2.355-7.311-.142-2.07,2.57-2.076,6.034-1.145,9.011.679,2.173,2.314,3.571,4.329,3.724,2.082.158,4.067-.842,5.015-3.078Z" fill="#b68776"/>
  <path d="M55,25.487c-.735-1.388-2.051-2.627-2.952-3.676-1.093-1.271-2.248-2.487-3.428-3.677-.437-.44-2.659-2.974-2.659-2.974l.651-.63s3.38-3.477,5.2-5.175c1.458-1.36,3.059-3.226,2.442-5.372-.493-1.714-2.242-3.689-4.159-3.638-1.04.028-2.195.779-2.992,1.383-2.331,1.763-7.105,6.831-7.105,6.831,0,0-.067-.856-.075-.989-.128-2.086.28-4.102-1.025-5.866-1.056-1.429-3.308-2.087-5.056-1.471-3.503,1.234-3.195,3.544-3.303,5.986-.078,1.764-.047,3.53,0,5.294.099,3.767.185,7.505,0,11.264-.104,2.112-.242,4.321.469,6.355.602,1.724,2.329,2.766,4.104,2.862.422.023.851.002,1.257-.119,1.223-.364,2.302-.979,2.897-2.079.675-1.249.59-2.777.57-4.155-.015-1.047-.044-4.124-.044-4.124l.924,1.06s6.07,7.231,8.404,8.582c1.565.903,3.044.71,4.459-.393.932-.726,1.832-1.742,1.954-2.965.081-.807-.145-1.58-.532-2.311ZM52.492,28.727c-.561.642-2.097,1.121-2.992.158l-9.952-10.71-2.029,2.023.008,6.823c.002,1.423-.747,2.328-1.988,2.543-1.105.191-2.576-.664-2.576-2.156l-.012-23.324c0-1.155,1.514-1.512,2.205-1.501.906.015,2.123.379,2.184,1.574l.471,9.207,6.337-5.915,4.269-3.944c.795-.735,1.866-.925,2.588-.507.883.511,1.511,2.069.653,2.897l-9.203,8.877,10.031,11.151c.789.877.723,1.983.005,2.804Z" fill="#b68776"/>
  <path d="M6.731,9.529c-.395.779-.653,1.315-1.759.973.816-5.359,8.4-7.618,8.741-6.361.133.491-.129.802-.709.903-2.598.453-5.011,1.997-6.273,4.485Z" fill="#fff"/>
</svg>
