<?xml version='1.0' encoding='utf-8'?>
<svg xmlns="http://www.w3.org/2000/svg" viewBox="0 0 23.853 32">
  <path d="M21.064,17.446c-.062-.696.157-1.653-.11-2.309l-1.084-.988c-.501-.154-.861-.583-1.181-.777-1.021-.571-2.317-.406-3.423-.57l-.48-.071c-.089-.013-.137-.191-.082-.33l-.799-.056h0l-3.778.018-1.122.1h0c-1.948.173-3.97.291-5.877.879-.848.261-1.371.806-1.471,1.636l-.48,4.005-.026.75.154,4.166.218,1.305c-.089-.138-.165-.25-.211-.308-.168.223.006.843.043,1.096.031.21-.134.565.033.726l-.014.311.317.086c.051,3.149,3.939,3.686,7.032,3.934.052-.201,1.368.236,1.351.173l-.276-.555c2.331.122,4.705.049,7.001-.324.046-.061.163-.106.217-.094.023-.275.226-.394.516-.484.782-.242.828-1.77,3.089-2.04.306-.432.517-.752.622-1.323.256.024.571-.184.574-.566l.032-4.216.197-2.121c-.356-.651-.91-1.205-.986-2.054Z" fill="#ecc68e"/>
  <path d="M3.289,12.019l-.036-.62c.154-.002.178.121.184.233.01.18-.076.259-.148.387Z" fill="#825e4e"/>
  <path d="M22.312,27.965c-.022.105-.213.487-.263.576-.366.646-1.201.838-1.946,1.073l-1.283.404c-.174.013-.289-.225-.223-.363.979-.402,1.51-1.198,2.027-1.93.306-.432.517-.752.622-1.323.256.024.571-.184.574-.566l.032-4.216.197-2.121c-.356-.651-.91-1.205-.986-2.054-.062-.696.157-1.653-.11-2.309l-1.084-.988c-.501-.154-.861-.583-1.181-.777-1.021-.571-2.317-.406-3.423-.57l-.48-.071c-.089-.013-.137-.191-.082-.33,1.634.115,3.303.178,4.976.501,1.18.228,2,.951,2.276,2.183.582,2.601.695,5.292.64,8.008-.034,1.704.037,3.297-.285,4.872Z" fill="#ddad80"/>
  <path d="M12.962,3.622l-.596-.062c-2.379-.248-4.496.946-5.42,3.185-.566,1.373-.744,2.945-.722,4.414-.272-.153-.343-.492-.355-.833-.412-.202-.794-.186-1.299-.306-.265.63-.309,1.33-.288,2.001-.416.065-.205-.43-.209-.593-.042-2.179.193-4.155,1.067-6.076.133.064.296.081.406.181.104.095.112.331.147.559.03.193.373.222.457.066l.205-.38,1.178-1.636c.469-.652,1.293-.951,2.071-1.29l.796-.347c.719-.313,1.4-.307,2.108.103.417.241.591.547.454,1.015Z" fill="#ddad80"/>
  <path d="M11.095,1.244c1.519-.147,3.055.064,4.392.809.432.236.746.517,1.105.84-.875.778-2.16.404-2.275,1.24-.447-.216-.929-.467-1.355-.511.137-.468-.037-.773-.454-1.015-.708-.41-1.389-.416-2.108-.103.023-.089.046-.248-.002-.33-1.25-.253-2.386.434-3.21,1.313-1.025.478-1.674,2.019-1.233,2.282.089.053.301.03.4.008l-.205.38c-.084.157-.427.127-.457-.066-.035-.228-.043-.463-.147-.559-.11-.1-.273-.117-.406-.181,1.09-2.397,3.307-3.851,5.954-4.107Z" fill="#ecc896"/>
  <path d="M18.061,11.693c-.312-.061-.634.008-.944-.162.074-2.49-.552-5.546-2.38-7.098.016-.434.962-.919,1.295-.663.939.723,1.221,1.896,1.728,2.873.444.857.753,1.551.789,2.569.016.44.455,1.036.143,1.53-.193.306-.633.543-.631.951Z" fill="#d79866"/>
  <path d="M18.061,11.693c-.002-.407.438-.645.631-.951.312-.494-.127-1.09-.143-1.53-.036-1.018-.345-1.712-.789-2.569-.506-.977-.789-2.15-1.728-2.873-.333-.256-1.278.229-1.295.663-.111-.094-.304-.244-.42-.3.115-.836,1.4-.462,2.275-1.24,2.289,2.175,2.754,5.686,2.8,9.06l-1.331-.26Z" fill="#ddad80"/>
  <path d="M6.225,11.159c.002.143.178.529-.071.568l-1.872.293c-.021-.67.024-1.37.288-2.001.505.12.887.105,1.299.306.012.342.083.681.355.833Z" fill="#d79866"/>
  <path d="M20.624,27.725c-.517.731-1.048,1.527-2.027,1.93-.066.139.05.376.223.363-.571.18-1.638.515-2.243.387.023-.275.666-.55.957-.64.782-.242.828-1.77,3.089-2.04Z" fill="#ddad80"/>
  <path d="M12.766,17.519c-1.216-1.009-2.851-.845-3.963.313-.063.066-.132.149-.184.256-.617,1.264-.506,2.778.784,3.6l-.81,3.421c-.073.309-.013.61.181.814.142.15.426.249.726.262l1.818.077,1.49-.089c.281-.017.636-.269.654-.609.059-1.105-.273-2.181-.58-3.172-.312-1.007.727-1.011.808-2.733.041-.86-.282-1.606-.923-2.138Z" fill="#ddad80"/>
  <path d="M3.275,17.226l.179-1.411-.289-.307c-.428.373-.572.824-.664,1.366-.45,2.662-.461,5.016.307,7.583.096.321.304.301.573.318l-.086-3.796-.02-3.753Z" fill="#f0efef"/>
  <path d="M4.211,27.64l-.166.178c-.322.042-.592-.192-.708-.487-.063-.159-.015-.404-.024-.588.273-.048.644-.058.721.229l.178.667Z" fill="#f0efef"/>
  <path d="M10.4,2.504l-.796.347c-.778.339-1.602.638-2.071,1.29.022-.292-.068-.568-.345-.654.824-.879,1.959-1.566,3.21-1.313.048.082.026.241.002.33Z" fill="#eecea3"/>
  <path d="M7.188,3.487c.277.085.367.362.345.654l-1.178,1.636c-.099.022-.312.045-.4-.008-.441-.263.208-1.804,1.233-2.282Z" fill="#f0efef"/>
  <path d="M23.597,17.303c-.208-2.008-.49-4.738-3.005-5.407.003-3.473-.366-7.025-2.834-9.645C16.188.585,13.858-.199,11.195.043c-1.97.179-3.592.775-4.821,1.77-3.227,2.613-3.474,6.728-3.379,9.596l.013.267h.171c-.003.03-.016.053-.056.115l-.057.093c-.116.208-.36.313-.669.446-.402.173-.902.387-1.267.934-.476.711-.769,1.636-.849,2.674l-.149,1.376-.101,1.524-.031,3.219.091,1.38c.089,1.355.259,3.138.786,4.919.329,1.113.994,1.891,1.977,2.313,2.273.977,5.494,1.331,8.599,1.331,1.58,0,3.13-.092,4.509-.24,1.51-.162,6.483-.865,7.088-3.098l.255-.944c.618-3.065.711-6.375.293-10.416ZM10.149,12.64l3.757-.018,1.642.112c1.342.087,2.73.176,4.1.44,1.121.217,1.814.88,2.058,1.971.442,1.976.647,4.136.646,6.8,0,1.111-.057,2.186-.166,3.193-.099.916-.212,1.949-.533,2.899l-.051.065c-.437.563-.844.984-1.406,1.213-.557.227-1.175.349-1.772.466l-.417.084c-1.961.405-3.99.616-6.03.626-.785,0-1.577-.032-2.336-.103l-.265-.027c-.351-.027-.723-.043-1.107-.061-2.975-.134-6.347-.286-6.44-5.079l-.378-5.482.024-.726.48-4.005c.083-.697.513-1.169,1.277-1.404,1.665-.513,3.443-.664,5.162-.811l1.757-.155ZM5.412,5.466c1.026-2.255,3.113-3.693,5.729-3.946.29-.028.576-.042.857-.042,1.252,0,2.406.277,3.376.817.409.224.707.492,1.047.798,2.239,2.129,2.644,5.62,2.708,8.521l-.994-.194c-.123-.024-.247-.031-.372-.037-.125-.006-.239-.012-.343-.038.035-2.431-.595-5.521-2.482-7.123-.03-.025-.295-.249-.479-.339l-.119-.058c-.438-.213-.89-.433-1.328-.479l-.596-.062c-2.557-.265-4.741,1.019-5.705,3.356-.519,1.256-.769,2.779-.743,4.524.001.065.016.133.032.204.006.027.015.067.022.103l-1.695.263c.005-.038.013-.077.018-.104.014-.073.027-.142.026-.207-.047-2.431.274-4.268,1.042-5.956ZM7.918,7.653c.55-1.825,2.067-3.003,3.828-3.003.09,0,.179.004.27.009,3.19.216,3.94,4.089,3.885,6.535l-5.689-.007-2.695.105c-.062-1.387.063-2.519.4-3.64Z" fill="#825e4e"/>
  <path d="M13.32,22.04c.79-.524,1.312-1.421,1.312-2.439,0-1.613-1.312-2.925-2.925-2.925s-2.925,1.312-2.925,2.925c0,1.017.522,1.914,1.312,2.439l-.895,3.433c-.036.137-.006.282.081.394.086.112.22.177.361.177h4.132c.141,0,.275-.066.361-.177.086-.112.116-.257.081-.394l-.895-3.433Z" fill="#040000"/>
</svg>
