<?xml version='1.0' encoding='utf-8'?>
<svg xmlns="http://www.w3.org/2000/svg" viewBox="0 0 25.3 32">
  <path d="M7.371,32c-2.705,0-5.106-1.438-6.423-3.844-1.408-2.573-1.236-5.695.441-7.953L11.972,5.941l.45-.537,2.674-3.551c1.054-1.186,2.598-1.853,4.256-1.853,1.038,0,2.068.256,2.98.742,1.521.809,2.502,2.13,2.839,3.82.376,1.888-.074,3.793-1.268,5.362l-10.9,14.337c-.651.857-1.387,1.444-2.251,1.797-.568.232-1.158.349-1.755.349-1.451,0-2.742-.718-3.451-1.921-.905-1.534-.756-3.502.38-5.014l7.211-9.599c.241-.32.602-.511.967-.511.209,0,.409.062.579.179.209.144.376.432.426.735.047.284-.013.554-.168.761l-7.447,9.976c-.43.577-.497,1.394-.174,2.134.215.493.698,1.049,1.407,1.135.083.01.17.015.26.015.617,0,1.428-.248,1.849-.802l11.29-14.831c.854-1.123,1.18-2.115,1.056-3.216-.138-1.226-.781-2.23-1.811-2.827-.637-.37-1.35-.564-2.063-.564-1.137,0-2.125.482-2.782,1.357l-2.436,3.246-5.518,7.406-5.566,7.601c-1.178,1.608-1.155,3.92.056,5.752,1.003,1.517,2.588,2.404,4.346,2.433h.088c1.689,0,3.217-.794,4.303-2.237l5.924-7.871c.238-.316.594-.497.977-.497.195,0,.387.048.553.14.239.132.412.373.473.661.064.302-.005.614-.189.858l-6.428,8.503c-.998,1.321-2.488,2.156-4.426,2.48-.437.073-.878.111-1.311.111Z" fill="#b8afa8"/>
</svg>
