<?xml version='1.0' encoding='utf-8'?>
<svg xmlns="http://www.w3.org/2000/svg" viewBox="0 0 38.296 32">
  <path d="M12.096,31.358c-.419.344-1.066.503-1.385.432-.353-.078-.988-.543-1.07-1.06l-1.772-11.071L.813,13.579C.248,13.092-.041,12.482.005,11.795c.038-.562.538-1.152,1.264-1.372l15.297-4.639L35.981.061c.692-.204,1.484.146,1.832.456.442.395.641,1.251.338,1.956l-12.434,28.914c-.501,1.165-2.474.403-3.119-.103l-5.322-4.176-5.18,4.25ZM33.647,3.078c-.721-.198-1.738-.15-1.827.71-.603-.377-1.145-.102-1.833.121l-2.127.688c-.667.216-1.486.171-2.079.667-.034.029-.136.01-.18.006L2.202,12.146c.087.552.635.508.795.674l3.632,3.211c.89.787,1.718,1.429,2.654,1.958.454.256.941.639,1.183,1.093-.202.111-.615.479-.556.814l1.037,5.919c.578-.895.614-1.585.912-2.349,1.57-1.055,1.658-3.083,2.59-1.542l-.013.584-.552,1.371c-.1.039-.443.089-.502.339l-.96,4.079,2.577-1.873c.469-.341.583-.691.674-1.099.15-.673.807-.955,1.461-.859l.709.354c1.988,1.824,3.994,3.451,6.333,4.922l4.46-10.015,6.586-15.469.289-.6c.269-.559.037-.913-.437-1.055-.574-.173-1.109-.037-1.425.475Z" fill="#81614d"/>
  <path d="M35.22,4.258l-6.586,15.469-4.46,10.015c-2.34-1.471-4.346-3.098-6.333-4.922l-.709-.354-1.526-1.382c.136-.694.875-.888,1.321-1.312l2.345-2.234,2.701-3.298c.241-.295.253-.686.217-.953l.264-.257c.134-.066.245-.169.318-.299.128-.271.387-.412.586-.582,1.053.258,2.039-.637,1.994-1.699l9.211-8.173c-.038-.119.174-.178.268-.078l.39.059Z" fill="#c8d9df"/>
  <path d="M31.819,3.788l-11.385,7.206-11.151,6.995c-.936-.528-1.765-1.171-2.654-1.958l-3.632-3.211c.284-.346.732-.525,1.233-.596,2.226-.314,4.173-1.018,6.296-1.7l14.507-4.661c.387-.124.551-.24.568-.593.044.004.145.022.18-.006.719.144,1.757.108,2.079-.667l2.127-.688c.688-.223,1.23-.498,1.833-.121Z" fill="#c8d9df"/>
  <path d="M33.647,3.078c-.016.184-.149.683-.028.951.094.208.686.174.943.249l-9.211,8.173-1.994,1.699c-.199.169-.457.311-.586.582-.055.115-.229.212-.318.299l-.264.257-3.743,3.15-3.999,3.487c-.932-1.54-1.019.487-2.59,1.542.321-.824.335-1.76,1.268-2.382l.981-1.095,1.322-1.134,3.677-3.359c1.636-1.495,3.45-2.612,4.94-4.511l-6.096,3.587-5.739,3.555-1.745.956c-.242-.454-.729-.836-1.183-1.093l11.151-6.995,11.385-7.206c.089-.86,1.106-.908,1.827-.71ZM32.983,4.625l-.187.005.187.005h.193l.187-.005-.187-.005h-.193Z" fill="#7e7563"/>
  <path d="M25.601,5.271c-.016.353-.18.468-.568.593l-14.507,4.661c-2.123.682-4.069,1.386-6.296,1.7-.501.071-.949.25-1.233.596-.161-.166-.708-.123-.795-.674l23.399-6.876Z" fill="#f9e2c9"/>
  <path d="M14.107,19.989l-.981,1.095c-.933.622-.947,1.558-1.268,2.382-.298.765-.333,1.455-.912,2.349l-1.037-5.919c-.059-.336.354-.704.556-.814l1.745-.956c.561.196,1.218.411,1.881.805.224.133.095.802.015,1.058Z" fill="#b4c3ac"/>
  <path d="M15.606,23.084l-1.172-.576.013-.584,3.999-3.487,3.743-3.15c.036.267.024.659-.217.953l-2.701,3.298-2.345,2.234c-.446.425-1.185.619-1.321,1.312Z" fill="#fffffe"/>
  <path d="M13.882,23.879c.349.7,1.023,1.195,1.79,1.446-.091.408-.205.758-.674,1.099l-2.577,1.873.96-4.079c.059-.25.401-.301.502-.339Z" fill="#bcd2be"/>
  <path d="M15.606,23.084l1.526,1.382c-.654-.096-1.31.186-1.461.859-.767-.251-1.441-.746-1.79-1.446l.552-1.371,1.172.576Z" fill="#7e7563"/>
  <path d="M35.509,3.658c-.083-.024-.388-.043-.532-.007-.168.042-.263.329-.147.548-.094-.1-.306-.04-.268.078-.257-.075-.849-.041-.943-.249-.121-.268.012-.767.028-.951.316-.512.851-.647,1.425-.475.474.142.706.496.437,1.055Z" fill="#715331"/>
  <path d="M27.859,4.597c-.322.775-1.36.811-2.079.667.593-.496,1.412-.451,2.079-.667Z" fill="#f9e2c9"/>
  <path d="M35.509,3.658l-.289.6-.39-.059c-.116-.22-.021-.506.147-.548.144-.036.449-.016.532.007Z" fill="#7e7563"/>
  <path d="M23.357,14.15l1.994-1.699c.045,1.062-.94,1.957-1.994,1.699Z" fill="#fffffe"/>
  <path d="M22.453,15.031c.089-.087.263-.183.318-.299-.072.129-.184.232-.318.299Z" fill="#fffffe"/>
  <path d="M17.95,14.572c.321.484.699.715,1.156.924l-3.677,3.359-1.322,1.134c.08-.256.209-.925-.015-1.058-.663-.394-1.32-.609-1.881-.805l5.739-3.555Z" fill="#bcd2be"/>
  <path d="M19.106,15.496c-.457-.209-.836-.441-1.156-.924l6.096-3.587c-1.49,1.898-3.303,3.016-4.94,4.511Z" fill="#b4c3ac"/>
  <polygon points="32.983 4.625 33.176 4.625 33.362 4.63 33.176 4.635 32.983 4.635 32.796 4.63 32.983 4.625" fill="#715331"/>
</svg>
