<?xml version='1.0' encoding='utf-8'?>
<svg xmlns="http://www.w3.org/2000/svg" viewBox="0 0 24.8 32">
  <path d="M.196,4.731c.012-1.485-.153-2.749.819-3.794,1.125-1.21,3.061-1.222,4.467-.187l18.06,13.288c.752.554,1.214,1.384,1.255,2.154.037.696-.33,1.895-1.114,2.434L5.117,31.375c-1.032.709-2.222.782-3.274.385C.854,31.387-.011,30.366,0,29.045L.196,4.731ZM14.062,10.852L3.398,3.055c-.343.781-.167,1.531-.176,2.226l-.188,15.157-.041,8.603,14.68-10.057c.958-.656,1.927-1.115,2.828-1.95.238-.221.809-.27.933-.762l-7.372-5.421Z" fill="#81614d"/>
  <path d="M18.999,16.312l-1.518-1.116c-.014-.05,0-.158.004-.21-.837-.057-1.709-.95-2.222-1.357l-1.364-1.083-.597-.303c-.951-1.066-2.209-1.515-3.291-2.35l-3.756-2.897-3.033-1.714-.188,15.157-.041,8.603,14.68-10.057c.958-.656,1.927-1.115,2.828-1.95-.618.007-.994-.338-1.502-.722Z" fill="#f4c97e"/>
  <path d="M14.062,10.852L3.398,3.055c-.343.781-.167,1.531-.176,2.226l3.033,1.714,3.756,2.897c1.082.835,2.34,1.284,3.291,2.35l.597.303,1.364,1.083c.513.407,1.385,1.3,2.222,1.357-.005.052-.019.16-.004.21l1.518,1.116c.508.384.883.729,1.502.722.238-.221.809-.27.933-.762l-7.372-5.421Z" fill="#f5ebc1"/>
</svg>
