<?xml version='1.0' encoding='utf-8'?>
<svg xmlns="http://www.w3.org/2000/svg" viewBox="0 0 29.528 32">
  <path d="M28.52,9.618c-.273.065-.553.164-.728.392l-.542.04-1.673-.062-4.046,7.348c-.503.913,1.279,2.577,1.14,5.304-.091,1.79-1.442,2.912-3.223,2.779-2.091-.156-3.992-.929-5.841-1.808l-5.349,7.638c-.352.049-.985,1.208-1.768.548-.192-.162-.287-.567-.169-.899l.571-1.604,3.661-7.506c-1.827-1.327-3.431-2.744-4.519-4.623-.892-1.541-.492-3.258,1.104-4.096,1.486-.818,3.169-.906,4.937-.732l4.895-7.49c-.697-.714-1.067-1.487-1.077-2.42-.015-1.336.924-2.321,2.252-2.411,3.008-.204,6.521,1.767,8.886,3.71.997.82,1.811,1.767,2.294,2.937.479,1.16.077,2.279-.803,2.956ZM17.86,1.271l-.405.25c-.782.482-.427,1.575.024,2.226.253.365.448.743.856,1.103,2.193,1.935,6.594,4.598,9.066,4.09.799-.164,1.193-.862.988-1.58C27.367,3.796,19.693.141,17.86,1.271ZM17.761,18.028c1.362.392,2.213.199,2.281.602.075.446-1.05.616-1.925.415-2.705-.621-6.258-2.878-6.507-5.694-1.363-.149-2.722-.004-3.904.645-.872.478-1.248,1.394-.849,2.313.363.837.883,1.537,1.521,2.2,2.649,2.753,6.041,4.689,9.768,5.691.852.229,1.792.281,2.575-.063,1.557-.685.817-3.486-.161-5.411-.26-.511-.314-.999-.035-1.512l4.109-7.555c-2.386-.849-4.394-2.02-6.318-3.488-.209-.16-.34-.42-.607-.491l-5.179,7.933c.67,2.077,3.267,3.849,5.233,4.414ZM12.655,23.206c-.437-.403-.714-.547-1.222-.772l-3.237,6.88,4.459-6.108ZM7.94,29.739c.343-.111.404-.361.222-.575-.097.205-.205.409-.222.575Z" fill="#7a5636"/>
  <path d="M4.399,9.072c.205.364.143.638-.04.79-.282.236-.659.182-.853-.159l-.92-1.613c-.159-.279-.1-.602.132-.772.218-.16.618-.135.802.191l.88,1.562Z" fill="#624132"/>
  <path d="M2.052,12.13l-1.713-.715c-.325-.136-.379-.485-.314-.677.106-.315.439-.476.761-.331l1.641.739c.247.111.327.385.304.573-.03.242-.317.562-.678.411Z" fill="#624132"/>
  <path d="M29.218,21.51l-2.013-.219c-.291-.032-.399-.302-.413-.492-.019-.261.152-.575.498-.534l1.872.22c.374.044.426.74.056,1.025Z" fill="#624132"/>
  <path d="M27.249,24.694l-1.147-1.005c-.205-.18-.128-.574.017-.73.116-.125.405-.273.628-.085l1.167.983c.252.213.239.554.081.762-.147.193-.496.295-.746.076Z" fill="#624132"/>
  <path d="M18.314,6.171c-.662.057-.509.695-.682.957l-4.326,6.531c-.158.239-.073.445.099.558.165.108.348.074.503-.157l4.307-6.392c.289.033.578.192.828.435,1.419,1.381,3.059,1.479,2.59,2.437l-1.551,3.175-2.32,4.313c-1.966-.565-4.562-2.337-5.233-4.414l5.179-7.933c.266.071.397.331.607.491Z" fill="#eab1ae"/>
  <path d="M8.376,18.508c.477-.004.78.317,1.169.545l3.195,1.873c1.759,1.031,5.765,2.315,6.085,1.773.063-.107.162-.372.111-.551l-.82-3.104c.876.201,2,.031,1.925-.415-.068-.403-.919-.211-2.281-.602l2.32-4.313,1.551-3.175c.469-.959-1.171-1.056-2.59-2.437-.25-.244-.539-.403-.828-.435.001-.122-.024-.267-.093-.362-.106-.146-.304-.182-.489-.177.173-.261.02-.9.682-.957,1.924,1.468,3.932,2.638,6.318,3.488l-4.109,7.555c-.279.513-.224,1.001.035,1.512.977,1.925,1.718,4.726.161,5.411-.783.345-1.723.292-2.575.063-3.727-1.002-7.119-2.938-9.768-5.691Z" fill="#df9891"/>
  <path d="M18.116,19.045l.82,3.104c.052.179-.047.444-.111.551-.32.542-4.326-.742-6.085-1.773l-3.195-1.873c-.39-.228-.692-.55-1.169-.545-.637-.662-1.158-1.363-1.521-2.2-.399-.919-.023-1.835.849-2.313,1.183-.649,2.541-.794,3.904-.645.249,2.817,3.802,5.073,6.507,5.694ZM10.264,15.497c.173-.198.184-.45.076-.595-.073-.099-.245-.24-.487-.211-.954.113-1.855,1.008-1.643,2.041.069.335.7.346.972.174.299-.189.448-.681,1.083-1.409Z" fill="#eab1ae"/>
  <path d="M28.388,7.359c-2.02.355-4.016.021-5.817-.967l-1.488-.817c.033-.227-.022-.441-.203-.574-1.332-.977-2.433-2.219-3.019-3.731,1.833-1.13,9.507,2.525,10.528,6.088Z" fill="#eab1ae"/>
  <path d="M18.399,3.487c.815.818,1.699,1.549,2.684,2.089l1.488.817c1.801.988,3.797,1.322,5.817.967.205.717-.188,1.415-.988,1.58-2.472.508-6.873-2.155-9.066-4.09-.408-.36-.602-.738-.856-1.103l.92-.259Z" fill="#df9891"/>
  <path d="M12.655,23.206l-4.459,6.108,3.237-6.88c.509.225.785.369,1.222.772Z" fill="#fff"/>
  <path d="M17.86,1.271c.586,1.512,1.687,2.754,3.019,3.731.182.133.236.346.203.574-.985-.54-1.868-1.27-2.684-2.089-.545-.547-1.132-1.159-.944-1.967l.405-.25Z" fill="#fff"/>
  <path d="M18.399,3.487l-.92.259c-.451-.65-.806-1.744-.024-2.226-.188.808.399,1.419.944,1.967Z" fill="#eab1ae"/>
  <path d="M7.94,29.739c.018-.166.125-.37.222-.575.181.214.121.464-.222.575Z" fill="#c0bfa4"/>
  <path d="M18.215,7.667l-4.307,6.392c-.155.232-.338.266-.503.157-.172-.113-.257-.319-.099-.558l4.326-6.531c.185-.004.382.032.489.177.069.095.095.24.093.362Z" fill="#fff"/>
  <path d="M10.264,15.497c-.635.728-.784,1.22-1.083,1.409-.272.172-.903.161-.972-.174-.212-1.033.689-1.928,1.643-2.041.242-.029.414.112.487.211.108.145.097.397-.076.595Z" fill="#fff"/>
</svg>
