<?xml version='1.0' encoding='utf-8'?>
<svg xmlns="http://www.w3.org/2000/svg" viewBox="0 0 32.364 32">
  <path d="M32.077,6.683c-.195-1.619-.523-2.963-1.491-4.259-1.152-1.543-3.131-1.876-4.877-2.171-.159-.027-.317-.053-.474-.081l.03-.101-.601-.002-.38-.069-.02.067c-.956-.004-1.913-.012-2.869-.02C16.598.005,11.64-.038,6.66.515,3.214.898.836,3.114.454,6.299-.243,12.107-.011,18.028.313,24.088c.08,1.513.417,2.892.898,4.497l.046.154.13.095c.356.26.68.568,1.023.894.916.871,1.955,1.857,3.766,1.933l5.963.251,3.775.071c.595.011,1.178.017,1.749.017,3.49,0,6.55-.207,9.308-.63,3.037-.465,5.333-3.291,5.339-6.574l.016-7.507c.002-.773.01-1.537.019-2.295.032-2.861.062-5.562-.268-8.312Z" fill="#7e5545"/>
  <path d="M29.406,8.619l.264,4.035-.167,10.539c-.047,2.972-.881,4.666-2.701,5.478l-10.354.54-8.06-.109c-1.086-.015-2.051-.389-2.903-.72-.579-.225-1.946-.92-2.132-2.508l-.251-2.135-.012-.322c-.194-5.161-.394-10.497-.006-15.894.176-2.447,1.876-4.212,4.136-4.292l7.907-.281,9.18.03c1.613.005,2.971.401,3.726,1.084.879.796,1.248,2.102,1.13,3.995l-.038.612.28-.051Z" fill="#fff"/>
  <path d="M25.652,15.943l.07.113-.044-.008h0l-.108-.032c.022-.028.051-.053.083-.073Z" fill="#7e5545"/>
  <path d="M10.186,17.935c1.356-1.086,2.044-2.644,2.044-4.638,0-1.66-.473-2.974-1.406-3.907s-2.267-1.405-3.966-1.405h-.597c-.392,0-.679.043-.876.13-.235.104-.399.3-.475.568-.061.216-.091.542-.091.997v13.543c0,.382.082.709.245.973.236.382.536.462.745.462.202,0,.493-.08.736-.459.169-.265.254-.594.254-.976v-4.061c.248-.054.482-.082.698-.082.604,0,1.646.83,3.177,4.784.248.656.626.793.899.793.219,0,.528-.084.757-.482.155-.27.233-.591.233-.953,0-.23-.028-.441-.085-.626-.557-1.795-1.328-3.362-2.293-4.663ZM10.235,13.297c0,.955-.358,1.677-1.093,2.21-.683.494-1.469.813-2.341.949v-5.648h.014c1.109,0,1.972.221,2.566.655.575.422.855,1.021.855,1.833Z" fill="#7e5545"/>
  <path d="M17.879,12.641c-.399-.219-.85-.33-1.341-.33-.773,0-1.46.36-2.041,1.071-.551.672-.982,1.553-1.282,2.617-.297,1.051-.447,2.154-.447,3.278,0,1.017.127,1.939.377,2.741.254.819.616,1.466,1.073,1.922.479.477,1.03.719,1.637.719.561,0,1.039-.189,1.429-.564.039.16.101.301.186.423.173.247.415.378.7.378.206,0,.5-.085.735-.494.16-.278.241-.603.241-.965v-9.973l-.114-.083c-.393-.287-.781-.537-1.151-.74ZM15.956,21.907c-.372,0-.646-.193-.861-.607-.24-.462-.362-1.158-.362-2.071,0-.746.085-1.458.254-2.118.164-.646.398-1.169.694-1.554.268-.349.558-.518.887-.518.229,0,.439.053.639.162l-.042,5.928c-.148.21-.331.393-.546.545-.221.157-.437.233-.663.233Z" fill="#7e5545"/>
  <path d="M28.346,12.738c-.243-.353-.523-.427-.716-.427-.237,0-.45.124-.636.37-.156.207-.264.451-.321.731l-.843,4.506-.663-4.569c-.146-.923-.672-1.061-.973-1.061-.163,0-.407.056-.638.319-.163.187-.276.434-.332.727l-.966,4.497-.541-4.358c-.045-.325-.138-.595-.278-.803-.213-.316-.488-.382-.681-.382s-.475.075-.711.431c-.166.25-.25.532-.25.839,0,.15.015.351.046.603l1.209,9.337c.044.326.139.594.281.796.168.239.408.366.692.366.158,0,.392-.054.611-.31.151-.177.262-.424.329-.734l1.08-4.821.749,4.759c.152.914.605,1.106.958,1.106.329,0,.759-.186.941-1.074l1.863-9.429c.033-.16.05-.33.05-.505,0-.355-.088-.662-.26-.913Z" fill="#7e5545"/>
</svg>
