<?xml version='1.0' encoding='utf-8'?>
<svg xmlns="http://www.w3.org/2000/svg" viewBox="0 0 28.756 32">
  <path d="M28.209,14.581c-.096-.143-.199-.297-.3-.474-.13-.229-.187-.551-.247-.891-.113-.643-.254-1.442-1.002-1.922-.411-.264-.387-.857-.336-1.187.156-1.01-.079-1.989-.662-2.757-.575-.759-1.436-1.242-2.423-1.361-.278-.033-.328-.118-.446-.752-.126-.677-.316-1.701-1.466-2.678-.785-.667-1.854-.586-2.715-.52-.168.013-.331.025-.483.031l-.233-.232C16.974.915,16.01-.035,14.587,0c-1.603.046-2.857.722-3.643,1.961-.961-.169-1.895-.255-2.77.138-1.264.57-2.05,1.782-2.338,3.605-1.225.336-2.219,1.063-2.818,2.065-.552.925-.716,2.024-.468,3.119-1.028.902-1.557,1.988-1.614,3.309-.753.493-1.06,1.266-.891,2.24.601,4.379,2.521,9.999,8.24,12.051.076.387.088.777.101,1.156.027.846.057,1.804,1.093,1.957,1.781.264,3.462.396,5.063.396,1.807,0,3.511-.169,5.14-.506l.17-.035.081-.153c.468-.89.46-1.794.409-2.744,4.813-1.976,7.559-5.961,8.39-12.172.115-.858-.195-1.32-.523-1.809ZM26.881,17.014c-.573,3.941-2.758,8.432-7.32,9.869-2.757.867-5.855.974-9.207.318-4.485-.878-7.459-4.445-8.419-10.073,5.189,1.61,12.048,2.107,18.5,1.331,2.034-.246,4.212-.593,6.446-1.445ZM4.228,9.437c-.015-.924.819-1.804,1.899-2.003l.166-.028c.354-.058.754-.124.96-.417.164-.233.222-.559.295-.972.144-.808.322-1.814,1.356-2.288.288-.132.578-.199.886-.199.444,0,.926.138,1.496.419l.318.157.168-.313c.662-1.233,1.422-1.893,2.324-2.02,1.59-.22,2.589,1.184,3.044,2.041l.123.232,2.19-.349c1.187.191,1.811,1.469,1.708,2.564-.092.977.693,1.14,1.266,1.259.664.138,1.417.293,1.942,1.265.383.709.329,1.492-.177,2.536l-.173.358.371.145c.7.273,1.202.725,1.454,1.308.26.602.244,1.329-.045,2.049l-.038.094c-.15.379-.196.494-.539.585-1.682.446-3.47.75-5.464.932-4.766.434-8.748.356-12.53-.244-.288-.046-.595-.084-.91-.123-1.142-.142-2.437-.302-3.252-.927-.532-.408-.52-1.072-.465-1.432.133-.877.746-1.726,1.425-1.976l.245-.09-.043-2.562ZM18.57,29.963c-3.042.416-5.813.391-8.427-.058-.118-.116-.126-.674-.028-.891,3.094.339,5.749.459,8.52-.029.071.344.051.604-.064.978Z" fill="#72523d"/>
  <path d="M26.14,15.317c-.67.055-1.301-.515-2.02-.549-.646-.03-.842.949-.847,1.634-1.121-.365-2.153-.758-3.172-.27-.252.121-.227.84-.309,1.025-4.231.385-8.38.425-12.621-.247-1.389-.22-3.204-.259-4.328-1.122-1.331-1.021-.37-3.519,1.057-4.044l-.039-2.3c1.018.366,2.125.039,2.265-1.156l-.065-1.216c.342-.063.752-.096.893-.296.389-.553.072-2.59,1.799-3.382.897-.411,1.761-.237,2.698.225.581-1.081,1.384-2.041,2.596-2.21,1.562-.218,2.718.911,3.42,2.232l1.987-.316c1.396.186,2.2,1.646,2.076,2.97-.131,1.394,2.03.213,3.165,2.314.455.841.369,1.757-.17,2.871,1.748.682,2.236,2.297,1.616,3.836ZM18.759,8.467c-.062-.55-.63-.776-.952-.824-.236-.035-.636.161-.722.506-.137.552.324.767.595.906.399.204,1.164.166,1.08-.588ZM11.575,10.012c.599-.915.028-1.559-.647-1.704-.656-.141-1.685.497-1.301,1.162.392.405,1.373.429,1.949.543ZM21.4,12.97c.757-.545.041-1.6-.622-1.756-.514-.122-1.404.241-1.214.978.12.465,1.408,1.005,1.836.779ZM8.902,13.347c.035-.202.007-.522-.221-.665-.758-.476-1.764-.063-2.033.847-.111.376.361.792.662.858.358.078,1.491-.462,1.592-1.04Z" fill="#fcf9f4"/>
  <path d="M10.283,27.561c-5.366-1.051-8.03-5.536-8.804-10.966,5.754,1.924,12.989,2.212,18.912,1.498,2.422-.292,4.655-.696,6.932-1.652-.501,4.763-3.103,9.359-7.652,10.792-3.067.966-6.272.938-9.388.328ZM4.422,19.861c-.108-.291-.375-.289-.566-.195-.609.3,1.076,3.235,2.242,4.927.174.252.493.178.565.041.2-.379-1.336-2.349-2.241-4.774Z" fill="#d8d7cc"/>
  <path d="M18.846,30.295c-2.977.427-5.879.469-8.809-.046-.524-.092-.431-1.661.011-1.612,3.046.337,5.893.498,8.856-.075.202.681.181,1.063-.058,1.734Z" fill="#d1c9bc"/>
  <path d="M26.14,15.317c-.181.449-.261.748-.824.897-1.818.481-3.629.77-5.525.942.083-.185.057-.904.309-1.025,1.019-.488,2.051-.095,3.172.27.005-.685.201-1.665.847-1.634.72.034,1.35.605,2.02.549Z" fill="#fbedde"/>
  <path d="M6.06,7.072l.065,1.216c-.14,1.195-1.247,1.522-2.265,1.156-.02-1.166,1.006-2.151,2.2-2.371Z" fill="#fbedde"/>
  <path d="M8.902,13.347c-.101.578-1.234,1.118-1.592,1.04-.301-.066-.773-.482-.662-.858.269-.909,1.275-1.323,2.033-.847.228.143.256.464.221.665Z" fill="#fbedde"/>
  <path d="M11.575,10.012c-.575-.114-1.557-.137-1.949-.543-.384-.665.646-1.303,1.301-1.162.675.145,1.247.789.647,1.704Z" fill="#fbedde"/>
  <path d="M21.4,12.97c-.428.226-1.716-.314-1.836-.779-.19-.736.7-1.099,1.214-.978.662.157,1.378,1.211.622,1.756Z" fill="#fbedde"/>
  <path d="M18.759,8.467c.085.754-.68.792-1.08.588-.272-.139-.733-.354-.595-.906.086-.345.486-.541.722-.506.322.048.891.274.952.824Z" fill="#fbedde"/>
  <path d="M4.422,19.861c.905,2.425,2.441,4.395,2.241,4.774-.072.136-.391.21-.565-.041-1.166-1.692-2.852-4.626-2.242-4.927.191-.094.458-.096.566.195Z" fill="#fff"/>
</svg>
