<?xml version='1.0' encoding='utf-8'?>
<svg xmlns="http://www.w3.org/2000/svg" viewBox="0 0 24.528 32">
  <path d="M7.242,14.178c-.092.446.141.78.499,1.062.296.233.682.329.979-.028l1.79.61c.057.941,2.325.848,4.057.567.054.81-1.142,1.125-1.878,1.054l-1.901-.185-.306.045c-.108.013-.179.188-.108.303.078.127.246.188.393.202.643.13,1.316.135,1.975.077.061-.05.323.09.284.176l-.605,1.377c-.919.3-1.904.221-2.854.168.107-1.05-.871-1.567-1.715-1.924-.219-.093-.414-.427-.801-.142-.046-.352-.295-.693-.644-.883.101-.152.067-.683.352-.551,1.058.593,2.07,1.648,3.449,1.233-1.938-1.159-4.461-2.032-3.371-3.127l.407-.034Z" fill="#b6af94"/>
  <path d="M5.257,19.904l.776.758c.07.106.036.376.298.489l1.616.698-.404.807c-.088.176.222.498.294.744l-1.389-.151-1.951-.899-.485-.377c-.11-.085-.606.167-.588.356.871.757,1.939,1.215,2.981,1.312l.013.306-.029.468-.614-.032c-1.394-.458-3.198-1.68-3.045-2.39.069-.322.619-.457,1.01-.286.567-.555.516-1.846,1.099-1.961.115-.023.336.077.418.158Z" fill="#dbe1dd"/>
  <path d="M2.344,25.369c.13.402.426.556.78.713.301.134.804.288.984.572.801,1.271,2.882.867,4.735.411l.076.196c-.136.38-.501.592-.982.743l-.888.278c-1.516.057-3.012-.18-4.39-.806-.103-.047-.238-.187-.247-.305-.05-.674-.836-.914-.574-1.801h.507Z" fill="#b6af94"/>
  <path d="M5.76,24.856l.009.207.618.736c-.057.363-.61.689-.59,1.022l-1.69-.166c-.18-.285-.683-.438-.984-.572l.233-2.135c.597.271,1.636.964,2.404.909Z" fill="#dbe1dd"/>
  <path d="M7.05,17.538c.053.405-.198.796-.274,1.2-.454-.211-.775-.821-1.549-.535.791,1.194,2.215,1.425,3.528,1.939-.104.306-.346.414-.479.524-1.087.059-1.951-.605-2.895-1.13-.31-.173-.819-.749-.813-1.141.009-.57.758-.496,1.01-.633.45-.245.637-.821.828-1.108.349.19.598.531.644.883Z" fill="#dbe1dd"/>
  <path d="M2.554,27.84l.086.3c.336,1.174,1.035.863,1.474,1.53-.675.271-1.339.547-2.098.596-.104-.165-.426-.277-.447-.644l-.133-2.341c.405.279.716.469,1.118.56Z" fill="#dbe1dd"/>
  <path d="M6.872,29.039c-.893,1.173-2.582,1.925-4.164,1.836-.492-.028-.557-.397-.692-.611.759-.049,1.422-.324,2.098-.596.165-.066.443-.02.632-.174.2-.163.264-.449.202-.724.617.171,1.317.016,1.924.269Z" fill="#a29475"/>
  <path d="M7.048,28.282c.089.172.17.352.136.551-.017.096-.194.18-.311.207-.607-.254-1.306-.098-1.924-.269l-2.309-.631-.086-.3c-.028-.096.06-.248.104-.364,1.378.627,2.874.863,4.39.806Z" fill="#765341"/>
  <path d="M8.276,20.667l.017.226-.008.52-2.252-.751-.776-.758.124-.367c.944.525,1.809,1.189,2.895,1.13Z" fill="#765341"/>
  <path d="M3.356,23.947l-.233,2.135c-.354-.157-.65-.311-.78-.713.01-.503.166-1.16.575-1.563.225-.222.345.099.438.141Z" fill="#fff"/>
  <path d="M1.837,25.37c-.261.886.524,1.126.574,1.801-.44-.194-.911-.422-1.253-.858-.211-.269-.145-.652.042-.792.192-.143.431-.15.637-.151Z" fill="#dbe1dd"/>
  <path d="M17.445,12.475c-.109.558.214.785.745.785.406,0,.774-.06.713-.595l.825.011c.092.33.184.653.153.992-4.979.418-7.188-1.06-10.985-4.088l.014-.226c.376-.101.619-.423.685-.873,2.206,2.075,4.864,3.605,7.85,3.994Z" fill="#b1a687"/>
  <path d="M11.009,13.285c.046.361.606.617.717.962.177.554-.281,1.144-.296,1.621l-.92-.048-1.79-.61.01-.238c.292-.634.761-1.209.582-2.122-.531.549-.793,1.138-1.024,1.729-.276-.02-.517-.171-.625-.424l.859-1.863c.158-.332.457-.936.828-1.065-.305.804,1.18,2.049,1.661,2.058Z" fill="#dbe1dd"/>
  <path d="M8.285,21.413l1.74.125c.337.024.652.09.973-.053-.114.622-.524,1.186-.465,1.829-1.005.079-1.533.213-2.696.087-.072-.245-.382-.567-.294-.744l.404-.807-1.616-.698c-.262-.113-.227-.383-.298-.489l2.252.751Z" fill="#b6af94"/>
  <path d="M6.776,18.738c.135.063.374.144.462.24.45.489,1.175.563,1.826.599-.112.851,1.899.827,3.378.295.312.066.399.395.234.641-.408.606-1.629.166-1.678.971-.32.143-.636.077-.973.053.025-.112.012-.276-.056-.369-.061-.082-.218-.161-.407-.176l-1.268-.1-.017-.226c.133-.11.375-.219.479-.524-1.313-.514-2.737-.745-3.528-1.939.773-.287,1.095.324,1.549.535Z" fill="#b1a687"/>
  <path d="M9.348,11.228c-.305.804,1.18,2.049,1.661,2.058.046.361.606.617.717.962.177.554-.281,1.144-.296,1.621l3.102.013.019-.264c.362-.416.56-.851.92-1.587-2.819-.369-5.475-3.029-6.123-2.804Z" fill="#b6af94"/>
  <path d="M9.099,24.768c-.839-.011-1.889-.02-2.71-.353l.029-.468,3.121.03c.431.006.764-.215,1.015-.438.145.044.293.205.289.326-.017.501-.831.702-1.743.903Z" fill="#b6af94"/>
  <path d="M21.992,12.847c-.581.384-1.378.759-2.11.821.031-.339-.061-.662-.153-.992l1.471-.191c.335-.043.201-.453.239-.593.161-.336.739-.444,1.04-.614.116.069.213.126.274.197.097.113-.019.388-.131.536l-.631.835Z" fill="#a29475"/>
  <path d="M11.43,15.869l3.102.013.034.506c-1.732.281-4,.374-4.057-.567l.92.048Z" fill="#a29475"/>
  <path d="M7.836,23.4c1.164.126,1.692-.008,2.696-.087l.021.225c-.252.224-.584.444-1.015.438l-3.121-.03-.013-.306.043-.392,1.389.151Z" fill="#a29475"/>
  <path d="M12.441,19.872c-1.478.532-3.49.556-3.378-.295l.502.028c.949.053,1.935.133,2.854-.168-.053.122.003.299.022.435Z" fill="#a29475"/>
  <path d="M12.688,17.442l.052.443c-.659.058-1.332.053-1.975-.077l.021-.551,1.901.185Z" fill="#765341"/>
  <path d="M22.875,11.056l-.395.222c-.302.17-.879.278-1.04.614-5.038,1.03-12.263-2.744-13.812-7.53-.35-1.082.077-2.312,1.289-2.72,3.025-1.019,6.396-.262,9.191,1.434,2.982,1.81,6.143,4.944,4.767,7.98ZM17.463,6.602c.663.048,1.325.031,2.051-.147-.119-2.004-1.844-1.172-3.962-1.472-.008-.323-.295-.556-.599-.593-.011-.404-.381-.587-.562-.837-.237-.329-.597-.527-1-.536-.248-.006-.942-.005-.828.41l1.63,1.957-2.046.561c-.38.104-.148.822.075,1.03.889.828,2.436-.195,3.303.121.936.342,1.305,1.422,1.939,2.087.283.297,1.117.191,1.362-.082.243-.272.032-.73-.144-.953l-1.221-1.547Z" fill="#dbe1dd"/>
  <path d="M17.932,1.599C15.119.061,11.862-.477,8.894.471c-2.01.642-3.331,2.428-3.127,4.582l-.021.357.015.413c.069,1.893.986,3.033,2.419,4.423-.181.467-.308,1.233-.655,1.731l-.92,1.322c-2.055.146-.304,2.755-2.051,3.591-2.051.981-.133,2.943-2.115,3.949-.598.304-.851.955-.706,1.615.397,1.809-1.255,1.953-1.575,2.464-.29.463-.1.921-.055,1.415.106,1.189-.009,2.313.297,3.467.341,1.29,1.31,2.237,2.717,2.199,1.287-.035,2.693-.341,3.737-1.107l2.161-2.219c.456-.468.818-.766.84-1.367.019-.54.164-1.114.324-1.629,2.765-.745,1.062-3.291,2.871-4.048,1.344-.563.287-2.375,1.916-3.708,1.042-.853.583-2.083,1.295-3.072,2.419.218,4.364.294,6.223-1.012.65-.457.927-1.082,1.316-1.706,2.461-3.943-1.754-8.284-5.866-10.532ZM8.842,27.065l.076.196c-.136.38-.501.592-.982.743l-.888.278c.089.172.17.352.136.551-.017.096-.194.18-.311.207-.893,1.173-2.582,1.925-4.164,1.836-.492-.028-.557-.397-.692-.611-.104-.165-.426-.277-.447-.644l-.133-2.341c.405.279.716.469,1.118.56-.028-.096.06-.248.104-.364-.103-.047-.238-.187-.247-.305-.44-.194-.911-.422-1.253-.858-.211-.269-.145-.652.042-.792.192-.143.431-.15.637-.151h.507c.01-.504.166-1.161.575-1.564.225-.222.345.099.438.141.597.271,1.636.964,2.404.909l.009.207c1.018.177,1.985.413,3.171.327l-.254,1.362.156.313ZM14.551,15.618l-.019.264.034.506c.054.81-1.142,1.125-1.878,1.054l.052.443c.061-.05.323.09.284.176l-.605,1.377c-.054.122.003.299.022.435.312.066.399.395.234.641-.408.606-1.629.166-1.678.971-.114.622-.524,1.186-.465,1.829l.021.225c.145.044.293.205.289.326-.016.501-.831.702-1.743.903-.839-.011-1.889-.02-2.71-.353l-.614-.032c-1.394-.458-3.198-1.68-3.045-2.39.069-.322.619-.457,1.01-.286.567-.555.516-1.846,1.099-1.961.116-.023.336.077.419.158l.124-.367c-.31-.173-.819-.749-.814-1.141.008-.57.758-.496,1.01-.633.45-.245.637-.821.828-1.108.101-.152.067-.683.352-.551,1.058.593,2.07,1.648,3.449,1.233-1.938-1.159-4.461-2.032-3.371-3.127l.407-.034.419-.022.859-1.863c.158-.332.457-.936.828-1.065.648-.225,3.304,2.435,6.123,2.804-.36.736-.558,1.171-.92,1.587ZM22.875,11.056l-.395.222c.116.069.213.126.274.197.097.113-.019.388-.131.536l-.631.835c-.581.384-1.378.759-2.11.821-4.979.418-7.188-1.06-10.985-4.088l.014-.226c-1.092-1.006-1.955-2.233-2.209-3.697.069-.652.106-1.283.283-2.006.52.246.156.557.304.778l.288,1.277c.617.994,1.228,2.031,2.02,2.776,2.206,2.075,4.864,3.605,7.85,3.994l1.459.19.825.011,1.471-.191c.335-.044.201-.453.239-.593-5.038,1.03-12.263-2.744-13.812-7.53-.35-1.082.077-2.312,1.289-2.72,3.025-1.019,6.396-.262,9.191,1.434,2.982,1.81,6.143,4.944,4.767,7.98Z" fill="#765341"/>
  <path d="M7.289,4.429l.288,1.277c.617.994,1.228,2.031,2.02,2.776-.066.45-.308.772-.685.873-1.092-1.006-1.955-2.233-2.209-3.697.069-.652.106-1.283.283-2.006.52.246.156.557.304.778Z" fill="#b6af94"/>
  <path d="M8.687,26.752l-2.889.069c-.02-.333.534-.659.59-1.022l-.618-.736c1.018.177,1.985.413,3.171.327l-.254,1.362Z" fill="#b6af94"/>
  <path d="M5.797,26.821l2.889-.069.156.313c-1.853.456-3.934.86-4.735-.411l1.69.166Z" fill="#a29475"/>
  <path d="M7.662,14.155c.108.253.35.404.625.424-.004.257.195.434.443.393l-.01.238c-.297.357-.682.261-.979.028-.357-.281-.591-.616-.499-1.062l.419-.022Z" fill="#a29475"/>
  <path d="M9.566,19.605l-.502-.028c-.651-.036-1.376-.11-1.826-.599l.613-1.297c.844.358,1.822.874,1.715,1.924Z" fill="#dbe1dd"/>
  <path d="M7.851,17.681l-.613,1.297c-.088-.096-.327-.177-.462-.24.076-.404.327-.795.274-1.2.387-.285.582.049.801.142Z" fill="#fff"/>
  <path d="M10.787,17.257l-.021.551c-.147-.014-.315-.075-.393-.202-.071-.115,0-.29.108-.303l.306-.045Z" fill="#593122"/>
  <path d="M6.447,23.249l-.043.392c-1.042-.097-2.11-.554-2.981-1.312-.019-.189.478-.441.588-.356l.485.377,1.951.899Z" fill="#b6af94"/>
  <path d="M4.948,28.77c.062.276-.002.561-.202.724-.19.155-.467.108-.632.174-.439-.667-1.138-.356-1.474-1.53l2.309.631Z" fill="#b6af94"/>
  <path d="M10.024,21.537l-1.74-.125.008-.52,1.268.1c.189.015.346.094.407.176.069.093.082.257.056.369Z" fill="#593122"/>
  <path d="M18.904,12.665c.061.535-.308.595-.713.595-.531,0-.854-.227-.745-.785l1.459.19Z" fill="#a29475"/>
  <path d="M8.73,14.973c-.248.04-.447-.136-.443-.393.232-.592.493-1.181,1.024-1.729.18.913-.289,1.488-.582,2.122Z" fill="#fff"/>
  <path d="M14.392,3.553l-.051.182c-.32-.106-.589-.267-1.105-.208.368.901,1.405,1.233,1.478,2.236l-2.334.541c.821,1.092,3.019-.183,3.745.611l1.72,1.881c.155.17.504-.049.524-.157.073-.383-.754-1.384-1.504-2.047.159-.026.451-.135.606-.181l-.008.19,1.221,1.547c.176.223.387.682.144.953-.245.274-1.078.379-1.362.082-.634-.665-1.003-1.745-1.939-2.087-.867-.316-2.414.707-3.303-.121-.223-.208-.455-.926-.075-1.03l2.046-.561-1.63-1.957c-.115-.416.579-.416.828-.41.403.009.763.207,1,.536Z" fill="#765341"/>
  <path d="M14.341,3.735c-.03.354.264.613.612.655.304.037.59.27.599.593.032,1.24,2.27-.042,3.461.973l-1.542.456c-.155.046-.446.155-.606.181-.225.036-.566-.036-.741.323-.726-.794-2.924.481-3.745-.611l2.334-.541c-.073-1.004-1.11-1.335-1.478-2.236.517-.058.785.102,1.105.208Z" fill="#a29475"/>
  <path d="M17.463,6.602l.008-.19,1.542-.456c-1.191-1.015-3.429.267-3.461-.973,2.118.3,3.842-.532,3.962,1.472-.725.178-1.388.194-2.051.147Z" fill="#765341"/>
  <path d="M14.953,4.39c-.349-.042-.642-.301-.612-.655l.051-.182c.181.25.551.434.562.837Z" fill="#765341"/>
  <path d="M16.865,6.593c.75.663,1.577,1.664,1.504,2.047-.021.108-.369.327-.524.157l-1.72-1.881c.175-.358.516-.287.741-.323Z" fill="#765341"/>
</svg>
