<?xml version='1.0' encoding='utf-8'?>
<svg xmlns="http://www.w3.org/2000/svg" viewBox="0 0 37.279 32">
  <path d="M37.236,8.949c.114-.67-.001-1.178-.316-1.395-.252-.173-.608-.195-1.003-.06-.841.286-1.915,1.282-2.421,2.862l-.105.336c-.163.534-.32,1.046-.62,1.459-.017-.909-.198-1.994-.993-2.731-.276-.256-.666-.217-1.016.103-.775.709-1.486,2.958.203,5.253l-1.007,1.451c-.053-1.058-.218-2.079-1.156-2.649-.478-.29-.933.25-1.178.54l-.115.132-.4,2.172.006.036c.133.901.405,1.686.854,2.459l-1.151,1.315-.007-1.289c-.008-.248-.014-.445.088-.64.067-.13.058-.298.05-.445-.003-.058-.007-.112-.003-.154l.704-6.67c.27-2.553.229-4.5-.13-6.313C26.914,1.657,25.145-.066,22.598.002L4.063.479C1.587.542.03,2.513,0,5.622c-.014,1.461.485,2.689,1.443,3.553l.073.044c.574.203,1.225.275,2.048.226l2.35-.143c.028.16.006.308-.02.474l-.85,6.851c-.048.386-.099.779-.151,1.178-.485,3.736-1.035,7.97.517,11.225.663,1.388,1.785,2.404,3.118,2.794l1.701.176,18.497-.403c1.407-.031,2.419-.656,3.01-1.859.596-1.214.722-2.673.352-4.259-.441-.99-1.107-2.13-2.345-2.164l-2.486-.067c-.194-.251-.302-.934-.188-1.066l1.309-1.524.22-.357c.102-.009.383.049.611.098,1.082.233,3.098.666,4.381-1.361l.067-.105-.057-.11c-.024-.046-.042-.098-.061-.151-.081-.223-.203-.561-.623-.624-.802-.276-1.548-.237-2.55-.034.204-.38.459-.689.724-1.012.154-.188.313-.381.466-.593,2.374.669,4.092-.264,4.628-1.027.276-.394.304-.793.077-1.096-.702-.936-2.204-.732-3.103-.359l1.008-1.412c1.703-.505,2.83-2.166,3.069-3.567ZM36.047,8.721c-.13.985-.645,1.767-1.484,2.257.224-.947.746-1.74,1.484-2.257ZM31.503,13.458c-.454-.999-.517-1.83-.211-2.677.033.027.07.068.108.129.298.482.327,1.653.103,2.548ZM32.762,15.449c.733-.506,1.433-.693,2.227-.594-.511.481-1.303.692-2.227.594ZM5.044,4.11c-.487-.008-.991-.009-1.479.196-.289.121-.489.402-.55.773-.07.426.053.861.307,1.084l.157.138.143-.151c.105-.111.154-.293.204-.485.02-.076.049-.184.072-.237.51-.158.991-.148,1.502-.138.1.002.201.004.303.005l.256,2.633-2.958.099c-.585.019-.984-.216-1.228-.732-.628-1.555-.377-3.408.624-4.612.287-.345.691-.554,1.11-.574.022-.001.045-.002.067-.002.355,0,.685.135.938.386.452.448.762.991.922,1.617-.132.002-.263.001-.391,0ZM6.417,17.681l.811-6.252c.32-2.469.375-7.121-1.321-9.541l16.703-.408c1.029-.029,1.857.332,2.381,1.033,1.809,2.419,1.45,5.914,1.134,8.997-.039.377-.077.75-.111,1.115l-.633,6.839c-.113,1.224-.004,2.447.354,3.933l-14.099.297c-1.222.028-2.313.853-2.653,2.007-.336,1.142-.009,2.313.921,3.297l.097.103.133-.048c.101-.036.233-.02.267.031l.096.146.162-.063c.267-.104.541-.107.815-.103l.698.012c-.347.563-.82,1.142-1.501,1.346-1.489.449-3.105-.352-3.84-1.901-.604-1.273-.916-2.623-.93-4.013l-.009-.913.524-5.914ZM12.59,27.79c-.14.006-.291.019-.445.033-.498.045-1.061.095-1.457-.123-.407-.226-.501-.68-.521-.93-.041-.528.164-1.08.5-1.342.264-.206.498-.299.768-.299.069,0,.14.006.214.018.205.032.388.157.543.372.358.493.509,1.371.398,2.272ZM13.619,25.058l15.991-.187c.253-.018.468.104.652.326.523.633.639,2.028.492,2.751-.195.959-.523,2.063-1.338,2.086l-16.413.455.816-1.413.019-.043c.437-1.372.366-2.676-.219-3.974ZM26.801,20.604l-.193.008s0-.003,0-.004l.174-.059c.016.016.02.03.023.042,0,.005-.003.008-.003.013ZM28.67,17.696c-.35-.862-.385-1.756-.1-2.587.376.8.409,1.653.1,2.587ZM30.105,19.362c.576-.314,1.227-.429,1.974-.344-.551.361-1.213.475-1.974.344Z" fill="#7a5636"/>
  <path d="M24.599,2.304c-1.074.766,1.183,3.721.735,7.469l-.867,7.258c-.272,2.281-.312,4.47.3,6.605l-3.213.051c.019-.168.031-.563-.093-.744-3.067-.606-6.209-.692-9.231.149-.251.07-.461.108-.565.297-.076.137-.066.357-.023.522-1.158.026-2.147.822-2.451,1.852-.346,1.174.078,2.248.871,3.087-1.18.42-2.465-.478-3.13-1.601-.774-1.308-.617-2.854-1.246-2.738l-.009-.923c.822.105.33-1.392.807-3.683.521-2.499.803-4.935.938-7.483.064-1.208.148-2.317.827-3.36-.611-.581-.29-1.309-.444-1.978l-1.04-4.491,7.413-.46c3.558-.221,7.011-.351,10.421.172ZM23.145,8.442c.162-.003.169-.446.078-.467l-.47-.104-8.043.143-3.713.069c-.256.005-.377.346-.217.491.088.079.304.096.513.092l11.853-.224ZM22.402,12.177c.273-.005.447-.083.43-.345-.011-.164-.182-.204-.405-.2l-11.597.21c-.211.004-.321.098-.355.214-.042.144-.016.301.101.313l.367.036,11.459-.228ZM21.534,15.909c.213-.004.311-.048.39-.12.105-.096.093-.26-.009-.35-.065-.056-.176-.12-.383-.117l-11.114.197c-.314.006-.362.254-.29.412.054.118.244.177.445.174l10.961-.197ZM15.593,19.411c.233-.005.262-.327.199-.382-.07-.061-.174-.149-.371-.144l-5.462.143c-.216.046-.187.504.036.499l5.598-.116Z" fill="#f6dfca"/>
  <path d="M30.966,27.991l-7.621.635c-3.312.288-6.498.442-9.713.341.445-1.398.345-2.756-.355-4.122l16.331-.19c1.327-.015,1.555,2.371,1.359,3.336Z" fill="#f6dfca"/>
  <path d="M30.966,27.991c-.171.841-.516,2.23-1.544,2.259l-16.8.465,1.01-1.748c3.214.101,6.401-.052,9.713-.341l7.621-.635Z" fill="#edcbac"/>
  <path d="M25.166,2.383c-.202.046-.403-.054-.567-.079-3.41-.522-6.863-.392-10.421-.172l-7.413.46,1.04,4.491c.155.669-.167,1.397.444,1.978-.679,1.043-.763,2.151-.827,3.36-.135,2.548-.418,4.985-.938,7.483-.477,2.291.015,3.787-.807,3.683l.525-5.934.811-6.252c.373-2.873.287-7.592-1.539-9.719l17.132-.419c1.075-.026,1.983.349,2.56,1.12Z" fill="#f2eae1"/>
  <path d="M25.166,2.383c2.082,2.784,1.381,6.855,1.066,10.261l-.633,6.839c-.13,1.401.056,2.721.413,4.124l-1.244.028c-.612-2.135-.572-4.324-.3-6.605l.867-7.258c.448-3.748-1.809-6.703-.735-7.469.164.025.365.125.567.079Z" fill="#edcbac"/>
  <path d="M3.778,5.24c.734-.243,1.392-.152,2.121-.161l.298,3.059-3.189.106c-.668.022-1.142-.246-1.436-.867-.634-1.569-.435-3.517.659-4.832.651-.782,1.756-.878,2.435-.206.565.56.897,1.233,1.037,1.976-.715.051-1.403-.081-2.054.191-.546.228-.546,1.177-.183,1.496.141-.147.176-.699.313-.762Z" fill="#e0b695"/>
  <path d="M21.554,23.687l-9.912.224c-.044-.165-.054-.384.023-.522.105-.188.314-.227.565-.297,3.023-.842,6.164-.755,9.231-.149.125.182.112.576.093.744Z" fill="#edcbac"/>
  <path d="M10.062,28.85c.167-.06.415-.044.521.115.125.187.223.228.428.256.296.04.51-.067.47-.375l1.068.018c-.408.733-.958,1.507-1.813,1.764-1.696.509-3.358-.455-4.098-2.016-.629-1.327-.937-2.71-.951-4.103.629-.116.472,1.43,1.246,2.738.665,1.124,1.95,2.022,3.13,1.601Z" fill="#edcbac"/>
  <path d="M12.779,28.004c-.641-.012-1.557.238-2.195-.115-.902-.498-.784-2.06-.05-2.632.395-.308.744-.389,1.149-.325.895.141,1.333,1.597,1.096,3.072Z" fill="#e0b695"/>
  <path d="M34.269,11.369c.174-1.259.859-2.429,2.026-3.055-.031,1.291-.67,2.465-2.026,3.055Z" fill="#c0bfa4"/>
  <path d="M31.167,10.507c.828.048.881,2.336.377,3.518-.676-1.248-.875-2.342-.377-3.518Z" fill="#c0bfa4"/>
  <path d="M28.691,18.245c-.597-1.102-.75-2.393-.148-3.638.711,1.139.713,2.347.148,3.638Z" fill="#c0bfa4"/>
  <path d="M35.405,14.707c-.675.947-1.983,1.129-3.175.876.917-.762,1.878-1.161,3.175-.876Z" fill="#c0bfa4"/>
  <path d="M32.596,18.883c-.866.823-1.951.889-3.034.576.899-.687,1.939-.805,3.034-.576Z" fill="#c0bfa4"/>
  <path d="M11.48,28.847c.04.307-.174.415-.47.375-.205-.028-.303-.069-.428-.256.299-.116.594-.124.897-.118Z" fill="#f6dfca"/>
  <path d="M23.145,8.442l-11.853.224c-.208.004-.425-.012-.513-.092-.16-.145-.039-.486.217-.491l3.713-.069,8.043-.143.47.104c.091.02.085.464-.078.467Z" fill="#624132"/>
  <path d="M22.402,12.177l-11.459.228-.367-.036c-.117-.011-.143-.169-.101-.313.034-.117.144-.211.355-.214l11.597-.21c.223-.004.395.036.405.2.017.262-.157.339-.43.345Z" fill="#624132"/>
  <path d="M21.534,15.909l-10.961.197c-.201.004-.391-.056-.445-.174-.073-.159-.024-.407.29-.412l11.114-.197c.207-.004.318.06.383.117.102.089.115.253.009.35-.079.072-.177.116-.39.12Z" fill="#5e3d2e"/>
  <path d="M15.593,19.411l-5.598.116c-.223.005-.252-.453-.036-.499l5.462-.143c.197-.005.301.083.371.144.063.055.033.377-.199.382Z" fill="#603b2b"/>
</svg>
