<?xml version='1.0' encoding='utf-8'?>
<svg xmlns="http://www.w3.org/2000/svg" viewBox="0 0 30.66 32">
  <path d="M29.862,12.135l-4.223-1.156c-2.065-.565-3.739-2.378-4.265-4.62-.018-.078-1.313-5.595-1.313-5.595-.108-.457-.411-.735-.831-.761-.36-.029-.755.156-.858.61l-1.08,4.756c-.178.786-.429,1.524-.744,2.193-.725,1.538-1.831,2.627-3.381,3.327-1.418.64-2.955.958-4.673,1.28-.448.083-.752.428-.755.861-.003.362.251.781.74.881,1.969.403,3.871.841,5.496,1.773,1.409.808,2.465,2.286,2.896,4.055l1.503,6.166c.103.421.446.722.819.722h.015c.265-.006.701-.207.795-.621l1.284-5.616c.372-1.628,1.464-4.493,4.599-5.378.057-.017,4.082-1.153,4.082-1.153.489-.138.755-.531.68-1.002-.086-.531-.594-.67-.786-.723ZM26.419,13.038c-2.539.799-4.8,1.905-5.923,4.552-.565,1.331-.946,2.695-1.303,4.115l-.243-.869c-.739-2.647-1.577-5.647-4.562-6.871l-2.404-.984,2.226-.763c3.179-1.424,4.175-4.223,4.967-7.311l.679,2.325c.833,2.852,2.632,4.535,6.015,5.629l.547.177Z" fill="#785847"/>
  <path d="M10.703,24.001l-2.189-.583c-.792-.21-1.228-.989-1.372-1.647l-.689-3.149c-.091-.417-.369-.665-.745-.665h-.008c-.38.004-.647.271-.714.714l-.011.071c-.259,1.72-.615,4.076-1.861,4.64-.619.28-1.224.411-1.71.516-.726.157-1.413.306-1.345.974.033.322.297.616.644.717l2.14.617c1.552.447,1.935,3.414,2.14,5.008.062.48.382.786.809.786.028,0,.057-.001.085-.004.544-.05.665-.786.847-1.902.245-1.5.581-3.554,2.06-3.973l1.917-.543c.454-.129.715-.462.681-.871-.017-.201-.127-.56-.681-.706ZM5.722,27.37c-.52-1.361-1.283-2.187-2.332-2.524h-.006c1.173-.516,1.898-1.336,2.327-2.634.005.014.009.027.014.04.434,1.138,1.12,1.95,2.097,2.484.099.054.201.075.299.092-1.152.497-1.976,1.488-2.386,2.87-.005-.071-.004-.138.003-.195l.009-.068-.025-.064Z" fill="#785847"/>
  <path d="M9.75,2.842c-.427-.362-1.012-.857-1.386-1.706-.129-.294-.354-.414-.663-.353-.217.041-.375.19-.444.421-.258.856-.82,1.27-1.231,1.571-.303.222-.564.414-.581.719-.017.305.228.493.538.732.4.307.948.728,1.264,1.581.104.283.368.425.584.425.01,0,.019,0,.029-.001.316-.017.475-.306.657-.64.244-.446.579-1.056,1.397-1.481.157-.082.369-.218.396-.464.033-.298-.216-.51-.562-.803ZM8.748,3.524c-.039.037-.078.073-.116.11-.282.266-.552.521-.783.839-.256-.354-.524-.634-.866-.944.332-.266.591-.587.87-.947.248.331.515.663.895.942ZM7.521,1.284h0,0Z" fill="#785847"/>
  <path d="M27.806,28.278c-.867-.639-1.529-1.259-1.936-2.2-.077-.179-.256-.271-.486-.273-.24.009-.527.145-.613.388-.288.816-.903,1.338-1.615,1.942l-.185.157c-.061.052-.096.128-.097.208s.033.156.094.21l.347.301c.573.492,1.068.917,1.349,1.548.139.313.309.606.6.635.017.001.032.002.048.002.297,0,.497-.283.792-.701.354-.503.839-1.19,1.693-1.766.074-.05.12-.133.122-.223s-.04-.175-.112-.228ZM25.359,29.465c-.251-.348-.529-.639-.856-.942.332-.309.618-.595.896-1.003l.905.932c-.331.302-.647.593-.945,1.013Z" fill="#785847"/>
  <path d="M29.18,6.074c-.628-.478-.963-.934-1.433-1.715-.05-.084-.14-.134-.237-.134-.117-.022-.19.053-.239.138-.473.814-.79,1.256-1.419,1.723-.07.052-.111.133-.112.22s.04.169.109.222c.615.467,1.018.866,1.256,1.514.033.091.112.158.207.176.039.008.076.011.112.011.323,0,.514-.292.716-.6.22-.336.494-.755,1.025-1.105.075-.049.121-.132.124-.221.003-.09-.038-.175-.109-.23ZM27.784,6.24c-.022.134-.125.272-.261.442l-.304-.391.315-.382c.16.143.252.278.25.331Z" fill="#785847"/>
  <path d="M3.185,13.441c-.304-.288-.683-.647-1.003-1.17-.067-.109-.186-.176-.314-.176h0c-.128,0-.247.066-.314.176-.448.728-.736,1.103-1.256,1.403-.222.127-.283.296-.295.415-.03.299.198.501.463.735.25.221.561.496.735.876.062.133.224.488.571.52.018.001.035.002.051.002.324,0,.532-.294.751-.604.197-.278.441-.624.76-.787h0c.237-.122.372-.284.4-.485.048-.338-.203-.575-.551-.904ZM1.841,13.978l.253.236-.244.239c-.13-.117-.208-.213-.219-.241.011-.057.111-.153.21-.235Z" fill="#785847"/>
  <path d="M19.491,4.663l.719,2.464c.879,3.011,2.903,4.454,5.775,5.382-2.47.697-4.947,1.252-6.028,3.731-.699,1.604-1.12,3.203-1.322,4.838-.745-2.664-1.516-5.596-4.387-6.771l-2.423-.992c1.268-.31,2.657-.346,3.823-1.122.915-.609,1.836-1.502,2.373-2.479,1.117-2.031.983-4.795,1.217-5.044.038-.041.139-.049.252-.006Z" fill="#f6daa1"/>
  <path d="M18.635,21.078c.201-1.634.623-3.234,1.322-4.838,1.081-2.478,3.558-3.034,6.028-3.731l1.681.543c-2.992.844-5.626,1.842-6.83,4.681-.731,1.722-1.148,3.495-1.619,5.423l-.581-2.079Z" fill="#edaa83"/>
  <path d="M19.491,4.663c-.113-.042-.214-.034-.252.006-.235.249-.1,3.012-1.217,5.044-.537.977-1.458,1.87-2.373,2.479-1.167.776-2.555.812-3.823,1.122l-1.054-.307,3.289-1.126c3.459-1.549,4.194-4.743,5.088-8.381.293.328.232.783.343,1.163Z" fill="#fbf3db"/>
  <path d="M7.955,24.493c-1.394.698-2.291,1.349-2.492,2.976-.418-1.095-1.06-2.007-2.158-2.359,1.174-.469,2.054-.691,2.337-2.149.056-.289.118-.608.341-.808.39,1.024,1.004,1.812,1.971,2.34Z" fill="#f6daa1"/>
  <path d="M5.463,27.469c.2-1.627,1.097-2.278,2.492-2.976.209.114.553.012.851.392-1.704.441-2.659,1.81-2.974,3.616-.319-.195-.406-.725-.368-1.032Z" fill="#edaa83"/>
  <path d="M5.984,22.153c-.223.2-.285.518-.341.808-.284,1.458-1.163,1.68-2.337,2.149l-.78-.25c1.924-.559,2.762-1.676,3.156-3.628.24.263.198.648.302.921Z" fill="#f9ebb9"/>
  <path d="M7.856,4.981c-.391-.63-.763-.996-1.319-1.477.539-.329.865-.796,1.321-1.38.38.508.704,1.003,1.332,1.355-.502.508-1.001.876-1.334,1.502Z" fill="#f7c49c"/>
  <path d="M25.363,29.973c-.341-.565-.725-.965-1.27-1.448.501-.461.88-.801,1.259-1.45l1.348,1.388c-.503.467-.937.813-1.338,1.51Z" fill="#f1c67a"/>
  <path d="M27.523,7.132l-.658-.846.626-.76c.227.154.609.49.566.759-.047.291-.293.521-.534.847Z" fill="#f1c67a"/>
  <path d="M1.876,14.943c-.237-.165-.641-.509-.612-.773.031-.277.395-.518.598-.677l.765.714-.751.736Z" fill="#f1c67a"/>
</svg>
