<?xml version='1.0' encoding='utf-8'?>
<svg xmlns="http://www.w3.org/2000/svg" viewBox="0 0 32.321 32">
  <path d="M32.037,6.83c-.169-1.412-.47-2.912-1.513-4.309-1.194-1.598-3.192-1.935-4.955-2.232-.061-.01-.122-.021-.183-.031l.045-.151-.908-.002-.575-.105-.031.102c-.879-.004-1.758-.011-2.637-.019C16.56.042,11.68,0,6.773.545,3.262.935.838,3.199.448,6.453-.239,12.184-.011,18.015.307,23.982c.08,1.513.415,2.885.894,4.48l.07.234.197.144c.336.246.649.543.98.858.934.886,1.992,1.891,3.866,1.97l5.868.247,3.711.069c.588.011,1.165.016,1.73.016,3.44,0,6.458-.205,9.182-.622,3.108-.476,5.457-3.362,5.464-6.713l.016-7.379c.001-.758.01-1.508.018-2.25.031-2.822.061-5.486-.266-8.206ZM28.925,9.064l.241,3.661-.165,10.36h0c-.044,2.785-.805,4.376-2.462,5.138l-10.112.527-7.922-.107c-1.023-.014-1.948-.373-2.765-.691-.526-.205-1.769-.834-1.935-2.258l-.245-2.079-.012-.317c-.19-5.066-.386-10.304-.006-15.595.163-2.272,1.735-3.91,3.821-3.984l7.762-.275,9.024.029c1.523.005,2.796.369,3.493,1,.803.727,1.139,1.944,1.028,3.723l-.058.925.314-.057ZM25.165.936c0,.009-.002.012-.003.019-.058-.01-.115-.02-.172-.03l.175-.007c0,.006,0,.012,0,.017ZM24.301.509l.2.33-.045-.008h-.001s-.25-.075-.25-.075l-.095-.056c.045-.077.111-.143.191-.191Z" fill="#7e5545"/>
  <path d="M29.596,8.204l-.203.037c.088-1.411-.033-3.19-1.265-4.306-.985-.892-2.609-1.184-3.978-1.188l-9.024-.029-7.79.276c-2.578.091-4.337,2.111-4.52,4.657-.391,5.439-.181,10.711.017,15.991l.25,2.136c.168,1.437,1.211,2.391,2.393,2.85.899.349,1.885.724,3.018.74l7.922.107,10.294-.535c2.419-1.031,2.978-3.395,3.017-5.844l.165-10.36-.295-4.533ZM6.481,5.754c.989-.941,2.443-1.528,3.551-.404.762.774.281,2.18-.601,2.681-1.435.816-3.194,3.362-3.994,1.975-.914-1.583-.115-3.149,1.044-4.252ZM4.53,13.266c.497-.425,1.397-.273,1.706.148.302.412.215,1.203-.246,1.644-.389.371-.94.396-1.378.015-.417-.363-.739-1.245-.082-1.806Z" fill="#c2d6e7"/>
  <path d="M28.289,4.192c.77.709.804,1.96,1.059,2.881-2-.303-7.553-2.375-9.393-1.806-2.482-.24-9.434.667-10.167,1.185.117-.803-.294-2.016-1.441-1.843-1.489.225-3.257,2.069-2.719,3.613.353,1.013.006,1.252-.46,1.61-.316.243-.853.546-.955,1.188-.929,5.847,1.584,12.9,1.081,13.001-.731,2.699.621,3.57,1.816,5.237-1.594-.122-3.744-1.135-3.942-3.162-.585-6.001-.609-11.974-.338-17.998.133-2.953,2.075-4.944,4.997-5.041l7.626-.253,9.027.117c1.415.018,2.879.415,3.809,1.271Z" fill="#dfebf3"/>
  <path d="M9.43,8.032c-1.435.816-3.194,3.362-3.994,1.975-.914-1.583-.115-3.149,1.044-4.252.989-.941,2.443-1.528,3.551-.404.762.774.281,2.18-.601,2.681Z" fill="#fff"/>
  <path d="M4.53,13.266c.497-.425,1.397-.273,1.706.148.302.412.215,1.203-.246,1.644-.389.371-.94.396-1.378.015-.417-.363-.739-1.245-.082-1.806Z" fill="#fff"/>
</svg>
