<?xml version='1.0' encoding='utf-8'?>
<svg xmlns="http://www.w3.org/2000/svg" viewBox="0 0 33.007 32">
  <path d="M32.902,12.157c-.224-.709-.918-1.291-1.687-1.415l-8.809-1.418-1.487-3.067-2.662-5.215c-.332-.65-.998-1.04-1.784-1.042h-.008c-.747,0-1.398.407-1.742,1.09l-4.155,8.259c-3.502.445-6.274.888-8.962,1.435-.839.17-1.418.9-1.556,1.533-.161.737.064,1.485.617,2.052l5.977,6.122c.084.085.117.217.09.353l-1.113,5.568-.555,3.348c-.097.585.073,1.167.467,1.595.409.445,1.007.671,1.602.623.711-.002,1.282-.275,1.853-.579l7.449-3.97,8.055,4.248c.411.217.854.325,1.279.325.399,0,.783-.096,1.11-.288.717-.42,1.07-1.302.9-2.247l-1.572-8.852,6.108-6.196c.625-.634.837-1.457.583-2.259ZM24.46,21.327l1.54,8.412c.023.126.042.351-.087.451-.036.024-.188.05-.339-.027l-4.423-2.242-3.794-2.061c-.602-.328-1.244-.303-1.963.074l-8.12,4.266c-.073.038-.26.009-.379-.05-.02-.019-.059-.098-.047-.165l.644-3.691,1.058-5.31c.089-.444.044-1.127-.673-1.855l-5.732-5.829c-.107-.109-.153-.215-.223-.376-.026-.06-.053-.122-.084-.187-.008-.017-.009-.051.009-.087.015-.03.054-.083.147-.102,2.999-.613,5.812-1.064,8.6-1.38,1.042-.118,1.475-.722,1.787-1.356l3.856-7.828c.061-.124.223-.181.323-.147.104.036.163.133.297.399l1.587,3.101,2.237,4.623c.421.871,1.086,1.08,1.68,1.17l3.988.601,2.945.501c.129.022.262.042.397.062.505.076,1.028.154,1.512.415.021.118-.053.319-.156.424l-6.222,6.301c-.601.607-.442,1.475-.366,1.893Z" fill="#81614d"/>
  <path d="M24.934,3.914c-.176.341-.468.447-.729.386-.247-.057-.491-.43-.341-.72l1.109-2.144c.145-.281.539-.289.712-.197.256.137.384.47.235.76l-.986,1.916Z" fill="#81614d"/>
  <path d="M26.971,6.338c-.323.202-.739.079-.868-.194-.104-.22-.035-.556.254-.732l1.937-1.185c.242-.148.544.027.64.185.141.232.099.637-.175.809l-1.787,1.118Z" fill="#81614d"/>
  <path d="M18.793,5.169c-.464.033-.751-.114-1.043-.467-.13-.158-.342.117-.26.233.036.052.052.123.188.2l2.21,4.982c.39.879.929,1.472,1.929,1.814-1.913,3.187-4.002,6.032-6.54,8.476l-2.481,2.39c-1.234,1.188-2.617,2.119-4.035,2.967-.116-.014-.224.015-.403-.047l.345-1.837c.18-.958.293-1.892.178-2.837l-.709-.134c.118-.591-.169-1.101-.569-1.507L1.869,13.572c-.208-.211-.26-.417-.38-.667l2.93-.404,6.423-1.004c1.018-.159,1.459-.726,1.872-1.589l3.34-7.001c.245-.514.587-.915.633-1.436.285.097.396.354.517.59l1.59,3.109ZM13.467,11.421c.105-.004.34-.063.404-.23l2.327-6.044c-.705.106-.796.769-1.021,1.236l-1.245,2.587c-.455.946-1.328,2.485-.465,2.451ZM11.802,12.822c.167-.138.104-.409-.02-.515-.079-.067-.25-.188-.433-.16l-3.631.552c-.984.15-1.951.231-2.891.822,1.754.276,6.344-.177,6.976-.699Z" fill="#fad9b6"/>
  <path d="M23.347,19.439c-.187.449-.239.982-.134,1.53l1.39,7.209c-.456.141-.715-.176-1.038-.346l-4.18-2.212-1.942-1.063c-.665-.364-1.418-.381-2.09.002l-2.248,1.283-4.612,2.481c-.321.172-.577.301-.977.09l-.494,1.153c-.112.261-.31.414-.557.353l.646-3.701c.412.058.392-.461.644-.48.278-.021.502.337.777.261.093-.026.141-.185.228-.236,1.417-.848,2.801-1.778,4.035-2.967l2.481-2.39c.403.089.788.328,1.214.248l.295-.371c.097-.122.383-.09.458.107.076.2.126.398.262.501.154.117.554.135.623-.088.085-.276-.083-.531-.216-.853l1.25-.315c.715-.18,1.553.087,2.27-.196.426-.169.764-.42,1.256-.101.178.115.464.136.659.1Z" fill="#f7c49c"/>
  <path d="M18.793,5.169l2.237,4.623c.307.634.755.86,1.39.956-.1.35-.35.565-.645,1.055l3.904.582c.458.068.733-.665.736-1.034l2.945.501c-.046.316.027.64.284.969l-2.289,2.395-1.762,1.719-1.461,1.543c-.297.313-.635.601-.785.961-.195.036-.481.016-.659-.1-.491-.319-.83-.067-1.256.101-.717.284-1.555.016-2.27.196l-1.25.315c.133.322.302.577.216.853-.069.223-.469.205-.623.088-.136-.104-.186-.301-.262-.501-.075-.197-.361-.229-.458-.107l-.295.371c-.426.081-.81-.158-1.214-.248,2.538-2.444,4.627-5.289,6.54-8.476-1-.342-1.539-.935-1.929-1.814l-2.21-4.982c-.135-.077-.151-.148-.188-.2-.082-.116.129-.391.26-.233.292.353.579.5,1.043.467Z" fill="#f8cea6"/>
  <path d="M28.537,16.235l-3.437,3.471c-.412.416-.362.996-.26,1.551l1.54,8.411c.059.32.013.639-.232.828-.158.122-.478.149-.75.011l-4.432-2.247-3.794-2.061c-.537-.292-1.064-.204-1.598.077l-8.12,4.266c-.243.128-.58.03-.759-.063-.139-.072-.27-.322-.229-.561.246.061.445-.092.557-.353l.494-1.153c.4.211.656.082.977-.09l4.612-2.481,2.248-1.283c.672-.384,1.425-.366,2.09-.002l1.942,1.063,4.18,2.212c.322.17.581.487,1.038.346l-1.39-7.209c-.106-.548-.054-1.081.134-1.53.15-.36.488-.648.785-.961l1.461-1.543,1.762-1.719c.574-.031,1.159.407,1.183,1.02Z" fill="#edaa83"/>
  <path d="M16.685,1.47c-.046.521-.388.922-.633,1.436l-3.34,7.001c-.412.864-.854,1.43-1.872,1.589l-6.423,1.004-2.93.404c-.13-.272.038-.656.428-.735,2.861-.585,5.717-1.055,8.634-1.386.773-.088,1.15-.465,1.484-1.142l3.857-7.828c.147-.299.514-.438.795-.343Z" fill="#fbf3db"/>
  <path d="M28.537,16.235c-.024-.613-.609-1.051-1.183-1.02l2.289-2.395c-.257-.33-.33-.654-.284-.969.626.106,1.347.164,1.971.457.43.201.262.823-.007,1.097l-2.786,2.83Z" fill="#f7c49c"/>
  <path d="M8.76,25.763c-.087.052-.135.211-.228.236-.275.076-.499-.283-.777-.261-.252.019-.232.539-.644.48l1.059-5.31.709.134c.115.946.002,1.879-.178,2.837l-.345,1.837c.179.062.286.033.403.047Z" fill="#f8cea6"/>
  <path d="M26.414,11.35c-.003.369-.278,1.103-.736,1.034l-3.904-.582c.294-.49.545-.705.645-1.055l3.995.603Z" fill="#f7c49c"/>
  <path d="M11.802,12.822c-.631.523-5.222.976-6.976.699.94-.59,1.908-.672,2.891-.822l3.631-.552c.184-.028.354.093.433.16.124.105.187.376.02.515Z" fill="#fbf3db"/>
  <path d="M13.467,11.421c-.863.034.01-1.505.465-2.451l1.245-2.587c.225-.467.315-1.13,1.021-1.236l-2.327,6.044c-.064.167-.299.226-.404.23Z" fill="#fbf3db"/>
</svg>
