<?xml version='1.0' encoding='utf-8'?>
<svg xmlns="http://www.w3.org/2000/svg" viewBox="0 0 32.578 32">
  <path d="M24.754,12.426c1.484,3.543.597,7.583-2.125,10.195s-6.874,3.273-10.386,1.595c-4.302-2.055-6.27-7.021-4.557-11.494,1.351-3.527,4.701-5.766,8.368-5.867,3.713-.103,7.237,2.079,8.7,5.571ZM11.622,9.311c-1.283.901-2.32,2.139-2.9,3.601-.047.12-.153.234-.153.378v.127c-.91,2.422-.503,5.207,1.003,7.273,1.911,2.623,5.024,3.939,8.344,3.299,3.647-.703,6.356-3.884,6.544-7.568.183-3.566-2.157-7.295-5.685-8.075-2.399-.912-5.097-.478-7.152.965Z" fill="#81614d"/>
  <path d="M3.677,24.386c-.59.348-1.193.173-1.502-.3-.267-.409-.281-1.174.285-1.512l3.188-1.904c.534-.319,1.219.01,1.419.402.262.512.198,1.2-.334,1.514l-3.056,1.8ZM3.525,23.746l2.843-1.687c.258-.153.221-.548.093-.701-.089-.107-.341-.241-.558-.111l-3,1.786c-.254.151-.269.517-.083.722.119.13.373.19.706-.008Z" fill="#81614d"/>
  <path d="M31.458,17.054l-3.516.007c-.616.001-1.013-.451-1.103-.983-.086-.512.3-1.182.942-1.183l3.757-.006c.639,0,1.034.55,1.04,1.072.007.561-.38,1.093-1.12,1.094ZM31.453,16.412c.387-.001.532-.41.434-.617-.066-.14-.252-.274-.51-.274l-3.264-.005c-.39,0-.596.123-.605.441-.007.221.118.466.438.465l3.507-.01Z" fill="#81614d"/>
  <path d="M4.877,17.013l-3.991.024C.272,17.041-.003,16.424,0,15.957c.003-.488.289-1.055.912-1.055h3.87c.56,0,.86.489.908.895.054.456-.151,1.213-.813,1.216ZM4.697,16.389c.326-.002.4-.472.312-.591-.064-.086-.168-.254-.387-.255l-3.572-.024c-.271-.002-.429.268-.416.435.011.145.178.455.433.453l3.631-.018Z" fill="#81614d"/>
  <path d="M25.385,21.169l-.022-.154c.414-.307,1.004-.665,1.554-.341l3.12,1.84c.578.341.691,1.123.313,1.647-.312.432-.934.521-1.487.203l-2.822-1.624c-.614-.353-.811-.958-.656-1.571ZM29.218,23.843c.282.166.559-.03.63-.192.08-.181.028-.485-.178-.606l-3.015-1.761c-.278-.162-.574.012-.642.176-.069.167-.016.495.188.614l3.017,1.769Z" fill="#81614d"/>
  <path d="M11.275,5.364c.369.642.186,1.361-.341,1.618-.576.281-1.236.149-1.571-.447l-1.66-2.95c-.312-.554-.081-1.253.382-1.489.609-.31,1.256-.1,1.604.505l1.587,2.763ZM10.778,5.876l-1.689-3.007c-.162-.289-.529-.311-.699-.15-.108.102-.218.367-.093.586l1.681,2.938c.124.217.407.277.554.212.126-.056.396-.311.246-.578Z" fill="#81614d"/>
  <path d="M23.171,6.555c-.337.602-1.073.681-1.545.451-.505-.247-.751-.962-.424-1.517l1.835-3.106c.283-.479.99-.537,1.46-.286.345.184.686.868.412,1.356l-1.738,3.102ZM22.576,6.285l1.712-2.985c.163-.283-.042-.573-.205-.647-.182-.083-.49-.015-.607.192l-1.673,2.957c-.13.23-.048.525.081.626.141.11.535.132.693-.143Z" fill="#81614d"/>
  <path d="M17.399,4.299c.002.686-.376,1.177-.872,1.27-.569.107-1.321-.211-1.326-.873l-.029-3.548c-.006-.675.486-1.119,1.055-1.146.668-.032,1.158.438,1.161,1.174l.011,3.123ZM16.748,4.433V1.164c0-.326-.274-.529-.514-.492-.188.028-.401.216-.402.488l-.017,3.226c-.002.323.159.536.4.568.226.031.534-.144.534-.52Z" fill="#81614d"/>
  <path d="M26.959,11.175c-.574.334-1.29-.011-1.493-.424-.23-.469-.14-1.144.376-1.443l3.135-1.819c.532-.309,1.224-.038,1.436.357.294.548.158,1.232-.379,1.543l-3.075,1.786ZM26.803,10.547l2.868-1.684c.249-.146.301-.497.098-.711-.117-.123-.371-.157-.635-.006l-2.939,1.687c-.226.13-.226.485-.121.632.111.157.413.267.728.082Z" fill="#81614d"/>
  <path d="M21.44,24.959c.051.006.171.019.228-.003.046-.017.081-.076.089-.142.608-.084,1.157.123,1.494.728l1.695,3.042c.295.53-.165,1.19-.615,1.382-.402.171-1.055.028-1.323-.425l-1.591-2.68c-.392-.661-.433-1.347.024-1.901ZM24.244,28.568l-1.659-2.877c-.154-.267-.472-.273-.65-.149-.148.104-.284.361-.157.587l1.609,2.871c.161.287.422.398.639.325.289-.098.418-.411.218-.758Z" fill="#81614d"/>
  <path d="M6.583,9.22c.614.35.768,1.043.464,1.59-.289.521-1.002.674-1.601.316l-2.888-1.727c-.507-.303-.685-.884-.502-1.361.194-.505.881-.893,1.439-.576l3.087,1.758ZM5.785,10.613c.252.15.541.096.66-.06.129-.169.151-.553-.082-.69l-3.013-1.765c-.263-.154-.598-.005-.655.166-.06.181.003.508.198.624l2.892,1.724Z" fill="#81614d"/>
  <path d="M9.602,29.481c-.33.569-1.036.649-1.47.436-.481-.236-.768-.948-.469-1.466l1.74-3.016c.339-.588,1.007-.746,1.516-.478.557.293.748.96.412,1.541l-1.728,2.984ZM9.166,29.043l1.613-2.944c.145-.265-.042-.543-.24-.609-.156-.052-.419.002-.534.2l-1.706,2.912c-.17.29-.039.688.228.754.197.048.473-.007.64-.313Z" fill="#81614d"/>
  <path d="M17.381,30.7c.007.76-.393,1.239-.996,1.296-.585.055-1.188-.379-1.191-1.086l-.016-3.376c-.003-.617.414-1.066.919-1.15.597-.099,1.245.268,1.252.956l.032,3.36ZM16.775,30.774l-.02-3.225c-.002-.319-.173-.483-.381-.53-.222-.05-.548.038-.55.346l-.015,3.409c-.002.39.241.61.573.564.241-.033.395-.23.393-.565Z" fill="#81614d"/>
  <path d="M18.774,8.346c3.529.78,5.868,4.509,5.685,8.075-.189,3.684-2.897,6.865-6.544,7.568-3.32.64-6.433-.677-8.344-3.299-.099-1.44-.959-2.175-.852-4.308.053-1.044-.154-2.023-.151-2.965v-.127c.179-.005.222-.225.154-.378.58-1.461,1.617-2.7,2.9-3.601.984-.036,2.123-.939,3.311-.945l3.842-.02ZM15.554,9.996c.364-.08.52-.393.392-.703-.101-.245-.317-.257-.65-.222-4.521.471-6.276,5.624-4.919,5.603.754-.011,1.044-3.774,5.177-4.679Z" fill="#f6c375"/>
  <path d="M9.571,20.69c-1.505-2.066-1.913-4.851-1.003-7.273-.003.942.204,1.92.151,2.965-.107,2.133.754,2.868.852,4.308Z" fill="#e0b695"/>
  <path d="M18.774,8.346l-3.842.02c-1.187.006-2.326.909-3.311.945,2.055-1.443,4.753-1.877,7.152-.965Z" fill="#e0b695"/>
  <path d="M8.569,13.29c0-.144.106-.258.153-.378.069.153.025.373-.153.378Z" fill="#e0b695"/>
  <path d="M3.525,23.746c-.333.197-.587.138-.706.008-.186-.204-.171-.57.083-.722l3-1.786c.217-.129.469.005.558.111.128.153.166.548-.093.701l-2.843,1.687Z" fill="#f6c375"/>
  <path d="M31.453,16.412l-3.507.01c-.32,0-.445-.244-.438-.465.01-.318.216-.442.605-.441l3.264.005c.258,0,.444.134.51.274.098.207-.048.616-.434.617Z" fill="#f6c375"/>
  <path d="M4.697,16.389l-3.631.018c-.255.001-.422-.308-.433-.453-.013-.167.145-.437.416-.435l3.572.024c.22.002.324.169.387.255.088.119.014.59-.312.591Z" fill="#f6c375"/>
  <path d="M29.218,23.843l-3.017-1.769c-.204-.12-.257-.447-.188-.614.068-.164.364-.338.642-.176l3.015,1.761c.206.12.258.425.178.606-.071.162-.348.357-.63.192Z" fill="#f6c375"/>
  <path d="M10.778,5.876c.15.267-.119.523-.246.578-.147.065-.43.005-.554-.212l-1.681-2.938c-.125-.219-.015-.484.093-.586.17-.161.537-.139.699.15l1.689,3.007Z" fill="#f6c375"/>
  <path d="M22.576,6.285c-.158.275-.552.254-.693.143-.129-.101-.211-.396-.081-.626l1.673-2.957c.117-.207.425-.275.607-.192.163.074.368.364.205.647l-1.712,2.985Z" fill="#f6c375"/>
  <path d="M16.748,4.433c0,.376-.308.551-.534.52-.24-.033-.401-.245-.4-.568l.017-3.226c.001-.272.215-.46.402-.488.24-.036.514.166.514.492v3.269Z" fill="#f6c375"/>
  <path d="M26.803,10.547c-.316.185-.617.075-.728-.082-.104-.147-.105-.502.121-.632l2.939-1.687c.264-.152.518-.118.635.006.203.214.15.565-.098.711l-2.868,1.684Z" fill="#f6c375"/>
  <path d="M24.244,28.568c.2.347.071.66-.218.758-.217.073-.478-.038-.639-.325l-1.609-2.871c-.127-.226.009-.483.157-.587.178-.124.496-.119.65.149l1.659,2.877Z" fill="#f6c375"/>
  <path d="M5.785,10.613l-2.892-1.724c-.195-.116-.259-.443-.198-.624.057-.171.392-.32.655-.166l3.013,1.765c.233.137.211.521.082.69-.119.156-.407.21-.66.06Z" fill="#f6c375"/>
  <path d="M9.166,29.043c-.167.305-.443.361-.64.313-.267-.066-.398-.464-.228-.754l1.706-2.912c.116-.197.379-.252.534-.2.198.066.385.344.24.609l-1.613,2.944Z" fill="#f6c375"/>
  <path d="M16.775,30.774c.002.335-.152.532-.393.565-.332.046-.574-.174-.573-.564l.015-3.409c.001-.308.328-.396.55-.346.208.047.379.211.381.53l.02,3.225Z" fill="#f6c375"/>
  <path d="M15.554,9.996c-4.133.905-4.423,4.667-5.177,4.679-1.357.021.399-5.132,4.919-5.603.333-.035.549-.023.65.222.128.309-.028.623-.392.703Z" fill="#f6dfca"/>
</svg>
