<?xml version='1.0' encoding='utf-8'?>
<svg xmlns="http://www.w3.org/2000/svg" viewBox="0 0 43.151 32">
  <path d="M34.953,30.894c-.365.092-1.054-.225-1.432.058l-4.183-.052-3.792-.011-5.567.022h-1.461s-.632.011-.632.011l-1.657-.007-1.251-.02-1.461-.123c-.831-.07-1.414-.834-1.407-1.693l.039-4.692c.009-1.051.169-2.022.359-2.965.441-.015.912.202,1.414-.007l1.743-3.462c.312-.01.726.049.881-.097.307-.29,1.051-1.891.48-2.33.529-.415,1.219-1.063,1.294-1.79l.242-2.343c.717-.201,1.478-.136,2.19.011v1.476c-.001.555.374.958.933.966l5.569.078c.412.006.699-.341.713-.726l.069-1.821c.773-.133,1.5-.169,2.225-.066l.298,2.237c.33,2.473,6.142,3.408,6.208,9.35l.066,5.987c.016,1.42-.671,1.705-1.882,2.011ZM24.936,28.276l.593-.15c2.959-.36,5.039-2.859,4.983-5.91-.051-2.756-1.825-5.19-4.531-5.75-2.074-.43-4.053.034-5.59,1.439-1.394,1.274-2.336,3.202-1.996,5.332.495,3.109,3.434,5.313,6.541,5.04Z" fill="#c5bea1"/>
  <path d="M16.922,15.211l-2.402,1.883c-1,.784-1.726,2.087-1.978,3.332l-.138.681c.441-.015.912.202,1.414-.007l1.743-3.462c.312-.01.726.049.881-.097.307-.29,1.051-1.891.48-2.33Z" fill="#fff"/>
  <path d="M30.169,7.697c-3.43-1.003-9.957-1.011-13.083.562-2.794,1.406-1.399,4.015-1.715,4.817-.258.656-1.11,1.163-1.87,1.368-2.072.56-4.139.899-6.216.396-1.658-4.685.862-8.743,5.321-10.66,7.921-3.405,16.956-3.361,24.65.591,3.742,1.922,5.403,6.397,3.801,10.203-2.333.34-4.535-.088-6.675-.822-2.397-.822-.314-3.533-1.639-5.045-.67-.765-1.609-1.128-2.574-1.41ZM13.658,5.452c1.238-.544,2.605-.65,3.828-1.618-2.566-.16-4.851.958-6.869,2.332-1.265.861-2.245,1.984-2.416,3.603,1.947-.21,1.661-2.648,5.458-4.317Z" fill="#c5bea1"/>
  <path d="M40.865,5.433l-.094-.068c-.295-.12-.603-.443-.901-.755-.24-.251-.488-.511-.751-.693-1.804-1.24-3.873-2.125-6.708-2.868-6.089-1.598-12.329-1.367-18.019.661l-.82.194-.162.022-.02.176c-.014.011-.075.027-.144.019l-.058-.009-.055.019c-.227.074-.456.19-.678.302-.198.1-.386.195-.561.256l-.794.275-.202.124c-1.332.883-2.59,1.715-3.578,2.972-.69.877-1.149,1.756-1.406,2.69l-.743,2.7c-.946.067-1.858.536-2.586,1.333-.973,1.066-1.495,2.565-1.41,4.028-1.458,1.78-1.567,4.032-.278,5.558-.365,1.17-.262,2.304.296,3.205l.144.234.066.072c.492.358.946.609,1.477.877l1,.505c.139.071.247.323.352.568.118.276.24.561.457.754,2.096,1.873,4.571,1.064,5.626.718.13-.042.272-.088.344-.117.007.054.008.122,0,.171-.168,1.068.817,1.969,1.815,2.358.637.217,1.26.251,1.991.23l1.55-.043.745.057.834.012,1.012-.014.443.013,5.2-.015,2.689.044,1.234-.045,7.346-.033.416-.064.103-.04c.077-.052.174-.092.329-.133.944-.345,1.576-1.136,1.649-2.066l.132-1.709-.173-5.767c-.074-2.467-1.013-4.546-2.81-6.199l-.924-.683c.26.099.517.173.759.222l1.925.389,3.1.277c.968.084,1.843-.374,2.538-1.333l.033-.065c1.145-3.283.498-6.766-1.731-9.318ZM32.986,8.615c-.722-.826-1.721-1.202-2.692-1.486-1.565-.457-3.72-.707-5.91-.707-2.769,0-5.594.4-7.356,1.286-2.194,1.104-1.981,2.967-1.854,4.081.042.365.081.71.019.869-.23.583-1.043,1.04-1.702,1.218-1.766.477-3.85.898-5.958.426-1.429-4.233.611-8.234,5.228-10.218,8.062-3.465,16.969-3.251,24.436.585,3.575,1.836,5.197,6.095,3.738,9.751-1.966.259-4.01-.005-6.416-.831-1.119-.384-1.119-1.162-1.026-2.399.065-.862.138-1.84-.506-2.574ZM6.509,24.737c-.004.143-.046.275-.125.393-.145.216-.41.373-.709.417l-.165.024c.215-.394.573-.695.999-.835ZM6.365,26.952l.31-.038.056-.045c1.653-1.341,1.486-2.416,1.055-3.081-.235-.363-.784-.713-1.454-.63-1.292.168-2.287,1.173-2.461,2.441-.035-.013-.072-.027-.108-.045-1.159-.558-1.634-1.331-1.446-2.359.696.133,1.474.268,2.24-.007.878-.311,1.412-1.059,1.355-1.929-.114-.696-.489-1.215-1.006-1.388-1.068-.36-2.161-.083-3.252.819-.242-.808-.131-1.613.337-2.444.694.533,1.426.783,2.281.783h.005c.587-.002,1.192-.296,1.541-.749.393-.512.663-1.335.127-1.972-.618-.734-1.641-.946-2.326-.829l-.834.139c.084-.526.353-.911.647-1.288.431-.553.833-.848,1.221-1.134.241-.176.471-.346.689-.562.135.107.16.376.164.504.057,1.782,1.211,2.948,2.939,2.971l2.33.024.702-.152c.803-.172,1.562-.335,2.485-.603.243-.072.47-.152.681-.241-1.001.778-2.094,1.795-2.927,3.146l-.03.072c-.081.328-.188.684-.3,1.055-.279.929-.596,1.981-.621,2.988l-.125,5.052-1.27.486c-1.231.47-2.834.416-3.793-.696l.785-.286ZM3.853,21.78c-.259.067-.576.031-.892-.099.34-.25.829-.456,1.387-.235-.136.169-.301.281-.494.334ZM4.536,17.143c-.132.251-.456.318-.735.302-.28-.022-.537-.135-.652-.275.317-.189.852-.264,1.194-.152.071.024.155.064.193.125ZM12.295,24.075c.009-1.068.176-2.034.355-2.917l.138-.681c.253-1.251.975-2.472,1.886-3.186l2.402-1.884c.868-.68,1.322-1.321,1.389-1.961l.224-2.168c.487-.106,1.05-.101,1.708.018v1.269c-.001.696.495,1.207,1.18,1.217l5.569.078c.523-.02.946-.416.968-.966l.061-1.617c.636-.095,1.215-.114,1.76-.055l.272,2.044c.139,1.041,1.108,1.8,2.231,2.677,1.753,1.371,3.936,3.079,3.975,6.642l.067,5.987c.013,1.213-.48,1.459-1.693,1.766-.097.024-.276,0-.449-.025-.313-.046-.694-.098-.995.074l-4.109-.051-3.794-.012-5.566.023-2.092.011-2.888-.025-1.461-.123c-.667-.057-1.184-.69-1.177-1.442l.039-4.692ZM31.862,12.471l-.359-1.793-.046-.102c-.762-1.01-2.39-1.257-3.537-.978-.665.163-1.086.494-1.155.909l-.272,1.627-4.277-.09-.341-2.106-.143-.049c-1.38-.466-2.81-.464-3.828.003-.586.269-.691.899-.813,1.63-.094.563-.201,1.209-.55,1.832.037-.094.069-.19.096-.289.169-.61.118-1.183.071-1.689-.077-.853-.134-1.469.775-2.017,1.617-.974,4.097-1.264,6.478-1.264,2.239,0,4.391.257,5.651.442.318.047.712.253,1.093.453.161.084.317.167.466.235.555.258.773.618.753,1.247l-.062,1.998Z" fill="#825e4e"/>
  <path d="M26.265,14.7c-2.59-.537-5.061.043-6.981,1.798-1.741,1.591-2.917,3.999-2.493,6.658.619,3.882,4.289,6.635,8.168,6.294l.741-.187c3.696-.449,6.293-3.57,6.223-7.381-.063-3.441-2.28-6.481-5.658-7.181ZM28.364,26.579c-.551.394-1.019.775-1.628.989-.65.228-1.339.438-2.051.393l-1.831-.115c-.527-.033-.901-.254-1.298-.49l-.858-.51c-2.062-1.225-2.825-3.959-2.232-6.366.518-2.103,2.339-3.87,4.683-4.33,2.847-.558,5.489.752,6.693,3.161,1.24,2.483.782,5.652-1.478,7.267Z" fill="#825e4e"/>
  <path d="M13.712,5.125c-3.797,1.669-3.511,4.107-5.458,4.317.171-1.619,1.151-2.742,2.416-3.603,2.018-1.373,4.304-2.491,6.869-2.332-1.223.968-2.59,1.074-3.828,1.618Z" fill="#fff"/>
  <path d="M26.779,24.47c.426-.131,1.151.333,1.309.683.195.431.329.872.276,1.425-.551.394-1.019.775-1.628.989-.65.228-1.339.438-2.051.393l-1.831-.115c.124-.336-.147-.506-.492-.596-.202-.053-.532-.311-.806.106l-.858-.51c-.004-.537-.341-1.121.071-1.703.81.416,1.624.569,2.149.092,1.427.325,2.655-.035,3.861-.765Z" fill="#fefffe"/>
  <path d="M22.854,27.846c-.527-.033-.901-.254-1.298-.49.274-.417.604-.158.806-.106.344.09.616.26.492.596Z" fill="#fcece0"/>
  <path d="M23.735,18.462l.948-.029c1.167-.036,2.191.725,2.683,1.881.617,1.451.225,2.932-.587,4.157-1.206.73-2.435,1.09-3.861.765-1.502-.74-2.383-2.065-2.162-3.754.201-1.533,1.378-2.969,2.979-3.019ZM24.761,23.849c1.405-.333,1.913-1.766,1.395-2.973-.406-.946-1.805-1.648-2.906-1.019-1.004.573-1.24,1.73-.869,2.695.321.838,1.209,1.575,2.38,1.297Z" fill="#825e4e"/>
  <path d="M24.761,23.849c-1.172.277-2.059-.459-2.38-1.297-.37-.965-.135-2.122.869-2.695,1.101-.628,2.5.073,2.906,1.019.518,1.206.01,2.64-1.395,2.973Z" fill="#fcece0"/>
  <path d="M29.842,19.312c-1.204-2.409-3.845-3.719-6.693-3.161-2.344.459-4.165,2.227-4.683,4.33-.593,2.406.17,5.14,2.232,6.366-.004-.537-.341-1.121.071-1.703.81.416,1.624.569,2.149.092-1.502-.74-2.383-2.065-2.162-3.754.201-1.533,1.378-2.969,2.979-3.019l.948-.03c1.167-.036,2.191.725,2.683,1.881.617,1.451.225,2.932-.587,4.157.426-.131,1.151.333,1.309.683.195.431.329.872.276,1.425,2.26-1.615,2.718-4.784,1.478-7.267Z" fill="#fcece0"/>
  <path d="M26.6,24.625l.739-.595c.477.266,1.06.544,1.338,1.257.126.324-.533.962-.897.83-.65-.236-.962-.964-1.18-1.492Z" fill="#a59085"/>
</svg>
