<?xml version='1.0' encoding='utf-8'?>
<svg xmlns="http://www.w3.org/2000/svg" viewBox="0 0 34.931 32">
  <path d="M27.374,16.181c.996,1.752,1.804,3.661,3.024,5.299.127.414.265.923.667,1.177-.034.404.243.804.499,1.012.084.072.209.276.258.375l1.614,3.289c.355.725.23,1.481-.15,2.161-.293.524-1.059.983-1.923.993l-13.249.242c-1.544-.067-3.158-.111-4.807-.088l-9.738-.223c-.718-.015-1.307-.323-1.722-.728-.082-.744.003-1.56.434-2.294,1.39-2.368,2.705-4.677,3.741-7.117l1.579-2.531,2.872-5.13L15.93,3.351c.562-.955,1.281-1.558,2.187-1.995.589.149,1.199.655,1.576,1.318l7.681,13.508ZM13.363,26.66c-.17.155-.167.834.025.893l4.597.076c.293.005.643-.127.791-.316.116-.148.087-.491.143-.712l9.745.017L18.119,7.16c-.149-.276-.446-.432-.624-.42-.154.01-.326.184-.434.376l-4.475,7.873-6.277,11.424,7.054.246Z" fill="#e5bf85"/>
  <path d="M15.651,2.618L5.583,20.128l-2.99,5.431-.969,1.904c-.395.776-.326,1.694.222,2.228-.082-.744.003-1.56.434-2.294,1.39-2.368,2.705-4.678,3.741-7.117l1.579-2.531,2.872-5.13L15.93,3.351c.562-.955,1.281-1.558,2.187-1.995-1.004-.254-1.897.272-2.465,1.262Z" fill="#fdebd4"/>
  <path d="M34.735,26.981l-1.517-2.88-2.405-4.363-1.98-3.588L20.857,1.996C20.189.809,19.069.069,17.89.006c-1.248-.067-2.666.428-3.393,1.71L1.499,24.626c-.538,1.075-1.254,1.935-1.424,3.158-.414,2.011.931,3.927,3.051,3.978l9.871.238,8.944-.004,9.428-.146c1.236-.019,2.207-.673,2.838-1.448.786-.966.882-2.22.528-3.422ZM33.285,29.494c-.293.524-1.059.983-1.923.993l-13.249.242c-1.544-.067-3.158-.111-4.807-.088l-9.738-.223c-.718-.015-1.307-.323-1.722-.728-.548-.535-.617-1.453-.222-2.228l.969-1.904,2.99-5.431L15.651,2.618c.569-.989,1.461-1.515,2.465-1.262.589.149,1.199.655,1.576,1.318l7.681,13.508c.996,1.752,1.804,3.661,3.024,5.299.127.414.265.923.667,1.177-.034.404.243.804.499,1.012.084.072.209.276.258.375l1.614,3.289c.355.725.23,1.481-.15,2.161Z" fill="#785847"/>
  <path d="M18.918,26.599l-5.555.06-7.054-.246,6.277-11.424,4.475-7.873c.109-.191.28-.365.434-.376.178-.012.475.144.624.42l10.544,19.456-9.745-.017ZM17.079,9.734l-8.579,15.549,17.98.044-8.464-15.54c-.273-.076-.208-.413-.23-.543-.033-.191-.382-.259-.474-.047l-.234.537Z" fill="#785847"/>
  <path d="M18.918,26.599c-.055.221-.027.564-.143.712-.148.189-.498.321-.791.316l-4.597-.076c-.192-.059-.194-.738-.025-.893l5.555-.06Z" fill="#e4a867"/>
</svg>
