<?xml version='1.0' encoding='utf-8'?>
<svg xmlns="http://www.w3.org/2000/svg" viewBox="0 0 21.944 32">
  <path d="M13.445,2.842l3.482,5.771,2.536,4.426c1.818,3.173,2.858,6.655,2.354,10.328-.298,2.169-1.237,4.182-2.872,5.648-4.099,3.677-10.31,4.005-14.738.724C1.602,27.808-.074,24.169.002,20.96c.085-3.599,2.498-8.225,4.406-11.414L9.339,1.305c.685.139,1.266-1.331,2.09-.68.738.582,1.078,1.865,2.016,2.217ZM4.942,11.741l-1.865,3.723c-.559,1.115-.999,2.353-1.218,3.565-.844,2.366.094,5.746,1.61,7.724l1.478,1.563c.511.541,1.215.881,1.903,1.196,1.177.538,2.494.848,3.787.873l1.285.025.814-.12,2.094-.548c.175-.046.277-.117.351-.201,1.531-.559,2.875-1.678,3.863-3.098.835-1.2,1.219-2.641,1.321-4.105l.02-1.519-.026-.4-.113-.803-.021-.128c-.031-.187-.044-.372-.112-.549-.034-.089-.055-.183-.104-.27.181-1.706-2.101-4.959-3.062-6.725l-1.496-2.751-1.296-2.34-3.258-5.157-5.955,10.047Z" fill="#7a5d3e"/>
  <path d="M13.445,2.842c-.938-.352-1.278-1.635-2.016-2.217-.824-.65-1.406.82-2.09.68.108-.322.351-.601.627-.894.508-.538,1.295-.56,1.811.007.663.729,1.201,1.558,1.669,2.424Z" fill="#7a5d3e"/>
  <path d="M15.451,9.192l1.496,2.751c.96,1.766,3.243,5.019,3.062,6.725l-.021.197c-.006.056.035.108.125.073.069.178.082.362.112.549-.195.021-.093.185.021.128l.113.803c-.133.011-.14.099-.146.2-.007.13.041.211.171.201l-.02,1.519-.161-.572c.082-.53-.071-1.09-.466-1.4l-1.303-1.022c.134-.251.362-.517.305-.695-.121-.374-.487-.327-.744-.38-.961-.197-1.47.086-1.848.89-.206.439-.543.796-.398,1.418.049.21-.193.797-.455.655-.402-.218-.33-.916-.389-1.258l-.218-1.258-1.157-1.773c-.6-.92-1.783-.677-2.277-1.758-.143-.312-.295-.897-.651-1.023-.467-.166-.732.399-.961.574-.495.377-.323.678-.341,1.148l-.09,2.352c-.439.212-1.146.381-1.341.863-.219.542-.239,1.101.189,1.569l-.364.991c-.191.519.023,1.277.295,1.743l1.029.313c.622.189,1.198-.165,1.799-.283.556-.109,1.264.229,1.474.753l-.039.505c-.007.095.433.184.452.312.136.877-1.718.477-2.36,2.26-.065.18-.338.31-.294.562.056.319.216.363.512.509.687.338,1.333.526,2.05.08l1.001.483c.324.156.339.625.903.506.164-.035.455-.088.664.14-.073.084-.175.155-.351.201l-2.094.548c-.109-.145-.282-.134-.463-.14-.17-.006-.356.019-.351.26l-1.285-.025c.037-.448-.094-.834-.543-1.046-.681-.322.289-1.319-.571-1.266-.736-.082-1.33-.457-1.827-.891-.168-.679-.859-1.123-1.514-1.445-.237-.034-.428.058-.542.201-.062.079-.089.236-.122.343-1.138.664-2.084-.212-2.049.472-1.516-1.978-2.454-5.358-1.61-7.724.054.248.05.742.194.956.567.843-.005,2.171,1.401,2.235.231,1.785,1.149,3.025,1.693,2.275.11-.152.237-.501.15-.745-1.122-3.16-.429-5.549.407-8.673-.213-.306-.808-.111-.925.25-.582-.086-1.175.006-1.702.137l1.865-3.723c.269-.039.501-.134.754-.125.291.01.401.297.605.547l1.049.535c.304.155.42.559.848.664l1.469.358,1.844-.143c-.175-.502.311-.752.405-1.023.304-.882.56-1.529,1.239-2.147l.943-1.185c.42-.253.958-.17,1.352-.03Z" fill="#c2d6e7"/>
  <path d="M20.365,22.337c-.102,1.464-.486,2.905-1.321,4.105-.988,1.421-2.333,2.539-3.863,3.098-.209-.228-.5-.175-.664-.14-.564.119-.579-.349-.903-.506l-1.001-.483c-.717.446-1.364.258-2.05-.08-.296-.146-.457-.19-.512-.509-.044-.253.229-.382.294-.562.642-1.783,2.496-1.383,2.36-2.26-.02-.128-.46-.217-.452-.312l.039-.505c-.209-.524-.917-.862-1.474-.753-.601.118-1.177.472-1.799.283l-1.029-.313c-.271-.466-.485-1.224-.295-1.743l.364-.991c-.428-.468-.408-1.027-.189-1.569.195-.483.902-.652,1.341-.863l.09-2.352c.018-.47-.154-.771.341-1.148.23-.175.494-.739.961-.574.356.126.509.711.651,1.023.494,1.082,1.677.838,2.277,1.758l1.157,1.773.218,1.258c.059.341-.013,1.04.389,1.258.261.141.503-.446.455-.655-.145-.622.192-.978.398-1.418.377-.804.887-1.087,1.848-.89.258.053.623.006.744.38.058.179-.171.444-.305.695l1.303,1.022c.395.31.548.87.466,1.4l.161.572Z" fill="#b6cfe2"/>
  <path d="M15.451,9.192c-.394-.14-.931-.223-1.352.03l-.943,1.185c-.68.618-.935,1.265-1.239,2.147-.094.271-.58.521-.405,1.023l-1.844.143-1.469-.358c-.428-.104-.545-.509-.848-.664l-1.049-.535c-.204-.25-.314-.537-.605-.547-.254-.009-.485.086-.754.125L10.897,1.694l3.258,5.157,1.296,2.34Z" fill="#dfebf3"/>
  <path d="M5.518,26.281c.154.597.666,1.137,1.326,1.243.366.059.694-.076.852-.343.497.434,1.09.809,1.827.891.86-.053-.11.943.571,1.266.448.212.58.598.543,1.046-1.293-.025-2.61-.335-3.787-.873-.08-.939.279-2.017-.057-1.853l-.291.143c-.614.058-1.057.244-1.555.515l-1.478-1.563c-.035-.684.911.192,2.049-.472Z" fill="#dfebf3"/>
  <path d="M4.779,15.326l-.22.675c-.92,1.953-1.383,4.064-1.105,6.218-1.406-.063-.834-1.392-1.401-2.235-.144-.214-.141-.708-.194-.956.219-1.212.66-2.45,1.218-3.565.527-.131,1.12-.223,1.702-.137Z" fill="#b6cfe2"/>
  <path d="M6.85,29.512c-.688-.314-1.392-.655-1.903-1.196.498-.27.941-.456,1.555-.515l.291-.143c.336-.165-.023.913.057,1.853Z" fill="#c2d6e7"/>
  <path d="M12.735,30.29l-.814.12c-.005-.241.181-.266.351-.26.181.006.354-.005.463.14Z" fill="#c1d1bf"/>
  <path d="M20.385,20.818c-.13.011-.178-.07-.171-.201.005-.1.012-.188.146-.2l.026.4Z" fill="#c1d1bf"/>
  <path d="M20.113,18.937c-.09.035-.131-.017-.125-.073l.021-.197c.049.086.07.181.104.27Z" fill="#c1d1bf"/>
  <path d="M20.247,19.615c-.114.056-.216-.107-.021-.128l.021.128Z" fill="#c1d1bf"/>
  <path d="M3.454,22.22c-.278-2.154.185-4.265,1.105-6.218l.22-.675c.118-.361.713-.556.925-.25-.836,3.124-1.529,5.514-.407,8.673.087.244-.041.593-.15.745-.544.75-1.462-.49-1.693-2.275Z" fill="#dfebf3"/>
  <path d="M7.696,27.182c-.157.267-.486.401-.852.343-.661-.106-1.172-.646-1.326-1.243.033-.107.06-.265.122-.343.114-.143.305-.235.542-.201.655.322,1.346.766,1.514,1.445Z" fill="#fff"/>
</svg>
