<?xml version='1.0' encoding='utf-8'?>
<svg xmlns="http://www.w3.org/2000/svg" viewBox="0 0 30.286 32">
  <path d="M29.689,6.025c-.178-.457-.604-.725-.947-.787-.627-.116-1.025.225-1.269.49l-3.919,4.268-2.9-1.019-.805-2.536,3.696-3.965c.36-.386.491-.824.389-1.302-.101-.474-.497-.822-1.085-.954-2.827-.63-5.788.113-7.921,1.991-2.153,1.895-3.25,4.722-2.936,7.562.091.826.332,1.617.641,2.55-.147.273-.386.484-.638.705-.12.106-.237.209-.343.317L1.083,24.292c-1.101,1.507-1.378,3.27-.759,4.838.528,1.338,1.715,2.378,3.095,2.716.421.103.839.154,1.249.154,1.195,0,2.317-.433,3.202-1.267l6.888-7.884,3.403-3.964.98-1.112c2.424.617,4.91.228,7.025-1.102,3.567-2.242,5.048-6.719,3.522-10.645ZM14.122,11.568c-1.041-2.638-.563-5.448,1.28-7.518,1.655-1.858,4.189-2.739,6.569-2.317-.019.025-.052.062-.112.124l-3.508,3.789c-.265.286-.233.791-.146,1.06l1.119,3.486,3.646,1.354c.765.284,1.298.156,1.844-.446l3.571-3.929c.951,3.275-.538,6.775-3.625,8.418-1.599.851-3.322,1.056-5.123.613-.671-.168-1.378.043-1.799.533l-11.049,12.828c-.776.632-1.729.923-2.616.796-.783-.111-1.471-.543-1.975-1.264-.183-.187-.287-.453-.377-.709-.417-1.181-.124-2.406.802-3.358l10.965-11.3c.424-.437.941-1.135.536-2.162Z" fill="#81614d"/>
  <path d="M22.357,1.628c.03.253-.137.377-.308.562l-3.43,3.706c-.142.153-.129.503-.066.698l1.064,3.316,3.478,1.292c.626.232,1.002.138,1.444-.348l3.764-4.142c.157,4.351-1.997,8.336-6.649,8.784h-2.994c-.814.002-1.407.294-1.931.93l-10.309,12.503c-.721.875-2.102,1.109-3.055.961l-1.434-.537c-.232-.237-.355-.542-.461-.843.167-1.559.883-2.953,2.095-4.069l2.477-2.283,4.525-4.645,2.896-3.025c.891-.93.996-2.118.725-3.317-.239-1.06-.224-2.139-.047-3.191.658-3.921,4.461-6.12,8.214-6.351ZM4.569,25.296c-1.215.129-1.916,1.181-1.741,2.315.158,1.022,1.094,1.737,2.235,1.604,1.012-.118,1.806-1.079,1.678-2.19-.117-1.023-.984-1.855-2.173-1.728Z" fill="#a3ab94"/>
  <path d="M1.933,29.353l1.434.537c.953.148,2.333-.086,3.055-.961l10.309-12.503c.525-.636,1.118-.928,1.931-.929h2.994c4.652-.449,6.807-4.435,6.649-8.786.048-.053.085-.148.156-.141.099.01.134.056.176.18,1.208,3.568-.393,7.401-3.705,9.164-1.681.895-3.522,1.105-5.384.645-.489-.121-1.073-.001-1.433.416l-11.095,12.873c-1.657,1.351-3.914,1.203-5.087-.495Z" fill="#858875"/>
  <path d="M22.357,1.628c-3.753.231-7.557,2.43-8.214,6.351-.176,1.052-.192,2.131.047,3.191.271,1.199.165,2.387-.725,3.317l-2.896,3.025-4.525,4.645-2.477,2.283c-1.211,1.117-1.928,2.51-2.095,4.069-.477-1.353-.105-2.718.886-3.737l3.695-3.798,2.811-2.919,4.459-4.583c.506-.52.743-1.049.458-1.77-1.075-2.724-.605-5.704,1.347-7.897,1.811-2.034,4.694-3.021,7.426-2.324.016.149-.127.174-.196.146Z" fill="#cac9cd"/>
  <path d="M7.107,26.983c-.15-1.311-1.257-2.193-2.577-2.052-.658.07-1.23.382-1.613.88-.397.516-.558,1.176-.452,1.856.177,1.144,1.152,1.932,2.329,1.932.103,0,.207-.006.312-.018,1.251-.146,2.149-1.311,2.001-2.597ZM5.225,28.344c-.672.234-1.263.001-1.51-.594-.134-.323-.13-.683.009-.989.094-.204.292-.476.705-.613.746-.239,1.293.272,1.444.717.235.691-.153,1.305-.647,1.479Z" fill="#80633e"/>
</svg>
