<?xml version='1.0' encoding='utf-8'?>
<svg xmlns="http://www.w3.org/2000/svg" viewBox="0 0 31.157 32">
  <path d="M14.35,11.053c.357.361.51,1.102,1.286,1.214.263-.239.762-.575.955-.783.827.756,1.775-1.067,2.388-1.604,2.111-1.849,3.95-3.8,5.813-5.91.682-.772,1.572-1.34,1.591-2.396,1.031-.501,2.191.027,2.775.841.686.957.645,2.204-.142,3.042l-2.29,2.44-4.293,4.402-3.431,3.682,10.207,10.621c.638.663.279,1.922-.121,2.655-.319.585-1.084,1.541-1.967,1.221l-1.693-.573c-1.217-1.81-2.902-3.161-4.447-4.766l-4.774-4.961c-.378-.393-.817-.618-1.277-.128l-5.204,5.546-3.046,2.96c-.576-.075-1.249.002-1.618.432-.354.412-.57,1.009-.605,1.55-.792.041-1.529-.241-2.079-.865-.565-.641-.865-1.395-.546-2.238,0,.13.204.32.261.249l1.792-2.233c.881-1.098,2.196-1.534,3.469-1.959l.07-1.436c1.163-2.162,4.298-3.963,4.546-5.695.15-1.044-.99-1.487-1.446-1.953l-3.454-3.536-1.844-1.89L1.589,4.874c-.953-1.077,1.101-3.7,2.607-3.456.517.084,1.048.445,1.486.887l8.668,8.749Z" fill="#db9e8f"/>
  <path d="M16.592,11.484l.967-1.041,6.592-6.859c.735-.765,1.344-1.579,2.233-2.011-.018,1.057-.909,1.624-1.591,2.396-1.863,2.11-3.702,4.061-5.813,5.91-.613.537-1.561,2.36-2.388,1.604Z" fill="#f1dbd5"/>
  <path d="M28.643,23.937l-7.684-7.944,9.316-9.752c1.6-1.675.83-4.258-.771-5.431-1.921-1.409-3.987-.873-5.602.794l-8.454,8.724L6.601,1.136C5.027-.492,2.744-.229,1.225,1.347c-1.472,1.528-1.719,3.754-.183,5.348l7.569,7.857c.42.436.742.896,1.285.984.085.447-.1.857-.468,1.249L1.236,25.508c-.808.86-1.146,2.119-.986,3.259.142,1.016.94,2.028,1.982,2.64,1.287.756,2.909.887,3.949-.192l4.511-4.681,4.84-4.98,7.659,7.838c1.625,1.663,3.153,3.093,4.914,2.39,1.834-.732,3.299-2.598,2.916-4.734-.422-1.333-1.449-2.15-2.378-3.11ZM29.088,29.257c-.319.585-1.084,1.541-1.967,1.221l-1.693-.573c-1.217-1.81-2.902-3.161-4.447-4.766l-4.774-4.961c-.378-.393-.817-.618-1.277-.128l-5.204,5.546-3.046,2.96c-.708.688-1.088,1.924-2.223,1.983-.792.041-1.529-.241-2.079-.865-.565-.641-.865-1.395-.546-2.238.197-.522.358-.97.838-1.479l9.299-9.594c.15-1.044-.99-1.487-1.446-1.953l-3.454-3.536-1.844-1.89L1.589,4.874c-.953-1.076,1.101-3.7,2.607-3.456.517.084,1.048.445,1.486.887l8.669,8.749c.357.361.51,1.102,1.286,1.214.263-.239.762-.575.955-.783l.967-1.041,6.592-6.859c.735-.765,1.344-1.579,2.233-2.011,1.031-.501,2.191.027,2.775.841.686.957.645,2.204-.142,3.042l-2.29,2.44-4.293,4.402-3.431,3.682,10.207,10.621c.638.663.279,1.922-.121,2.655Z" fill="#785847"/>
  <path d="M1.832,27.436c.197-.522.358-.97.838-1.479l9.299-9.594c-.248,1.732-3.383,3.533-4.546,5.695l-.07,1.436c-1.273.425-2.588.861-3.469,1.959l-1.792,2.233c-.057.071-.261-.118-.261-.249Z" fill="#f1dbd5"/>
  <path d="M6.681,28.556c-.708.688-1.088,1.924-2.223,1.983.035-.541.25-1.138.605-1.55.369-.43,1.042-.507,1.618-.432Z" fill="#c6826d"/>
</svg>
