<?xml version='1.0' encoding='utf-8'?>
<svg xmlns="http://www.w3.org/2000/svg" viewBox="0 0 26.564 32">
  <path d="M25.776,14.904c-.346-1.043-.793-1.999-1.33-2.841-.582-.912-1.412-1.837-2.402-2.673-.329-.278-1.581-1.312-2.506-1.725.293-.094.546-.214.752-.357.894-.62,1.594-1.484,2.117-2.432.637-1.156,1.128-2.253,1.123-3.588,0-.165-.011-.34-.109-.472-.262-.353-1.088-.553-1.486-.626-.549-.1-1.105-.164-1.663-.183-1.108-.038-2.233.1-3.272.499-.332.127-.653.281-.96.461-.277.163-.541.347-.79.55-.071.058-.141.118-.21.179-.592.555-1.068,1.266-1.581,1.899l-.16.304-.068-.269s-.373-.808-.373-.808c-.193-.418-.494-.861-.966-.984-.616-.16-1.273.25-1.505.819-.199.489-.061.98.182,1.421.454.825.726,1.79,1.066,2.668l-2.679.436c-3.688.967-6.629,3.73-8.068,7.582l-.212.57c-1.048,3.539-.874,7.046.49,9.876,1.643,3.407,4.671,5.755,8.31,6.442,1.415.267,2.793.348,4.08.348.692,0,1.359-.024,1.99-.054l.966-.189c1.011-.198,2.158-.422,3.173-.929l.758-.378c1.845-.922,3.41-2.407,4.406-4.18.473-.843.827-1.631,1.079-2.41.898-2.772.843-5.953-.152-8.957ZM14.381,6.733c-.148-.078-.353-.715-.26-.921h0c1.159-2.584,3.358-4.196,5.577-4.196.318,0,.636.033.952.101l1.136.246c-.606,2.086-1.781,3.637-3.335,4.388-1.279.618-2.727.752-4.069.383ZM23.115,25.77c-1.017,1.417-2.195,2.452-3.509,3.08l-.108-.008-.091.058c-2.375,1.51-6.384,1.538-9.097,1.101-3.433-.551-6.305-2.724-7.681-5.814-2.224-4.994-.525-11.023,3.951-14.025,1.612-1.081,3.464-1.643,5.655-1.714.085.307.143.543.171.812-.385-.046-.78-.063-1.182.104-.531.222-.652.839-.568,1.207.155.675.841.662,1.637.64.647-.015,1.454-.035,2.417.198.272.064.544-.01.746-.205.239-.232.346-.6.275-.936-.163-.768-.898-.787-1.292-.798-.095-.003-.232-.006-.3-.022-.111-.271-.14-.571-.15-.883,3.91-.212,6.829,1.309,9.176,4.784.562.832.949,1.907,1.129,2.474,1.128,3.539.727,6.962-1.129,9.637l-.066.094.015.217ZM18.848,7.826h0s0,0,0,0c0,0,0,0,0,0Z" fill="#825e4e"/>
  <path d="M20.718,1.398l1.473.318c-.556,2.176-1.74,4.03-3.599,4.929-1.354.654-2.869.798-4.307.401-.356-.098-.624-1.007-.463-1.367,1.365-3.043,4.148-4.872,6.896-4.28ZM18.121,3.81c.124-.164.163-.414.117-.535-.243-.639-3.184.955-3.798,2.76,1.089-.043,3.313-1.739,3.681-2.225Z" fill="#abc28f"/>
  <path d="M24.606,15.722c-.275-.863-.68-1.832-1.17-2.558-2.422-3.587-5.546-5.235-9.778-4.906.004.41-.002.913.203,1.368.174.386,1.368-.153,1.55.707.082.387-.195.859-.625.755-2.17-.524-3.633.181-3.811-.593-.059-.257.034-.689.375-.832.447-.187.896-.094,1.402-.032-.003-.577-.105-.931-.271-1.518-2.141.033-4.219.526-6.083,1.776C1.962,12.867-.029,19.018,2.332,24.32c1.521,3.416,4.634,5.475,7.927,6.004,2.913.468,9.093.833,13.19-4.46,1.739-2.247,2.251-6.71,1.157-10.142ZM4.817,21.181c-.353.18-.8.132-.987-.153-.218-.333-.147-1.064.277-1.288.417-.22.849.076.988.32.224.395.007.975-.278,1.121ZM6.492,12.01c-.038.155.03.385-.138.579l-1.677,1.952c-.475.553-.482,1.434-1.227,1.803-.322-.885,0-1.773.534-2.504,1.37-1.877,2.731-2.742,2.507-1.831ZM15.906,21.712c-.104-.373.278-.927.701-.856.387.064.501.426.531.74.024.25-.033.805-.419.815-.396.01-.743-.444-.813-.699Z" fill="#eed157"/>
  <path d="M12.867,6.761c-.844-1.061-1.109-2.339-1.189-3.65.496,1.161,1.176,2.252,1.189,3.65Z" fill="#b67f6b"/>
  <path d="M4.677,14.542c-.475.553-.482,1.434-1.227,1.803-.322-.885,0-1.773.534-2.504,1.37-1.877,2.731-2.742,2.507-1.831-.038.155.03.385-.138.579l-1.677,1.952Z" fill="#fafafb"/>
  <path d="M4.107,19.74c.417-.22.849.076.988.32.224.395.007.975-.278,1.121-.353.18-.8.132-.987-.153-.218-.333-.147-1.064.277-1.288Z" fill="#cebd6e"/>
  <path d="M19.246,25.774c-.297-.686-1.211-.74-1.558-.08-.332.563-.033,1.402.553,1.544.734.219,1.362-.69,1.013-1.446l-.008-.018Z" fill="#cebd6e"/>
  <path d="M16.72,22.411c-.396.01-.743-.444-.813-.699-.104-.373.278-.927.701-.856.387.064.501.426.531.74.024.25-.033.805-.419.815Z" fill="#cebd6e"/>
  <path d="M18.121,3.81c-.368.486-2.592,2.182-3.681,2.225.614-1.805,3.556-3.399,3.798-2.76.046.12.007.371-.117.535Z" fill="#6d4c3c"/>
</svg>
